<svg xmlns="http://www.w3.org/2000/svg" viewBox="0 0 538.96 766.64"><defs><style>.cls-1{isolation:isolate;}.cls-2{fill:#ffa3bc;mix-blend-mode:multiply;}.cls-3{fill:#fff;}.cls-4{fill:#636466;}.cls-5{fill:#00eef0;}.cls-6{fill:#91deff;}.cls-7{fill:#fdc435;}.cls-8{fill:#fef49c;}.cls-9{fill:#00ff8b;}.cls-10{fill:#fe87f4;}.cls-11{fill:#fffad2;}.cls-12{fill:#f6b279;}.cls-13{fill:#d1ffff;}.cls-14{fill:#c0ffa8;}.cls-15{fill:#68182b;}</style></defs><g class="cls-1"><g id="圖層_2" data-name="圖層 2"><g id="Layer_2" data-name="Layer 2"><path class="cls-2" d="M20.12,380.61c.73,8.59,1.44,17,2,25.08,3.53,51.87,7.76,102.63,12.56,150.87.52,5.22,1,10.49,1.42,15.79,3.12,36.64,6.66,78.16,33,113.69,29,39.09,78.28,64.75,146.42,76.26,25.25,4.27,52.57,5.4,81.19,3.35h0c29.27-2.09,60.24-7.4,94.69-16.24,58.3-14.95,98.91-40.13,124.15-77,29-42.39,24.34-91.86,20.58-131.6-.51-5.41-1-10.77-1.44-16.05-5.84-73.67-12.54-148.86-20.48-229.87-4.36-44.59-11.28-115.23-64.61-149.07,1.7-21.22-1.19-42-3-55.21C438.43,31.67,373.46,23.19,349,20c-30-3.92-62.16-4.56-98.34-2-14.26,1-29,2.52-45.1,4.6-33.11,4.27-71.25,10.28-104.79,27.64a33.22,33.22,0,0,0-3.24,1.92C63.84,74.75,51.4,120.56,64.27,174.72c.2.85.41,1.68.64,2.51C7.32,230,14.62,315.86,20.12,380.61Z"/><path class="cls-3" d="M522,526.7c-.51-5.41-1-10.77-1.44-16.05-5.84-73.67-12.54-148.86-20.47-229.87-4.37-44.59-11.29-115.23-64.61-149.07,1.69-21.22-1.2-42-3-55.21-8.18-58.95-73.15-67.43-97.61-70.62-30-3.92-62.16-4.56-98.34-2-14.26,1-29,2.52-45.1,4.6-33.11,4.27-71.25,10.29-104.79,27.64a35.36,35.36,0,0,0-3.24,1.92C49.72,60.64,37.29,106.45,50.15,160.6c.2.85.41,1.68.64,2.52C-6.79,215.86.5,301.74,6,366.49c.73,8.59,1.44,17,2,25.09,3.53,51.87,7.75,102.62,12.55,150.86.52,5.22,1,10.49,1.42,15.79,3.13,36.64,6.67,78.16,33,113.69,29,39.09,78.28,64.75,146.42,76.26,25.25,4.27,52.58,5.4,81.2,3.35h0c29.27-2.09,60.23-7.4,94.68-16.23,58.31-15,98.91-40.14,124.15-77C530.48,615.92,525.8,566.44,522,526.7Z"/><path class="cls-4" d="M257.43,754.87a2.35,2.35,0,0,1,0-4.7l4.68-.06h0a2.35,2.35,0,0,1,.05,4.7l-4.74.06Zm-14.12-.19h-.07c-1.59,0-3.16-.11-4.74-.19a2.35,2.35,0,0,1,.22-4.7c1.56.07,3.12.14,4.67.19a2.36,2.36,0,0,1-.08,4.71Zm32.93-.39a2.35,2.35,0,0,1-.13-4.7c1.55-.09,3.11-.18,4.67-.29a2.47,2.47,0,0,1,2.5,2.19,2.35,2.35,0,0,1-2.19,2.51l-4.72.29Zm-51.71-.77h-.21c-1.58-.15-3.15-.3-4.71-.47a2.35,2.35,0,0,1,.48-4.68c1.55.16,3.1.32,4.65.46a2.35,2.35,0,0,1-.21,4.7Zm70.46-.7a2.35,2.35,0,0,1-.23-4.69c1.55-.15,3.1-.32,4.65-.49a2.35,2.35,0,1,1,.52,4.67c-1.57.18-3.14.34-4.7.5Zm-89.13-1.57-.37,0c-1.49-.23-3-.47-4.46-.72a2.44,2.44,0,0,1-2-2.71,2.3,2.3,0,0,1,2.57-2l.29,0c1.42.24,2.89.47,4.36.7a2.35,2.35,0,0,1-.35,4.68Zm107.81-.7a2.35,2.35,0,0,1-.32-4.68l4.63-.68a2.35,2.35,0,1,1,.71,4.65l-4.68.69ZM187.34,747.9a2.61,2.61,0,0,1-.48,0c-1.55-.32-3.09-.65-4.63-1a2.35,2.35,0,1,1,1-4.59l4.58,1a2.35,2.35,0,0,1-.47,4.66Zm144.91-.35a2.35,2.35,0,0,1-.41-4.66l4.6-.85a2.37,2.37,0,0,1,2.75,1.87,2.34,2.34,0,0,1-1.87,2.75l-4.65.86Zm18.47-3.63a2.36,2.36,0,0,1-.49-4.66l4.58-1a2.36,2.36,0,1,1,1,4.6l-4.61,1A2.2,2.2,0,0,1,350.72,743.92ZM169,743.62a2.44,2.44,0,0,1-.59-.07l-4.58-1.24a2.35,2.35,0,1,1,1.26-4.53c1.49.41,3,.82,4.51,1.21a2.35,2.35,0,0,1-.6,4.63Zm200.07-3.91a2.35,2.35,0,0,1-.55-4.64l4.55-1.13a2.36,2.36,0,1,1,1.15,4.57l-4.59,1.13A2.1,2.1,0,0,1,369.07,739.71ZM151,738.32a2.33,2.33,0,0,1-.73-.12c-1.51-.5-3-1-4.49-1.52a2.35,2.35,0,1,1,1.53-4.44c1.47.5,2.94,1,4.43,1.49a2.35,2.35,0,0,1-.74,4.59Zm236.33-3.38a2.35,2.35,0,0,1-.66-4.61l4.5-1.33a2.35,2.35,0,0,1,1.35,4.51c-1.51.46-3,.9-4.54,1.34A2.48,2.48,0,0,1,387.28,734.94Zm-254-3.09a2.4,2.4,0,0,1-.89-.18q-2.19-.9-4.37-1.83a2.35,2.35,0,0,1,1.85-4.32q2.13.91,4.31,1.8a2.35,2.35,0,0,1-.9,4.53Zm271.94-2.61a2.36,2.36,0,0,1-.78-4.58c1.48-.52,2.94-1,4.39-1.58a2.36,2.36,0,0,1,1.63,4.42q-2.2.81-4.46,1.6A2.38,2.38,0,0,1,405.21,729.24Zm-289.07-5.16a2.36,2.36,0,0,1-1.06-.25q-2.13-1.08-4.22-2.19a2.35,2.35,0,1,1,2.2-4.15q2.06,1.08,4.13,2.13a2.35,2.35,0,0,1-1,4.46Zm306.61-1.67a2.36,2.36,0,0,1-.93-4.52Q424,717,426.08,716a2.35,2.35,0,0,1,1.94,4.28q-2.14,1-4.34,1.92A2.36,2.36,0,0,1,422.75,722.41Zm-323-7.55a2.37,2.37,0,0,1-1.25-.35c-1.36-.85-2.69-1.7-4-2.58A2.35,2.35,0,1,1,97.07,708q1.94,1.28,3.91,2.51a2.35,2.35,0,0,1-1.24,4.35Zm340-.57a2.35,2.35,0,0,1-1.11-4.43q2.07-1.11,4.09-2.23a2.35,2.35,0,0,1,2.3,4.11c-1.38.77-2.77,1.52-4.18,2.27A2.31,2.31,0,0,1,439.72,714.29Zm16.2-9.56a2.36,2.36,0,0,1-1.29-4.33q2-1.27,3.85-2.59a2.35,2.35,0,0,1,2.68,3.86c-1.29.91-2.61,1.79-4,2.67A2.35,2.35,0,0,1,455.92,704.73Zm-371.61-.64a2.36,2.36,0,0,1-1.44-.49c-1.26-1-2.5-2-3.72-3a2.35,2.35,0,1,1,3-3.63q1.77,1.47,3.62,2.91a2.35,2.35,0,0,1-1.46,4.2ZM471.1,693.61a2.36,2.36,0,0,1-1.49-4.18q1.8-1.47,3.54-3a2.35,2.35,0,0,1,3.08,3.56q-1.78,1.56-3.65,3.07A2.31,2.31,0,0,1,471.1,693.61ZM70.17,691.7a2.35,2.35,0,0,1-1.65-.68c-1.14-1.12-2.25-2.26-3.35-3.41a2.35,2.35,0,0,1,3.4-3.24q1.61,1.67,3.25,3.3a2.35,2.35,0,0,1,0,3.33A2.4,2.4,0,0,1,70.17,691.7ZM485,680.88a2.35,2.35,0,0,1-1.69-4q1.61-1.67,3.17-3.38a2.35,2.35,0,1,1,3.48,3.16q-1.61,1.77-3.27,3.49A2.34,2.34,0,0,1,485,680.88ZM57.62,677.69a2.39,2.39,0,0,1-1.85-.89q-1.35-1.72-2.66-3.48l1.66-1.71,1.89-1.4-1.89,1.4,2.11-1.1c.85,1.14,1.71,2.26,2.59,3.37a2.35,2.35,0,0,1-1.85,3.81Zm439.57-11.1a2.39,2.39,0,0,1-1.43-.48,2.35,2.35,0,0,1-.45-3.29c.93-1.23,1.85-2.48,2.74-3.74a2.36,2.36,0,1,1,3.84,2.73q-1.39,2-2.83,3.85A2.35,2.35,0,0,1,497.19,666.59ZM47,662.18A2.38,2.38,0,0,1,45,661c-.81-1.39-1.59-2.77-2.35-4.17a2.35,2.35,0,0,1,4.14-2.24q1.1,2,2.27,4a2.35,2.35,0,0,1-.84,3.22A2.3,2.3,0,0,1,47,662.18Zm460.5-11.3a2.36,2.36,0,0,1-2.05-3.5q1.13-2,2.15-4.07a2.35,2.35,0,0,1,4.21,2.11q-1.08,2.13-2.26,4.25A2.34,2.34,0,0,1,507.51,650.88ZM38.6,645.36a2.35,2.35,0,0,1-2.17-1.44q-.93-2.2-1.78-4.43a2.35,2.35,0,1,1,4.38-1.7c.56,1.44,1.14,2.87,1.74,4.31a2.35,2.35,0,0,1-2.17,3.26Zm476.78-11.57a2.33,2.33,0,0,1-.82-.15,2.36,2.36,0,0,1-1.39-3c.55-1.45,1.06-2.9,1.54-4.36a2.35,2.35,0,0,1,4.47,1.48c-.5,1.52-1,3-1.6,4.53A2.34,2.34,0,0,1,515.38,633.79Zm-483-6.16a2.36,2.36,0,0,1-2.26-1.7c-.45-1.53-.87-3-1.27-4.58a2.35,2.35,0,1,1,4.55-1.21c.39,1.5.81,3,1.24,4.48a2.36,2.36,0,0,1-1.6,2.91A2.16,2.16,0,0,1,32.34,627.63Zm488.37-11.89a2.32,2.32,0,0,1-2.3-2.86c.34-1.52.65-3,1-4.55a2.35,2.35,0,0,1,4.62.9c-.3,1.56-.62,3.12-1,4.68A2.36,2.36,0,0,1,520.71,615.74Zm-492.77-6.4a2.35,2.35,0,0,1-2.3-1.9c-.31-1.56-.59-3.11-.87-4.67A2.35,2.35,0,0,1,29.4,602c.27,1.52.56,3,.85,4.57a2.34,2.34,0,0,1-1.85,2.76A2.49,2.49,0,0,1,27.94,609.34Zm495.79-12.17h-.25a2.36,2.36,0,0,1-2.09-2.59c.16-1.54.3-3.09.43-4.63a2.38,2.38,0,0,1,2.53-2.16,2.35,2.35,0,0,1,2.15,2.53c-.12,1.59-.27,3.17-.44,4.76A2.35,2.35,0,0,1,523.73,597.17ZM25,590.76a2.35,2.35,0,0,1-2.33-2.06c-.2-1.56-.4-3.13-.58-4.69a2.36,2.36,0,1,1,4.68-.54c.18,1.54.37,3.09.57,4.64a2.36,2.36,0,0,1-2,2.63Zm499.83-12.38h0a2.35,2.35,0,0,1-2.32-2.39c0-1.25,0-2.5,0-3.74v-.93a2.36,2.36,0,0,1,4.71,0v.93q0,1.9,0,3.81A2.35,2.35,0,0,1,524.82,578.38ZM23,572.05a2.36,2.36,0,0,1-2.34-2.14l-.42-4.7a2.35,2.35,0,0,1,2.14-2.54,2.32,2.32,0,0,1,2.55,2.13l.42,4.68A2.35,2.35,0,0,1,23.19,572Zm501.48-12.49a2.35,2.35,0,0,1-2.35-2.23c-.08-1.57-.16-3.13-.26-4.68a2.36,2.36,0,0,1,2.2-2.49,2.33,2.33,0,0,1,2.5,2.2c.09,1.57.18,3.15.26,4.73a2.36,2.36,0,0,1-2.24,2.47ZM21.34,553.3A2.36,2.36,0,0,1,19,551.15l-.42-4.68a2.35,2.35,0,1,1,4.68-.43l.43,4.69a2.36,2.36,0,0,1-2.14,2.56Zm501.78-12.52a2.34,2.34,0,0,1-2.34-2.15l-.42-4.68a2.35,2.35,0,0,1,2.12-2.56,2.39,2.39,0,0,1,2.56,2.13l.43,4.7a2.35,2.35,0,0,1-2.14,2.55ZM19.54,534.56a2.36,2.36,0,0,1-2.34-2.13l-.45-4.69a2.36,2.36,0,0,1,2.12-2.57,2.3,2.3,0,0,1,2.56,2.12l.46,4.69a2.36,2.36,0,0,1-2.12,2.57ZM522,529.05a2.35,2.35,0,0,1-2.34-2.13l-.44-4.69a2.35,2.35,0,0,1,4.68-.44l.45,4.69a2.36,2.36,0,0,1-2.13,2.56ZM17.76,515.81a2.36,2.36,0,0,1-2.34-2.14L15,509a2.35,2.35,0,1,1,4.68-.43l.44,4.68A2.36,2.36,0,0,1,18,515.8Zm502.62-5.5a2.36,2.36,0,0,1-2.34-2.17l-.37-4.69a2.34,2.34,0,0,1,2.15-2.53,2.41,2.41,0,0,1,2.54,2.16l.37,4.69a2.37,2.37,0,0,1-2.16,2.53ZM16.06,497.05a2.36,2.36,0,0,1-2.34-2.15l-.42-4.69a2.35,2.35,0,0,1,2.14-2.55A2.32,2.32,0,0,1,18,489.79l.42,4.69A2.36,2.36,0,0,1,16.27,497Zm502.82-5.51a2.35,2.35,0,0,1-2.34-2.16l-.39-4.69a2.35,2.35,0,0,1,4.69-.37l.38,4.68a2.35,2.35,0,0,1-2.15,2.54ZM14.43,478.28a2.35,2.35,0,0,1-2.34-2.15l-.4-4.7a2.35,2.35,0,0,1,2.15-2.54A2.32,2.32,0,0,1,16.38,471l.39,4.69a2.35,2.35,0,0,1-2.14,2.54Zm502.91-5.49a2.35,2.35,0,0,1-2.34-2.16l-.39-4.68a2.37,2.37,0,0,1,2.15-2.54,2.45,2.45,0,0,1,2.54,2.16l.39,4.68a2.36,2.36,0,0,1-2.16,2.54ZM12.87,459.51a2.35,2.35,0,0,1-2.34-2.16l-.38-4.7a2.35,2.35,0,1,1,4.69-.38l.38,4.7a2.35,2.35,0,0,1-2.16,2.53ZM515.76,454a2.34,2.34,0,0,1-2.33-2.15l-.4-4.69a2.35,2.35,0,0,1,2.15-2.54,2.42,2.42,0,0,1,2.54,2.15l.39,4.68A2.35,2.35,0,0,1,516,454ZM11.39,440.73a2.34,2.34,0,0,1-2.34-2.17l-.36-4.7a2.35,2.35,0,1,1,4.69-.35l.36,4.69a2.36,2.36,0,0,1-2.17,2.53Zm502.74-5.53a2.26,2.26,0,0,1-2.31-2.06l-.4-4.67a2.35,2.35,0,0,1,4.69-.42l.38,4.49a2.43,2.43,0,0,1-2.13,2.65ZM10,422a2.36,2.36,0,0,1-2.35-2.19l-.34-4.7a2.35,2.35,0,1,1,4.69-.33l.35,4.69A2.36,2.36,0,0,1,10.15,422Zm502.55-5.41a2.36,2.36,0,0,1-2.34-2.15l-.41-4.68a2.35,2.35,0,1,1,4.69-.4l.41,4.67a2.36,2.36,0,0,1-2.14,2.55ZM8.63,403.17A2.35,2.35,0,0,1,6.29,401L6,396.28a2.36,2.36,0,0,1,2.19-2.51A2.41,2.41,0,0,1,10.66,396l.32,4.69a2.35,2.35,0,0,1-2.18,2.52Zm502.25-5.36a2.35,2.35,0,0,1-2.34-2.14l-.42-4.67a2.35,2.35,0,0,1,4.69-.43l.41,4.68a2.34,2.34,0,0,1-2.13,2.55ZM7.29,384.39a2.35,2.35,0,0,1-2.35-2.17l-.37-4.68a2.35,2.35,0,1,1,4.69-.39l.38,4.7a2.35,2.35,0,0,1-2.16,2.53Zm501.9-5.31a2.36,2.36,0,0,1-2.34-2.14l-.42-4.68a2.35,2.35,0,1,1,4.68-.42l.43,4.67a2.36,2.36,0,0,1-2.13,2.56ZM5.73,365.63a2.34,2.34,0,0,1-2.34-2.15l-.4-4.7a2.35,2.35,0,0,1,2.15-2.54,2.31,2.31,0,0,1,2.54,2.15l.39,4.68a2.34,2.34,0,0,1-2.13,2.55Zm501.71-5.39a2.24,2.24,0,0,1-2.3-2l-.44-4.67a2.35,2.35,0,0,1,2.13-2.56,2.32,2.32,0,0,1,2.56,2.12l.41,4.46a2.44,2.44,0,0,1-2.11,2.67ZM4.21,346.87a2.35,2.35,0,0,1-2.34-2.18L1.53,340a2.35,2.35,0,0,1,2.19-2.51,2.4,2.4,0,0,1,2.51,2.19l.33,4.68a2.35,2.35,0,0,1-2.17,2.52Zm501.52-5.25a2.36,2.36,0,0,1-2.34-2.14L503,334.8a2.34,2.34,0,0,1,2.12-2.55,2.37,2.37,0,0,1,2.56,2.13l.44,4.66A2.35,2.35,0,0,1,506,341.6ZM3,328.07a2.34,2.34,0,0,1-2.34-2.23l-.22-4.72a2.34,2.34,0,0,1,2.25-2.45,2.38,2.38,0,0,1,2.45,2.25l.22,4.68a2.36,2.36,0,0,1-2.24,2.47Zm500.91-5.28a2.25,2.25,0,0,1-2.31-2l-.45-4.66a2.36,2.36,0,0,1,4.69-.46l.42,4.47a2.44,2.44,0,0,1-2.11,2.67ZM2.4,309.26A2.36,2.36,0,0,1,0,306.94c0-1.57,0-3.15,0-4.73a2.35,2.35,0,0,1,2.34-2.36h0a2.35,2.35,0,0,1,2.36,2.34c0,1.56,0,3.12,0,4.68a2.36,2.36,0,0,1-2.32,2.39Zm499.77-5.09a2.35,2.35,0,0,1-2.34-2.12l-.45-4.68a2.35,2.35,0,0,1,2.12-2.56,2.32,2.32,0,0,1,2.56,2.12l.45,4.66a2.35,2.35,0,0,1-2.11,2.57ZM2.56,290.43H2.47A2.36,2.36,0,0,1,.2,288c.06-1.58.12-3.15.19-4.73A2.33,2.33,0,0,1,2.85,281a2.36,2.36,0,0,1,2.24,2.47C5,285,5,286.6,4.91,288.16A2.36,2.36,0,0,1,2.56,290.43Zm497.79-5a2.35,2.35,0,0,1-2.34-2.13l-.46-4.67a2.35,2.35,0,1,1,4.68-.46l.46,4.69a2.35,2.35,0,0,1-2.12,2.56ZM3.73,271.65H3.51a2.35,2.35,0,0,1-2.12-2.57c.15-1.57.31-3.15.49-4.72a2.35,2.35,0,1,1,4.67.53c-.17,1.54-.33,3.09-.48,4.64A2.35,2.35,0,0,1,3.73,271.65Zm494.71-4.93a2.36,2.36,0,0,1-2.33-2.1l-.54-4.65a2.35,2.35,0,0,1,2.06-2.62,2.37,2.37,0,0,1,2.61,2l.54,4.71a2.34,2.34,0,0,1-2.08,2.59ZM6.19,253l-.39,0a2.36,2.36,0,0,1-1.93-2.72c.27-1.57.56-3.13.86-4.68a2.33,2.33,0,0,1,2.76-1.86,2.36,2.36,0,0,1,1.86,2.76c-.3,1.52-.58,3-.84,4.57A2.35,2.35,0,0,1,6.19,253ZM496,248a2.35,2.35,0,0,1-2.32-2q-.34-2.29-.72-4.62a2.35,2.35,0,1,1,4.64-.75c.26,1.57.5,3.13.73,4.68a2.35,2.35,0,0,1-2,2.67A2,2,0,0,1,496,248ZM10.21,234.62a2.62,2.62,0,0,1-.61-.08,2.36,2.36,0,0,1-1.66-2.89c.41-1.53.84-3.06,1.29-4.58a2.36,2.36,0,1,1,4.52,1.34c-.44,1.48-.86,3-1.27,4.46A2.36,2.36,0,0,1,10.21,234.62Zm482.52-5.12a2.36,2.36,0,0,1-2.3-1.87c-.32-1.52-.65-3-1-4.57a2.35,2.35,0,0,1,4.59-1c.35,1.54.69,3.09,1,4.63a2.36,2.36,0,0,1-1.82,2.79A2.72,2.72,0,0,1,492.73,229.5ZM16.07,216.74a2.35,2.35,0,0,1-2.19-3.21q.87-2.22,1.81-4.42A2.35,2.35,0,0,1,20,211c-.61,1.42-1.19,2.85-1.76,4.29A2.34,2.34,0,0,1,16.07,216.74Zm472.15-5.51a2.36,2.36,0,0,1-2.26-1.7c-.43-1.48-.88-3-1.34-4.45a2.35,2.35,0,0,1,4.49-1.41c.48,1.52.93,3,1.37,4.55a2.34,2.34,0,0,1-1.6,2.91A2.16,2.16,0,0,1,488.22,211.23ZM24,199.69a2.28,2.28,0,0,1-1.12-.29,2.35,2.35,0,0,1-.94-3.19c.77-1.4,1.56-2.78,2.37-4.16a2.35,2.35,0,1,1,4.05,2.4q-1.19,2-2.29,4A2.35,2.35,0,0,1,24,199.69Zm458.15-6.27a2.37,2.37,0,0,1-2.19-1.48c-.57-1.44-1.15-2.87-1.77-4.28a2.35,2.35,0,1,1,4.32-1.87q.94,2.19,1.83,4.41a2.36,2.36,0,0,1-1.32,3.06A2.39,2.39,0,0,1,482.16,193.42Zm-448-9.57a2.32,2.32,0,0,1-1.41-.47,2.35,2.35,0,0,1-.48-3.29c.95-1.27,1.93-2.54,2.93-3.78a2.35,2.35,0,1,1,3.67,2.94c-1,1.21-1.91,2.42-2.83,3.65A2.33,2.33,0,0,1,34.17,183.85Zm440-7.47a2.35,2.35,0,0,1-2.07-1.23q-1.09-2-2.27-4a2.35,2.35,0,0,1,4-2.4q1.23,2.06,2.37,4.16a2.35,2.35,0,0,1-.94,3.19A2.32,2.32,0,0,1,474.21,176.38ZM46.46,169.62a2.31,2.31,0,0,1-1.66-.68,2.35,2.35,0,0,1,0-3.33c1.12-1.12,2.26-2.23,3.44-3.33a2.35,2.35,0,0,1,3.21,3.44c-1.13,1.06-2.24,2.13-3.31,3.21A2.36,2.36,0,0,1,46.46,169.62Zm417.6-9.05a2.33,2.33,0,0,1-1.88-.94q-1.38-1.83-2.84-3.62a2.35,2.35,0,1,1,3.64-3q1.51,1.86,3,3.77a2.35,2.35,0,0,1-1.88,3.77ZM48,153A2.35,2.35,0,0,1,45.73,151c-.29-1.57-.56-3.14-.8-4.69a2.35,2.35,0,1,1,4.65-.73c.23,1.52.5,3,.78,4.57a2.36,2.36,0,0,1-1.89,2.74A2.15,2.15,0,0,1,48,153Zm403.51-6.4a2.32,2.32,0,0,1-1.61-.64c-1.11-1-2.25-2.09-3.42-3.1a2.35,2.35,0,0,1,3.09-3.55c1.21,1.06,2.4,2.13,3.55,3.22a2.36,2.36,0,0,1-1.61,4.07ZM436.81,134.9a2.36,2.36,0,0,1-1.29-.38l-1.27-.82a2.36,2.36,0,0,1-1.08-2.17c.08-1,.15-2.08.22-3.12a2.35,2.35,0,0,1,4.7.29l-.12,1.8.13.08a2.35,2.35,0,0,1-1.29,4.32Zm-391.2-.6a2.35,2.35,0,0,1-2.34-2.18c-.12-1.6-.21-3.19-.29-4.76a2.35,2.35,0,0,1,4.7-.22c.07,1.53.17,3.08.28,4.63a2.34,2.34,0,0,1-2.17,2.52ZM436,116.8a2.35,2.35,0,0,1-2.35-2.31c0-1.57-.09-3.12-.15-4.66a2.36,2.36,0,0,1,2.27-2.44h.09a2.35,2.35,0,0,1,2.35,2.26c.06,1.57.11,3.15.14,4.75a2.35,2.35,0,0,1-2.3,2.4ZM45.36,115.49h-.13A2.36,2.36,0,0,1,43,113c.09-1.61.2-3.2.33-4.78a2.3,2.3,0,0,1,2.55-2.14A2.35,2.35,0,0,1,48,108.65c-.13,1.52-.24,3.06-.32,4.62A2.34,2.34,0,0,1,45.36,115.49ZM434.85,98a2.35,2.35,0,0,1-2.34-2.12c-.15-1.59-.32-3.14-.49-4.65a2.36,2.36,0,0,1,2.08-2.6,2.39,2.39,0,0,1,2.6,2.08c.17,1.53.33,3.1.49,4.71A2.35,2.35,0,0,1,435.08,98ZM47.67,96.83a1.93,1.93,0,0,1-.47,0A2.34,2.34,0,0,1,45.37,94c.32-1.58.67-3.14,1.05-4.69A2.35,2.35,0,1,1,51,90.45c-.36,1.48-.7,3-1,4.5A2.36,2.36,0,0,1,47.67,96.83Zm384.88-17.5a2.35,2.35,0,0,1-2.32-2l-.07-.46c-.19-1.4-.42-2.75-.67-4.07A2.34,2.34,0,0,1,431.35,70a2.37,2.37,0,0,1,2.76,1.86c.27,1.4.51,2.83.71,4.29l.07.46a2.36,2.36,0,0,1-2,2.66A1.87,1.87,0,0,1,432.55,79.33ZM53,78.81a2.45,2.45,0,0,1-.87-.17,2.34,2.34,0,0,1-1.31-3.06c.59-1.5,1.23-3,1.89-4.43a2.35,2.35,0,1,1,4.28,2q-.95,2.07-1.8,4.21A2.37,2.37,0,0,1,53,78.81Zm8.72-16.64a2.36,2.36,0,0,1-2-3.66q1.35-2,2.81-3.94a2.35,2.35,0,1,1,3.75,2.84c-.91,1.21-1.8,2.45-2.65,3.72A2.36,2.36,0,0,1,61.72,62.17Zm366.14-1a2.36,2.36,0,0,1-2.18-1.47c-.57-1.42-1.19-2.81-1.84-4.15a2.34,2.34,0,0,1,1.09-3.14,2.37,2.37,0,0,1,3.15,1.08c.69,1.44,1.35,2.92,2,4.45a2.34,2.34,0,0,1-1.3,3.06A2.29,2.29,0,0,1,427.86,61.18ZM73.91,47.9a2.35,2.35,0,0,1-1.6-4.08Q74.1,42.18,76,40.64a2.36,2.36,0,1,1,3,3.65q-1.77,1.44-3.44,3A2.36,2.36,0,0,1,73.91,47.9ZM418.49,45a2.32,2.32,0,0,1-1.85-.9c-.94-1.19-1.92-2.35-2.92-3.47a2.35,2.35,0,0,1,3.49-3.15c1.08,1.2,2.13,2.43,3.13,3.72a2.35,2.35,0,0,1-1.85,3.8Zm-329.2-7.8a2.35,2.35,0,0,1-1.06-4.46c1.43-.71,2.86-1.39,4.3-2.06a2.35,2.35,0,1,1,2,4.27c-1.4.65-2.79,1.31-4.18,2A2.31,2.31,0,0,1,89.29,37.16ZM405,31.88a2.32,2.32,0,0,1-1.41-.47c-1.23-.93-2.47-1.81-3.74-2.66a2.35,2.35,0,0,1,2.62-3.91q2,1.35,3.95,2.81a2.35,2.35,0,0,1,.46,3.29A2.32,2.32,0,0,1,405,31.88ZM106.53,29.64a2.35,2.35,0,0,1-.84-4.55c1.48-.57,3-1.11,4.46-1.65a2.35,2.35,0,0,1,1.58,4.43c-1.46.53-2.91,1.06-4.36,1.62A2.48,2.48,0,0,1,106.53,29.64Zm17.84-6a2.36,2.36,0,0,1-.65-4.62c1.52-.44,3-.87,4.56-1.29a2.35,2.35,0,0,1,1.24,4.54c-1.5.41-3,.84-4.5,1.27A2.05,2.05,0,0,1,124.37,23.67Zm264.54-1.46a2.42,2.42,0,0,1-1-.22q-2.1-1-4.2-1.9a2.35,2.35,0,0,1,1.84-4.32q2.2.93,4.38,2a2.35,2.35,0,0,1-1,4.47ZM142.6,19a2.35,2.35,0,0,1-.51-4.65c1.54-.34,3.08-.68,4.62-1a2.35,2.35,0,1,1,1,4.6c-1.52.32-3.05.65-4.57,1A2.29,2.29,0,0,1,142.6,19Zm228.73-3.51a2.33,2.33,0,0,1-.68-.1c-1.5-.45-3-.88-4.46-1.28a2.36,2.36,0,0,1-1.65-2.89,2.33,2.33,0,0,1,2.89-1.65c1.51.41,3.05.85,4.59,1.32a2.35,2.35,0,0,1-.69,4.6Zm-210.28-.14a2.35,2.35,0,0,1-.4-4.67c1.56-.27,3.11-.54,4.66-.79A2.38,2.38,0,0,1,168,11.82a2.35,2.35,0,0,1-1.94,2.7q-2.31.38-4.62.78A1.9,1.9,0,0,1,161.05,15.34Zm18.6-2.91a2.35,2.35,0,0,1-.32-4.68L184,7.11a2.35,2.35,0,0,1,.64,4.66l-4.66.64A1.83,1.83,0,0,1,179.65,12.43ZM353,11a3.42,3.42,0,0,1-.45,0c-1.57-.31-3.1-.58-4.58-.83a2.35,2.35,0,0,1-1.93-2.71,2.4,2.4,0,0,1,2.71-1.93c1.52.26,3.08.54,4.69.84A2.36,2.36,0,0,1,353,11ZM198.32,10A2.35,2.35,0,0,1,198,5.3l4.68-.55a2.35,2.35,0,1,1,.55,4.67l-4.66.55A1.42,1.42,0,0,1,198.32,10ZM334.4,8.17l-.3,0-4.65-.57A2.35,2.35,0,0,1,327.4,5,2.38,2.38,0,0,1,330,2.9l4.69.58a2.35,2.35,0,0,1-.3,4.69ZM217,7.92a2.35,2.35,0,0,1-.22-4.69l4.7-.45a2.35,2.35,0,0,1,.43,4.69l-4.67.44Zm18.75-1.61a2.35,2.35,0,0,1-.16-4.7l4.7-.32a2.4,2.4,0,0,1,2.5,2.19A2.34,2.34,0,0,1,240.62,6l-4.68.33Zm79.92-.11h-.2c-1.55-.13-3.1-.25-4.66-.36a2.34,2.34,0,0,1-2.18-2.51,2.43,2.43,0,0,1,2.51-2.18c1.58.11,3.15.23,4.72.36a2.35,2.35,0,0,1-.19,4.7Zm-61.13-1a2.35,2.35,0,0,1-.1-4.7l4.72-.18a2.3,2.3,0,0,1,2.44,2.26A2.36,2.36,0,0,1,259.35,5l-4.68.18Zm42.34-.15h-.09l-4.68-.15a2.35,2.35,0,0,1-2.28-2.42A2.47,2.47,0,0,1,292.27.2L297,.36a2.36,2.36,0,0,1-.1,4.71Zm-23.52-.34a2.36,2.36,0,0,1,0-4.71l4.7,0a2.36,2.36,0,0,1,0,4.71l-4.68,0Z"/><path class="cls-5" d="M389.73,143.59a2,2,0,0,0-1.32-.37,2,2,0,0,0-1.18.5c-13.15,11.61-32.44,14.66-49.46,17.36-25.83,4.09-51.63,7.07-76.67,8.86-11,.79-22,1.36-32.8,1.7-30,.94-65.15,1.3-99.12-3.21-13.87-1.83-23.87-4.87-31.51-9.58a2,2,0,0,0-1.19-.29,2,2,0,0,0-1.26.56,2,2,0,0,0-.33,2.45c5.4,9.2,14.34,14.66,27.32,16.7,30.28,4.75,63.32,6.49,101,5.33,14.6-.45,28.17-1.13,41.45-2.08,21.76-1.55,41.76-3.76,61.18-6.74,2.53-.39,5.1-.75,7.68-1.12,23.58-3.37,48-6.86,56.85-27.66A2,2,0,0,0,389.73,143.59Z"/><path class="cls-6" d="M393,87a2,2,0,0,0-1.45-1.58,1.85,1.85,0,0,0-.66-.06,2,2,0,0,0-1.39.7c-13.08,15.42-34.16,18.57-54.53,21.61l-.82.12c-25.7,3.85-51.31,6.69-76.1,8.46-8.57.62-17.19,1.11-25.63,1.47-29.83,1.29-65,2.15-100.18-1.25l-1.4-.13c-15.08-1.45-30.68-3-39.39-13.54a2,2,0,0,0-1.69-.73,2.07,2.07,0,0,0-.42.08,2,2,0,0,0-1.42,1.69c-1,8.4-.55,17.47-.13,26.24.17,3.54.43,6.75.78,9.82a1.88,1.88,0,0,0,.15.55c9.73,23.05,44.37,24.33,67.29,25.18,2.14.08,4.17.15,6.07.24,25,1.17,49.59,1.18,73.27,0,9.61-.46,18.52-1,27.22-1.61,19.67-1.4,37.49-3.24,54.5-5.61,3.39-.47,6.92-.89,10.53-1.32,25.39-3,54.17-6.41,66.14-31.28a2,2,0,0,0,.2-.79l.11-2.65C394.53,111.45,395.08,98.73,393,87Z"/><path class="cls-6" d="M370.73,55.91a1.72,1.72,0,0,0-.43-.25c-29-12.12-63.39-12.71-96.13-12.27-17.67.24-36.72.65-56.24,2-41.73,3-74.75,10-101.27,21.5a2,2,0,0,0-.25.2c-6.92,4.41-9.79,8.57-8.76,12.72,2.72,11,34.09,13.49,34.41,13.51,12.83,1,25.34,1.46,37.17,1.4,19.72-.1,39.44-.84,58.61-2.21,2.18-.15,4.35-.32,6.53-.49C271,90,295.1,87.41,318,84.28c12.77-1.75,54.65-8.34,57.43-19.79C376.16,61.52,374.63,58.68,370.73,55.91Z"/><path class="cls-5" d="M389.55,75a39.75,39.75,0,0,0-4.15-7.46,2,2,0,0,0-1.78-.84h-.06a2,2,0,0,0-1.63,1.19c-3.34,7.61-15,13.68-24.86,15.74C319.49,91.5,280.21,95,250.18,97.12c-4.3.31-20,1.37-20,1.37l-16.86,1.22c-30,2.15-61.57,3.68-89.17-3C112.09,93.8,103.43,86.64,102.6,78.9a2,2,0,0,0-1.34-1.68,2,2,0,0,0-2.09.51,37.85,37.85,0,0,0-7.79,12,2,2,0,0,0,0,1.38c7.14,22.1,44,22,66,21.92,3.2,0,6.1,0,8.55,0,25.31.62,50.09.25,73.65-1.12q9.41-.54,18.8-1.21c20.22-1.45,38.26-3.24,55.15-5.47,3.56-.47,7.34-.88,11.23-1.3,23.25-2.49,52.18-5.58,64.77-27.2A2,2,0,0,0,389.55,75Z"/><path class="cls-7" d="M416.78,381.28c-1.12-4.3-4.36-7.47-9.63-9.42-8.71-3.22-18.83-4.36-30.94-3.49A212.78,212.78,0,0,0,351.42,372a2,2,0,0,0-1.24,3.14c1.67,2.31,3.08,4.42,4.31,6.46a2,2,0,0,0,1.85,1h.11c1.07-.14,2.18-.24,3.34-.33,12.34-.88,26.21,1.33,28.85,7.26,2,4.45-3,10.55-7.49,14.88-25.3,24.32-60.78,40.23-95.35,53.8-25.61,10.06-50.78,19.5-77.08,24.58l-3.3.66a121.7,121.7,0,0,1-15.11,2.37c-5.77.42-10.4-.13-14.14-1.66-3.9-1.59-6-3.65-6.45-6.29-.86-5.17,4.53-13.11,15.17-22.38a2,2,0,0,0,.63-2c-.62-2.53-1.17-5.21-1.68-8.2a2,2,0,0,0-1.26-1.54,1.93,1.93,0,0,0-.85-.12,2,2,0,0,0-1.12.44c-4.11,3.33-40,33.05-33.88,50.68,2.46,7.14,11.23,10.88,26.05,11.11,5.43.09,11.05-.07,16.73-.48,43-3.07,86.56-20.05,115.61-32.56,34.83-15,74.1-33.45,99.34-62.88C411.37,401.82,419.12,390.31,416.78,381.28Z"/><path class="cls-8" d="M481.21,604.11c-8.83,41.91-44.43,71.45-108.85,90.31a419.9,419.9,0,0,1-87.79,16.06c-33.85,2.41-66.5.23-97-6.51C155,696.79,78.27,672.06,67.88,597.48c-13.32-95.55-19.1-190.9-23-271.57C42,265.19,44,208.17,100.1,177.85l.33-.34a2.08,2.08,0,0,1,1.08-.41,2,2,0,0,1,1.16.27c14.42,8.45,34.89,9.45,53,10.33,3.27.16,6.47.31,9.57.51,19.38,1.21,39.46,1.46,61.4.77a2,2,0,0,1,2.06,1.89c1,18-3.42,37.89-7.71,57.17-7.64,34.43-15.56,70,6,97.52a2,2,0,0,1,.39,1.65,2,2,0,0,1-1,1.36c-29.59,15.33-46.33,48.27-43.69,85.95a2,2,0,0,1-.81,1.75c-7.54,5.57-45.07,34.38-43.63,55.12.39,5.79,3.83,10.37,10.51,14,12.08,6.57,26.7,6.38,36.65,5.67,5.12-.36,10.17-1,14.5-1.53,5.7-.72,11.83-1.76,19.31-3.26l.25,0a2,2,0,0,1,1.43.47l.37.3a95.81,95.81,0,0,0,59.05,15c42.73-3,77.5-32.13,86.54-72.37a2,2,0,0,1,.91-1.27c27.39-16.68,44.77-34.23,53.14-53.65,3.55-8.24,3.63-14.85.22-19.65-6.16-8.67-24.29-12.4-51.06-10.49a220.63,220.63,0,0,0-24.24,3.09,2.54,2.54,0,0,1-.43.08,2,2,0,0,1-1.62-.64c-19-20.86-47.09-31.6-76.92-29.47a113.58,113.58,0,0,0-30.19,6.47l-1.64.65a1.94,1.94,0,0,1-.57.12,2,2,0,0,1-1.69-.72c-22.53-27.34-14.3-63.63-6.34-98.73,4.42-19.5,8.6-37.93,7.76-54.68a2,2,0,0,1,1.85-2.09H236c8-.35,16.35-.83,24.7-1.42,11.93-.85,24.42-2,37.11-3.35,4-.42,8.64-.77,13.79-1.15,26.41-2,66.31-4.93,80.16-24.56a2,2,0,0,1,1.49-.85,2.22,2.22,0,0,1,.68.07c54.51,15,60.68,77.24,65.2,122.66,5.65,56.85,10.62,112.92,14.32,155.42,2.48,28.45,4.86,57.1,7.09,85.17.37,4.7.81,9.41,1.24,14.14C483.85,557.59,486,581.2,481.21,604.11ZM187,461.81a2.05,2.05,0,0,0-.65-.06,2,2,0,0,0-1.18.49c-7.65,6.73-10.36,11-9.08,14.3s6,3.66,9.43,3.59c1.86,0,3.71-.13,5.56-.26l1.56-.12a2,2,0,0,0,1.61-2.91,107,107,0,0,1-5.87-13.75A2,2,0,0,0,187,461.81Zm179.62-53.09a2,2,0,0,0,1.86-.3,66.76,66.76,0,0,0,8.41-7.42c4.1-4.4,5.46-7.84,4.17-10.54-1.5-3.15-6.15-4.33-14.64-3.73-2,.15-4,.37-5.81.61a2,2,0,0,0-1.55,2.84,103,103,0,0,1,6.27,17.17A2,2,0,0,0,366.62,408.72Z"/><path class="cls-9" d="M358.33,455.26a2,2,0,0,1,.61,2.17c-11.21,33.24-42.09,56.4-78.65,59A93.36,93.36,0,0,1,232.13,507a2,2,0,0,1,.41-3.73c21.75-5.37,45.32-13.41,74.18-25.31,14.89-6.13,32.4-13.66,49.37-22.92a1.93,1.93,0,0,1,.81-.23A2,2,0,0,1,358.33,455.26ZM268.75,341.84a91.91,91.91,0,0,0-24.56,5.25c-24.51,8.8-42.79,26.52-51.45,49.9-9.46,25.53-6.56,54.85,8,80.43a2,2,0,0,0,1.87,1l.2,0c4-.68,7.56-1.41,10.9-2.24a521.64,521.64,0,0,0,78.11-26.3c20.51-8.72,44.17-19.22,65.41-33.54l3-2a2,2,0,0,0,.82-2.14C350.24,368.37,311.44,338.79,268.75,341.84Z"/><path class="cls-10" d="M324.85,621.54c-.7-.95-1.48-1.92-2.28-2.91-1.78-2.19-3.62-4.44-4.5-6.77-2-5.17-1.73-9.21.73-12.71,9.07-12.88,8.38-14.34,8-15.13a2.22,2.22,0,0,0-1.76-1.2,14.29,14.29,0,0,0-2.17,0c-3.37.24-6.43,1.54-9.39,2.8-2.71,1.16-5.27,2.25-7.86,2.43a9.88,9.88,0,0,1-1.44,0c-5.06-.36-8.22-2.86-12.3-7.33l-1.08-1.19c-1.7-1.89-3.47-3.85-5.36-5.59a35.41,35.41,0,0,0-2.78-2.42,2,2,0,0,0-1.84-.33,2,2,0,0,0-1.31,1.33c-1.35,4.52-1.3,9.33-1.23,14,0,2.18,0,4.35-.08,6.42-.38,6.2-4.36,8.08-10.81,10.63a39.94,39.94,0,0,0-8.43,4.14,3.57,3.57,0,0,0-.53.5,2,2,0,0,0,.58,3.12,25.26,25.26,0,0,0,4.85,1.93c1.15.34,2.4.61,3.66.88a25.32,25.32,0,0,1,6.59,2,13.32,13.32,0,0,1,6.65,7.68c1.27,3.21,1.29,7.2,1.32,11.06a58.36,58.36,0,0,0,.36,7.32,12.1,12.1,0,0,0,.23,1.34l.11.56a2,2,0,0,0,2.11,1.65,2,2,0,0,0,1.54-.91c.78-1.21,1.46-2.49,2.07-3.68s1.17-2.29,1.73-3.42c3.85-7.69,7.17-14.33,14.56-14.85a18,18,0,0,1,5.41.51,4.44,4.44,0,0,0,.49.24c.07,0,.43.07.51.09,1.23.44,2.63,1,4.12,1.68A45.93,45.93,0,0,0,325.65,629a2.33,2.33,0,0,0,.46,0,2,2,0,0,0,1.58-3C326.8,624.46,325.87,623,324.85,621.54Z"/><path class="cls-5" d="M359,269.31c-.82-2.82-5.48-4-15.6-5.5-1.53-.23-2.78-.41-3.41-.56-3.65-.88-6.8-5-7.73-8.39-.52-1.89-.92-3.87-1.32-5.87a50.56,50.56,0,0,0-3.37-11.76,2.06,2.06,0,0,0-1.45-1,1.8,1.8,0,0,0-.52,0,2.27,2.27,0,0,0-1.26.5c-.09.07-.48.39-.56.48a44.12,44.12,0,0,0-4.08,5.51c-.77,1.25-1.5,2.53-2.23,3.81-1,1.74-2,3.48-3.08,5.15-3.3,5-6.17,5.88-8.79,6.06a35.87,35.87,0,0,1-6.15-.34,63.79,63.79,0,0,0-7.84-.53,8.29,8.29,0,0,1-2.4-.31,4.73,4.73,0,0,0-1-.14,2.07,2.07,0,0,0-1.74,1.26,2.29,2.29,0,0,0,.67,2.49c.17.2.44.5.79.93a68.84,68.84,0,0,0,5.09,5.49c1.23,1.24,2.47,2.48,3.64,3.8,1.46,1.65,4.73,6,3.46,10.41a59.89,59.89,0,0,1-4.49,10.49c-1.14,2.28-2.29,4.56-3.24,6.88-.21.47-.39.95-.55,1.43l-.2.57a2,2,0,0,0,.53,2.18,2,2,0,0,0,1.48.51,2,2,0,0,0,.75-.2,39.36,39.36,0,0,0,3.9-2.2l2.89-1.9c5-3.33,9.74-6.48,14.34-6.81,3.5-.25,6.74,1.12,10,4.09a5.09,5.09,0,0,0,.34.47c0,.06.42.41.48.47.86,1,1.7,2,2.55,3a76,76,0,0,0,7.25,8,2,2,0,0,0,1.49.52,2,2,0,0,0,.67-.17,2,2,0,0,0,1.19-1.85v-.74a15,15,0,0,0,0-1.64c-.16-2-.39-4-.62-6-.26-2.26-.52-4.52-.68-6.79-.55-7.82,4.43-10.17,10.74-13.14a37.67,37.67,0,0,0,8.89-5.26A3.16,3.16,0,0,0,359,269.31Z"/><path class="cls-11" d="M400.92,526.59a22.75,22.75,0,0,1-7.72-7.53,2,2,0,0,0-1.83-.93,2,2,0,0,0-1.68,1.17,22.75,22.75,0,0,1-6.58,8.56,2,2,0,0,0-.75,1.71,2,2,0,0,0,1,1.59,22.66,22.66,0,0,1,7.72,7.53,2,2,0,0,0,3.51-.25,22.72,22.72,0,0,1,6.58-8.56,2,2,0,0,0-.24-3.29Z"/><path class="cls-11" d="M149.87,335.4a22.66,22.66,0,0,1-7.72-7.53,2,2,0,0,0-3.51.25,22.71,22.71,0,0,1-6.58,8.55,2,2,0,0,0,.24,3.3,22.6,22.6,0,0,1,7.72,7.54,2,2,0,0,0,3.51-.26,22.77,22.77,0,0,1,6.57-8.55,2,2,0,0,0-.23-3.3Z"/><path class="cls-11" d="M180.54,583.26a22.81,22.81,0,0,1-7.73-7.54,2,2,0,0,0-1.82-.92A2,2,0,0,0,169.3,576a22.56,22.56,0,0,1-6.57,8.55,2,2,0,0,0,.24,3.3,22.66,22.66,0,0,1,7.72,7.53,2,2,0,0,0,3.51-.25,22.89,22.89,0,0,1,6.57-8.55,2,2,0,0,0-.23-3.3Z"/><path class="cls-12" d="M284.57,710.48a419.9,419.9,0,0,0,87.79-16.06c64.42-18.86,100-48.4,108.85-90.31,4.82-22.91,2.64-46.52.54-69.35-.43-4.73-.87-9.44-1.24-14.14-2.23-28.07-4.61-56.72-7.09-85.17-3.7-42.5-8.67-98.57-14.32-155.42-.4-4-.81-8.16-1.27-12.39-7.24,80.36,21.73,260,11.42,319.64-9.92,57.42-66.91,82.68-125.12,97.79-48.84,12.68-129.94,16.4-176.58-6.26-12-5.81-43.21-18.5-64.5-55.35C78.33,580.65,72.9,496.35,45.9,346.1c3.89,76.17,9.75,163.67,22,251.38C78.27,672.06,155,696.79,187.54,704,218.07,710.71,250.72,712.89,284.57,710.48Z"/><path class="cls-13" d="M107,133.24c32.45,15,72.54,13.22,107.52,12.48,38.79-.83,84.07-3.3,120.2-19a2.29,2.29,0,0,0-.92-4.42c-37.62,1.42-75.25,8.1-112.95,10.12-38,2-75.23-2.72-113-3.34-2.24,0-2.73,3.29-.82,4.17Z"/><path class="cls-13" d="M274.06,58.85C287,60.6,299.9,61.78,312.85,63c11.43,1.08,24.85,4.89,36.17,2.7,1.5-.29,2.9-2.47,1.2-3.61-8.82-5.9-20.59-5.79-30.89-6.76A169.86,169.86,0,0,0,274.18,57c-1,.17-1.26,1.73-.12,1.89Z"/><path class="cls-11" d="M150.15,211.43c-24.61-15.15-55.56,16-67.06,34.75-16.28,26.5-19.36,65.31-2.53,92.22,1.6,2.56,5.5,1.5,6.1-1.25a310.07,310.07,0,0,1,21.88-64.48c10.25-22,29.39-35.94,42.74-55.64a3.7,3.7,0,0,0-1.13-5.6Z"/><path class="cls-11" d="M396.37,197.05c-1,14.19,4.86,25.46,9.48,38.63,5.53,15.82,2.74,34.07,12,48.48,1.88,2.93,6,2.23,7.6-.54,17.4-30.68-4.51-65.57-24.75-88.05-1.26-1.4-4.19-.41-4.32,1.48Z"/><path class="cls-11" d="M365.59,655.15c24.15-2.45,41.29-11.76,58.46-28.89,14.44-14.42,34.7-45,19.93-64.86-2-2.65-6.29-4.06-9.11-1.71-7.09,5.92-10.41,13.61-13.68,22.12a95.09,95.09,0,0,1-16.68,27.52C392,624.1,377,637.3,363.7,651.39a2.29,2.29,0,0,0,1.89,3.76Z"/><path class="cls-14" d="M216.38,451.22c3.83-15.14,13.23-33.56,23.17-45.47,13.6-16.28,34.51-25.59,51.88-37.18,2.94-2,1.62-6-1.41-6.9-50.85-14.74-104.59,41.37-80.71,90.05,1.57,3.21,6.13,3.25,7.07-.5Z"/><path class="cls-15" d="M487.36,513.29Q478.26,398.57,466.94,284c-5.08-51.8-12.24-115.67-69.16-133.17,7.94-20.72,4.54-49.12,1.68-69.77-4.52-32.58-42.65-38.72-68.9-42.14-44.56-5.82-90.45-3.1-134.85,2.62-31.35,4-65.36,9.51-93.73,24.19-26.86,18-26.24,58.28-19.39,87.13a40.41,40.41,0,0,0,11.08,20.16c-75.86,43-57.45,142.13-52.4,216.26q5.1,75,12.47,149.83c3.85,38.72,4,80.49,28,112.9,28.55,38.46,80,55.62,125.19,63.26,53.76,9.08,109.7,1.12,162-12.3,40-10.27,80.9-28.46,104.92-63.54C499.45,602.21,490.69,555.32,487.36,513.29ZM223.17,181.6c-33.6,1-67.41-.1-100.65-5.31-13.3-2.08-21.19-7.7-25.9-15.73,9.33,5.74,21.09,8.38,32.29,9.86,32.86,4.35,66.39,4.26,99.45,3.21a877.47,877.47,0,0,0,109.73-10.57c18.79-3,37.22-6.15,50.46-17.85-9.4,22-38,23.76-63,27.59C291.68,178,257.4,180.54,223.17,181.6ZM132,118.49c33.34,3.22,67.05,2.7,100.46,1.26a972.83,972.83,0,0,0,101.94-10c21.18-3.16,42.84-6.22,56.59-22.42,2.23,12.42,1.39,26.29.91,37.87-13.19,27.39-48.63,27.79-75.15,31.49-27,3.77-54.29,5.89-81.54,7.21-24.35,1.17-48.74,1.09-73.08,0-21.67-1-61.49-.22-71.61-24.2-.36-3.11-.61-6.34-.77-9.68-.42-8.88-.84-17.69.12-25.92C99.41,115.67,116.23,117,132,118.49Zm142.16-73.1c30.89-.41,66.33,0,95.33,12.11.08.06.13.13.21.18,20.49,14.42-46.71,23.89-52,24.61-24.43,3.34-49,5.83-73.52,7.78q-32.44,2.57-65,2.69c-12.35.06-24.7-.45-37-1.39-8-.61-50.28-6.42-24.56-22.65.06,0,.07-.09.13-.13C164.91,48.13,224.56,46.05,274.19,45.39ZM100.61,79.11c.93,8.7,10.24,16.45,23.09,19.56,35.63,8.6,77.7,3.69,113.74,1.32,39.88-2.61,80.87-6.2,120.05-14.39,10.79-2.26,22.72-8.8,26.28-16.9a37.89,37.89,0,0,1,3.93,7.09C373.6,100,338.14,100,313.17,103.31c-24.5,3.25-49.15,5.24-73.81,6.67-24.46,1.42-49,1.72-73.48,1.12-19-.48-64.95,3.23-72.65-20.58A36.24,36.24,0,0,1,100.61,79.11ZM479.25,603.69c-10.76,51.07-62.11,75.53-107.45,88.81C312.64,709.82,248.38,715.34,188,702,132.83,689.85,78.21,657.11,69.86,597.2c-12.5-89.68-18.61-181-23-271.38-2.76-57.37-2.28-115.71,54.16-146.21a5.31,5.31,0,0,0,.61-.51c17.46,10.23,42.77,9.81,63.41,11.1,20.48,1.29,41,1.43,61.58.78,2.79,49.38-35.76,111.83-1.32,155.81-33.05,17.13-47.23,52.65-44.76,87.87-15.66,11.56-67.33,53.76-32.89,72.49,15.72,8.55,35.32,6.53,52.35,4.37,6.51-.83,13-2,19.45-3.29a5.33,5.33,0,0,0,.58.46c56.13,36.05,134,6.53,148.62-58.63,23.35-14.22,44.23-32,53.94-54.57,18.82-43.66-59.45-33.3-77.45-29.77l0,0C319,337.18,277.07,327.41,235.86,342.2c-.57.21-1.12.45-1.68.67-34-41.28,4.28-104.42,1.87-152.24,20.72-.9,41.4-2.56,61.95-4.78,24.74-2.66,78.25-2.29,95.37-26.55,52.76,14.56,59.13,74.5,63.74,120.92,5.14,51.77,9.81,103.58,14.32,155.41q3.7,42.56,7.08,85.15C480.7,548.27,485,576.42,479.25,603.69ZM304.33,470.93c-40.5,17.44-86.92,33.59-131.52,32.88-50.13-.8-12.18-41,9.06-58.24.47,2.8,1,5.59,1.71,8.35-8.55,7.45-26.11,24.71-8.17,32,10.12,4.13,23.59.69,33.7-1.27,26.53-5.12,52.34-14.83,77.42-24.68,33.26-13.05,69.89-29.12,96-54.21,23.95-23-8.13-27.51-26.34-25.25-1.38-2.29-2.86-4.48-4.4-6.6,17.79-3.43,37.54-6.54,54.65-.21,17.84,6.59,4.11,26-3.52,34.85C378,437.67,338.66,456.15,304.33,470.93Zm52.72-14.14C340.1,507,280.37,528.7,233,505.2c25.51-6.3,50.52-15.53,74.46-25.39C322.47,473.63,340,466.08,357.05,456.79Zm-164.58,21q-3.48.3-7,.38c-14.28.3-5.5-8.66,1-14.38A107.89,107.89,0,0,0,192.47,477.75Zm174.79-70.92a105.43,105.43,0,0,0-6.39-17.5c10.15-1.35,26.28-2.27,14.55,10.3A63.86,63.86,0,0,1,367.26,406.83Zm-8.2,5.83-3,2C335.87,428.3,313.38,438.52,291,448a520.21,520.21,0,0,1-77.81,26.2c-3.56.88-7.15,1.6-10.76,2.2C175.13,428.32,190.89,368.35,244.87,349,296.49,330.44,346.62,362,359.06,412.66Z"/><path class="cls-15" d="M312.89,577.64c-7.29,2.25-10.72,3.53-16.32-2.68-2.47-2.75-5-5.43-7.71-7.93-3.09-2.83-7.95-5.62-12.05-3.11-4.39,2.69-5,8.41-5.45,13.06s-.35,9.57-.39,14.34c0,4.35-5.55,4.87-8.89,6.4-9.67,4.44-19.55,13.6-5.86,20.56,4.21,2.14,9.21,3.14,13.75,4.28,5.74,1.46,4.41,11.56,4.68,15.76S275,651.1,279.09,654c3.27,2.37,6.66,2.09,9.68-.58,6.75-6,9.06-25.06,19.93-22.78,6.75,2.66,23.88,11.11,27.46,1.59,1.94-5.18-2.47-10.87-5.17-14.87-4.81-7.14-7.32-12.21-1.88-19.8,2.05-2.84,4.21-6.26,4.93-9.74C337,573.78,322.05,574.81,312.89,577.64ZM317.17,598c-3.23,4.59-2.86,9.58-1,14.57,1.4,3.71,4.72,7,7,10.15q1.45,2.07,2.73,4.25c-4.71-.75-10.19-3.73-14.09-5.1a2.83,2.83,0,0,0-.42-.06,4.18,4.18,0,0,0-.74-.34c-14.57-3.35-18.3,7.87-24,18.79-.59,1.13-1.23,2.36-2,3.51-.11-.58-.26-1.16-.32-1.75-.83-6,.44-13.22-1.81-18.92a15.32,15.32,0,0,0-7.55-8.7c-3.11-1.69-7.28-2.09-10.65-3.06a23.75,23.75,0,0,1-4.5-1.8c.07-.08.12-.1.2-.2,7.67-5.4,19.38-4.89,20.08-16.27.39-6.45-.66-13.66,1.23-20a33.4,33.4,0,0,1,2.61,2.29c2.27,2.07,4.3,4.42,6.36,6.68,3.94,4.33,7.65,7.56,13.64,8,7.2.51,13.4-5.79,20.86-5.24C326.05,584.9,318.31,596.37,317.17,598Z"/><path class="cls-15" d="M353.78,258.25c-6.4-1.86-13.07-.35-15.29-8.48-1.08-4-1.76-8.07-2.89-12.05-1.23-4.29-3.59-9.31-8.53-9.94-5.29-.67-9.11,4.55-11.82,8.27a145.3,145.3,0,0,0-7.66,12.51c-2.32,4-9.13,1.31-13.15,1-11-.76-20.7,4-12.74,15.51,2.89,4.17,7,7.38,10.38,11.14,2.72,3.06-3.92,13.36-5.49,16.66-2.11,4.46-4.37,9.57-3,14.55,1,3.76,5.66,4.69,8.88,3.86,8.51-2.18,20.18-17,28.27-9.81,4.74,5.86,14.56,20.89,22.94,15.18,3.95-2.7,3.37-9.25,3.2-13.31-.24-5.76-4.25-15,2.81-18.16,4.23-1.92,8.31-3.57,12.12-6.3C373.71,270.4,363.74,261.15,353.78,258.25Zm2.69,12.89c-7.57,6.62-21.25,6.58-20.3,20.05.3,4.3.95,8.55,1.3,12.85,0,.75,0,1.5,0,2.24-3.55-3.24-6.55-7.29-9.63-10.87-.16-.18-.33-.32-.49-.47s-.17-.29-.31-.43c-10.85-10-19.61-2.41-29.85,4.21a38.53,38.53,0,0,1-3.7,2.09c.23-.63.43-1.27.7-1.88,2.47-6,6-11.36,7.83-17.65,1.28-4.49-1-9-3.88-12.28s-6-5.9-8.68-9.22c-2-2.49-1.46-.94,2.13-1,11.09-.07,17.48,4.47,24.44-6.09,1.91-2.91,3.52-6.05,5.34-9a40.31,40.31,0,0,1,3.88-5.24l.47-.37c2.52,5.3,3,11.71,4.57,17.3,1.14,4.19,4.83,8.75,9.19,9.8C342.7,266,360.59,267.56,356.47,271.14Z"/><path class="cls-15" d="M413.36,522.94a4.73,4.73,0,0,0-1.48-.37c-11.44-.57-15.46-10.25-16.8-20.32a4.58,4.58,0,0,0-.85-2.13,4.27,4.27,0,0,0-4.29-2,4.33,4.33,0,0,0-4,2.62,4.86,4.86,0,0,0-.54,2.23c.12,10.16-2.49,20.31-13.73,22.5a4.55,4.55,0,0,0-1.41.58c-2.09.57-2.94,2.56-2.65,4.6,0,2.07,1.13,3.92,3.28,4.19a4.87,4.87,0,0,0,1.48.37c11.43.57,15.46,10.25,16.79,20.32a4.58,4.58,0,0,0,.85,2.13,4.86,4.86,0,0,0,8.27-.59,4.77,4.77,0,0,0,.54-2.23c-.12-10.16,2.49-20.31,13.74-22.5a5,5,0,0,0,1.4-.58c2.1-.57,2.95-2.57,2.66-4.61C416.63,525.06,415.51,523.21,413.36,522.94Zm-20.6,14.68a24.59,24.59,0,0,0-8.41-8.19,24.57,24.57,0,0,0,7.16-9.3,24.56,24.56,0,0,0,8.4,8.19A24.65,24.65,0,0,0,392.76,537.62Z"/><path class="cls-15" d="M138.13,364.31a4.58,4.58,0,0,0,.85,2.13,4.85,4.85,0,0,0,8.27-.59,4.65,4.65,0,0,0,.54-2.23c-.11-10.16,2.5-20.31,13.73-22.5a4.45,4.45,0,0,0,1.41-.58c2.09-.57,2.95-2.56,2.66-4.6,0-2.07-1.13-3.92-3.28-4.19a4.87,4.87,0,0,0-1.48-.37c-11.43-.57-15.46-10.25-16.79-20.32a4.8,4.8,0,0,0-.85-2.13,4.86,4.86,0,0,0-8.28.59,4.77,4.77,0,0,0-.53,2.23c.11,10.16-2.5,20.31-13.74,22.5a5.22,5.22,0,0,0-1.41.58c-2.09.57-2.94,2.56-2.66,4.61,0,2.06,1.14,3.91,3.29,4.18a4.87,4.87,0,0,0,1.48.37C132.77,344.56,136.8,354.24,138.13,364.31Zm2.33-35.37a24.56,24.56,0,0,0,8.4,8.19,24.55,24.55,0,0,0-7.15,9.3,24.74,24.74,0,0,0-8.4-8.19A24.65,24.65,0,0,0,140.46,328.94Z"/><path class="cls-15" d="M193,579.61a5,5,0,0,0-1.48-.37c-11.43-.57-15.46-10.25-16.79-20.32a4.8,4.8,0,0,0-.85-2.13,4.85,4.85,0,0,0-8.27.59,4.54,4.54,0,0,0-.54,2.23c.11,10.16-2.5,20.31-13.74,22.5a4.66,4.66,0,0,0-1.41.58c-2.09.57-2.94,2.56-2.66,4.61,0,2.06,1.14,3.91,3.29,4.18a4.87,4.87,0,0,0,1.48.37c11.43.57,15.46,10.25,16.79,20.32a4.69,4.69,0,0,0,.85,2.13,4.86,4.86,0,0,0,8.28-.59,4.74,4.74,0,0,0,.53-2.23c-.11-10.16,2.5-20.31,13.73-22.5a4.87,4.87,0,0,0,1.42-.58c2.09-.57,2.94-2.56,2.65-4.6C196.26,581.73,195.13,579.88,193,579.61Zm-20.61,14.68A24.62,24.62,0,0,0,164,586.1a24.75,24.75,0,0,0,7.15-9.3,24.56,24.56,0,0,0,8.4,8.19A24.77,24.77,0,0,0,172.37,594.29Z"/></g></g></g></svg>