<svg xmlns="http://www.w3.org/2000/svg" viewBox="0 0 659.99 875.82"><defs><style>.cls-1{isolation:isolate;}.cls-2,.cls-8{fill:#ffa3bc;}.cls-2{mix-blend-mode:multiply;}.cls-3{fill:#fff;}.cls-4{fill:#636466;}.cls-5{fill:#fffad2;}.cls-6{fill:#ff915b;}.cls-7{fill:#ff5671;}.cls-9{fill:#9e3643;}.cls-10{fill:#68182b;}.cls-11{fill:#fec771;}</style></defs><g class="cls-1"><g id="圖層_2" data-name="圖層 2"><g id="Layer_2" data-name="Layer 2"><path class="cls-2" d="M621.43,117.34c-9.09-15.31-30.37-51.15-71.69-51.15a70.68,70.68,0,0,0-9.25.62c-32.62,4.31-57.28,27.91-77.09,50.43-25.23,28.67-48.26,61.8-73,105.29a329.67,329.67,0,0,0-67.5-11.11c-8.68-28.73-19.38-60.18-33.49-90.84l-.61-1.32c-12.09-26.28-27.14-59-53.19-81.12-16.94-14.39-35.24-21.68-54.42-21.68-50.69,0-82.85,49.63-97.5,79.2C46.43,170.85,31.13,257.38,21.07,332.12,16,369.85,7.3,434.4,45.4,474.81a51.73,51.73,0,0,0-17.13,14.9C20,501,17.26,515.32,20.45,530a44.75,44.75,0,0,0,5.94,14.16,43.72,43.72,0,0,0-4.46,7.67c-7,15.54-6.51,31.82,1.26,45.84,6.6,11.92,17.79,21.16,33.87,27.86-25.12,37.46-33,89.07-14.5,126.25C60,786.81,97.49,806.94,145.28,806.94h0c16.32,0,149.92,47.74,183.46,59.54a169.65,169.65,0,0,0,55.69,9.34c38.23,0,72.65-12.54,96.91-35.3,40.94-38.42,47.21-92.81,18.48-151.81q5.16-3.32,9.93-7a61.46,61.46,0,0,0,25.19-5.84c11.56-5.62,23.77-16.14,26.1-35.65A48.63,48.63,0,0,0,582,617.86c11.07-23.69-.65-47.07-7.65-61.05-.33-.65-.71-1.42-1.09-2.19.1-.87.19-1.75.28-2.65,24.45-17.35,44.29-46.89,60.26-89.55,11.48-30.68,18.93-65.8,22.76-107.39C662.63,288.65,665.65,191.8,621.43,117.34Z"/><path class="cls-3" d="M12.28,530a44.44,44.44,0,0,1-5.95-14.16c-3.19-14.63-.41-28.92,7.83-40.24A51.57,51.57,0,0,1,31.28,460.7C-6.82,420.28,1.87,355.73,7,318,17,243.27,32.31,156.73,69.57,81.55,84.23,52,116.38,2.34,167.08,2.34c19.17,0,37.48,7.29,54.41,21.68,26,22.14,41.1,54.84,53.19,81.12l.61,1.32c14.11,30.67,24.81,62.11,33.49,90.84a330.24,330.24,0,0,1,67.5,11.11c24.75-43.49,47.77-76.62,73-105.29C469.1,80.6,493.76,57,526.38,52.69a70.43,70.43,0,0,1,9.25-.61c41.31,0,62.59,35.84,71.68,51.14,44.22,74.46,41.2,171.31,35.08,237.69-3.83,41.59-11.28,76.72-22.76,107.39-16,42.66-35.81,72.2-60.26,89.56-.09.89-.18,1.77-.28,2.64.38.78.76,1.54,1.1,2.2,7,14,18.71,37.35,7.64,61a48.63,48.63,0,0,1-20.91,22.33c-2.32,19.51-14.54,30-26.1,35.66a61.78,61.78,0,0,1-25.19,5.84c-3.17,2.47-6.49,4.81-9.93,7,28.74,59,22.46,113.39-18.48,151.81-24.26,22.76-58.68,35.3-96.91,35.3a169.54,169.54,0,0,1-55.68-9.34c-33.55-11.8-167.15-59.54-183.46-59.54h0c-47.79,0-85.23-20.13-102.72-55.21C9.9,700.43,17.82,648.83,42.94,611.36c-16.08-6.7-27.27-15.94-33.87-27.86-7.77-14-8.21-30.29-1.26-45.84A43.13,43.13,0,0,1,12.28,530Z"/><path class="cls-4" d="M363.3,863.9h-.1c-1.58-.06-3.17-.15-4.76-.26a2.35,2.35,0,0,1-2.19-2.5,2.42,2.42,0,0,1,2.5-2.19c1.55.1,3.09.19,4.64.25a2.35,2.35,0,0,1-.09,4.7Zm14.12,0a2.36,2.36,0,0,1-.1-4.71c1.55-.06,3.1-.14,4.63-.25a2.36,2.36,0,1,1,.32,4.7c-1.58.1-3.16.19-4.76.26Zm-32.84-1.79a2,2,0,0,1-.35,0c-1.58-.23-3.15-.49-4.72-.77a2.36,2.36,0,0,1-1.9-2.73,2.39,2.39,0,0,1,2.73-1.91c1.52.28,3.05.53,4.58.76a2.35,2.35,0,0,1-.34,4.68Zm51.55,0a2.35,2.35,0,0,1-.36-4.68c1.54-.24,3.06-.5,4.57-.78a2.35,2.35,0,1,1,.87,4.62q-2.34.43-4.71.81A2.22,2.22,0,0,1,396.13,862.07Zm-70-3.79a2.49,2.49,0,0,1-.61-.08c-1.55-.42-3.08-.85-4.6-1.31a2.35,2.35,0,1,1,1.35-4.5c1.48.44,3,.86,4.47,1.27a2.35,2.35,0,0,1-.61,4.62Zm88.36-.26a2.35,2.35,0,0,1-.66-4.61q2.23-.64,4.44-1.35a2.35,2.35,0,0,1,1.44,4.48c-1.51.48-3,.94-4.57,1.39A2.48,2.48,0,0,1,414.51,858Zm-106.29-5.56a2.41,2.41,0,0,1-.78-.13L303,850.76a2.35,2.35,0,0,1,1.57-4.44l4.44,1.57a2.35,2.35,0,0,1-.78,4.57Zm124-.81a2.35,2.35,0,0,1-.95-4.51q2.13-.93,4.2-1.93a2.36,2.36,0,1,1,2,4.25c-1.43.68-2.88,1.35-4.34,2A2.28,2.28,0,0,1,432.2,851.65Zm-141.77-5.48a2.36,2.36,0,0,1-.78-.13l-4.45-1.57a2.35,2.35,0,0,1,1.57-4.44l4.44,1.57a2.35,2.35,0,0,1-.78,4.57Zm158.4-3.29a2.35,2.35,0,0,1-1.25-4.34c1.31-.82,2.59-1.66,3.86-2.52a2.35,2.35,0,1,1,2.65,3.89q-2,1.33-4,2.61A2.31,2.31,0,0,1,448.83,842.88Zm-176.2-3a2.36,2.36,0,0,1-.78-.13l-4.44-1.56a2.35,2.35,0,1,1,1.55-4.44l4.45,1.56a2.35,2.35,0,0,1-.78,4.57Zm-17.8-6.21a2.14,2.14,0,0,1-.78-.14L249.6,832a2.35,2.35,0,0,1,1.54-4.45l4.46,1.55a2.36,2.36,0,0,1-.77,4.58Zm209.11-2a2.35,2.35,0,0,1-1.54-4.13c1.09-1,2.16-1.91,3.21-2.9l1.82,1.52,1.46,1.86c-1.16,1.08-2.27,2.09-3.41,3.08A2.35,2.35,0,0,1,463.94,831.71ZM237,827.54a2.27,2.27,0,0,1-.77-.13l-4.44-1.52a2.36,2.36,0,1,1,1.52-4.46l4.45,1.53a2.35,2.35,0,0,1-.76,4.58Zm-17.84-6.09a2.48,2.48,0,0,1-.76-.13L214,819.81a2.35,2.35,0,1,1,1.5-4.46l4.47,1.51a2.36,2.36,0,0,1-.75,4.59Zm258-3.12a2.35,2.35,0,0,1-1.8-3.87q1.5-1.77,2.91-3.58a2.35,2.35,0,0,1,3.71,2.9q-1.47,1.88-3,3.72A2.33,2.33,0,0,1,477.16,818.33Zm-275.87-2.9a2.18,2.18,0,0,1-.75-.12l-4.46-1.48a2.35,2.35,0,0,1,1.47-4.47l4.48,1.49a2.35,2.35,0,0,1-.74,4.58Zm-17.91-5.88a2.64,2.64,0,0,1-.73-.11L178.17,808a2.35,2.35,0,1,1,1.43-4.48l4.5,1.45a2.35,2.35,0,0,1-.72,4.59Zm-18-5.69a2.07,2.07,0,0,1-.69-.11l-4.5-1.37a2.35,2.35,0,0,1,1.36-4.5l4.52,1.38a2.35,2.35,0,0,1-.69,4.6Zm322.72-.8a2.29,2.29,0,0,1-1.2-.33,2.34,2.34,0,0,1-.82-3.22c.79-1.33,1.55-2.66,2.28-4a2.36,2.36,0,0,1,4.14,2.25q-1.14,2.1-2.37,4.16A2.37,2.37,0,0,1,488.11,803.06Zm-340.82-4.51a2.27,2.27,0,0,1-.62-.09c-1.6-.43-3.11-.83-4.52-1.19a2.35,2.35,0,0,1,1.15-4.56c1.44.36,3,.77,4.61,1.21a2.36,2.36,0,0,1-.62,4.63Zm-18.5-3.4h0c-1.61,0-3.2-.06-4.77-.13a2.36,2.36,0,0,1,.19-4.71c1.54.07,3.08.11,4.64.14a2.35,2.35,0,0,1,0,4.7ZM110,793.78a1.72,1.72,0,0,1-.32,0c-1.6-.21-3.17-.45-4.74-.72a2.35,2.35,0,0,1-1.91-2.73,2.32,2.32,0,0,1,2.72-1.91c1.5.26,3,.49,4.56.7a2.35,2.35,0,0,1-.31,4.68ZM91.61,790a2.27,2.27,0,0,1-.63-.08c-1.56-.44-3.09-.9-4.59-1.39A2.35,2.35,0,1,1,87.83,784c1.45.47,2.93.92,4.42,1.33a2.35,2.35,0,0,1-.64,4.62Zm404.71-3.83a2.48,2.48,0,0,1-.84-.15,2.36,2.36,0,0,1-1.36-3c.55-1.43,1.06-2.88,1.54-4.34a2.33,2.33,0,0,1,3-1.49,2.35,2.35,0,0,1,1.5,3c-.5,1.52-1,3-1.61,4.53A2.36,2.36,0,0,1,496.32,786.16ZM74,783.5a2.18,2.18,0,0,1-1-.23c-1.47-.68-2.9-1.38-4.31-2.11A2.36,2.36,0,0,1,70.83,777c1.36.71,2.73,1.39,4.13,2a2.36,2.36,0,0,1-1,4.49Zm-16.26-9.43a2.41,2.41,0,0,1-1.37-.43q-2-1.41-3.86-2.89a2.35,2.35,0,1,1,2.91-3.7q1.8,1.41,3.68,2.75a2.35,2.35,0,0,1-1.36,4.27Zm443.72-6a3.27,3.27,0,0,1-.44,0,2.35,2.35,0,0,1-1.87-2.75c.28-1.51.53-3,.76-4.56a2.36,2.36,0,0,1,4.66.69c-.24,1.59-.51,3.17-.8,4.74A2.35,2.35,0,0,1,501.43,768.08ZM43.54,761.72a2.39,2.39,0,0,1-1.72-.74q-1.64-1.77-3.2-3.61a2.35,2.35,0,1,1,3.59-3q1.49,1.74,3,3.42a2.35,2.35,0,0,1-1.72,4Zm459.84-12.36h-.06A2.35,2.35,0,0,1,501,747q0-1.35,0-2.7l0-1.91a2.36,2.36,0,0,1,2.33-2.38h0a2.35,2.35,0,0,1,2.35,2.32v2c0,.94,0,1.89,0,2.82A2.35,2.35,0,0,1,503.38,749.36Zm-471.19-2.6a2.34,2.34,0,0,1-2-1.13q-1.24-2.05-2.4-4.18a2.35,2.35,0,1,1,4.14-2.24q1.09,2,2.28,4a2.35,2.35,0,0,1-2,3.57Zm470.2-16.17a2.36,2.36,0,0,1-2.33-2.07c-.19-1.52-.41-3-.65-4.57a2.36,2.36,0,0,1,4.65-.75c.25,1.59.47,3.17.67,4.74a2.35,2.35,0,0,1-2,2.63Zm-478.25-.8a2.36,2.36,0,0,1-2.22-1.58q-.8-2.26-1.49-4.58a2.35,2.35,0,1,1,4.51-1.34c.44,1.47.91,2.92,1.42,4.36a2.36,2.36,0,0,1-1.44,3A2.14,2.14,0,0,1,24.14,729.79Zm474.71-17.67a2.36,2.36,0,0,1-2.28-1.77c-.39-1.49-.79-3-1.22-4.47a2.35,2.35,0,1,1,4.52-1.31c.44,1.54.86,3.07,1.26,4.6a2.36,2.36,0,0,1-1.69,2.87A2.46,2.46,0,0,1,498.85,712.12ZM19.6,711.55a2.35,2.35,0,0,1-2.32-2q-.36-2.37-.63-4.77a2.35,2.35,0,1,1,4.68-.51q.26,2.29.6,4.56a2.34,2.34,0,0,1-2,2.68A2.31,2.31,0,0,1,19.6,711.55Zm473.55-17.37a2.36,2.36,0,0,1-2.2-1.52q-.81-2.16-1.69-4.33a2.35,2.35,0,1,1,4.36-1.77c.6,1.49,1.18,3,1.74,4.44a2.36,2.36,0,0,1-1.37,3A2.48,2.48,0,0,1,493.15,694.18ZM18.26,692.8h0a2.36,2.36,0,0,1-2.34-2.37c0-1.59.05-3.18.11-4.79a2.47,2.47,0,0,1,2.45-2.26,2.37,2.37,0,0,1,2.26,2.46q-.11,2.31-.12,4.62A2.35,2.35,0,0,1,18.26,692.8Zm467.47-15.87a2.36,2.36,0,0,1-1.27-4.34q1.95-1.25,3.84-2.56A2.36,2.36,0,1,1,491,673.9q-2,1.35-4,2.66A2.34,2.34,0,0,1,485.73,676.93Zm-466-2.88-.35,0a2.36,2.36,0,0,1-2-2.67c.23-1.58.49-3.15.77-4.73a2.37,2.37,0,0,1,2.74-1.89,2.34,2.34,0,0,1,1.89,2.73c-.27,1.53-.52,3-.75,4.57A2.34,2.34,0,0,1,19.72,674.05Zm482.57-4.64a2.35,2.35,0,0,1-.28-4.69c1.52-.19,3-.43,4.48-.71a2.35,2.35,0,1,1,.91,4.61c-1.57.31-3.17.57-4.81.77Zm18.05-5.1a2.35,2.35,0,0,1-1-4.48l.46-.22c1.18-.57,2.36-1.19,3.53-1.87a2.35,2.35,0,1,1,2.36,4.07c-1.27.73-2.55,1.41-3.82,2l-.52.25A2.35,2.35,0,0,1,520.34,664.31ZM23.67,655.66a2.43,2.43,0,0,1-.65-.09,2.35,2.35,0,0,1-1.62-2.9c.43-1.53.89-3.06,1.37-4.59a2.35,2.35,0,0,1,4.49,1.42c-.47,1.48-.91,3-1.33,4.45A2.37,2.37,0,0,1,23.67,655.66Zm511.91-2.21a2.32,2.32,0,0,1-1.61-.64,2.34,2.34,0,0,1-.11-3.32,39.8,39.8,0,0,0,2.86-3.4,2.35,2.35,0,1,1,3.76,2.82,44,44,0,0,1-3.19,3.79A2.32,2.32,0,0,1,535.58,653.45ZM29.9,637.91a2.3,2.3,0,0,1-.92-.19,2.37,2.37,0,0,1-1.25-3.09c.62-1.46,1.27-2.91,1.94-4.37a2.35,2.35,0,0,1,4.27,2q-1,2.12-1.87,4.24A2.35,2.35,0,0,1,29.9,637.91ZM545,637.35a2.44,2.44,0,0,1-.71-.1,2.37,2.37,0,0,1-1.54-3A42.59,42.59,0,0,0,543.9,630a2.35,2.35,0,0,1,4.61,1c-.35,1.66-.77,3.26-1.25,4.78A2.35,2.35,0,0,1,545,637.35ZM554.9,623a2.33,2.33,0,0,1-1.81-.85,2.36,2.36,0,0,1,.29-3.31,43.24,43.24,0,0,0,3.3-3A2.35,2.35,0,0,1,560,619.1q-1.72,1.74-3.62,3.33A2.34,2.34,0,0,1,554.9,623ZM38.32,621.09a2.36,2.36,0,0,1-2-3.54c.8-1.38,1.63-2.75,2.48-4.09a2.35,2.35,0,1,1,4,2.5q-1.23,2-2.4,4A2.34,2.34,0,0,1,38.32,621.09Zm-4.51-11.74a2.32,2.32,0,0,1-1.13-.29q-2.16-1.18-4.18-2.44a2.35,2.35,0,0,1,2.5-4q1.91,1.18,3.94,2.3a2.35,2.35,0,0,1-1.13,4.42Zm532.85-.91a2.41,2.41,0,0,1-1.1-.27,2.35,2.35,0,0,1-1-3.18c.38-.73.76-1.48,1.12-2.24s.54-1.22.8-1.83a2.35,2.35,0,0,1,4.34,1.82c-.28.66-.57,1.32-.88,2-.39.85-.79,1.66-1.22,2.46A2.35,2.35,0,0,1,566.66,608.44Zm-548-10.11a2.34,2.34,0,0,1-1.64-.68c-1.18-1.14-2.3-2.34-3.36-3.55A2.35,2.35,0,1,1,17.18,591q1.47,1.68,3.1,3.28a2.36,2.36,0,0,1-1.65,4Zm553.5-7.78h-.24a2.36,2.36,0,0,1-2.1-2.58c.15-1.5.23-3,.24-4.48a2.36,2.36,0,0,1,2.36-2.33h0a2.36,2.36,0,0,1,2.33,2.38c0,1.62-.1,3.26-.27,4.91A2.36,2.36,0,0,1,572.13,590.55ZM7.67,583.14a2.33,2.33,0,0,1-2.12-1.34c-.72-1.49-1.35-3-1.91-4.54a2.35,2.35,0,1,1,4.42-1.61c.51,1.39,1.09,2.77,1.73,4.12a2.35,2.35,0,0,1-1.11,3.14A2.26,2.26,0,0,1,7.67,583.14Zm563.1-11.28a2.35,2.35,0,0,1-2.29-1.82c-.34-1.49-.74-3-1.17-4.41a2.36,2.36,0,0,1,1.59-2.93,2.39,2.39,0,0,1,2.93,1.59c.45,1.54.87,3.1,1.24,4.69a2.35,2.35,0,0,1-1.76,2.82A2.48,2.48,0,0,1,570.77,571.86ZM3,565a2.34,2.34,0,0,1-2.34-2.22q-.09-1.48-.09-3,0-1,0-1.92A2.4,2.4,0,0,1,3,555.62a2.37,2.37,0,0,1,2.27,2.44c0,.59,0,1.17,0,1.74,0,.92,0,1.83.08,2.75A2.34,2.34,0,0,1,3.12,565Zm561.58-10.91a2.34,2.34,0,0,1-2.14-1.38q-1-2.19-2-4.2a2.35,2.35,0,1,1,4.23-2q1,2.07,2,4.31a2.34,2.34,0,0,1-2.15,3.32ZM5.36,546.46a2.42,2.42,0,0,1-.7-.1,2.35,2.35,0,0,1-1.54-3q.72-2.31,1.65-4.61a2.35,2.35,0,1,1,4.36,1.77c-.57,1.41-1.08,2.82-1.52,4.24A2.36,2.36,0,0,1,5.36,546.46Zm556.94-8.41a2.35,2.35,0,0,1-1.43-4.22q1.83-1.4,3.61-2.87a2.35,2.35,0,0,1,3,3.62c-1.23,1-2.49,2-3.75,3A2.39,2.39,0,0,1,562.3,538.05Zm-550-5.7a2.37,2.37,0,0,1-2-1.11c-.85-1.37-1.67-2.79-2.42-4.28a2.35,2.35,0,1,1,4.2-2.12c.69,1.36,1.44,2.66,2.21,3.91a2.36,2.36,0,0,1-2,3.6Zm564-6.86a2.35,2.35,0,0,1-1.69-4c1.06-1.1,2.1-2.24,3.13-3.4a2.35,2.35,0,1,1,3.51,3.14q-1.61,1.8-3.25,3.52A2.35,2.35,0,0,1,576.28,525.49ZM5.71,514.86a2.37,2.37,0,0,1-2.33-2c-.25-1.64-.44-3.26-.55-4.88a2.36,2.36,0,0,1,4.7-.33c.1,1.49.27,3,.51,4.48a2.36,2.36,0,0,1-2,2.69Zm582.64-3.79a2.36,2.36,0,0,1-1.9-3.75q1.37-1.85,2.71-3.78a2.35,2.35,0,0,1,3.86,2.69c-.91,1.32-1.84,2.61-2.77,3.88A2.38,2.38,0,0,1,588.35,511.07ZM6.1,496.14a2,2,0,0,1-.48-.05,2.34,2.34,0,0,1-1.82-2.78q.51-2.43,1.24-4.78a2.35,2.35,0,0,1,4.49,1.41c-.44,1.43-.82,2.87-1.13,4.33A2.35,2.35,0,0,1,6.1,496.14Zm592.61-.78a2.39,2.39,0,0,1-1.2-.33,2.36,2.36,0,0,1-.83-3.23c.78-1.32,1.57-2.66,2.33-4a2.35,2.35,0,0,1,4.1,2.31c-.78,1.39-1.57,2.77-2.37,4.12A2.37,2.37,0,0,1,598.71,495.36ZM13.44,479a2.36,2.36,0,0,1-1.93-3.69l.75-1.06c.72-1,1.47-1.95,2.24-2.86a2.35,2.35,0,1,1,3.6,3c-.7.83-1.38,1.7-2,2.6l-.68,1A2.36,2.36,0,0,1,13.44,479Zm594.17-.16a2.36,2.36,0,0,1-2.11-3.39q1-2.08,2-4.21a2.36,2.36,0,0,1,4.27,2q-1,2.16-2,4.28A2.35,2.35,0,0,1,607.61,478.79Zm-580.83-13a2.36,2.36,0,0,1-1.33-4.3c1.37-.93,2.76-1.78,4.17-2.58a2.35,2.35,0,1,1,2.31,4.1q-2,1.1-3.83,2.37A2.41,2.41,0,0,1,26.78,465.81Zm588.54-4.2a2.15,2.15,0,0,1-.89-.18,2.34,2.34,0,0,1-1.28-3.07q.89-2.14,1.75-4.33a2.35,2.35,0,0,1,4.38,1.73c-.59,1.49-1.19,2.95-1.78,4.39A2.35,2.35,0,0,1,615.32,461.61ZM22.76,452.55a2.36,2.36,0,0,1-1.93-1q-1.38-2-2.66-4a2.35,2.35,0,0,1,4-2.5c.81,1.3,1.65,2.57,2.53,3.83a2.36,2.36,0,0,1-.58,3.28A2.32,2.32,0,0,1,22.76,452.55ZM622,444a2.35,2.35,0,0,1-2.22-3.13q.76-2.19,1.5-4.41a2.35,2.35,0,1,1,4.47,1.48c-.5,1.51-1,3-1.53,4.49A2.35,2.35,0,0,1,622,444ZM13.57,436.16a2.35,2.35,0,0,1-2.15-1.4q-1-2.19-1.86-4.44a2.35,2.35,0,1,1,4.38-1.71c.57,1.42,1.16,2.84,1.78,4.24a2.36,2.36,0,0,1-1.2,3.11A2.28,2.28,0,0,1,13.57,436.16Zm614.12-10.08a2.35,2.35,0,0,1-2.26-3c.42-1.49.84-3,1.25-4.5a2.35,2.35,0,1,1,4.54,1.23c-.42,1.53-.84,3.05-1.27,4.56A2.36,2.36,0,0,1,627.69,426.08ZM7.4,418.4a2.36,2.36,0,0,1-2.28-1.76c-.4-1.54-.78-3.09-1.13-4.66a2.35,2.35,0,1,1,4.59-1c.34,1.51.71,3,1.1,4.5A2.36,2.36,0,0,1,8,418.32,2.11,2.11,0,0,1,7.4,418.4Zm625-10.54a2.46,2.46,0,0,1-.53-.06,2.36,2.36,0,0,1-1.76-2.83q.52-2.27,1-4.56a2.35,2.35,0,0,1,4.6,1c-.33,1.55-.68,3.09-1,4.62A2.36,2.36,0,0,1,632.37,407.86ZM3.86,399.92a2.34,2.34,0,0,1-2.33-2.05c-.21-1.58-.39-3.16-.55-4.74a2.36,2.36,0,0,1,4.69-.48c.15,1.54.33,3.08.52,4.62a2.34,2.34,0,0,1-2,2.63A1.51,1.51,0,0,1,3.86,399.92Zm632.32-10.5a2.09,2.09,0,0,1-.43,0,2.35,2.35,0,0,1-1.89-2.74c.28-1.52.55-3.06.82-4.61a2.33,2.33,0,0,1,2.72-1.92,2.37,2.37,0,0,1,1.92,2.72c-.27,1.56-.55,3.11-.83,4.66A2.36,2.36,0,0,1,636.18,389.42ZM2.43,381.15a2.36,2.36,0,0,1-2.35-2.29c0-1.59-.07-3.18-.08-4.76a2.35,2.35,0,0,1,2.33-2.37h0a2.36,2.36,0,0,1,2.36,2.33c0,1.55,0,3.11.08,4.67a2.36,2.36,0,0,1-2.29,2.42Zm636.76-10.31-.34,0a2.36,2.36,0,0,1-2-2.66l.64-4.64a2.35,2.35,0,0,1,4.67.61l-.65,4.69A2.34,2.34,0,0,1,639.19,370.84ZM2.66,362.32H2.54a2.34,2.34,0,0,1-2.23-2.46c.07-1.59.16-3.17.26-4.74a2.35,2.35,0,1,1,4.69.3c-.09,1.54-.18,3.1-.25,4.67A2.36,2.36,0,0,1,2.66,362.32Zm638.85-10.15-.25,0a2.34,2.34,0,0,1-2.09-2.58l.48-4.67a2.32,2.32,0,0,1,2.57-2.11,2.36,2.36,0,0,1,2.11,2.58l-.49,4.69A2.36,2.36,0,0,1,641.51,352.17ZM4.1,343.56H3.86A2.35,2.35,0,0,1,1.76,341c.16-1.58.33-3.15.51-4.7a2.31,2.31,0,0,1,2.6-2.07,2.35,2.35,0,0,1,2.07,2.61c-.17,1.52-.34,3.07-.5,4.65A2.36,2.36,0,0,1,4.1,343.56Zm639.16-10.13h-.2a2.35,2.35,0,0,1-2.15-2.54l.38-4.68a2.35,2.35,0,0,1,4.69.36l-.38,4.71A2.35,2.35,0,0,1,643.26,333.43ZM6.35,324.87l-.31,0a2.35,2.35,0,0,1-2-2.64l.61-4.52,4.68.47-.62,4.66A2.36,2.36,0,0,1,6.35,324.87Zm638.26-10.22h-.14a2.35,2.35,0,0,1-2.21-2.49l.27-4.69a2.35,2.35,0,0,1,4.7.26l-.27,4.71A2.36,2.36,0,0,1,644.61,314.65ZM8.9,306.22l-.33,0a2.35,2.35,0,0,1-2-2.65l.67-4.67a2.4,2.4,0,0,1,2.66-2,2.36,2.36,0,0,1,2,2.67l-.67,4.65A2.35,2.35,0,0,1,8.9,306.22Zm636.6-10.38h-.08a2.34,2.34,0,0,1-2.27-2.43l.14-4.69a2.36,2.36,0,0,1,4.71.12l-.15,4.73A2.34,2.34,0,0,1,645.5,295.84ZM11.65,287.59l-.36,0a2.34,2.34,0,0,1-2-2.68l.72-4.66a2.35,2.35,0,1,1,4.65.73L14,285.59A2.35,2.35,0,0,1,11.65,287.59ZM645.87,277h0a2.34,2.34,0,0,1-2.34-2.36V270a2.35,2.35,0,0,1,2.34-2.36h0a2.35,2.35,0,0,1,2.35,2.34v4.74A2.35,2.35,0,0,1,645.87,277ZM14.63,269a1.87,1.87,0,0,1-.4,0,2.36,2.36,0,0,1-1.93-2.71l.79-4.64a2.35,2.35,0,1,1,4.64.79L17,267A2.37,2.37,0,0,1,14.63,269Zm631-10.81a2.35,2.35,0,0,1-2.35-2.28l-.16-4.69a2.35,2.35,0,0,1,2.26-2.44,2.39,2.39,0,0,1,2.44,2.27l.16,4.72a2.35,2.35,0,0,1-2.28,2.42ZM17.89,250.46a3.13,3.13,0,0,1-.43,0,2.36,2.36,0,0,1-1.89-2.74l.86-4.62a2.34,2.34,0,0,1,2.75-1.88,2.36,2.36,0,0,1,1.88,2.75l-.86,4.6A2.36,2.36,0,0,1,17.89,250.46ZM644.7,239.39a2.36,2.36,0,0,1-2.35-2.2c-.1-1.56-.22-3.12-.34-4.68a2.35,2.35,0,0,1,4.69-.37c.13,1.58.25,3.16.35,4.74a2.34,2.34,0,0,1-2.19,2.5ZM21.47,232A2.5,2.5,0,0,1,21,232a2.35,2.35,0,0,1-1.84-2.78l.95-4.6a2.35,2.35,0,1,1,4.61,1l-.95,4.59A2.35,2.35,0,0,1,21.47,232ZM643,220.62a2.35,2.35,0,0,1-2.33-2.09c-.18-1.55-.36-3.1-.55-4.65a2.36,2.36,0,0,1,2-2.63,2.32,2.32,0,0,1,2.62,2.05c.19,1.57.38,3.14.56,4.71a2.36,2.36,0,0,1-2.08,2.6Zm-617.59-7a2.31,2.31,0,0,1-.52-.06,2.37,2.37,0,0,1-1.78-2.82l1.06-4.59a2.35,2.35,0,1,1,4.58,1.07l-1.05,4.56A2.34,2.34,0,0,1,25.42,213.61Zm345.11-4.38a2.32,2.32,0,0,1-.58-.08c-1.51-.38-3-.76-4.54-1.12a2.36,2.36,0,1,1,1.1-4.58c1.54.38,3.07.75,4.59,1.14a2.36,2.36,0,0,1-.57,4.64Zm-18.36-4.11a3.42,3.42,0,0,1-.46,0c-1.52-.3-3-.58-4.59-.86a2.35,2.35,0,1,1,.82-4.63c1.56.27,3.12.56,4.67.86a2.36,2.36,0,0,1-.44,4.67Zm28.18-1.43a2.35,2.35,0,0,1-2-3.53l2.38-4.08a2.36,2.36,0,0,1,4.06,2.39l-2.37,4.05A2.34,2.34,0,0,1,380.35,203.69Zm-46.77-1.61a1.77,1.77,0,0,1-.32,0c-1.54-.21-3.09-.41-4.63-.6a2.35,2.35,0,0,1-2.06-2.61,2.4,2.4,0,0,1,2.62-2c1.57.18,3.14.38,4.7.6a2.35,2.35,0,0,1-.31,4.68ZM640.47,202a2.34,2.34,0,0,1-2.32-2c-.25-1.54-.51-3.07-.78-4.61a2.36,2.36,0,0,1,4.64-.81c.27,1.56.53,3.12.79,4.68a2.35,2.35,0,0,1-2,2.69A2.31,2.31,0,0,1,640.47,202Zm-325.6-1.86h-.19c-1.55-.12-3.11-.24-4.66-.34a2.35,2.35,0,0,1-2.2-2.5,2.43,2.43,0,0,1,2.5-2.2c1.58.1,3.16.22,4.73.35a2.35,2.35,0,0,1-.18,4.7ZM29.79,195.31a2.87,2.87,0,0,1-.58-.07,2.37,2.37,0,0,1-1.71-2.86l1.17-4.57A2.35,2.35,0,1,1,33.22,189l-1.15,4.54A2.37,2.37,0,0,1,29.79,195.31ZM390,187.51a2.41,2.41,0,0,1-1.23-.34,2.35,2.35,0,0,1-.79-3.23l2.47-4a2.35,2.35,0,1,1,4,2.47l-2.44,4A2.36,2.36,0,0,1,390,187.51Zm-84.93,0a2.35,2.35,0,0,1-2.24-1.65l-1.42-4.47a2.35,2.35,0,0,1,4.47-1.45l1.43,4.51a2.35,2.35,0,0,1-1.54,2.95A2.13,2.13,0,0,1,305,187.5Zm332-4.06a2.34,2.34,0,0,1-2.3-1.84c-.34-1.52-.68-3-1-4.56a2.35,2.35,0,1,1,4.58-1.08c.36,1.55.71,3.09,1,4.63a2.35,2.35,0,0,1-1.8,2.8A2.18,2.18,0,0,1,637,183.44ZM34.6,177.12A2.28,2.28,0,0,1,34,177a2.36,2.36,0,0,1-1.64-2.9l1.29-4.54a2.35,2.35,0,1,1,4.52,1.3l-1.27,4.51A2.36,2.36,0,0,1,34.6,177.12Zm365.33-5.57a2.27,2.27,0,0,1-1.27-.38,2.35,2.35,0,0,1-.71-3.25l2.57-4a2.35,2.35,0,1,1,3.94,2.57l-2.55,3.94A2.35,2.35,0,0,1,399.93,171.55Zm-100.75-2A2.34,2.34,0,0,1,297,168l-1.52-4.44a2.35,2.35,0,1,1,4.45-1.54l1.52,4.47a2.34,2.34,0,0,1-1.47,3A2.25,2.25,0,0,1,299.18,169.6Zm333.24-4.42a2.36,2.36,0,0,1-2.27-1.71c-.42-1.5-.85-3-1.3-4.48a2.35,2.35,0,1,1,4.51-1.35c.45,1.51.89,3,1.32,4.55a2.34,2.34,0,0,1-1.62,2.9A2,2,0,0,1,632.42,165.18Zm-592.5-6.11a2.49,2.49,0,0,1-.7-.11A2.35,2.35,0,0,1,37.67,156l1.42-4.51a2.35,2.35,0,0,1,4.48,1.43l-1.4,4.47A2.37,2.37,0,0,1,39.92,159.07Zm370.41-3.21a2.35,2.35,0,0,1-1.94-3.68l2.67-3.88a2.35,2.35,0,1,1,3.87,2.68l-2.66,3.86A2.36,2.36,0,0,1,410.33,155.86Zm-117.4-4a2.36,2.36,0,0,1-2.21-1.54l-1.62-4.4a2.35,2.35,0,1,1,4.4-1.65l1.64,4.43a2.35,2.35,0,0,1-1.4,3A2.27,2.27,0,0,1,292.93,151.83Zm333.78-4.58a2.35,2.35,0,0,1-2.21-1.56c-.53-1.47-1.06-2.93-1.61-4.39a2.35,2.35,0,1,1,4.4-1.65c.56,1.48,1.1,3,1.64,4.46a2.36,2.36,0,0,1-1.43,3A2.2,2.2,0,0,1,626.71,147.25ZM45.78,141.18a2.35,2.35,0,0,1-2.22-3.12l1.56-4.46a2.35,2.35,0,0,1,4.44,1.57L48,139.6A2.36,2.36,0,0,1,45.78,141.18Zm375.42-.68a2.32,2.32,0,0,1-1.39-.46,2.36,2.36,0,0,1-.51-3.29l2.81-3.8a2.36,2.36,0,1,1,3.78,2.82l-2.79,3.77A2.38,2.38,0,0,1,421.2,140.5Zm-135-6.25a2.36,2.36,0,0,1-2.19-1.49q-.86-2.16-1.75-4.34a2.35,2.35,0,1,1,4.36-1.78c.59,1.46,1.19,2.92,1.77,4.39a2.35,2.35,0,0,1-1.32,3.05A2.21,2.21,0,0,1,286.2,134.25Zm333.55-4.49a2.35,2.35,0,0,1-2.15-1.4q-.95-2.13-1.93-4.25a2.35,2.35,0,0,1,4.27-2c.66,1.43,1.32,2.88,2,4.32a2.35,2.35,0,0,1-1.19,3.11A2.3,2.3,0,0,1,619.75,129.76Zm-187.17-4.25a2.34,2.34,0,0,1-1.84-3.8q1.47-1.87,2.94-3.7a2.35,2.35,0,1,1,3.67,2.95c-1,1.21-2,2.43-2.92,3.66A2.33,2.33,0,0,1,432.58,125.51Zm-380.34-2a2.54,2.54,0,0,1-.85-.15,2.37,2.37,0,0,1-1.35-3l1.72-4.39a2.35,2.35,0,0,1,4.38,1.72L54.44,122A2.37,2.37,0,0,1,52.24,123.5Zm226.68-6.62a2.35,2.35,0,0,1-2.16-1.4l-1.9-4.28a2.35,2.35,0,1,1,4.29-1.94l1.92,4.33a2.35,2.35,0,0,1-1.21,3.1A2.39,2.39,0,0,1,278.92,116.88Zm332.54-4a2.37,2.37,0,0,1-2.07-1.23q-1.11-2-2.26-4.07a2.35,2.35,0,1,1,4.08-2.34q1.18,2.07,2.32,4.16a2.36,2.36,0,0,1-2.07,3.48ZM444.52,111a2.32,2.32,0,0,1-1.52-.57,2.35,2.35,0,0,1-.27-3.31c1-1.21,2.06-2.4,3.09-3.59a2.35,2.35,0,1,1,3.55,3.09c-1,1.17-2,2.36-3.05,3.55A2.35,2.35,0,0,1,444.52,111Zm-385.18-4.9a2.35,2.35,0,0,1-2.16-3.28l1.89-4.34a2.35,2.35,0,1,1,4.3,1.9l-1.87,4.3A2.35,2.35,0,0,1,59.34,106.07Zm211.77-6.32A2.35,2.35,0,0,1,269,98.39l-2-4.25a2.36,2.36,0,0,1,4.26-2l2,4.27a2.35,2.35,0,0,1-2.13,3.35Zm185.94-2.84a2.35,2.35,0,0,1-1.71-4q1.62-1.72,3.27-3.43A2.35,2.35,0,1,1,462,92.79q-1.64,1.68-3.22,3.37A2.34,2.34,0,0,1,457.05,96.91Zm144.79-.25a2.37,2.37,0,0,1-2-1.07q-1.2-1.87-2.57-3.86a2.35,2.35,0,0,1,.6-3.27,2.37,2.37,0,0,1,3.28.6c.93,1.36,1.81,2.69,2.65,4a2.37,2.37,0,0,1-.7,3.26A2.4,2.4,0,0,1,601.84,96.66ZM67.12,88.93a2.48,2.48,0,0,1-1-.23A2.37,2.37,0,0,1,65,85.55q1-2.13,2.07-4.25a2.35,2.35,0,0,1,4.22,2.08c-.69,1.4-1.37,2.81-2.05,4.21A2.35,2.35,0,0,1,67.12,88.93Zm403.33-5.24a2.35,2.35,0,0,1-1.58-4.1c1.18-1.06,2.38-2.12,3.59-3.15A2.36,2.36,0,0,1,475.51,80q-1.77,1.5-3.49,3A2.32,2.32,0,0,1,470.45,83.69ZM262.91,82.8a2.34,2.34,0,0,1-2.1-1.29q-1.05-2.07-2.14-4.14a2.35,2.35,0,0,1,4.16-2.2q1.11,2.11,2.18,4.22a2.36,2.36,0,0,1-1,3.16A2.39,2.39,0,0,1,262.91,82.8Zm327.68-1.23a2.33,2.33,0,0,1-1.77-.8q-1.5-1.71-3.1-3.41a2.35,2.35,0,0,1,3.4-3.24q1.7,1.75,3.24,3.56a2.34,2.34,0,0,1-1.77,3.89ZM75.77,72.2a2.35,2.35,0,0,1-2-3.51q1.16-2,2.39-4.11a2.35,2.35,0,1,1,4,2.4q-1.22,2-2.34,4A2.36,2.36,0,0,1,75.77,72.2Zm409.36-.26a2.37,2.37,0,0,1-1.93-1,2.35,2.35,0,0,1,.58-3.28q2-1.37,4-2.67a2.36,2.36,0,1,1,2.55,4c-1.3.83-2.57,1.69-3.84,2.57A2.32,2.32,0,0,1,485.13,71.94Zm91.8-3.28a2.36,2.36,0,0,1-1.42-.48c-1.2-.92-2.44-1.8-3.72-2.66a2.35,2.35,0,0,1,2.62-3.91q2,1.37,4,2.82a2.36,2.36,0,0,1-1.43,4.23ZM253.86,66.29a2.35,2.35,0,0,1-2-1.15c-.79-1.33-1.59-2.66-2.42-4a2.36,2.36,0,0,1,4-2.49c.84,1.36,1.66,2.71,2.47,4.07a2.35,2.35,0,0,1-2,3.55Zm247.52-3.81a2.36,2.36,0,0,1-1-4.49c1.46-.68,2.93-1.33,4.41-1.93a2.35,2.35,0,1,1,1.78,4.35c-1.42.58-2.81,1.2-4.2,1.84A2.35,2.35,0,0,1,501.38,62.48Zm59.3-3.2a2.32,2.32,0,0,1-.89-.18c-1.38-.56-2.8-1.08-4.25-1.56A2.35,2.35,0,1,1,557,53.07q2.34.76,4.57,1.68a2.35,2.35,0,0,1-.89,4.53Zm-41.55-2.94a2.35,2.35,0,0,1-.52-4.65c1.57-.35,3.15-.66,4.75-.93a2.35,2.35,0,0,1,.77,4.64c-1.51.26-3,.55-4.48.88A2.37,2.37,0,0,1,519.13,56.34ZM85.77,56.23a2.35,2.35,0,0,1-1.94-3.69c.9-1.29,1.82-2.59,2.76-3.88a2.35,2.35,0,1,1,3.81,2.76c-.92,1.27-1.82,2.53-2.7,3.8A2.33,2.33,0,0,1,85.77,56.23Zm456.72-1.46h-.24c-1.48-.15-3-.25-4.52-.3a2.35,2.35,0,1,1,.14-4.7c1.65.05,3.27.16,4.85.31a2.36,2.36,0,0,1-.23,4.7ZM243.55,50.55a2.36,2.36,0,0,1-1.9-1q-1.36-1.87-2.78-3.72A2.35,2.35,0,1,1,242.59,43q1.46,1.89,2.87,3.82a2.35,2.35,0,0,1-.52,3.28A2.32,2.32,0,0,1,243.55,50.55ZM97.25,41.32a2.36,2.36,0,0,1-1.78-3.89q1.56-1.8,3.18-3.57A2.35,2.35,0,0,1,102.12,37c-1.05,1.15-2.08,2.3-3.08,3.47A2.35,2.35,0,0,1,97.25,41.32ZM231.59,36a2.36,2.36,0,0,1-1.72-.75c-1-1.12-2.12-2.22-3.21-3.31A2.35,2.35,0,1,1,230,28.62c1.14,1.12,2.25,2.27,3.34,3.43a2.36,2.36,0,0,1-1.72,4Zm-121.14-8.1a2.35,2.35,0,0,1-1.55-4.12c1.2-1.05,2.42-2.09,3.66-3.1a2.35,2.35,0,0,1,3,3.65c-1.19,1-2.37,2-3.52,3A2.34,2.34,0,0,1,110.45,27.92Zm107.27-4.6a2.33,2.33,0,0,1-1.44-.5c-1.23-1-2.46-1.87-3.7-2.75a2.36,2.36,0,0,1,2.73-3.84c1.3.92,2.58,1.88,3.86,2.88a2.35,2.35,0,0,1-1.45,4.21Zm-92.16-6.58a2.36,2.36,0,0,1-1.22-4.37q2.05-1.24,4.17-2.39a2.35,2.35,0,0,1,2.25,4.13c-1.35.73-2.67,1.49-4,2.28A2.27,2.27,0,0,1,125.56,16.74Zm76.33-3.55a2.36,2.36,0,0,1-1.06-.25q-2.06-1-4.14-1.95a2.35,2.35,0,0,1,1.89-4.31q2.19,1,4.37,2.06a2.35,2.35,0,0,1-1.06,4.45ZM142.55,8.75a2.35,2.35,0,0,1-.76-4.58q2.29-.78,4.63-1.42a2.35,2.35,0,0,1,1.24,4.54c-1.47.4-2.92.85-4.36,1.34A2.45,2.45,0,0,1,142.55,8.75Zm41.72-2a2.48,2.48,0,0,1-.54-.06c-1.48-.35-3-.65-4.46-.91a2.35,2.35,0,1,1,.79-4.64c1.59.27,3.18.6,4.75,1a2.35,2.35,0,0,1-.54,4.64ZM160.91,4.94a2.35,2.35,0,0,1-.18-4.7c1.59-.12,3.21-.21,4.84-.24A2.41,2.41,0,0,1,168,2.3a2.37,2.37,0,0,1-2.31,2.41c-1.53,0-3,.1-4.55.22Z"/><path class="cls-5" d="M370.31,826.35c29.21,0,55.05-9.14,72.73-25.73,44.8-42,19.13-99.69-.17-130.31a2,2,0,0,1-.22-1.66c1.35-4.3,2.6-8.6,3.81-12.89a2,2,0,0,1,1.2-1.32,100.47,100.47,0,0,0,34.78-22.29,2,2,0,0,1,1.42-.59,1.32,1.32,0,0,1,.28,0,63.78,63.78,0,0,0,8.88.68c5,0,9.17-.78,12.31-2.3,8.73-4.26,7.68-10.74,5.24-21-.4-1.67-.8-3.34-1.12-5a3.36,3.36,0,0,1,.57-2.65c1.66-2.4,6.21-3.3,13-4.41a34.66,34.66,0,0,0,5.55-1.15,13.63,13.63,0,0,0,7.29-7c3.82-8.18-2-19.9-7.23-30.24-2.31-4.61-4.49-9-5.54-12.58a3,3,0,0,1-.24-1.27A163.62,163.62,0,0,0,525,517.93a2,2,0,0,1,1.22-1.82c23.83-10,44.12-37,60.29-80.2,10.37-27.69,17.13-59.83,20.67-98.25,8.88-96.35-1-167.13-30.27-216.39-9.73-16.37-21.74-33.85-41.29-33.85a34.73,34.73,0,0,0-4.62.32c-21,2.78-39.71,21.14-55.19,38.74-27.95,31.74-53.24,69.78-82,123.32a2,2,0,0,1-1.76,1,2.17,2.17,0,0,1-.75-.14C361.35,238.65,324.66,232,288,232l-4.37,0a2,2,0,0,1-1.93-1.45c-9.44-33.23-21.41-72.21-38.5-109.35l-.61-1.32C231.38,95.6,218.7,68,198.61,51c-10.37-8.81-21-13.28-31.53-13.28-32.79,0-57,41.65-65.84,59.55C66.27,167.83,51.66,250.83,42,322.71c-5.63,41.82-14.14,105,35.15,127.86a2,2,0,0,1,1.1,2.3c-2.49,10-4.59,20.63-6.23,31.66a2,2,0,0,1-1.79,1.7c-9.28.91-22.23,2.95-27.48,10.16-2.31,3.18-2.92,7.07-1.87,11.91.49,2.25,3.51,6.08,6.43,9.79,6.05,7.67,13.58,17.23,6.63,23a46.36,46.36,0,0,1-5.09,3.45c-3.48,2.16-7.42,4.6-8.77,7.6-2.4,5.35-2.42,10-.08,14.25,7.09,12.79,33.75,18.26,49,20.38a2,2,0,0,1,1.63,1.36,80.56,80.56,0,0,0,8.7,14.38,2,2,0,0,1,.35,1.61,1.92,1.92,0,0,1-1,1.33c-36.59,20.84-56.46,80.67-38.64,116.4,15.43,31,51.1,35.58,71,35.58h0a140.16,140.16,0,0,0,20-1.46,2.62,2.62,0,0,1,.48,0c48.54,4.83,99.52,20.47,147.43,45.24a1.82,1.82,0,0,1,.52.39A70.33,70.33,0,0,0,326.36,819,133.82,133.82,0,0,0,370.31,826.35Z"/><path class="cls-6" d="M391.3,250.71a2.17,2.17,0,0,0,.75.14,2,2,0,0,0,1.76-1c28.77-53.54,54.06-91.58,82-123.32,15.48-17.6,34.15-36,55.19-38.74a34.73,34.73,0,0,1,4.62-.32c19.55,0,31.56,17.48,41.29,33.85,29.25,49.26,39.15,120,30.27,216.39-3.54,38.42-10.3,70.56-20.67,98.25-16.17,43.22-36.46,70.2-60.29,80.2a2,2,0,0,0-1.22,1.82,163.62,163.62,0,0,1-2.21,26.75A3,3,0,0,0,523,546c1.05,3.62,3.23,8,5.54,12.58,5.18,10.34,11,22.06,7.23,30.24a13.63,13.63,0,0,1-7.29,7,34.66,34.66,0,0,1-5.55,1.15c-6.74,1.11-11.29,2-13,4.41a3.36,3.36,0,0,0-.57,2.65c.32,1.65.72,3.32,1.12,5,.25,1.08.49,2.11.7,3.11a186.35,186.35,0,0,1-20.15-3.84c-29-7-65.57-22.33-75.17-53.38-5.89-19,8.22-37,14-54,5-14.67-9.42-37.17-19.66-50.28-27.67-35.43-17.58-43.61-9.41-93.33,6.27-38.18,11-79.22-35.41-115.1A232.83,232.83,0,0,1,391.3,250.71Z"/><path class="cls-6" d="M48.84,544.53a46.36,46.36,0,0,0,5.09-3.45c7-5.76-.58-15.32-6.63-23-2.92-3.71-5.94-7.54-6.43-9.79-1-4.84-.44-8.73,1.87-11.91,5.25-7.21,18.2-9.25,27.48-10.16a2,2,0,0,0,1.79-1.7c1.64-11,3.74-21.69,6.23-31.66a2,2,0,0,0-1.1-2.3c-49.29-22.85-40.78-86-35.15-127.86,9.67-71.88,24.28-154.88,59.25-225.47,8.87-17.9,33.05-59.55,65.84-59.55,10.55,0,21.16,4.47,31.53,13.28,20.09,17.07,32.77,44.63,44,69l.61,1.32c17.09,37.14,29.06,76.12,38.5,109.35a2,2,0,0,0,1.93,1.45l4.37,0a306,306,0,0,1,32.54,1.8c-40.68,19.77-48.35,54.17-47.31,86.57,2,62.11-3,125.22-79,142.94-17.23,4-32.93,9.68-39.87,27.62-3.63,9.41-2.45,20.5-3.9,30.39-2.16,14.77-9.4,21.77-23.65,25.66-26.12,7.12-58.86,7.59-85.49,4.35-.22,0-.42-.07-.64-.1C42.32,548.66,45.71,546.47,48.84,544.53Z"/><path class="cls-7" d="M226.37,576.55c1.11-8.64,5.34-15.64,11.92-19.7a38.27,38.27,0,0,1,20.15-5.7,34.87,34.87,0,0,1,24.11,9.25,2,2,0,0,1-1.33,3.46,51.32,51.32,0,0,0-25.39,7.71,2.43,2.43,0,0,0-1.17,2.9,2.91,2.91,0,0,0,2.5,2.23,2.55,2.55,0,0,0,1.35-.43c7.7-4.65,15.82-7.12,23.48-7.12,13.14,0,24.15,7,31,19.57a2,2,0,0,1-1.76,3l-.28,0a67.41,67.41,0,0,1-9.54-2.08,2,2,0,0,1-1.43-2.06c.07-1,.11-2,.09-3a2.63,2.63,0,0,0-2.79-2.59,2.82,2.82,0,0,0-2,.76,2.36,2.36,0,0,0-.61,1.76,25.09,25.09,0,0,1-7.19,18.45c-6.18,6.28-15.8,9.88-26.39,9.88-10.84,0-20.66-3.78-26.95-10.36C228.12,596.07,225.14,586.17,226.37,576.55Z"/><path class="cls-8" d="M258,527.49a2,2,0,0,1,1.17-1.29,2,2,0,0,1,.75-.15,2.06,2.06,0,0,1,1,.26,50.72,50.72,0,0,0,8.69,3.87,59.76,59.76,0,0,0,19,3.24A50.29,50.29,0,0,0,321.85,521a2.05,2.05,0,0,1,1.31-.48l.28,0a2,2,0,0,1,1.4.89c9.33,14.36,23.86,22.6,39.86,22.6a45.69,45.69,0,0,0,10.79-1.29,1.93,1.93,0,0,1,.47-.05,2,2,0,0,1,2,2.38c-2.19,11.25-11.22,23-18.95,30.3-11.19,10.53-23.77,16.19-37.39,16.84h-.09a2,2,0,0,1-1.35-.52,2,2,0,0,1-.65-1.39,3.07,3.07,0,0,0-.26-1.13c-5.3-11.88-14-20-25.19-23.48a2,2,0,0,1-1.13-.89c-6.66-11.25-20.14-18.87-34.33-19.43a2,2,0,0,1-1.89-1.65A36,36,0,0,1,258,527.49Z"/><path class="cls-6" d="M333.09,769c7.1-16.67,5.55-34.48-1.86-50,2.62-.25,5.28-.4,8-.4a111.67,111.67,0,0,1,33.11,5.52c16,5,26.26,17.21,36.6,26.64,3.7,3.39,7.35,6.21,10.4,7.64,25.22,11.81,29-23.14,9.07-54.58a171.93,171.93,0,0,0,10.36-23.56,2,2,0,0,1,1.7-1.32h.18a2,2,0,0,1,1.73,1c16,27.54,37.28,78.89.45,113.45C424,811.11,397,821.26,369,821.26a109.26,109.26,0,0,1-21.42-2.09c-15.07-3-34-8.43-46.56-23.77-.71-.86-1.37-1.77-2-2.67C313.33,790,327.48,782.14,333.09,769Z"/><path class="cls-6" d="M102.93,609.24a2,2,0,0,1,2.4.39,84.15,84.15,0,0,0,10.35,9.06c-8.34,5.43-16.29,12-20.38,21.11-3.8,8.48-2.06,21.18,7,25.76,21.1,10.61,36.7-8.18,45.33-25.48a74.82,74.82,0,0,1,26.58-6.58c-2.82,19.26,3.54,41.46,16.24,54.2a83.36,83.36,0,0,0,32.61,20c-15.83,22-41.53,38.12-69.15,42.14a158.77,158.77,0,0,1-22.37,1.61c-40,0-65.45-15.29-69.84-42C55.86,673.72,68.12,627.79,102.93,609.24Z"/><path class="cls-9" d="M160.37,113.72c5.37,18.5,8.8,37.89,12.08,56.81,4.16,24,11.38,48.77,10.32,73.3-.69,16-14.43,8.36-23.84,13.78-5.77,3.32-5.36,12.43-5,17.88.55,8.74,7.31,15.6-2.74,15.17-5.56-.24-11.51-.46-16.76,1.76-12.31,5.2-14.08,17.78-13.13,29.95-13.87-8.73-28.78-38.15-13.11-62.26,21.36-32.87,21.92-50.48,23.2-64.05C132.72,181.67,135.85,134.36,160.37,113.72Z"/><path class="cls-10" d="M52.65,539.54c8.47-7-12.09-23.25-13.73-30.82C34.8,489.88,55,485.71,70,484.24c1.59-10.73,3.65-21.37,6.27-31.85C27,429.52,33.88,368,40,322.45,50.29,246,65,166,99.45,96.35c19.46-39.27,57.13-83.71,100.45-46.91,20.81,17.68,33.94,46.72,45.1,71,16.21,35.22,28,72.41,38.61,109.64,36-.51,74.94,5.33,108.44,18.81,23.41-43.56,49.54-86.51,82.27-123.7,14.18-16.11,33.91-36.42,56.43-39.4,23.48-3.1,37.16,16.43,47.89,34.5,37,62.34,37,147.84,30.54,217.6-3.08,33.43-9,67.24-20.78,98.76C577.2,466.53,558.08,504.92,527,518A167.33,167.33,0,0,1,524.77,545c.05.14.15.22.19.36,3.3,11.34,18.74,31.23,12.66,44.23a15.59,15.59,0,0,1-8.25,8c-3.14,1.49-18.74,2-18,6,2.11,10.72,7.32,22-5.21,28.14-6,2.91-14.27,3-22.34,1.81a102.32,102.32,0,0,1-35.48,22.75c-1.2,4.3-2.47,8.62-3.81,12.93C471,711.28,485,764,444.4,802.08c-30.5,28.62-80.88,32.13-118.71,18.82-38.38-13.5-65-63.58-31.52-95.56,26.88-25.67,73.19-14.27,106.12,2.42,20.3-17.44,29.92-42.67,37.27-67.88-18.23,5-37.69,5.21-55-.85-5.69-2-3.24-11.08,2.5-9.07,28.85,10.1,64.37,1.14,87.47-18.75-2.54-.7-4.95-1.44-7-2.18-5.66-2-3.23-11.14,2.5-9.07,5.9,2.13,40.51,11.68,36.33-7-1.08-4.83-5.31-12.63-.87-17.18,4-4,10.26-4.72,15.61-5.36,14.74-1.77,7.8-17.71,1.78-30.67a73,73,0,0,1-4.09,9.67c-2.83,5.37-11,.61-8.13-4.75,10.59-20.09,9.17-46.41,8.6-68.45-.58-22.63-2.86-45.85-9.08-67.69-1.66-5.85,7.43-8.32,9.08-2.5,7,24.65,8.91,50.88,9.57,76.38,0,1.73.07,3.51.1,5.29,30.23-14.8,48.36-59.28,57.82-89.62,9.25-29.64,13.46-60.93,16-91.78,5.31-64.94,2.36-138.11-28-197.14-11.57-22.53-27.55-42.52-54-29.59-21.42,10.48-38.14,31.62-52.61,49.9C441,181.37,420,216.84,400.69,252.62a166.1,166.1,0,0,1,33.71,20.11c4.78,3.74-1.93,10.35-6.65,6.65a155.89,155.89,0,0,0-34-19.75,5.15,5.15,0,0,1-2.35-1c-44.61-18.75-101-23.15-144.19-16.31-5.93.94-8.48-8.13-2.5-9.08a266.49,266.49,0,0,1,29.16-2.86c-15-52.54-32.42-106-62.36-152.06-15.63-24-39.16-45-67.09-26.39-21.81,14.5-34.66,43.35-45,66.38C72.82,177.8,61.48,245,51.38,308.93c-6.88,43.5-19,110.28,27.41,134.23,6.69-23.37,16.41-45.74,30.41-66.1,3.41-5,11.57-.26,8.13,4.75-24.64,35.81-35.8,78-40.2,120.8-.62,6-10,6-9.42,0q.45-4.35,1-8.69c-10.42,1.57-25.15,6.06-17.15,18.31,3.32,5.09,8.32,9.45,10.66,15.19C65.6,535.76,64,542.33,57,548.07c-10.25,8.5-14.22,13-1.34,21.35,15.6,10.15,36.43,11.44,54.37,11.76,6.06.11,6.07,9.53,0,9.41-2.32,0-5.79-.21-9.93-.56,11.78,20.45,31.67,33.55,54.82,38.83,31.93-10.2,75.11-2.71,86,29.76,14.4,43-33.47,84.42-70.5,95.26-37.56,11-92.49,8.29-112.15-31.15-19.14-38.39,3.39-98.49,39.46-119a82.93,82.93,0,0,1-9-14.93.08.08,0,0,0,0,0c-25.81-3.59-61.26-13.36-50.48-37.43C40.6,546.06,48.53,543,52.65,539.54Zm356.47,193c3.87,2.24,7.49,4.51,10.75,6.76,5,3.41.27,11.57-4.75,8.12-29.24-20.12-72.21-36.23-106.74-20.37a42.77,42.77,0,0,0-4.47,2.42c5.77,1.79,11.37,4.13,17.19,5.82s3.34,10.77-2.5,9.07c-7.27-2.11-14.2-5.29-21.57-7.05a4.55,4.55,0,0,1-1.55-.73,30.82,30.82,0,0,0-6.82,15.87c6.66,2.53,13,5.86,19.45,8.81,5.52,2.5.73,10.61-4.75,8.12-5-2.25-9.79-4.81-14.8-6.93,1.25,11.27,6.68,22.8,14,31.69,11.39,13.88,28.48,19.7,45.41,23.08,32.48,6.49,69.31-2.55,93.52-25.27,33.07-31,19-76.8-.81-111C433.71,700.26,424.33,718.63,409.12,732.53ZM63.72,709.19c6.61,40.15,58.54,43.25,89.95,38.69,33.56-4.88,65.34-28,78.11-59.81A40.89,40.89,0,0,0,235,670.35L218,673.77c-5.93,1.18-8.45-7.89-2.5-9.08l17.53-3.5c-2.63-6.59-7.58-11.93-14-16-6.19,1.65-11.45,5.35-17.17,8.1-5.44,2.62-10.22-5.49-4.75-8.12,3.56-1.71,7-3.7,10.48-5.47-23.61-8.36-56.15-4.9-71.45,10.5-4.27,4.31-10.92-2.34-6.65-6.65a53.33,53.33,0,0,1,11.78-8.8A93.68,93.68,0,0,1,103.88,611C70.18,629,57.79,673.1,63.72,709.19Z"/><path class="cls-10" d="M299.9,473.46c-11-7-20.14-17-21.15-27.92-4.76-51.62,88.35-40.83,105.83-7.35,9.44,18.09-7.52,36.61-23.64,42.17C345.9,485.55,320.72,486.79,299.9,473.46Z"/><path class="cls-10" d="M486.4,318.91c-4.12-.85-9.79-1.46-12.54-5.13-8.45-11.28-1.1-25.4,3.66-37,7.17-17.48,56.71-149.52,89.31-107.42,3.66,4.73-3,11.44-6.66,6.65-17-21.93-47.06,46.08-52.6,56.16-9.42,17.15-16.66,36.6-24.09,54.72-8.42,20.51,11.27,20.52,21.48,32.06,4.94,5.57,2.21,14.45.4,20.58-4.79,16.16,3.38,15.24,14.17,20.76,15.9,8.12,4.87,27.31-1.89,37.41-3.36,5-11.52.3-8.13-4.76,5.12-7.63,14.72-21,1.31-26.36-3.29-1.32-6.74-2.17-10-3.5-6.7-2.7-7.34-6.94-7.73-13.63C492.53,340.48,507.48,323.25,486.4,318.91Z"/><path class="cls-10" d="M159.64,111.05c-1.75-5.82,7.33-8.29,9.08-2.5,10.57,35,17.45,73.77,21.87,110.11,1,7.91,8.38,55.42-13.92,47.82-27-9.19-.82,27.56-15.56,32.82-4.6,1.65-9.86.72-14.64.62-19.44-.44-16.69,19.76-14.24,33.55,1.05,5.94-8,8.47-9.07,2.5-2.64-14.82-5.87-36.32,11.25-43.55,5.25-2.22,11.2-2,16.76-1.76,10.05.43,3.29-6.43,2.74-15.17-.34-5.45-.75-14.56,5-17.88,9.41-5.42,23.15,2.21,23.84-13.78,1.06-24.53-6.16-49.27-10.32-73.3C169,150.71,165.47,130.34,159.64,111.05Z"/><path class="cls-10" d="M385.79,541.07c-.54,15.88-13.08,31.49-24,41.74C344.73,598.89,322,603.22,300,596.88c-10.39,27.52-56.94,31.42-74.57,6.7-12.11-17-7.06-41,9.17-53.16a35.31,35.31,0,0,1,14.68-6.37,46.29,46.29,0,0,1,2.6-21.59C243.7,515.51,238,506,237.63,495c-.19-6.07,9.22-6.06,9.41,0,.49,15.4,14.69,24.78,27.93,29.22,16.87,5.67,33.93.11,45.88-12.44a4.13,4.13,0,0,1,3.78-1.34,3.94,3.94,0,0,1,3.61,2.29c16.45,31.63,55.54,32,73.25,1,3-5.27,11.13-.53,8.12,4.75A54.92,54.92,0,0,1,385.79,541.07ZM235.59,601c16.62,17.4,57.56,11.25,57.08-16.55-.1-6.08,9.31-6.07,9.41,0,0,1.09,0,2.15-.09,3.2a64,64,0,0,0,9.25,2c-10.87-20-31.9-23.67-51.69-11.7-5.21,3.16-9.94-5-4.76-8.12a53.09,53.09,0,0,1,26.39-8c-11-10.4-28.63-11.47-41.84-3.31C225.2,567.29,224.92,589.83,235.59,601Zm87.57-78.54c-15.22,13.1-34.63,16.17-54.2,9.61a53.19,53.19,0,0,1-9-4,34.35,34.35,0,0,0-1.26,15.28c14.39.56,28.79,8.27,36,20.39,11.07,3.45,20.62,11.58,26.43,24.58a5,5,0,0,1,.43,1.86c13.17-.62,25.31-6.13,36.11-16.29,7.31-6.89,16.23-18.32,18.36-29.24C356.75,549.27,335.8,541.92,323.16,522.47Z"/><path class="cls-10" d="M222.81,365.35a20.24,20.24,0,0,1,12.84,2.21c14.53,8,20.7,23.18,17.81,39.26-5.83,32.34-56.68,39.47-67.46,6.69C179.75,394.54,202,364.41,222.81,365.35Z"/><path class="cls-10" d="M405.05,420.12c12.09-22.78,68.18-.14,61.5,24.9a3.46,3.46,0,0,1-3.26,2.48c-9.08.93-18.81-4.74-27.49-6.84-9.32-2.24-22.57-1.19-29.25-8.91A9.89,9.89,0,0,1,405.05,420.12Z"/><path class="cls-9" d="M527.68,372.79c-.1-5-2.28-9.51-8.15-12.51-10.79-5.52-19-4.6-14.17-20.76,1.81-6.13,4.54-15-.4-20.58-10.21-11.54-29.9-11.55-21.48-32.06,7.43-18.12,14.67-37.57,24.09-54.72,3.79-6.9,19.06-40.88,33.77-54.66,22.76,23,25.25,44.62,14.72,74.14-8.29,23.24-14.17,35.6-11.88,69.12C545.68,342.69,550.05,354.39,527.68,372.79Z"/><path class="cls-10" d="M354.22,438.15c-7.94.1-54.59,8.94-54.07-5,.39-10.23,16.45-11.18,23.58-11.36a48.46,48.46,0,0,1,32.51,11.43c2,1.68.31,4.86-2,4.89Z"/><path class="cls-11" d="M158.49,667.33c-.6,2.7-.5,5-1.61,7.59a21,21,0,0,1-5.85,7.49c-5.06,4.45-12.05,8-18.45,4.12a5.42,5.42,0,0,1-1.08-8.42c3.23-3.21,7.5-4.07,11.3-6.37,1.87-1.14,3.41-2.71,5.3-3.83,2.14-1.26,4.62-2,6.6-3.49s4.23.91,3.79,2.91Z"/><path class="cls-11" d="M392.47,760.62c-8.43-.45-15.36-4.35-22.91-7.81-6.64-3.06-15.27-5.46-17.8-13.13a2.6,2.6,0,0,1,1.18-2.9c7.44-4.87,17,.12,24.11,3.22,8,3.48,15.62,9,17.55,17.82a2.23,2.23,0,0,1-2.13,2.8Z"/><path class="cls-11" d="M542.52,118.74c-19.67,13-35.78,31.46-50,50-14.35,18.78-26,39.94-45.7,53.81-2.13,1.5-4.64-1-4.11-3.16,6.09-25.36,22.58-47.61,38.52-67.75,17.44-22,31.9-32.67,59.41-37.37a2.44,2.44,0,0,1,1.87,4.43Z"/><path class="cls-11" d="M251.14,214.49c-11.75-19.72-24.06-38.5-33.9-59.44-10.4-22.14-28.33-48.26-30.65-73.11-.25-2.64,3.19-4.42,5.32-3,20.54,13.34,30.73,46.24,40.27,67.41,9.84,21.83,16.27,43.85,21.78,67a1.55,1.55,0,0,1-2.82,1.19Z"/><path class="cls-8" d="M459.26,462.15c1.08-1.86,2.25-4.68,5.06-6a26.93,26.93,0,0,1,8.25-2.18c7.09-.93,14.95-.45,18.69,6.53a8.61,8.61,0,0,1-2,10.27c-4.54,3.92-9.93,3-15.49,3a47.56,47.56,0,0,1-6,.06c-3.17-.42-5-2.19-7-3.74a5.84,5.84,0,0,1-1.57-7.9Z"/><path class="cls-8" d="M172.51,432.77c-4.84-.44-8.82-4.5-12.49-7.31-2.61-2-5.76-3.89-8-6.37a18.73,18.73,0,0,1-2.8-3.74,30.69,30.69,0,0,1-1.24-3.59,6.57,6.57,0,0,1,6.08-9.39c2.16,0,7-.27,10.64,2.13a42.86,42.86,0,0,1,9.5,8.43c2.74,3.25,4.93,7.83,4.72,12.24-.16,3.35-2.47,8-6.46,7.6Z"/></g></g></g></svg>