<svg xmlns="http://www.w3.org/2000/svg" viewBox="0 0 862.51 620.04"><defs><style>.cls-1{isolation:isolate;}.cls-2{fill:#ffa3bc;mix-blend-mode:multiply;}.cls-3{fill:#fff;}.cls-4{fill:#636466;}.cls-5{fill:#fdc435;}.cls-6{fill:#ff915b;}.cls-7{fill:#ff7cc7;}.cls-8{fill:#d1ffff;}.cls-9{fill:#00eef0;}.cls-10{fill:#00b2b6;}.cls-11{fill:#acd0e0;}.cls-12{fill:#ecfffe;}.cls-13{fill:#ffbfe2;}.cls-14{fill:#f85094;}.cls-15{fill:#ff564d;}.cls-16{fill:#68182b;}.cls-17{fill:#fec771;}</style></defs><g class="cls-1"><g id="圖層_2" data-name="圖層 2"><g id="Layer_2" data-name="Layer 2"><path class="cls-2" d="M16.73,365.39l.19,2.28c3.23,40.4,6.58,82.18,43.8,118.15a159.27,159.27,0,0,0,27.17,21,69.82,69.82,0,0,0-5.72,7.33c-.69,1-1.32,2-1.9,3-11.69,20.6-10.91,44.25,2.12,64.87,15.33,24.27,45,39.84,72.22,37.88,25.22-1.83,44.78-18.45,51-43.4a74.84,74.84,0,0,0,1.86-26.67l1.68-2.09c68.31,13.24,144.13,16.62,231,10.34,12.4-.9,25.27-2,38.23-3.32,76.38-7.67,142-21.25,200-41.4l2.47,2.3a75,75,0,0,0,3.8,21.4c8.68,26.23,31.67,41.93,58.57,40,27.37-2,54.6-21.56,66.21-47.62,9.88-22.17,7.17-45.66-7.43-64.46a34.15,34.15,0,0,0-2.28-2.67l-.21-.24A66.63,66.63,0,0,0,794,456.7c27.86-20.37,47.77-44,59.35-70.58,13.82-31.71,8.87-65.65,4.88-92.93l0-.09c.39-17.4-5.35-41.13-31.77-62.76-19.89-16.28-45.13-24.74-63.57-30.92-27-9.06-56.06-16.35-90.29-22.63-44.69-95.68-113.7-150.53-200.46-159a273,273,0,0,0-46-.62C331.4,24,247.32,83,201.28,175a349.85,349.85,0,0,0-17.11,40.6c-47.57,15.07-92.61,32.62-128.31,65-27.39,24.81-41.17,53.13-39.21,80.26A38.69,38.69,0,0,0,16.73,365.39Z"/><path class="cls-3" d="M844.15,279.07V279c.38-17.4-5.36-41.13-31.78-62.76-19.89-16.27-45.13-24.74-63.57-30.92-27-9.06-56.06-16.35-90.29-22.63C613.81,67,544.8,12.14,458,3.66a272.94,272.94,0,0,0-46-.62C317.28,9.89,233.2,68.9,187.16,160.88a349.12,349.12,0,0,0-17.11,40.6c-47.57,15.06-92.61,32.61-128.31,65C14.35,291.26.57,319.57,2.53,346.71a38.56,38.56,0,0,0,.09,4.56l.18,2.28C6,394,9.38,435.73,46.61,471.7a159.74,159.74,0,0,0,27.16,21A67.72,67.72,0,0,0,68.06,500a33.09,33.09,0,0,0-1.91,3c-11.68,20.6-10.91,44.25,2.12,64.88,15.34,24.26,45,39.83,72.23,37.87,25.22-1.83,44.77-18.45,51-43.4a74.8,74.8,0,0,0,1.86-26.66l1.68-2.09c68.32,13.23,144.13,16.61,231,10.33,12.4-.9,25.27-2,38.24-3.31,76.37-7.68,142-21.26,199.94-41.41l2.47,2.3a75.32,75.32,0,0,0,3.8,21.4c8.69,26.23,31.67,41.93,58.57,40,27.37-2,54.6-21.56,66.21-47.62,9.88-22.17,7.18-45.66-7.43-64.46a33.84,33.84,0,0,0-2.28-2.67l-.21-.23a65.19,65.19,0,0,0-5.44-5.34c27.87-20.36,47.77-44,59.36-70.58C853.09,340.3,848.14,306.35,844.15,279.07Z"/><path class="cls-4" d="M136.16,608.28c-1.84,0-3.34,0-4.86-.15a2.35,2.35,0,1,1,.3-4.7c1.42.09,2.83.14,4.24.14a2.5,2.5,0,0,1,2.51,2.36A2.22,2.22,0,0,1,136.16,608.28Zm14-1.65a2.35,2.35,0,0,1-.54-4.64c1.47-.35,2.92-.76,4.34-1.22a2.36,2.36,0,0,1,1.46,4.48q-2.31.75-4.71,1.32A2.64,2.64,0,0,1,150.14,606.63Zm-32.6-.77a2.46,2.46,0,0,1-.59-.08c-1.56-.4-3.11-.86-4.65-1.36a2.35,2.35,0,0,1,1.45-4.48q2.18.72,4.38,1.29a2.35,2.35,0,0,1-.59,4.63Zm49.86-6.52a2.35,2.35,0,0,1-1.28-4.33c1.27-.82,2.49-1.68,3.67-2.6a2.36,2.36,0,0,1,2.89,3.72c-1.3,1-2.63,2-4,2.83A2.32,2.32,0,0,1,167.4,599.34ZM100,599.06a2.37,2.37,0,0,1-1.09-.27q-2.13-1.12-4.22-2.35a2.36,2.36,0,0,1,2.41-4.05c1.31.78,2.65,1.52,4,2.23a2.35,2.35,0,0,1-1.09,4.44ZM84.41,588.6A2.38,2.38,0,0,1,82.9,588c-1.23-1-2.44-2.11-3.61-3.21a2.35,2.35,0,0,1,3.22-3.43q1.67,1.58,3.42,3a2.36,2.36,0,0,1-1.52,4.16Zm96.73-2a2.33,2.33,0,0,1-1.43-.48,2.36,2.36,0,0,1-.44-3.3c.91-1.18,1.77-2.42,2.58-3.69a2.35,2.35,0,0,1,4,2.53c-.89,1.39-1.82,2.73-2.81,4A2.32,2.32,0,0,1,181.14,586.62ZM71.51,575a2.33,2.33,0,0,1-1.88-.94q-1.45-1.95-2.78-4a2.35,2.35,0,0,1,3.94-2.56c.83,1.27,1.7,2.52,2.61,3.73A2.35,2.35,0,0,1,71.51,575Zm118.43-4.87a2.27,2.27,0,0,1-.77-.13,2.35,2.35,0,0,1-1.46-3c.49-1.41.93-2.86,1.32-4.33a2.35,2.35,0,1,1,4.55,1.2c-.42,1.59-.9,3.14-1.42,4.66A2.35,2.35,0,0,1,189.94,570.08Zm534.11-4.67h0c-1.64,0-3.27-.09-4.88-.23a2.35,2.35,0,1,1,.41-4.69c1.49.13,3,.2,4.51.22a2.35,2.35,0,0,1,0,4.7Zm14-1.43a2.36,2.36,0,0,1-.48-4.66c1.48-.31,3-.67,4.42-1.08a2.35,2.35,0,1,1,1.26,4.53c-1.56.44-3.13.83-4.71,1.16A2.72,2.72,0,0,1,738.06,564Zm-32.47-1.76a2.36,2.36,0,0,1-.78-.13q-2.32-.81-4.55-1.82a2.35,2.35,0,1,1,1.93-4.29c1.37.61,2.76,1.17,4.18,1.67a2.35,2.35,0,0,1-.78,4.57ZM62.33,558.59a2.36,2.36,0,0,1-2.19-1.49c-.6-1.53-1.15-3.06-1.63-4.59A2.35,2.35,0,1,1,63,551.1c.45,1.43,1,2.85,1.51,4.27a2.36,2.36,0,0,1-2.18,3.22Zm693.47-.76a2.35,2.35,0,0,1-1-4.46c1.36-.67,2.72-1.38,4.05-2.13a2.35,2.35,0,0,1,2.3,4.11q-2.11,1.18-4.29,2.24A2.22,2.22,0,0,1,755.8,557.83Zm-66.54-4.76a2.3,2.3,0,0,1-1.48-.53q-1.9-1.54-3.67-3.25a2.36,2.36,0,1,1,3.27-3.39c1.08,1.05,2.21,2.05,3.36,3a2.35,2.35,0,0,1-1.48,4.18Zm-495.61-1.4h-.18a2.35,2.35,0,0,1-2.17-2.52c.11-1.52.18-3,.19-4.55a2.35,2.35,0,0,1,2.35-2.33h0a2.34,2.34,0,0,1,2.33,2.37c0,1.62-.08,3.24-.2,4.86A2.35,2.35,0,0,1,193.65,551.67Zm153.53-2.33a2.35,2.35,0,0,1,0-4.7l4.7,0h0a2.35,2.35,0,0,1,0,4.7l-4.71,0Zm-14.11-.06h0l-4.72-.07a2.36,2.36,0,0,1-2.31-2.4,2.26,2.26,0,0,1,2.39-2.31l4.7.07a2.36,2.36,0,0,1,0,4.71Zm32.93-.15a2.36,2.36,0,0,1-.05-4.71l4.7-.11a2.46,2.46,0,0,1,2.41,2.3,2.36,2.36,0,0,1-2.3,2.41l-4.71.11Zm-51.75-.27h-.08l-4.7-.16a2.35,2.35,0,0,1-2.26-2.44,2.45,2.45,0,0,1,2.44-2.26l4.67.16a2.36,2.36,0,0,1-.07,4.71Zm70.56-.28a2.36,2.36,0,0,1-.09-4.71l4.7-.18a2.32,2.32,0,0,1,2.45,2.25,2.36,2.36,0,0,1-2.26,2.45l-4.71.18ZM295.47,548h-.13l-4.7-.27a2.36,2.36,0,0,1-2.21-2.49,2.42,2.42,0,0,1,2.49-2.21l4.68.27a2.35,2.35,0,0,1-.13,4.7Zm476.19-.28a2.35,2.35,0,0,1-1.47-4.19c1.19-1,2.35-1.94,3.49-3a2.35,2.35,0,0,1,3.14,3.5q-1.8,1.62-3.69,3.12A2.34,2.34,0,0,1,771.66,547.76Zm-368,0a2.35,2.35,0,0,1-.12-4.7l4.69-.26a2.39,2.39,0,0,1,2.48,2.21,2.34,2.34,0,0,1-2.21,2.48l-4.71.27Zm-126.9-.9h-.18l-4.69-.38a2.35,2.35,0,1,1,.38-4.69l4.67.38a2.35,2.35,0,0,1-.18,4.69Zm145.68-.26a2.35,2.35,0,0,1-.16-4.7l4.69-.33a2.3,2.3,0,0,1,2.51,2.17,2.34,2.34,0,0,1-2.17,2.52l-4.7.33ZM258,545.15h-.23l-4.69-.49a2.36,2.36,0,0,1-2.09-2.6,2.33,2.33,0,0,1,2.59-2.08l4.65.48a2.36,2.36,0,0,1-.23,4.7Zm183.18,0a2.35,2.35,0,0,1-.19-4.7l4.68-.4a2.33,2.33,0,0,1,2.55,2.14,2.35,2.35,0,0,1-2.14,2.55l-4.7.4Zm18.75-1.7a2.35,2.35,0,0,1-.23-4.69l4.37-.43.54,2.31.22,2.34-4.67.46ZM239.3,543l-.3,0-4.67-.61a2.35,2.35,0,0,1,.62-4.66l4.65.6a2.36,2.36,0,0,1-.3,4.69Zm239.33-1.57a2.35,2.35,0,0,1-.26-4.69l4.66-.53a2.35,2.35,0,1,1,.55,4.67l-4.69.54Zm-257.95-1-.36,0-4.66-.73a2.36,2.36,0,0,1,.75-4.65l4.63.73a2.35,2.35,0,0,1-.36,4.68Zm-162.6-.09a2.36,2.36,0,0,1-2.35-2.17c-.11-1.55-.17-3.1-.17-4.65A2.45,2.45,0,0,1,57.91,531a2.26,2.26,0,0,1,2.35,2.24v.23c0,1.43.06,2.86.17,4.29a2.37,2.37,0,0,1-2.17,2.53Zm439.24-1.12a2.35,2.35,0,0,1-.3-4.68l4.65-.61a2.35,2.35,0,1,1,.63,4.66l-4.68.62ZM676.9,539a2.33,2.33,0,0,1-2-1.11q-1.29-2.05-2.43-4.24a2.35,2.35,0,0,1,4.17-2.18c.71,1.35,1.45,2.66,2.24,3.93a2.35,2.35,0,0,1-.74,3.24A2.38,2.38,0,0,1,676.9,539Zm-474.77-1.7a2,2,0,0,1-.42,0l-4.64-.86a2.36,2.36,0,0,1,.88-4.63l4.61.86a2.35,2.35,0,0,1-.43,4.67ZM516,536.64a2.35,2.35,0,0,1-.33-4.68l4.64-.69a2.35,2.35,0,1,1,.7,4.65l-4.66.7A2.06,2.06,0,0,1,516,536.64Zm269-2.15a2.35,2.35,0,0,1-1.83-3.82c1-1.2,1.87-2.41,2.75-3.66a2.36,2.36,0,0,1,3.84,2.73q-1.41,2-2.92,3.87A2.38,2.38,0,0,1,785,534.49Zm-250.39-.74a2.35,2.35,0,0,1-.38-4.67l4.63-.78a2.35,2.35,0,1,1,.79,4.64l-4.65.78Zm18.54-3.25a2.36,2.36,0,0,1-.43-4.67l4.62-.86a2.35,2.35,0,0,1,.88,4.62l-4.64.87A2.09,2.09,0,0,1,553.1,530.5Zm18.47-3.63a2.35,2.35,0,0,1-.47-4.65l4.59-1a2.36,2.36,0,0,1,1,4.61l-4.62,1A2.59,2.59,0,0,1,571.57,526.87Zm18.39-4a2.36,2.36,0,0,1-.53-4.65l4.57-1.07a2.35,2.35,0,0,1,1.09,4.58l-4.6,1.08A2.46,2.46,0,0,1,590,522.85Zm79.47-1.06a2.34,2.34,0,0,1-2.26-1.73c-.44-1.56-.82-3.13-1.16-4.7a2.35,2.35,0,1,1,4.6-1c.32,1.49.68,3,1.09,4.43a2.36,2.36,0,0,1-2.27,3Zm-609.79-.14a2.68,2.68,0,0,1-.56-.07,2.36,2.36,0,0,1-1.73-2.85c.39-1.57.84-3.14,1.34-4.69a2.36,2.36,0,1,1,4.48,1.46c-.48,1.44-.89,2.9-1.25,4.35A2.35,2.35,0,0,1,59.64,521.65Zm735.23-3.11a2.35,2.35,0,0,1-2.13-3.34l.39-.86c.5-1.12,1-2.22,1.38-3.33a2.35,2.35,0,1,1,4.39,1.69q-.67,1.77-1.47,3.54l-.42.94A2.35,2.35,0,0,1,794.87,518.54Zm-186.63-.15a2.35,2.35,0,0,1-.58-4.63l4.54-1.18a2.35,2.35,0,1,1,1.2,4.55l-4.57,1.19A2.38,2.38,0,0,1,608.24,518.39Zm18.18-4.9a2.36,2.36,0,0,1-.64-4.62l4.5-1.29a2.35,2.35,0,1,1,1.32,4.51l-4.54,1.31A2.35,2.35,0,0,1,626.42,513.49Zm18-5.38a2.35,2.35,0,0,1-.7-4.6l4.46-1.42a2.35,2.35,0,1,1,1.44,4.48l-4.5,1.43A2.43,2.43,0,0,1,644.46,508.11ZM66.77,504.3a2.37,2.37,0,0,1-1.22-.34,2.34,2.34,0,0,1-.78-3.23c.43-.71.88-1.4,1.36-2.09s.91-1.31,1.39-2a2.35,2.35,0,0,1,3.8,2.77c-.45.61-.89,1.24-1.31,1.87s-.85,1.25-1.23,1.87A2.35,2.35,0,0,1,66.77,504.3Zm599.45-.88a2.32,2.32,0,0,1-1.6-.62l-1-.89-.55.19a2.35,2.35,0,1,1-1.54-4.45l1.9-.65a2.33,2.33,0,0,1,2.43.56l1.91,1.78a2.35,2.35,0,0,1-1.59,4.08Zm134.16-2.82-.37,0a2.34,2.34,0,0,1-2-2.69c.23-1.49.41-3,.53-4.49a2.41,2.41,0,0,1,2.54-2.16,2.36,2.36,0,0,1,2.16,2.54c-.14,1.61-.33,3.23-.59,4.85A2.34,2.34,0,0,1,800.38,500.6ZM67.73,491.11a2.34,2.34,0,0,1-1.31-.4c-1.33-.9-2.63-1.8-3.91-2.73a2.35,2.35,0,1,1,2.74-3.82c1.25.89,2.52,1.78,3.81,2.65a2.35,2.35,0,0,1-1.33,4.3Zm732.71-9.25a2.36,2.36,0,0,1-2.33-2c-.23-1.48-.52-3-.86-4.43a2.35,2.35,0,1,1,4.57-1.09c.38,1.59.7,3.19.94,4.81a2.35,2.35,0,0,1-2,2.68A2.19,2.19,0,0,1,800.44,481.86ZM52.79,479.7a2.35,2.35,0,0,1-1.54-.57q-1.81-1.58-3.57-3.18a2.35,2.35,0,1,1,3.19-3.46q1.7,1.56,3.45,3.07a2.35,2.35,0,0,1-1.53,4.14ZM39.37,466.53a2.37,2.37,0,0,1-1.76-.79c-1.07-1.2-2.11-2.42-3.11-3.63a2.35,2.35,0,1,1,3.62-3q1.46,1.75,3,3.5a2.36,2.36,0,0,1-1.76,3.92ZM794.72,464a2.36,2.36,0,0,1-2.11-1.3q-1-2-2.18-4a2.35,2.35,0,1,1,4-2.41c.84,1.4,1.62,2.83,2.35,4.27a2.36,2.36,0,0,1-2.1,3.41ZM27.93,451.62a2.36,2.36,0,0,1-2-1.06q-1.32-2-2.55-4.06a2.35,2.35,0,0,1,4-2.43c.79,1.31,1.6,2.61,2.46,3.9a2.35,2.35,0,0,1-.68,3.26A2.27,2.27,0,0,1,27.93,451.62Zm756-2.92a2.39,2.39,0,0,1-1.69-.71q-1.59-1.64-3.27-3.15a2.35,2.35,0,0,1,3.14-3.5c1.2,1.07,2.37,2.2,3.51,3.37a2.35,2.35,0,0,1-1.69,4Zm6.58-11.94a2.35,2.35,0,0,1-1.5-4.17q1.8-1.48,3.56-3a2.35,2.35,0,0,1,3.07,3.57q-1.8,1.54-3.64,3.06A2.36,2.36,0,0,1,790.47,436.76ZM18.85,435.17a2.35,2.35,0,0,1-2.14-1.38q-1-2.19-1.92-4.39a2.35,2.35,0,0,1,4.35-1.8c.58,1.41,1.2,2.82,1.84,4.23A2.36,2.36,0,0,1,19.82,435,2.25,2.25,0,0,1,18.85,435.17Zm785.59-11a2.35,2.35,0,0,1-1.65-4c1.11-1.1,2.19-2.2,3.26-3.31a2.35,2.35,0,1,1,3.39,3.26c-1.09,1.14-2.21,2.27-3.34,3.39A2.37,2.37,0,0,1,804.44,424.16Zm-792.21-6.6A2.36,2.36,0,0,1,10,415.89c-.46-1.53-.89-3.06-1.31-4.58a2.36,2.36,0,0,1,4.55-1.23c.4,1.49.82,3,1.27,4.45a2.35,2.35,0,0,1-1.58,2.93A2.24,2.24,0,0,1,12.23,417.56Zm804.89-7.3a2.33,2.33,0,0,1-1.49-.53,2.35,2.35,0,0,1-.33-3.31q1.49-1.8,2.89-3.63a2.35,2.35,0,1,1,3.72,2.88c-1,1.25-2,2.5-3,3.73A2.34,2.34,0,0,1,817.12,410.26Zm-809.29-11a2.35,2.35,0,0,1-2.31-1.92c-.3-1.56-.57-3.12-.83-4.68a2.35,2.35,0,1,1,4.64-.77c.25,1.52.52,3.05.81,4.58a2.36,2.36,0,0,1-1.87,2.75A3.42,3.42,0,0,1,7.83,399.29Zm820.36-4.24a2.35,2.35,0,0,1-2-3.62c.83-1.31,1.65-2.62,2.44-3.94a2.35,2.35,0,1,1,4,2.41q-1.22,2-2.51,4.07A2.36,2.36,0,0,1,828.19,395.05ZM5.07,380.68a2.35,2.35,0,0,1-2.33-2.09c-.18-1.57-.35-3.14-.52-4.7a2.35,2.35,0,1,1,4.68-.49q.24,2.33.51,4.65a2.36,2.36,0,0,1-2.07,2.61Zm832.27-2.07a2.44,2.44,0,0,1-1-.23,2.35,2.35,0,0,1-1.12-3.13q1-2.08,1.91-4.19a2.36,2.36,0,0,1,3.07-1.24,2.33,2.33,0,0,1,1.28,3c-.67,1.54-1.33,3-2,4.41A2.34,2.34,0,0,1,837.34,378.61Zm-834-16.67a2.35,2.35,0,0,1-2.35-2.16L.6,355.5a2.54,2.54,0,0,1,2.13-2.74,2.18,2.18,0,0,1,2.52,1.95l.38,4.69a2.34,2.34,0,0,1-2.15,2.53ZM844,361a2.36,2.36,0,0,1-2.27-3c.41-1.48.79-3,1.14-4.46a2.35,2.35,0,1,1,4.58,1.07c-.36,1.55-.76,3.1-1.19,4.66A2.36,2.36,0,0,1,844,361ZM2.35,343.16h0A2.36,2.36,0,0,1,0,340.78c0-1.62.09-3.23.21-4.85a2.33,2.33,0,0,1,2.53-2.17,2.35,2.35,0,0,1,2.17,2.52c-.12,1.52-.19,3-.2,4.55A2.36,2.36,0,0,1,2.35,343.16Zm845.18-.61h-.26a2.36,2.36,0,0,1-2.08-2.6c.17-1.53.32-3.07.43-4.6a2.32,2.32,0,0,1,2.53-2.17,2.35,2.35,0,0,1,2.16,2.52c-.11,1.59-.26,3.18-.44,4.77A2.34,2.34,0,0,1,847.53,342.55Zm-842.6-18a2.06,2.06,0,0,1-.6-.08,2.35,2.35,0,0,1-1.68-2.87c.41-1.55.87-3.1,1.37-4.64a2.36,2.36,0,1,1,4.48,1.46c-.48,1.46-.91,2.92-1.3,4.38A2.34,2.34,0,0,1,4.93,324.56Zm843.44-.8a2.35,2.35,0,0,1-2.35-2.32c0-1.55-.07-3.1-.13-4.64a2.35,2.35,0,1,1,4.7-.19c.06,1.58.11,3.17.13,4.76a2.36,2.36,0,0,1-2.32,2.39ZM11.64,307a2.36,2.36,0,0,1-2.1-3.41c.71-1.42,1.47-2.84,2.26-4.25a2.35,2.35,0,1,1,4.1,2.3q-1.12,2-2.15,4.06A2.36,2.36,0,0,1,11.64,307Zm835.58-2a2.35,2.35,0,0,1-2.34-2.12c-.16-1.56-.33-3.11-.51-4.64a2.36,2.36,0,0,1,4.68-.55c.18,1.56.35,3.13.51,4.72a2.36,2.36,0,0,1-2.1,2.58ZM21.5,291a2.4,2.4,0,0,1-1.39-.45,2.36,2.36,0,0,1-.51-3.29q1.41-1.92,2.9-3.81a2.35,2.35,0,1,1,3.7,2.91q-1.45,1.83-2.8,3.68A2.35,2.35,0,0,1,21.5,291Zm823.36-4.71a2.36,2.36,0,0,1-2.33-2l-.67-4.65a.28.28,0,0,1,0-.09.06.06,0,0,1,0,0l0-.09a2.59,2.59,0,0,1,0-.48l0-1.55c0-1,0-1.93-.06-2.92A2.35,2.35,0,0,1,844,272a2.29,2.29,0,0,1,2.44,2.25c0,1.05.07,2.09.07,3.11l0,1.43a.68.68,0,0,1,0,.14l.68,4.66a2.34,2.34,0,0,1-2,2.66A1.84,1.84,0,0,1,844.86,286.3ZM33.64,276.64a2.35,2.35,0,0,1-1.69-4q1.64-1.71,3.36-3.39a2.35,2.35,0,0,1,3.29,3.36q-1.66,1.64-3.26,3.29A2.35,2.35,0,0,1,33.64,276.64Zm13.78-12.81a2.35,2.35,0,0,1-1.51-4.15q1.81-1.53,3.67-3a2.35,2.35,0,1,1,2.94,3.67q-1.8,1.46-3.59,2.95A2.33,2.33,0,0,1,47.42,263.83Zm794.68-1.07a2.34,2.34,0,0,1-2.28-1.79c-.36-1.44-.77-2.9-1.24-4.37a2.35,2.35,0,1,1,4.48-1.43c.51,1.58.94,3.14,1.32,4.68a2.34,2.34,0,0,1-1.72,2.84A2.2,2.2,0,0,1,842.1,262.76ZM62.33,252.38A2.35,2.35,0,0,1,61,248.1q2-1.36,3.91-2.69a2.35,2.35,0,1,1,2.63,3.9q-1.93,1.31-3.84,2.64A2.33,2.33,0,0,1,62.33,252.38Zm772.91-7.08a2.35,2.35,0,0,1-2.06-1.22q-1.08-2-2.32-3.93a2.35,2.35,0,0,1,4-2.51q1.32,2.09,2.46,4.17a2.35,2.35,0,0,1-.93,3.2A2.43,2.43,0,0,1,835.24,245.3ZM78.15,242.19a2.35,2.35,0,0,1-1.2-4.38c1.36-.81,2.73-1.6,4.1-2.39a2.36,2.36,0,0,1,2.33,4.1c-1.35.76-2.7,1.55-4,2.34A2.35,2.35,0,0,1,78.15,242.19Zm16.51-9a2.35,2.35,0,0,1-1.06-4.45l4.25-2.11a2.36,2.36,0,1,1,2.06,4.24q-2.1,1-4.19,2.07A2.36,2.36,0,0,1,94.66,233.15ZM824.34,230a2.33,2.33,0,0,1-1.75-.78c-1-1.12-2-2.24-3.14-3.36a2.35,2.35,0,0,1,3.36-3.29q1.73,1.76,3.29,3.52a2.34,2.34,0,0,1-1.76,3.91ZM111.7,225.15a2.35,2.35,0,0,1-.94-4.51c1.45-.63,2.9-1.26,4.35-1.87A2.35,2.35,0,1,1,117,223.1L112.64,225A2.41,2.41,0,0,1,111.7,225.15ZM129.12,218a2.35,2.35,0,0,1-.84-4.55l4.42-1.69a2.35,2.35,0,0,1,1.65,4.41L130,217.84A2.29,2.29,0,0,1,129.12,218Zm681.49-.83a2.32,2.32,0,0,1-1.45-.5q-1.81-1.42-3.69-2.77a2.35,2.35,0,0,1,2.75-3.82q1.95,1.41,3.84,2.89a2.35,2.35,0,0,1-1.45,4.2Zm-663.8-5.65a2.36,2.36,0,0,1-.77-4.58l4.46-1.53a2.35,2.35,0,1,1,1.52,4.45l-4.44,1.53A2.27,2.27,0,0,1,146.81,211.52Zm648.13-4.74a2.45,2.45,0,0,1-1.16-.3q-2-1.15-4.07-2.22a2.36,2.36,0,0,1,2.19-4.17q2.11,1.11,4.2,2.29a2.35,2.35,0,0,1-1.16,4.4Zm-630.27-1.24A2.35,2.35,0,0,1,164,201l4.5-1.43a2.33,2.33,0,0,1,3,1.53,2.35,2.35,0,0,1-1.53,2.95l-4.48,1.43A2.25,2.25,0,0,1,164.67,205.54Zm613.38-7.08a2.38,2.38,0,0,1-.93-.19q-2.14-.93-4.29-1.8a2.35,2.35,0,1,1,1.77-4.36c1.46.59,2.92,1.21,4.39,1.84a2.35,2.35,0,0,1-.94,4.51Zm-17.54-6.8a2.2,2.2,0,0,1-.79-.14L755.3,190a2.35,2.35,0,1,1,1.53-4.45l4.46,1.56a2.35,2.35,0,0,1-.78,4.57Zm-585.87-.19a2.35,2.35,0,0,1-2.2-3.21q.87-2.2,1.76-4.4a2.35,2.35,0,0,1,4.36,1.77c-.58,1.44-1.16,2.88-1.73,4.34A2.35,2.35,0,0,1,174.64,191.47Zm568-5.83a2.25,2.25,0,0,1-.72-.11l-4.46-1.41a2.36,2.36,0,1,1,1.4-4.5l4.5,1.43a2.35,2.35,0,0,1-.72,4.59Zm-18-5.45a2.48,2.48,0,0,1-.65-.09l-4.51-1.27a2.35,2.35,0,1,1,1.25-4.53l4.55,1.27a2.36,2.36,0,0,1-.64,4.62Zm-18.18-4.86a2.36,2.36,0,0,1-.58-.07l-4.55-1.13a2.35,2.35,0,1,1,1.12-4.57l4.58,1.13a2.36,2.36,0,0,1-.57,4.64ZM182,174.13a2.27,2.27,0,0,1-1-.21,2.36,2.36,0,0,1-1.17-3.11q1-2.17,2-4.3a2.35,2.35,0,1,1,4.25,2q-1,2.1-2,4.23A2.36,2.36,0,0,1,182,174.13ZM688.16,171a2.21,2.21,0,0,1-.51-.05l-4.58-1a2.35,2.35,0,1,1,1-4.6l4.62,1a2.35,2.35,0,0,1-.51,4.65Zm-18.42-3.84a2.4,2.4,0,0,1-.46,0l-4.61-.89a2.35,2.35,0,1,1,.89-4.62l4.63.9a2.35,2.35,0,0,1-.45,4.66Zm-14.42-8.81a2.34,2.34,0,0,1-2.11-1.31q-1-2.11-2.08-4.2a2.35,2.35,0,0,1,4.2-2.11c.71,1.4,1.41,2.82,2.1,4.24a2.34,2.34,0,0,1-2.11,3.38Zm-465.09-1.11a2.27,2.27,0,0,1-1.09-.28,2.36,2.36,0,0,1-1-3.18q1.11-2.09,2.24-4.16a2.35,2.35,0,1,1,4.13,2.26c-.74,1.36-1.48,2.72-2.2,4.1A2.36,2.36,0,0,1,190.23,157.24Zm456.43-15.59a2.36,2.36,0,0,1-2.07-1.22q-1.12-2.06-2.27-4.09a2.35,2.35,0,0,1,4.09-2.32c.78,1.37,1.54,2.75,2.31,4.14a2.36,2.36,0,0,1-.93,3.2A2.43,2.43,0,0,1,646.66,141.65Zm-447.17-.79a2.35,2.35,0,0,1-2-3.57c.82-1.35,1.64-2.7,2.48-4a2.35,2.35,0,0,1,4,2.49q-1.23,2-2.45,4A2.34,2.34,0,0,1,199.49,140.86Zm437.69-15.47a2.36,2.36,0,0,1-2-1.11q-1.23-2-2.48-4a2.35,2.35,0,1,1,4-2.53c.85,1.33,1.69,2.66,2.53,4a2.35,2.35,0,0,1-.77,3.24A2.3,2.3,0,0,1,637.18,125.39Zm-427.47-.33a2.36,2.36,0,0,1-1.94-3.69c.9-1.3,1.81-2.6,2.73-3.88a2.35,2.35,0,0,1,3.83,2.73c-.91,1.27-1.8,2.54-2.69,3.83A2.33,2.33,0,0,1,209.71,125.06Zm11.17-15.15a2.38,2.38,0,0,1-1.46-.51,2.34,2.34,0,0,1-.39-3.3c1-1.24,2-2.48,3-3.7a2.35,2.35,0,1,1,3.65,3q-1.47,1.8-2.91,3.64A2.37,2.37,0,0,1,220.88,109.91Zm406-.23a2.35,2.35,0,0,1-1.93-1q-1.35-1.92-2.71-3.81a2.35,2.35,0,0,1,3.81-2.76c.93,1.28,1.84,2.57,2.75,3.86a2.36,2.36,0,0,1-1.92,3.71ZM233,95.49a2.36,2.36,0,0,1-1.76-3.92q1.59-1.77,3.19-3.51a2.35,2.35,0,0,1,3.46,3.19q-1.58,1.73-3.14,3.46A2.35,2.35,0,0,1,233,95.49Zm382.6-.89a2.38,2.38,0,0,1-1.85-.88q-1.46-1.84-2.93-3.63a2.35,2.35,0,0,1,3.63-3c1,1.22,2,2.44,3,3.68a2.35,2.35,0,0,1-1.84,3.82ZM246,81.89a2.35,2.35,0,0,1-1.65-4c1.13-1.11,2.26-2.2,3.4-3.29A2.35,2.35,0,1,1,250.94,78c-1.12,1.07-2.24,2.15-3.34,3.24A2.4,2.4,0,0,1,246,81.89Zm357.41-1.61a2.36,2.36,0,0,1-1.74-.76c-1-1.16-2.1-2.29-3.17-3.42a2.35,2.35,0,0,1,3.42-3.23q1.62,1.71,3.23,3.47a2.35,2.35,0,0,1-1.74,3.94ZM259.78,69.17A2.35,2.35,0,0,1,258.24,65c1.2-1,2.4-2,3.61-3.05a2.35,2.35,0,1,1,3,3.62q-1.78,1.49-3.55,3A2.35,2.35,0,0,1,259.78,69.17Zm330.41-2.32a2.37,2.37,0,0,1-1.62-.65q-1.7-1.61-3.41-3.17a2.35,2.35,0,0,1,3.17-3.48q1.75,1.61,3.48,3.24a2.35,2.35,0,0,1-1.62,4.06ZM274.43,57.4A2.35,2.35,0,0,1,273,53.16c1.26-.94,2.53-1.88,3.81-2.8a2.35,2.35,0,0,1,2.76,3.81q-1.89,1.36-3.75,2.76A2.34,2.34,0,0,1,274.43,57.4Zm301.62-3a2.32,2.32,0,0,1-1.48-.53q-1.82-1.47-3.64-2.89a2.36,2.36,0,0,1,2.89-3.72q1.86,1.45,3.72,3a2.35,2.35,0,0,1-1.49,4.18Zm-286.2-7.78a2.35,2.35,0,0,1-1.28-4.33c1.33-.86,2.66-1.7,4-2.54a2.36,2.36,0,0,1,2.49,4q-2,1.23-3.94,2.49A2.27,2.27,0,0,1,289.85,46.65ZM561,43.18a2.42,2.42,0,0,1-1.33-.41c-1.28-.88-2.58-1.75-3.88-2.6a2.35,2.35,0,1,1,2.58-3.94q2,1.31,4,2.65a2.36,2.36,0,0,1-1.33,4.3ZM306,37a2.36,2.36,0,0,1-1.14-4.42q2.07-1.14,4.17-2.25a2.35,2.35,0,1,1,2.2,4.16q-2.06,1.09-4.1,2.22A2.43,2.43,0,0,1,306,37Zm239-3.79a2.35,2.35,0,0,1-1.16-.31q-2-1.14-4.08-2.25A2.36,2.36,0,0,1,542,26.5c1.4.76,2.79,1.52,4.17,2.31a2.35,2.35,0,0,1-1.16,4.4ZM322.76,28.5a2.35,2.35,0,0,1-1-4.49q2.14-1,4.32-2a2.36,2.36,0,0,1,1.9,4.31c-1.43.63-2.84,1.27-4.25,1.92A2.32,2.32,0,0,1,322.76,28.5Zm205.48-3.84a2.28,2.28,0,0,1-1-.21q-2.12-1-4.25-1.88a2.36,2.36,0,0,1,1.86-4.33q2.18.95,4.34,1.93a2.35,2.35,0,0,1-1,4.49ZM340.11,21.23a2.35,2.35,0,0,1-.83-4.55q2.22-.84,4.46-1.64a2.36,2.36,0,0,1,1.58,4.44c-1.46.52-2.92,1.05-4.37,1.6A2.26,2.26,0,0,1,340.11,21.23ZM510.8,17.62a2.2,2.2,0,0,1-.79-.14c-1.45-.51-2.91-1-4.38-1.49a2.35,2.35,0,1,1,1.46-4.47c1.51.49,3,1,4.5,1.53a2.35,2.35,0,0,1-.79,4.57ZM358,15.24a2.35,2.35,0,0,1-.67-4.61c1.52-.45,3-.88,4.57-1.31a2.35,2.35,0,0,1,1.25,4.54c-1.5.41-3,.84-4.48,1.28A2.27,2.27,0,0,1,358,15.24Zm134.87-3.11a2.44,2.44,0,0,1-.59-.07c-1.5-.39-3-.76-4.52-1.12a2.35,2.35,0,0,1,1.09-4.58c1.54.36,3.08.74,4.61,1.14a2.35,2.35,0,0,1-.59,4.63ZM376.18,10.56a2.35,2.35,0,0,1-.5-4.65c1.55-.34,3.1-.66,4.66-1a2.35,2.35,0,0,1,.91,4.62c-1.53.3-3.05.62-4.57.95A2.18,2.18,0,0,1,376.18,10.56ZM474.43,8.2l-.4,0c-1.52-.26-3.06-.5-4.6-.73a2.36,2.36,0,0,1,.7-4.66c1.57.23,3.14.49,4.69.75a2.35,2.35,0,0,1-.39,4.67Zm-79.71-.95a2.36,2.36,0,0,1-.34-4.69c1.58-.22,3.15-.43,4.73-.62a2.35,2.35,0,1,1,.57,4.67c-1.55.19-3.09.39-4.63.61Zm61-1.45h-.21c-1.55-.14-3.1-.26-4.66-.38a2.35,2.35,0,0,1,.35-4.69L456,1.1a2.35,2.35,0,0,1-.21,4.7Zm-42.31-.5A2.35,2.35,0,0,1,413.3.6c1.58-.11,3.16-.2,4.74-.28a2.35,2.35,0,1,1,.23,4.7c-1.55.08-3.11.17-4.66.27ZM437,4.76h0c-1.56,0-3.12,0-4.67,0a2.36,2.36,0,0,1,0-4.71h0q2.37,0,4.74.06a2.35,2.35,0,0,1,0,4.7Z"/><path class="cls-5" d="M183.94,280.25a2,2,0,0,0-1.24-.32,2,2,0,0,0-.94.31c-7,4.5-15.18,11-15.89,21.18-1.16,16.6,4.6,30.49,17.12,41.27a105.71,105.71,0,0,0,21,14.15c17.65,9,37.74,15.65,61.4,20.48,48.43,9.89,102.55,13.08,160.84,9.49q5.55-.35,11.11-.74c59.11-4.28,106-13.06,147.55-27.63,18.76-6.59,40.4-15.11,58.6-28.44,16.65-12.18,33.73-35.19,31.89-56.92-1-12.16-8.16-21.87-20.61-28.08a2,2,0,0,0-2.16.25,2,2,0,0,0-.66,2.08c1,3.73,2,7.47,3,11.13,9,41.41-32.3,67-68.55,81.24-41.75,16.36-90.8,26.67-145.79,30.65-16,1.16-32.91,1.8-50.14,1.92-57.51.38-123-1.55-172.54-29.43-18.64-10.5-29.43-22.48-33-36.63-1.66-6.64-1.68-14.25-.07-24A2,2,0,0,0,183.94,280.25Z"/><path class="cls-6" d="M311.77,328.26a3.13,3.13,0,0,1-.85-.06c-1-.22-2.09-.5-3.14-.79a2.19,2.19,0,0,0-.67-.07,2.06,2.06,0,0,0-1.06.4,2,2,0,0,0-.8,1.58c0,3.69-.21,7.39-.38,11.09a182.86,182.86,0,0,0-.16,20.29,2,2,0,0,0,1.79,1.86c7.78.84,15,1.45,21.14,2l.61.06a690.42,690.42,0,0,0,108.28.88,577.56,577.56,0,0,0,106.36-17.43l2.67-.72a2,2,0,0,0,1.47-2c-.43-7.64-1.3-15.35-2.14-22.81-.54-4.78-1.08-9.56-1.51-14.34a2.19,2.19,0,0,1,1.49-2.46,5.8,5.8,0,0,0,.52-.34c3-1.49,29.64-14.94,30.71-29,.34-4.55-1.92-8.56-6.73-11.91-9.82-6.83-21.9-7.81-33.6-8.77-3.18-.25-6.32-.51-9.36-.89a2,2,0,0,1-1.93-2.21,3,3,0,0,1,2.63-3.07,3.59,3.59,0,0,1,.65,0c1.17.15,2.46.28,3.79.4h.33a2,2,0,0,0,1.37-.69,2,2,0,0,0,.43-1.79c-14.89-60.56-38.41-106.77-69.91-137.36a2,2,0,0,0-1.54-.56,1.88,1.88,0,0,0-.33,0,2,2,0,0,0-1.43,1.31c-3.67,10.93-6.87,20.86-9.78,30.36a2,2,0,0,0,.24,1.68,2,2,0,0,0,1.45.89l1.7.16a2,2,0,0,1,1.93,2.19,3,3,0,0,1-2.65,3.08,3.43,3.43,0,0,1-.64,0,225.2,225.2,0,0,0-43.28-.81A363.54,363.54,0,0,0,359.51,156a2.65,2.65,0,0,1-.48.07,3.36,3.36,0,0,1-3.37-2.92A1.71,1.71,0,0,1,357.2,151q5.44-1.17,10.91-2.21a2,2,0,0,0,1.4-1.06,2,2,0,0,0,0-1.76c-4.15-8.75-8.57-17.75-13.51-27.52a2,2,0,0,0-1.6-1.09h-.33a2,2,0,0,0-1.45.79c-24.89,32.71-40.13,78.19-46.57,139.05a1.82,1.82,0,0,1-1.74,1.86,2,2,0,0,0-.74.24,2.72,2.72,0,0,1-1.11.36,2.76,2.76,0,0,1-.57,0,84.1,84.1,0,0,0-18.19-.84c-8.6.62-15.21,2.82-19.65,6.53-6.18,5.17-5.52,14.07,1.84,24.42,12.3,17.31,29.51,29.7,46,33.15a2.45,2.45,0,0,1,2,2.76A2.61,2.61,0,0,1,311.77,328.26Z"/><path class="cls-7" d="M642.18,403.55a2,2,0,0,0,.57-.13C676.87,390.26,707.92,374.31,735,356c13-8.76,44.69-31.79,59.27-56.47a2,2,0,0,0-1-2.87c-26-10.56-57.69-15.4-87-13.29a165.26,165.26,0,0,0-24.7,3.63,2,2,0,0,0-1.52,1.54,68.87,68.87,0,0,1-7,18.75c-8.09,15-24.62,28.54-50.51,41.31a351.2,351.2,0,0,1-50.07,19.79,2,2,0,0,0-1.4,2,2,2,0,0,0,1.51,1.88c25.78,6.54,51.26,18.09,68.15,30.9A2,2,0,0,0,642.18,403.55Z"/><path class="cls-7" d="M555,373.92a2,2,0,0,0-.87-.13,2.2,2.2,0,0,0-.37.06c-32.7,8.6-69.21,14.27-111.59,17.34q-5,.36-10,.67c-46.7,2.87-86.85,2.3-122.73-1.75a1,1,0,0,0-.24,0,2.63,2.63,0,0,0-1.3.53l-1.09.72c-22.31,14.78-45.38,30.06-64.58,48.82a2,2,0,0,0,1.12,3.41A812.07,812.07,0,0,0,402.1,450q9.36-.54,18.78-1.21c80.3-5.81,151.37-19.75,211.25-41.43a2,2,0,0,0,1.31-1.63,2,2,0,0,0-.86-1.9c-19.85-13.56-50.08-25.2-77-29.66l-.64,1.86h0Z"/><path class="cls-7" d="M57.81,372a2,2,0,0,0,.56,1.71,101.94,101.94,0,0,0,10.24,8.91c49.75,38,116.9,52,163.08,59.28a1.7,1.7,0,0,0,.45,0,2,2,0,0,0,1.3-.61c18.53-19.35,41.13-35,62.7-49.37a2,2,0,0,0-.83-3.65,393.12,393.12,0,0,1-64.56-14.58c-25.83-8.33-44.31-19.13-58.14-34a2,2,0,0,0-1.62-.65h-.1c-45.43,5.51-83.13,16.09-112,31.44A2,2,0,0,0,57.81,372Z"/><path class="cls-5" d="M53.85,378.29a2,2,0,0,0-1.6,3c27.12,49.16,115.25,65.64,152.88,72.67a870.63,870.63,0,0,0,222.63,12.64l5.73-.44c80.62-6.37,161.78-25.65,234.7-55.76,39.49-16.31,113-46.66,129.38-96a2,2,0,0,0-2-2.62,2,2,0,0,0-1.43.76C760.17,355.65,678.81,394.22,653,404.33c-69.55,27.23-146.34,44-228.22,50a943.9,943.9,0,0,1-124.35.63c-63.05-3.79-116.91-14.17-164.64-31.73-28.37-10.43-60.31-23.32-80.32-44.28A2,2,0,0,0,53.85,378.29Z"/><path class="cls-7" d="M659.62,241a2,2,0,0,0,.93,1.47c13.6,8.43,20.94,21.45,20.66,36.66a2,2,0,0,0,.72,1.57,2,2,0,0,0,1.43.46l.25,0a177.45,177.45,0,0,1,22.14-3C736.27,276,769.18,281,796,292a2,2,0,0,0,.9.15,2.06,2.06,0,0,0,1.71-1.25c8-19.66,1.76-35.63-18.6-47.46-22.08-12.82-48.61-22.94-81.1-30.92a2.14,2.14,0,0,0-.62-.06,2.08,2.08,0,0,0-1,.33,2,2,0,0,0-.35.3,128.81,128.81,0,0,0-36.83,26.32A2,2,0,0,0,659.62,241Z"/><path class="cls-7" d="M648.62,236a2,2,0,0,0,1.21,1.3l.83.3c.49.18,1,.35,1.45.55a2,2,0,0,0,.92.15,2,2,0,0,0,1.37-.69l.11-.14A140.53,140.53,0,0,1,685.65,213a2,2,0,0,0-.57-3.69c-13-2.85-27-5.49-45.44-8.57a2.47,2.47,0,0,0-.47,0,2,2,0,0,0-1.72,2.72C641.48,213.85,645.24,224.8,648.62,236Z"/><path class="cls-8" d="M190.39,306.05c9,29.36,43.88,47.48,106.57,55.4a2.71,2.71,0,0,0,.4,0,2,2,0,0,0,1.85-2.09c-.28-5.95,0-12.07.27-18,.23-5.05.46-10.26.36-15.41a2,2,0,0,0-1.2-1.8C281,316.57,260,299.74,255.45,280.77c-1.53-6.42-.75-11.81,2.34-16,6.11-8.36,19.75-10.53,27.34-11.08a84.31,84.31,0,0,1,13.94.17h.34a2,2,0,0,0,1.84-1.78c7.14-63.16,24.09-110,51.82-143.21a2.86,2.86,0,0,1,2-.88,2.21,2.21,0,0,1,2.15.92c6.74,13.17,12.73,25.29,18.3,37.06a2,2,0,0,0,1.95,1.15l.19,0c11.28-1.91,21.63-3.19,31.68-3.92A241.56,241.56,0,0,1,443,143h.28a2,2,0,0,0,1.79-1.5,1.35,1.35,0,0,0,0-.29c3.83-12.5,8-25.44,12.86-39.56.35-1,1.61-1.2,2-1.23A2.9,2.9,0,0,1,462,101c35.72,31.89,61.83,81.77,77.62,148.28a2,2,0,0,0,1.76,1.53c17.29,1.64,35.46,5.2,39.13,19.12s-6.3,26.58-30.36,39a2,2,0,0,0-1.07,2c.36,3.66.76,7.3,1.17,11,.77,6.92,1.56,14.09,2,21.14a2,2,0,0,0,.84,1.5,2.07,2.07,0,0,0,1.3.36,2.79,2.79,0,0,0,.4-.07c70.82-20.22,102.82-48.48,95.07-84.07-21.38-84.83-55.82-145.56-102.35-180.49C511.34,53,466.14,40.54,416.83,44.1a243.45,243.45,0,0,0-25,3.12C331,58,279.42,90.65,246.75,139.15a344.5,344.5,0,0,0-47.21,104.33c-.9,3.42-2,7.13-3.16,11C191.59,270.57,185.63,290.57,190.39,306.05Z"/><path class="cls-7" d="M144.23,258.92a118.52,118.52,0,0,1,31.82,17.78,2,2,0,0,0,1.37.42,2,2,0,0,0,1.11-.44,70.59,70.59,0,0,1,8-5.59,2,2,0,0,0,.92-1.24c.46-1.93,2.41-9.72,2.87-11.65,1.44-6,3.06-12.25,4.82-18.56a2,2,0,0,0-.54-2,2,2,0,0,0-1.53-.56,1.86,1.86,0,0,0-.47.09c-11.27,3.64-28.82,9.72-48.44,18a2,2,0,0,0,.1,3.73Z"/><path class="cls-7" d="M53.58,367.05a2,2,0,0,0,.81-.23c28.83-15.58,66-26.47,110.42-32.36a2,2,0,0,0,1.44-3c-10-15.94-8-33.59,5.57-48.42a2,2,0,0,0,.51-1.53,2,2,0,0,0-.78-1.42c-12.43-9.39-26.09-16-39.53-19.1a2.43,2.43,0,0,0-.6-.05,2.14,2.14,0,0,0-.69.18C79.21,284.61,50,308.59,43.93,332.36c-2.94,11.55-.29,22.95,7.91,33.9A2,2,0,0,0,53.58,367.05Z"/><path class="cls-7" d="M120.27,512c-7.39.53-13.79,4.32-18.63,11.15a21.45,21.45,0,0,0-1.72,17.44c2.64,8.14,10.12,15.82,20,20.56a31.91,31.91,0,0,0,15.9,3.35c5.57-.41,10.16-2.61,13.29-6.37,3.47-4.19,4.89-10.11,4.09-17.14C151.33,524.36,135.94,510.82,120.27,512Z"/><path class="cls-5" d="M172.35,492.5c-14.2-3.47-25.61-6.67-35.91-10.09a2,2,0,0,0-.77-.09,2.09,2.09,0,0,0-.87.26,2,2,0,0,0-1,1.34c-.63,3.14-1.18,6.3-1.72,9.45-.67,3.91-1.34,7.82-2.19,11.71a2,2,0,0,0,1.4,2.34,32.14,32.14,0,0,1,8.21,3.72,43.93,43.93,0,0,1,10.54,9.32,2,2,0,0,0,1.54.74h.15a2,2,0,0,0,1.4-.71c3.57-4.29,7.08-8.62,10.59-13,3.2-3.95,6.4-7.9,9.65-11.81a2,2,0,0,0-1.07-3.22Z"/><path class="cls-7" d="M735.47,467.67c-8.2.59-16.38,5.17-21.88,12.24a29.68,29.68,0,0,0-6.13,23.65c2.18,12.31,9.61,18.92,20.36,18.14,11.65-.84,24.46-10.25,29.79-21.89,3.9-8.5,3.21-17-2.13-24.18A24.64,24.64,0,0,0,735.47,467.67Z"/><path class="cls-5" d="M707.15,480a35.2,35.2,0,0,1,10.77-11.73,39.6,39.6,0,0,1,6.15-3.38,2,2,0,0,0,1.07-2.54c-1.45-3.82-2.71-7.71-4-11.59-1.07-3.28-2.14-6.57-3.31-9.82a2,2,0,0,0-1.14-1.18,2.08,2.08,0,0,0-.89-.14,2,2,0,0,0-.74.21c-10.81,5.35-22.36,10.53-34.35,15.41a2,2,0,0,0-.59,3.34q5.91,5.32,11.73,10.74c4.06,3.74,8.11,7.48,12.21,11.17a2,2,0,0,0,1.48.5l.17,0A2,2,0,0,0,707.15,480Z"/><path class="cls-9" d="M805.4,312.24a2.41,2.41,0,0,0-.38,0,2,2,0,0,0-1.77,1.41c-13.77,45.13-72.68,75.48-115.8,94.38-80.66,35.38-168.89,57.38-255.16,63.61-95.43,6.9-183,.37-260.15-19.41C126.92,440.63,77.4,424.4,53,391.88a2,2,0,0,0-1.75-.79,2.25,2.25,0,0,0-.71.18,2,2,0,0,0-1.09,2.28C56.7,424,71.4,444,97.14,458.58c28.78,16.26,63.53,27.56,109.36,35.55,67.14,11.7,139.89,14.84,216.22,9.32,12.44-.9,25.14-2.05,37.76-3.4,77.78-8.37,177.81-23.85,261.62-69.69,32.07-17.54,66.66-40.18,80-75.11,4.41-11.52,6-24.59,5-41.14A2,2,0,0,0,805.4,312.24Z"/><path class="cls-10" d="M802.12,355.25c.5-1.31,1-2.65,1.38-4-1.56,1.64-3.41,3-5,4.8-27.43,30.63-49,51-86.07,67.9-48.14,22-107.73,41.56-159.77,52.44-28.49,6-59.81,5-87.66,12.1-69.6,17.69-150.15,9.08-222,.86-16.76-1.92-27.3-5.09-43.67-6.44-32.38-2.68-63.64-14.92-92-30.23a294.19,294.19,0,0,1-42.13-27.81c-2.42-1.91-4.66-4-6.86-6.08,8.42,17,21,29.71,38.78,39.79,28.78,16.26,63.53,27.56,109.36,35.55,67.14,11.7,139.89,14.84,216.22,9.32,12.44-.9,25.14-2.05,37.76-3.4,77.78-8.37,177.81-23.85,261.62-69.69C754.17,412.82,788.76,390.18,802.12,355.25Z"/><path class="cls-11" d="M645.05,292.68c-21.81-7.72-48-11.58-64.27-13-2.18,10.16-12.29,19.82-30.61,29.27a2,2,0,0,0-1.07,2c.36,3.66.76,7.3,1.17,11,.77,6.92,1.56,14.09,2,21.14a2,2,0,0,0,.84,1.5,2.07,2.07,0,0,0,1.3.36,2.79,2.79,0,0,0,.4-.07Q627,324.18,645.05,292.68Z"/><path class="cls-11" d="M297.36,361.46a2,2,0,0,0,1.85-2.09c-.28-5.95,0-12.07.27-18,.23-5.05.46-10.26.36-15.41a2,2,0,0,0-1.2-1.8,95.05,95.05,0,0,1-25.85-16.86c-24,5.34-49.49,13.13-64.54,24.42,17.66,14.62,47,24.44,88.71,29.71A2.71,2.71,0,0,0,297.36,361.46Z"/><path class="cls-12" d="M398.63,68.75c31.82,8.68,63.23,9.44,93.55,23.92,29.47,14.08,50.69,39.19,75.59,59.42,2.67,2.17,8.08.38,7.28-3.66C561,77,460.37,40.7,398.47,66.49a1.18,1.18,0,0,0,.16,2.26Z"/><path class="cls-13" d="M418.83,433.38a480.89,480.89,0,0,0,78.54-6.88c27.17-4.56,57.2-8,81.69-21.41,2.31-1.27.69-4.64-1.6-4.56-53.31,2-106,21.54-159,28.16a2.35,2.35,0,0,0,.34,4.69Z"/><path class="cls-13" d="M686.1,362.3A135.42,135.42,0,0,0,724,341.48c10.07-7.77,22.87-17.61,25.62-30.63.36-1.66-1.44-2.47-2.73-1.8-10.78,5.59-19,16.82-28.38,24.43-11,8.89-22.85,16.89-34.18,25.32-1.78,1.32-.38,4.29,1.78,3.5Z"/><path class="cls-13" d="M91.7,374.74c6.39,11.37,17.77,16.29,29.49,20.81,10.73,4.13,24.44,10.19,36.07,9.2a2.6,2.6,0,0,0,1.5-4.51c-6.85-6.88-18.89-8.9-27.87-11.65-12.78-3.91-25.72-9.15-37-16.33-1.58-1-2.88,1.17-2.14,2.48Z"/><path class="cls-13" d="M167.6,408.7c1.38.8,2.56,1.84,3.88,2.73a20.65,20.65,0,0,0,6.25,2.69c5.26,1.35,7.16-6.09,2.9-8.56-4-2.34-8.42-2.36-12.79-1.05-2,.6-1.84,3.27-.24,4.19Z"/><path class="cls-13" d="M70.5,344.33c2.07-2.44,2.1-5.23,2.65-8.33a30.34,30.34,0,0,1,4.42-11.77c4.29-6.45,13.26-10.4,15.39-18,.6-2.14-1.41-3.57-3.25-3.68-8.73-.52-18.29,10.14-22.33,17-3.83,6.51-7.38,20.55.83,25.27a1.9,1.9,0,0,0,2.29-.47Z"/><path class="cls-13" d="M699.64,232.7c10.48,5.42,22,8.25,32.63,13.63,10.4,5.28,19.33,12.79,29.6,18.23a1.94,1.94,0,0,0,2.76-1.86c-1.11-13.5-16.66-21.25-27.24-26.79-10.26-5.37-26.95-12.25-37.94-5.74a1.48,1.48,0,0,0,.19,2.53Z"/><path class="cls-13" d="M675.71,364.53a15.5,15.5,0,0,0-7.66,1.77c-2.17,1.06-4.9,3.6-3.61,6.34,2.47,5.27,10.23-.68,13.24-2.48s.81-5.53-2-5.63Z"/><path class="cls-13" d="M111.71,539.1c4,8.5,16.41,21.12,26.6,14.43,3.2-2.1,2.55-6.78-.62-8.49-2.21-1.19-4.42-1.34-6.82-1.83-1.87-.39-3.59-1.62-5.27-2.47-4.29-2.17-7.09-4.58-12.1-4.38a2.07,2.07,0,0,0-1.79,2.74Z"/><path class="cls-13" d="M725.82,511c6.31-.21,11.06-3.35,15.81-7.33,4.36-3.66,11.13-10.65,9-16.78a4.33,4.33,0,0,0-4.42-2.88c-5.5.88-8.68,7.35-11.88,11.53-3.42,4.46-7.6,7.78-10.4,12.71a1.93,1.93,0,0,0,1.86,2.75Z"/><path class="cls-14" d="M555.62,374.19l-.64,1.86h0l0-2.13a2,2,0,0,0-.87-.13,2.2,2.2,0,0,0-.37.06c-32.7,8.6-69.21,14.27-111.59,17.34q-5,.36-10,.67c-46.7,2.87-86.85,2.3-122.73-1.75a1,1,0,0,0-.24,0,2.63,2.63,0,0,0-1.3.53l-1.09.72C292.58,400.78,278,410.43,264.39,421c4.39-1.5,8.77-3.38,13.76-5a226.09,226.09,0,0,1,59.14-10.88c36.83-1.81,73.31,2.76,110.12.78,35.82-1.92,69.76-15.12,105.67-16.39,18.94-.67,37.6.72,56.32,1.44A218,218,0,0,0,555.62,374.19Z"/><path class="cls-14" d="M706.32,283.38a165.26,165.26,0,0,0-24.7,3.63,2,2,0,0,0-1.52,1.54,68.87,68.87,0,0,1-7,18.75c-8.09,15-24.62,28.54-50.51,41.31a351.2,351.2,0,0,1-50.07,19.79,2,2,0,0,0-1.4,2,2,2,0,0,0,1.51,1.88,226.5,226.5,0,0,1,26.45,8.53c10.38-11.7,24.13-19.14,38.25-26,11.88-5.77,23.76-11.58,33.16-21.07,10.67-10.77,15.61-25.9,27.16-36,17.52-15.28,42.93-11.33,66.28-10A204.74,204.74,0,0,0,706.32,283.38Z"/><path class="cls-14" d="M753.53,271.56c-13.7-4.1-28.41-5.33-42.64-4.69-22.8,1-43.33-24.94-26-46.58.43-.53.93-1,1.38-1.54a132.7,132.7,0,0,0-26.13,20.61,2,2,0,0,0-.56,1.64,2,2,0,0,0,.93,1.47c13.6,8.43,20.94,21.45,20.66,36.66a2,2,0,0,0,.72,1.57,2,2,0,0,0,1.43.46l.25,0a177.45,177.45,0,0,1,22.14-3,209.41,209.41,0,0,1,82.46,10.89C781.1,280.18,758.9,273.18,753.53,271.56Z"/><path class="cls-14" d="M657,220.63c-7.24-.9-12.12-5.3-16.87-10,3,8.24,5.92,16.66,8.53,25.28a2,2,0,0,0,1.21,1.3l.83.3c.49.18,1,.35,1.45.55a2,2,0,0,0,.92.15,2,2,0,0,0,1.37-.69l.11-.14a140.85,140.85,0,0,1,22.82-19.24A44,44,0,0,1,657,220.63Z"/><path class="cls-14" d="M177.42,277.12a2,2,0,0,0,1.11-.44,70.59,70.59,0,0,1,8-5.59,2,2,0,0,0,.92-1.24c.46-1.93,2.41-9.72,2.87-11.65.42-1.77.9-3.6,1.35-5.4-4.66,4.31-9.93,7.71-16.34,8.79-10.82,1.83-21.69-6.53-32.36-4.4a2,2,0,0,0,1.29,1.73,118.52,118.52,0,0,1,31.82,17.78A2,2,0,0,0,177.42,277.12Z"/><path class="cls-14" d="M172.33,281.47a2,2,0,0,0-.78-1.42,116.15,116.15,0,0,0-19.19-11.81c5.12,9.56,2.18,19.72-2.71,30a29.15,29.15,0,0,0-2.86,11.29c-.95,15.72-26.41,22.73-40.65,28.31-16.5,6.46-33.6,15.06-44.27,25.24,27.69-13.56,62.21-23.21,102.94-28.61a2,2,0,0,0,1.44-3c-10-15.94-8-33.59,5.57-48.42A2,2,0,0,0,172.33,281.47Z"/><path class="cls-14" d="M295.31,388.3a393.12,393.12,0,0,1-64.56-14.58c-25.83-8.33-44.31-19.13-58.14-34a2,2,0,0,0-1.62-.65h-.1A412.17,412.17,0,0,0,108,351.39c.31.15.61.31.91.48l.13-.07c12.65-1.74,25.55-3.35,38.18-2,7.35.79,12.26,7.43,17.31,12,4.88,4.43,11.87,6.88,17.84,9.31,13.18,5.37,26.53,9.19,40.28,12.82,18.46,4.86,29.41,17.6,25.5,35.47a99.49,99.49,0,0,1-3,10.72C261,415.78,278.9,403.44,296.14,392a2,2,0,0,0-.83-3.65Z"/><path class="cls-14" d="M735.47,467.67c-8.2.59-16.38,5.17-21.88,12.24a29.68,29.68,0,0,0-6.13,23.65,27.46,27.46,0,0,0,3.68,9.92c.65-7.46,1.14-14.53,5-22,6.24-12,18.08-19.8,30.94-21.87A24.27,24.27,0,0,0,735.47,467.67Z"/><path class="cls-14" d="M149.11,558.08c3.47-4.19,4.89-10.11,4.09-17.14-1.87-16.58-17.26-30.12-32.93-29-6.76.49-12.68,3.73-17.35,9.5,13.44-1.89,27.83,2.64,36.8,12.89,6.25,7.12,8.32,16.33,7.59,25.47A17.29,17.29,0,0,0,149.11,558.08Z"/><path class="cls-15" d="M542.89,348.05l2.67-.72a2,2,0,0,0,1.47-2c-.43-7.64-1.3-15.35-2.14-22.81-.19-1.65-.34-3.31-.52-5-11,44.28-160,51.05-216.72,39-13.08-2.78-21.55-7.73-22.81-15.43a175.55,175.55,0,0,0-.13,19.61,2,2,0,0,0,1.79,1.86c7.78.84,15,1.45,21.14,2l.61.06a690.42,690.42,0,0,0,108.28.88A577.56,577.56,0,0,0,542.89,348.05Z"/><path class="cls-16" d="M810.67,280.61c1.09-13.23-4.44-26.31-19.43-38.58-14.78-12.09-35.25-19.14-53-25.11-33.56-11.25-68.08-18.69-103-24.45C602.43,113.88,545.49,45.71,454.8,36.85,350.66,26.68,262.63,84.62,217,175.8a337.94,337.94,0,0,0-20.62,52.43c-45.45,13.86-96.25,30.32-132.23,62.93C49.31,304.58,33,325.33,36.07,346.87a4.55,4.55,0,0,0-.21,1.73C38.93,386.78,41,420,69.78,447.73c15.78,15.24,35.91,25.68,57.05,33.46-1.6,7.63-2.58,15.37-4.27,23a32.2,32.2,0,0,0-26.73,14.28,2.15,2.15,0,0,0-.14.26,4.66,4.66,0,0,0-.53.74c-21.44,37.82,53.39,77.16,64,34.79a39.56,39.56,0,0,0-2.38-26.87,4,4,0,0,0,.85-.66c8.28-9.87,16.13-20.09,24.45-29.92,90.63,20.64,187,19.87,278.85,10.64,70.75-7.1,143.69-20.6,210.93-46.53.13.14.18.3.33.44,9.66,8.53,18.9,17.52,28.52,26.09a4.52,4.52,0,0,0,.86.51,41.94,41.94,0,0,0,.57,24.49c14.54,43.93,87-5.59,59.36-41.17a5.67,5.67,0,0,0-.63-.66,1.3,1.3,0,0,0-.18-.23,30.76,30.76,0,0,0-28.42-10.05c-2.91-7.59-5-15.45-7.87-23.06,3-1.55,6-3,8.92-4.66,30.87-16.88,61-41,75.36-73.93C819.17,334.67,814.37,306.09,810.67,280.61Zm-627.83,1.31c-1.39,8.42-1.85,16.94.11,24.78,4.41,17.61,18.74,29.33,33.93,37.88,50.36,28.35,117.34,30.06,173.53,29.69,65.88-.44,134.94-8.53,196.65-32.71C621.66,328,666.34,301.7,656.83,258c-.94-3.75-1.94-7.49-3-11.25,36.37,18.15,16.08,61.37-11.57,81.6-17.4,12.74-37.87,21.07-58.08,28.16-50.55,17.73-104.88,25-158.12,28.26-53.42,3.29-107.79,1.27-160.32-9.45-21-4.29-41.73-10.58-60.89-20.31a103,103,0,0,1-20.58-13.88c-12.12-10.44-17.55-23.55-16.42-39.62C168.49,292.58,175.49,286.64,182.84,281.92Zm127.67,48.23c5.95,1.25,7.77-8,1.84-9.23-18-3.76-34.36-17.65-44.8-32.35-4.26-6-9.19-15.87-2.18-21.73,8.77-7.33,25.71-6.87,36.25-5.24a4.43,4.43,0,0,0,2.94-.56,3.8,3.8,0,0,0,3.51-3.64c5-47.41,16.62-99.22,46.17-138q6.92,13.65,13.49,27.47-5.48,1.05-11,2.21c-5.91,1.27-2.71,10.13,3.15,8.88,30.56-6.55,61.34-10.42,92.55-6.7,6,.72,7.86-8.51,1.84-9.23-.58-.07-1.14-.09-1.72-.16q4.68-15.23,9.77-30.31c36.85,35.79,57.29,87.31,69.37,136.41-1.32-.12-2.58-.25-3.73-.39-6-.74-7.86,8.49-1.84,9.23,13.93,1.72,30,1,42.06,9.31,19,13.25-13.18,32.3-23.72,37.47-.15.07-.22.19-.35.27a4.18,4.18,0,0,0-2.77,4.51c1.11,12.36,2.94,24.69,3.65,37.08l-2.66.71c-68.83,18.31-143.18,22.56-214,16.49-6.29-.54-13.69-1.17-21.71-2-.7-10.38.43-20.82.54-31.23C308.35,329.64,309.44,329.93,310.51,330.15ZM682.06,289c34.78-8,77.31-3.94,110.51,9.56-13.55,22.94-42.4,44.84-58.67,55.83-28.51,19.26-59.49,34.72-91.87,47.2-18.5-14-44.69-25.11-68.87-31.24a349.23,349.23,0,0,0,50.36-19.91c18.89-9.31,41-22.92,51.38-42.15A70.57,70.57,0,0,0,682.06,289ZM309.21,392.09c40.92,4.63,82.67,4.25,123.09,1.77s82.06-7.57,122-18.08a4.07,4.07,0,0,0,1,.37c24.38,4.05,54.86,14.78,76.2,29.35C558,432.1,477.83,443.75,402,448a808.71,808.71,0,0,1-158.36-6.42c19.38-18.93,43-34.49,65.38-49.3C309.1,392.24,309.13,392.16,309.21,392.09Zm-138.06-51c16,17.16,36.87,27.41,59,34.53A391.92,391.92,0,0,0,295,390.28c-22.15,14.76-44.71,30.52-63,49.66-55.71-8.75-116.66-24.15-162.18-58.9a97.88,97.88,0,0,1-10-8.74c33.38-17.73,74.25-26.73,111.34-31.22Zm-36.07,84c52.65,19.36,109.39,28.49,165.21,31.85,118.85,7.15,242.12-7.15,353.42-50.72,26.65-10.44,108-49.26,142-92.47-16.06,48.4-88.17,78.23-128.25,94.78-73.86,30.5-154.5,49.32-234.09,55.62A870.12,870.12,0,0,1,205.5,452C161.09,443.66,79.79,427,54,380.29,75.15,402.44,109.64,415.71,135.08,425.07ZM779,245.13c21.72,12.61,24.37,28.75,17.76,45-34.19-14-77.17-18.25-113.58-10.93.29-15.8-7.14-29.43-21.61-38.4a127.48,127.48,0,0,1,36.26-25.91,5.65,5.65,0,0,0,.61-.45C726.7,221.35,754.31,230.77,779,245.13Zm-94.37-33.9a141.61,141.61,0,0,0-31.73,24.94s0,.06,0,.08c-.75-.31-1.57-.58-2.35-.88-3.31-11-7-21.9-11.22-32.68C654.28,205.19,669.5,207.92,684.66,211.23Zm-436.25-71c33.64-49.93,85.1-80.69,143.79-91.08,54.43-9.63,109.42-1,154.15,32.62C601.89,123.49,631.53,196,648,261.18c10.22,47-54.38,70.45-93.68,81.66-.71-10.74-2.14-21.44-3.2-32.16,15.53-8,36.49-21.83,31.38-41.28-4.15-15.74-24.44-19-40.88-20.6-12.84-54.07-35.85-111.47-78.24-149.31-2.05-1.84-6.31-1.42-7.3,1.48-4.51,13.21-8.85,26.46-12.93,39.81,0,.07,0,.12,0,.19-22.13-1.47-44,.44-65.8,4.14Q368.43,126.39,359,108c-1.39-2.72-5.67-2.53-7.44-.42-33.06,39.59-46.59,94-52.27,144.28-20.51-2-52.09,3-45.76,29.39,4.5,18.78,25,36.43,44.34,44.78.22,11.14-1.15,22.32-.63,33.44-41.25-5.21-93.67-17.42-104.91-54-5.68-18.51,4.56-43.81,9.17-61.48A340.25,340.25,0,0,1,248.41,140.27ZM188.35,257.73c-.89,3.71-1.91,7.62-2.88,11.64a72.41,72.41,0,0,0-8.19,5.75A121,121,0,0,0,144.91,257c18.8-7.94,36.28-14.07,48.27-17.94Q190.6,248.39,188.35,257.73Zm-56.78,5.17c14,3.23,27.34,10.11,38.77,18.75-13,14.21-17.11,32.81-5.79,50.83-37.7,5-77.73,14.54-111.11,32.58C23,324.35,78.53,287.12,131.57,262.9ZM120.78,559.29c-13.46-6.44-25.37-20.48-17.38-35.24,15.18-21.33,45.21-5.94,47.82,17.11C153.48,561.24,136.55,566.84,120.78,559.29Zm30.86-40.09a45.59,45.59,0,0,0-11-9.75,34,34,0,0,0-8.72-3.95c1.53-7,2.5-14.14,3.91-21.19,12.05,4,24.26,7.25,36.07,10.13C165.07,502.64,158.46,511,151.64,519.2ZM754,477c19.63,26.45-37.67,65.23-44.61,26.2C705.08,478.82,735.79,458,754,477Zm-30.78-14a42.28,42.28,0,0,0-6.46,3.56A37.08,37.08,0,0,0,705.42,479c-8-7.23-15.89-14.67-23.93-21.91Q699,449.94,716,441.61C718.55,448.71,720.59,456,723.26,463.05Zm-2.12-34.44c-78.53,42.94-172.93,60-260.87,69.45-84,9-170.11,8.62-253.43-5.91-37.59-6.55-75.3-16.44-108.71-35.31-28.3-16-40.55-37.8-46.71-63.75,26.32,35.09,81.72,51.2,120.23,61.07,84.14,21.56,174.45,25.71,260.78,19.47,87.29-6.31,175.73-28.65,255.83-63.77,40.48-17.75,102.43-48.2,116.91-95.63.8,13.82,0,27.56-4.92,40.3C787.07,389,752,411.73,721.14,428.61Z"/><path class="cls-16" d="M415.29,261.09a6.78,6.78,0,0,0,1.5,1c-.38,12,.89,25.72,5.26,35.95a.65.65,0,0,0,1.24-.09c1.86-11.12.33-24.29-2.1-36,3-1.31,4.23-6.07,4.43-9,.24-3.61-1.81-5.58-5.25-6.09a12.23,12.23,0,0,0-8.65,1.8c-2.65,1.9-2.69,5-1.13,7.62C411.72,258.23,413.71,259.61,415.29,261.09Z"/><path class="cls-16" d="M448.12,261.91c15.2-6.17,31.44-8.14,47.37-11.54.82-.18.41-1.28-.28-1.32-17.38-1-32.84,2.69-47.57,11.92A.53.53,0,0,0,448.12,261.91Z"/><path class="cls-16" d="M450.63,270.25c-.54.2-.39,1.14.22,1,14.52-2.48,29.41-2.65,44.07-1.78.68,0,.87-1.06.26-1.29C480.23,262.67,465.23,264.75,450.63,270.25Z"/><path class="cls-16" d="M452.76,280.28c-.64.13-.33,1,.21,1,11.23.43,22.51,2.05,33.64,3.52a.69.69,0,0,0,.44-1.28C476.55,277.29,464.28,277.82,452.76,280.28Z"/><path class="cls-16" d="M344.1,261.32c16.25,1.07,32.6.68,48.54,4.6a.53.53,0,0,0,.34-1c-15.91-7-31.74-8.41-48.8-4.95C343.51,260.11,343.26,261.26,344.1,261.32Z"/><path class="cls-16" d="M391.35,274.54C376.11,271.2,361,271.3,347,278.93c-.58.32-.22,1.38.43,1.24,14.39-3,29.15-4.94,43.87-4.58C391.91,275.61,391.92,274.66,391.35,274.54Z"/><path class="cls-16" d="M390.69,284.77c-11.76-.78-24,.47-33.46,8.16a.69.69,0,0,0,.61,1.21c10.81-3.06,21.73-6.28,32.79-8.32C391.16,285.72,391.34,284.81,390.69,284.77Z"/><path class="cls-16" d="M448.75,230.51c7.39.58,15.72-5.41,17.11-12.75.08-.41-.5-.74-.77-.37A16.76,16.76,0,0,1,456,224a15.77,15.77,0,0,0,1.83-2.95c2-4.36,1.13-9.25.52-13.81-.7-5.15-4-9.47-9.29-10.52-6-1.2-12.62,2.86-13.62,9.09-1,6.47-1.27,14.91,3.31,19.62A14.25,14.25,0,0,0,448.75,230.51Z"/><path class="cls-16" d="M382.15,234.7c5.9,0,12-3.61,13.07-9.09l0-.09c2-4.35,1.14-9.25.53-13.8-.7-5.15-4-9.48-9.29-10.53-6-1.19-12.62,2.87-13.62,9.09-.87,5.42-1.17,12.21,1.43,17.05a17.93,17.93,0,0,1-7.23-6.38c-.24-.34-.88-.17-.81.28C367.33,228.26,375,234.76,382.15,234.7Z"/><path class="cls-17" d="M364.89,168.59c27.16-.72,58.92,3,85.13-5.05,2.24-.69,1.6-3.59-.3-4.17-26.27-8.09-59.38.73-85.33,6.87-1.39.32-.81,2.38.5,2.35Z"/><path class="cls-17" d="M303.88,270.74c-7.29-2.33-13.09-3.61-20.85-2.76-3.46.37-12.49,1.45-12.12,6.64.57,7.9,28.93,0,33.18-.9,1.68-.37,1-2.57-.21-3Z"/><path class="cls-17" d="M561.67,276.14c-4.82-7.89-18.24-12.45-26.82-9.55-3.3,1.11-3.74,6.16-.44,7.6,4,1.73,8.06,2.24,12.23,3.27s8.6,2.62,13.05,2.79c2.13.08,2.91-2.58,2-4.11Z"/></g></g></g></svg>