<svg xmlns="http://www.w3.org/2000/svg" viewBox="0 0 559.69 983.02"><defs><style>.cls-1{isolation:isolate;}.cls-2{fill:#ffa3bc;mix-blend-mode:multiply;}.cls-3{fill:#fff;}.cls-4{fill:#636466;}.cls-5{fill:#ff5671;}.cls-6{fill:#fdc435;}.cls-7{fill:#00ff8b;}.cls-8{fill:#50a76e;}.cls-9{fill:#c0ffa8;}.cls-10{fill:#fee434;}.cls-11{fill:#f1a12b;}.cls-12{fill:#e23f58;}.cls-13{fill:#ff9a83;}.cls-14{fill:#68182b;}</style></defs><g class="cls-1"><g id="圖層_2" data-name="圖層 2"><g id="Layer_2" data-name="Layer 2"><path class="cls-2" d="M47.92,767.8c0,22.23,2.28,46.1,6.91,72.39,5.84,33.07,14.5,66.91,38.12,90.4C133.6,971,201.38,976.85,246.23,980.71c5,.43,10.14.82,15.4,1.16,42.35,2.74,104,2.9,150.58-27.1,29.19-18.83,41.48-52.31,50.45-76.75l.44-1.18a366.5,366.5,0,0,0,20.1-84.49,116.09,116.09,0,0,0,11.19-8.44c20.77-17.8,22.38-42.11,23.35-56.64.12-1.82.24-3.65.4-5.44l.82-9.18c2.3-25.56,4.68-52,4.7-78.8a38.4,38.4,0,0,0-.43-5.45c-1.17-14.77-8.93-34.82-36.55-53.33-28.23-18.93-61.23-27.2-92.63-32.89V542c45.65-1.93,94.38-13.25,124.7-55.47,18.75-26.09,25.43-58.16,30.79-83.93l.55-2.59a436.05,436.05,0,0,0,9.33-104.74c-.95-26.27-4.72-59.8-25.62-86-12.79-16-31.43-25.6-52.48-27-23-1.49-47,7-64.43,22.65,1.4-19.83,2.85-39.66,4.36-59.36,2.35-30.51,6.71-87.31-44.12-115C362.59,22.77,345.2,18,326.86,16.77a137.08,137.08,0,0,0-56.05,7.88c-61.61,22.8-74.45,76.43-79.14,123.19a83.2,83.2,0,0,0-55.62-26.07c-21.51-1.39-43.05,5.52-60.62,19.45C42.68,167.17,38.59,207.53,35.6,237c-.27,2.67-.53,5.3-.82,7.87-4.66,42.3-8.6,92.08-2.46,140.59,5,39.54,21.63,71,48.07,91,24.13,18.26,54,22.34,77.33,23.84,3.53.23,7,.4,10.41.53l-1.32,27c-100.51,7.27-122.34,32.55-130,41.37a54.94,54.94,0,0,0-13.64,33.62,39.12,39.12,0,0,0-.65,5c-1.08,17.06-2,34.14-3,51.22l-.87,15.52c-.17,2.92-.5,6-.83,9.18C16.4,698,14.55,715.9,21.24,733.58,26.19,746.68,35,758,47.92,767.8Z"/><path class="cls-3" d="M545.32,281.2c-1-26.28-4.73-59.81-25.63-86-12.78-16-31.42-25.6-52.48-27-23-1.49-47,7-64.43,22.65,1.4-19.83,2.85-39.66,4.36-59.35,2.35-30.52,6.72-87.31-44.12-115C348.47,8.65,331.08,3.84,312.74,2.65a137,137,0,0,0-56,7.88C195.08,33.33,182.24,87,177.55,133.72a83.14,83.14,0,0,0-55.62-26.06c-21.51-1.39-43,5.51-60.62,19.44-32.75,26-36.84,66.31-39.83,95.79q-.39,4-.81,7.86c-4.67,42.3-8.61,92.08-2.47,140.59,5,39.54,21.63,71,48.07,91,24.13,18.26,54,22.33,77.34,23.84,3.52.22,7,.39,10.4.53q-.66,13.49-1.32,27C52.18,521,30.35,546.25,22.73,555.07A55,55,0,0,0,9.09,588.69a39.12,39.12,0,0,0-.65,5c-1.07,17.07-2,34.14-3,51.22L4.59,660.4c-.17,2.91-.5,6-.83,9.18-1.48,14.34-3.33,32.2,3.36,49.89,5,13.1,13.75,24.4,26.68,34.21,0,22.23,2.28,46.1,6.92,72.39,5.84,33.07,14.49,66.91,38.11,90.4,40.65,40.44,108.43,46.26,153.28,50.12,5,.43,10.15.83,15.4,1.16,42.35,2.74,104,2.9,150.58-27.1,29.19-18.83,41.49-52.3,50.46-76.75l.43-1.18a366,366,0,0,0,20.1-84.49,114.62,114.62,0,0,0,11.2-8.44c20.77-17.8,22.38-42.11,23.35-56.63.11-1.83.23-3.65.39-5.45l.82-9.18c2.31-25.56,4.69-52,4.7-78.8a36.72,36.72,0,0,0-.43-5.44c-1.16-14.78-8.93-34.83-36.55-53.34-28.23-18.92-61.23-27.2-92.63-32.89v-.14c45.65-1.93,94.38-13.24,124.71-55.46,18.74-26.1,25.42-58.17,30.79-83.93l.54-2.59A436.63,436.63,0,0,0,545.32,281.2Z"/><path class="cls-4" d="M273.82,971.2h0l-4.73-.09a2.36,2.36,0,0,1,.06-4.71h.06l4.69.1a2.35,2.35,0,0,1,0,4.7Zm14.12,0a2.35,2.35,0,0,1-.05-4.7l4.68-.12a2.32,2.32,0,0,1,2.43,2.27,2.36,2.36,0,0,1-2.29,2.43l-4.72.12ZM255,970.55h-.13l-4.71-.27a2.35,2.35,0,0,1,.28-4.7l4.68.26a2.36,2.36,0,0,1-.12,4.71Zm51.72-.26a2.35,2.35,0,0,1-.17-4.7c1.55-.11,3.09-.24,4.66-.39a2.41,2.41,0,0,1,2.55,2.14,2.34,2.34,0,0,1-2.13,2.55c-1.58.14-3.16.28-4.73.39Zm-70.5-1H236l-4.69-.4a2.35,2.35,0,0,1,.39-4.69l4.69.4a2.35,2.35,0,0,1-.19,4.7Zm89.22-1a2.35,2.35,0,0,1-.34-4.68c1.54-.22,3.07-.46,4.61-.7a2.35,2.35,0,1,1,.76,4.64c-1.57.26-3.13.49-4.69.72A2,2,0,0,1,325.45,968.26Zm-108-.62h-.23l-4.7-.45a2.35,2.35,0,0,1-2.11-2.58,2.38,2.38,0,0,1,2.57-2.11l4.68.45a2.35,2.35,0,0,1-.21,4.7Zm-18.74-2h-.28l-4.7-.6a2.35,2.35,0,0,1-2-2.63,2.37,2.37,0,0,1,2.64-2L199,961a2.35,2.35,0,0,1-.28,4.69ZM344,964.87a2.35,2.35,0,0,1-.52-4.65c1.51-.34,3-.69,4.52-1.07a2.36,2.36,0,1,1,1.14,4.57c-1.54.38-3.08.75-4.63,1.1A2.94,2.94,0,0,1,344,964.87ZM180.1,963l-.39,0c-1.55-.25-3.11-.52-4.67-.8a2.35,2.35,0,0,1,.83-4.63c1.53.28,3.07.54,4.61.79a2.35,2.35,0,0,1-.38,4.67Zm182-3.11a2.35,2.35,0,0,1-.73-4.58c1.47-.49,2.94-1,4.39-1.51a2.35,2.35,0,1,1,1.58,4.43c-1.49.54-3,1-4.5,1.55A2.33,2.33,0,0,1,362.09,959.88Zm-200.48-.45a2.21,2.21,0,0,1-.51,0c-1.55-.35-3.1-.7-4.64-1.07a2.36,2.36,0,1,1,1.1-4.58c1.52.36,3,.72,4.56,1.06a2.35,2.35,0,0,1-.51,4.64Zm-18.25-4.74a2.22,2.22,0,0,1-.67-.1c-1.52-.45-3-.92-4.54-1.41a2.35,2.35,0,1,1,1.44-4.48c1.48.48,3,.94,4.45,1.39a2.35,2.35,0,0,1-.68,4.6Zm236.26-1.63a2.35,2.35,0,0,1-1-4.49c1.41-.64,2.8-1.31,4.19-2a2.35,2.35,0,1,1,2.08,4.22c-1.43.7-2.87,1.39-4.31,2.05A2.43,2.43,0,0,1,379.62,953.06Zm-254-4.56a2.26,2.26,0,0,1-.88-.17c-1.48-.59-2.94-1.2-4.4-1.83a2.35,2.35,0,1,1,1.87-4.32c1.42.62,2.85,1.21,4.28,1.79a2.35,2.35,0,0,1-.87,4.53Zm270.61-4.3a2.38,2.38,0,0,1-2-1.11,2.35,2.35,0,0,1,.75-3.24l1.85-1.17,2-1.34a2.35,2.35,0,0,1,2.66,3.88c-.7.48-1.4.95-2.12,1.41l-1.91,1.21A2.34,2.34,0,0,1,396.21,944.2Zm-287.67-3.64a2.22,2.22,0,0,1-1.11-.29c-1.41-.75-2.79-1.53-4.17-2.33a2.35,2.35,0,1,1,2.36-4.07q2,1.17,4,2.26a2.36,2.36,0,0,1-1.12,4.43Zm302.54-7.83a2.36,2.36,0,0,1-1.62-4.06q1.67-1.59,3.22-3.24a2.35,2.35,0,0,1,3.43,3.22c-1.09,1.17-2.23,2.31-3.4,3.43A2.38,2.38,0,0,1,411.08,932.73ZM92.62,930.56a2.3,2.3,0,0,1-1.38-.45q-2-1.41-3.82-2.9a2.35,2.35,0,1,1,2.91-3.69q1.82,1.43,3.68,2.79a2.35,2.35,0,0,1-1.39,4.25Zm330.76-12a2.36,2.36,0,0,1-1.92-3.73c.91-1.25,1.78-2.52,2.63-3.8a2.35,2.35,0,0,1,3.92,2.6c-.88,1.33-1.78,2.64-2.72,3.95A2.35,2.35,0,0,1,423.38,918.51Zm-345-.18a2.34,2.34,0,0,1-1.68-.7q-1.69-1.71-3.3-3.5A2.35,2.35,0,0,1,76.87,911c1,1.13,2.06,2.25,3.14,3.34a2.34,2.34,0,0,1-1.67,4ZM66.48,903.77a2.34,2.34,0,0,1-2-1q-1.34-2-2.59-4a2.36,2.36,0,0,1,4-2.46c.8,1.32,1.63,2.61,2.48,3.89a2.36,2.36,0,0,1-2,3.66Zm366.75-1.29a2.35,2.35,0,0,1-2.08-3.45c.73-1.38,1.43-2.76,2.12-4.14a2.35,2.35,0,0,1,4.22,2.09c-.71,1.42-1.43,2.83-2.17,4.25A2.38,2.38,0,0,1,433.23,902.48ZM57.33,887.35A2.36,2.36,0,0,1,55.19,886c-.66-1.45-1.31-2.91-1.93-4.38a2.36,2.36,0,0,1,4.34-1.83c.59,1.42,1.22,2.84,1.87,4.24a2.36,2.36,0,0,1-1.15,3.12A2.33,2.33,0,0,1,57.33,887.35Zm383.85-1.93a2.39,2.39,0,0,1-.9-.17,2.37,2.37,0,0,1-1.27-3.08c.6-1.45,1.19-2.9,1.76-4.33a2.35,2.35,0,0,1,4.37,1.74c-.58,1.45-1.17,2.92-1.78,4.39A2.35,2.35,0,0,1,441.18,885.42ZM50.51,869.81a2.37,2.37,0,0,1-2.24-1.62c-.49-1.51-1-3-1.42-4.55a2.35,2.35,0,1,1,4.5-1.36c.45,1.49.92,3,1.4,4.45a2.36,2.36,0,0,1-2.24,3.08Zm397.45-2a2.3,2.3,0,0,1-.81-.14,2.35,2.35,0,0,1-1.4-3l1.62-4.41a2.36,2.36,0,0,1,4.43,1.6l-1.63,4.43A2.35,2.35,0,0,1,448,867.85ZM45.45,851.68a2.34,2.34,0,0,1-2.29-1.82c-.37-1.53-.72-3.07-1.07-4.61a2.36,2.36,0,0,1,1.79-2.81,2.39,2.39,0,0,1,2.81,1.79c.34,1.52.69,3,1,4.56A2.35,2.35,0,0,1,46,851.62,2.46,2.46,0,0,1,45.45,851.68Zm408.67-1.61a2.57,2.57,0,0,1-.72-.11,2.36,2.36,0,0,1-1.52-3c.48-1.48.94-3,1.39-4.46a2.36,2.36,0,0,1,4.51,1.37c-.46,1.51-.94,3-1.42,4.52A2.35,2.35,0,0,1,454.12,850.07ZM41.58,833.25a2.35,2.35,0,0,1-2.31-1.92l-.84-4.66A2.35,2.35,0,0,1,40.34,824a2.38,2.38,0,0,1,2.72,1.91l.84,4.61A2.35,2.35,0,0,1,42,833.21,2.09,2.09,0,0,1,41.58,833.25ZM459.39,832a2.06,2.06,0,0,1-.6-.08,2.35,2.35,0,0,1-1.68-2.87l1.18-4.54a2.35,2.35,0,1,1,4.55,1.16l-1.18,4.58A2.35,2.35,0,0,1,459.39,832ZM38.47,814.69a2.36,2.36,0,0,1-2.32-2c-.24-1.57-.46-3.13-.68-4.69a2.35,2.35,0,0,1,4.66-.65c.22,1.54.44,3.08.67,4.64a2.34,2.34,0,0,1-2,2.67Zm425.27-1a2,2,0,0,1-.49,0,2.34,2.34,0,0,1-1.82-2.78q.48-2.29.93-4.59a2.35,2.35,0,0,1,4.62.91c-.31,1.55-.62,3.1-1,4.64A2.35,2.35,0,0,1,463.74,813.68ZM36.05,796a2.36,2.36,0,0,1-2.33-2.11l-.49-4.69a2.36,2.36,0,1,1,4.69-.46l.48,4.66A2.36,2.36,0,0,1,36.3,796Zm431.08-.86-.37,0a2.35,2.35,0,0,1-2-2.7q.36-2.31.69-4.62a2.35,2.35,0,0,1,4.66.66c-.22,1.57-.46,3.13-.7,4.7A2.36,2.36,0,0,1,467.13,795.16Zm5.34-16.91A2.35,2.35,0,0,1,471.1,774q1.89-1.35,3.69-2.75a2.35,2.35,0,1,1,2.9,3.71q-1.89,1.45-3.85,2.87A2.35,2.35,0,0,1,472.47,778.25Zm-438-1a2.36,2.36,0,0,1-2.35-2.21c-.09-1.58-.18-3.16-.25-4.73a2.34,2.34,0,0,1,2.23-2.46,2.36,2.36,0,0,1,2.46,2.24c.08,1.54.16,3.1.26,4.66a2.36,2.36,0,0,1-2.21,2.5ZM486.6,765.89a2.35,2.35,0,0,1-1.77-3.9q1.51-1.74,2.85-3.52a2.35,2.35,0,0,1,3.77,2.82c-1,1.28-2,2.55-3.08,3.8A2.33,2.33,0,0,1,486.6,765.89ZM33.81,758.45a2.35,2.35,0,0,1-2.35-2.34v-1.27l-.91-.71a2.35,2.35,0,0,1,2.93-3.68l1.75,1.36a2.33,2.33,0,0,1,.93,1.87v2.41a2.34,2.34,0,0,1-2.34,2.36Zm462.81-8.4a2.28,2.28,0,0,1-.95-.2,2.35,2.35,0,0,1-1.21-3.1c.62-1.4,1.17-2.81,1.67-4.21a2.35,2.35,0,1,1,4.43,1.58q-.8,2.25-1.79,4.52A2.35,2.35,0,0,1,496.62,750.05Zm-475-5a2.34,2.34,0,0,1-1.73-.76q-1.65-1.8-3.17-3.65a2.35,2.35,0,0,1,3.64-3q1.44,1.76,3,3.45a2.35,2.35,0,0,1-1.74,3.94ZM501.88,732a2.69,2.69,0,0,1-.4,0,2.37,2.37,0,0,1-1.93-2.72c.27-1.55.5-3.07.68-4.55a2.32,2.32,0,0,1,2.62-2,2.35,2.35,0,0,1,2,2.62c-.19,1.55-.43,3.14-.7,4.77A2.36,2.36,0,0,1,501.88,732ZM10.73,729.8a2.38,2.38,0,0,1-2.08-1.25c-.76-1.44-1.47-2.89-2.13-4.37a2.35,2.35,0,0,1,4.3-1.92c.61,1.38,1.28,2.74,2,4.08a2.35,2.35,0,0,1-1,3.18A2.31,2.31,0,0,1,10.73,729.8Zm493-16.51h-.16a2.35,2.35,0,0,1-2.19-2.51c.07-1.1.16-2.2.26-3.28l.12-1.45a2.38,2.38,0,0,1,2.56-2.14,2.35,2.35,0,0,1,2.13,2.55l-.13,1.46q-.14,1.58-.24,3.18A2.36,2.36,0,0,1,503.77,713.29ZM4.27,712.18A2.35,2.35,0,0,1,2,710.34c-.35-1.59-.65-3.19-.89-4.77a2.35,2.35,0,0,1,2-2.69,2.39,2.39,0,0,1,2.69,2c.23,1.48.5,3,.84,4.47a2.36,2.36,0,0,1-1.79,2.81A2.26,2.26,0,0,1,4.27,712.18ZM2.35,693.32A2.21,2.21,0,0,1,0,691.14c0-1.83,0-3.32.08-4.78a2.35,2.35,0,1,1,4.7.17c0,1.4-.07,2.83-.07,4.27A2.51,2.51,0,0,1,2.35,693.32Zm505.43-1.13h-2.37l-2.32-.41.4-4.49a2.39,2.39,0,0,1,2.55-2.13,2.35,2.35,0,0,1,2.13,2.56Zm-.75-16.4h-.2a2.35,2.35,0,0,1-2.15-2.54l.36-4.68a2.46,2.46,0,0,1,2.53-2.17,2.37,2.37,0,0,1,2.17,2.53l-.37,4.7A2.35,2.35,0,0,1,507,675.79ZM3.48,674.72H3.23a2.36,2.36,0,0,1-2.1-2.58l.47-4.5,2.36,0,2.32.43-.47,4.5A2.34,2.34,0,0,1,3.48,674.72ZM508.36,657h-.14a2.36,2.36,0,0,1-2.21-2.49l.28-4.69a2.38,2.38,0,0,1,2.48-2.21A2.35,2.35,0,0,1,511,650.1l-.28,4.71A2.35,2.35,0,0,1,508.36,657ZM5,656H4.84a2.35,2.35,0,0,1-2.22-2.48l.27-4.7a2.3,2.3,0,0,1,2.48-2.21A2.34,2.34,0,0,1,7.58,649l-.26,4.7A2.36,2.36,0,0,1,5,656Zm504.3-17.74h-.07a2.34,2.34,0,0,1-2.28-2.42l.13-4.68a2.35,2.35,0,1,1,4.7.11l-.13,4.72A2.36,2.36,0,0,1,509.27,638.22ZM6,637.17H5.88a2.35,2.35,0,0,1-2.21-2.48l.27-4.7a2.44,2.44,0,0,1,2.48-2.21,2.34,2.34,0,0,1,2.21,2.48L8.37,635A2.36,2.36,0,0,1,6,637.17Zm503.4-17.77a2.34,2.34,0,0,1-2.33-2.17q-.12-1.41-.3-2.58c-.07-.78-.13-1.39-.2-2a2.36,2.36,0,0,1,2.08-2.6,2.41,2.41,0,0,1,2.6,2.07c.07.68.14,1.34.19,2s.23,1.7.31,2.76a2.35,2.35,0,0,1-2.16,2.53Zm-502.33-1H7a2.36,2.36,0,0,1-2.21-2.49l.28-4.7a2.35,2.35,0,1,1,4.69.28l-.27,4.7A2.35,2.35,0,0,1,7.09,618.37Zm498.44-17.31a2.35,2.35,0,0,1-2.2-1.51c-.52-1.36-1.12-2.74-1.79-4.13a2.35,2.35,0,1,1,4.24-2c.73,1.51,1.37,3,1.94,4.49a2.35,2.35,0,0,1-1.35,3A2.44,2.44,0,0,1,505.53,601.06ZM8.22,599.58H8.06a2.36,2.36,0,0,1-2.19-2.51l.32-4.77a2.38,2.38,0,0,1,2.57-2.11,2.35,2.35,0,0,1,2.11,2.57l-.31,4.62A2.34,2.34,0,0,1,8.22,599.58Zm488-14.81a2.34,2.34,0,0,1-1.86-.91c-.91-1.17-1.87-2.35-2.9-3.53a2.35,2.35,0,0,1,3.55-3.09q1.64,1.88,3.07,3.74a2.36,2.36,0,0,1-.42,3.31A2.4,2.4,0,0,1,496.23,584.77ZM10.52,580.93a2.08,2.08,0,0,1-.55-.07A2.35,2.35,0,0,1,8.23,578q.58-2.38,1.36-4.72a2.35,2.35,0,1,1,4.46,1.5c-.48,1.42-.89,2.87-1.24,4.32A2.37,2.37,0,0,1,10.52,580.93Zm472.65-9.66a2.37,2.37,0,0,1-1.52-.55q-1.71-1.46-3.57-2.9A2.35,2.35,0,1,1,481,564.1c1.3,1,2.54,2,3.74,3a2.36,2.36,0,0,1-1.53,4.15ZM18,563.74a2.3,2.3,0,0,1-1.28-.38,2.35,2.35,0,0,1-.69-3.25q1.32-2,2.84-4A2.36,2.36,0,0,1,22.56,559c-.93,1.2-1.81,2.42-2.62,3.67A2.33,2.33,0,0,1,18,563.74ZM467.9,560.3a2.3,2.3,0,0,1-1.23-.35q-2-1.23-4-2.38a2.35,2.35,0,0,1,2.35-4.08c1.38.8,2.74,1.62,4.1,2.46a2.35,2.35,0,0,1-1.24,4.35Zm-16.54-9a2.29,2.29,0,0,1-1-.23q-2.1-1-4.22-1.93a2.35,2.35,0,1,1,1.89-4.3q2.19,1,4.35,2a2.35,2.35,0,0,1-1,4.48Zm-421-1.65a2.39,2.39,0,0,1-1.8-.83,2.36,2.36,0,0,1,.27-3.32q1.71-1.45,3.81-3a2.36,2.36,0,0,1,2.8,3.79c-1.32,1-2.5,1.91-3.56,2.81A2.34,2.34,0,0,1,30.39,549.69ZM434,544.15a2.31,2.31,0,0,1-.8-.15c-1.45-.52-2.92-1-4.39-1.53a2.35,2.35,0,0,1,1.5-4.46c1.51.51,3,1,4.49,1.57a2.35,2.35,0,0,1-.8,4.57ZM46.08,539.4A2.35,2.35,0,0,1,45,535c1.36-.7,2.79-1.4,4.31-2.11a2.35,2.35,0,0,1,2,4.27c-1.45.67-2.83,1.35-4.14,2A2.3,2.3,0,0,1,46.08,539.4Zm370-.95a2.27,2.27,0,0,1-.63-.08c-1.5-.42-3-.82-4.51-1.22a2.35,2.35,0,1,1,1.19-4.55c1.53.4,3.05.81,4.58,1.23a2.35,2.35,0,0,1-.63,4.62ZM397.75,534a2.2,2.2,0,0,1-.5-.06l-4.58-1a2.35,2.35,0,1,1,1-4.61l4.62,1a2.36,2.36,0,0,1-.5,4.66ZM63.36,532a2.35,2.35,0,0,1-.78-4.57q2.17-.78,4.51-1.53a2.35,2.35,0,0,1,1.45,4.47c-1.51.49-3,1-4.39,1.49A2.44,2.44,0,0,1,63.36,532Zm317.1-1.79a2.35,2.35,0,0,1-.11-4.7c1.56-.07,3.11-.15,4.67-.24a2.3,2.3,0,0,1,2.48,2.22,2.35,2.35,0,0,1-2.22,2.48c-1.57.09-3.14.17-4.72.24Zm18.75-1.4a2.35,2.35,0,0,1-.25-4.69c1.55-.16,3.09-.35,4.64-.54a2.39,2.39,0,0,1,2.63,2,2.36,2.36,0,0,1-2,2.63c-1.58.2-3.15.38-4.72.55ZM81.37,526.63a2.35,2.35,0,0,1-.58-4.63c1.49-.39,3-.76,4.61-1.14a2.36,2.36,0,1,1,1.07,4.59c-1.54.36-3,.73-4.52,1.11A2.36,2.36,0,0,1,81.37,526.63Zm336.46-.52a2.35,2.35,0,0,1-.44-4.66c1.52-.29,3.05-.6,4.57-.93a2.35,2.35,0,1,1,1,4.6c-1.55.34-3.11.65-4.66,1A2.28,2.28,0,0,1,417.83,526.11ZM99.74,522.6a2.36,2.36,0,0,1-.43-4.67l4.66-.84a2.35,2.35,0,1,1,.8,4.64c-1.56.27-3.09.54-4.59.83A2.25,2.25,0,0,1,99.74,522.6Zm336.39-.9a2.35,2.35,0,0,1-.67-4.61c1.48-.44,3-.9,4.43-1.38a2.35,2.35,0,1,1,1.47,4.47c-1.52.49-3,1-4.56,1.42A2.22,2.22,0,0,1,436.13,521.7Zm-317.82-2.1a2.36,2.36,0,0,1-.32-4.69c1.54-.21,3.1-.42,4.69-.62a2.38,2.38,0,0,1,2.63,2,2.35,2.35,0,0,1-2,2.63l-4.64.61A1.73,1.73,0,0,1,118.31,519.6ZM137,517.4a2.36,2.36,0,0,1-.23-4.7l4.71-.44a2.38,2.38,0,0,1,2.56,2.13,2.35,2.35,0,0,1-2.14,2.55l-4.66.44Zm316.82-2.11a2.35,2.35,0,0,1-.93-4.51q2.12-.93,4.21-1.92a2.35,2.35,0,1,1,2,4.25q-2.16,1-4.35,2A2.21,2.21,0,0,1,453.81,515.29Zm-301-2.3h-.11a2.35,2.35,0,0,1-2.24-2.46l.23-4.71a2.26,2.26,0,0,1,2.47-2.23,2.36,2.36,0,0,1,2.23,2.47l-.23,4.69A2.35,2.35,0,0,1,152.84,513Zm317.64-6.37a2.35,2.35,0,0,1-1.23-4.36c1.3-.81,2.59-1.63,3.88-2.49a2.35,2.35,0,0,1,2.61,3.91q-2,1.33-4,2.59A2.45,2.45,0,0,1,470.48,506.62Zm15.18-11.07a2.35,2.35,0,0,1-1.53-4.14q1.74-1.5,3.43-3.07a2.35,2.35,0,1,1,3.21,3.44q-1.77,1.65-3.58,3.2A2.35,2.35,0,0,1,485.66,495.55Zm-331.9-1.35h-.11a2.34,2.34,0,0,1-2.23-2.46l.22-4.71a2.26,2.26,0,0,1,2.47-2.23,2.35,2.35,0,0,1,2.23,2.47l-.23,4.69A2.35,2.35,0,0,1,153.76,494.2Zm-13.43-5.87h-.18l-4.73-.39a2.35,2.35,0,0,1-2.13-2.55,2.32,2.32,0,0,1,2.55-2.14c1.57.15,3.13.27,4.66.38a2.35,2.35,0,0,1-.17,4.7Zm-18.71-2.06a2.22,2.22,0,0,1-.37,0c-1.55-.24-3.12-.51-4.7-.79a2.35,2.35,0,1,1,.84-4.63c1.54.28,3.07.53,4.59.77a2.35,2.35,0,0,1-.36,4.68Zm-18.42-3.89a2.34,2.34,0,0,1-.63-.09c-1.52-.42-3.06-.87-4.59-1.35a2.35,2.35,0,0,1,1.42-4.49c1.47.46,2.95.9,4.43,1.3a2.36,2.36,0,0,1-.63,4.63Zm395.69-.18a2.33,2.33,0,0,1-1.51-.55,2.35,2.35,0,0,1-.29-3.32q1.47-1.75,2.9-3.58a2.36,2.36,0,0,1,3.72,2.89q-1.48,1.91-3,3.72A2.36,2.36,0,0,1,498.89,482.2ZM85.49,476a2.33,2.33,0,0,1-1-.2c-1.47-.66-2.91-1.35-4.35-2.08a2.35,2.35,0,1,1,2.12-4.2c1.38.7,2.76,1.36,4.16,2a2.35,2.35,0,0,1-1,4.5Zm424.36-9.12a2.35,2.35,0,0,1-2-3.58c.8-1.32,1.58-2.65,2.32-4a2.35,2.35,0,1,1,4.12,2.28c-.78,1.39-1.58,2.78-2.42,4.15A2.34,2.34,0,0,1,509.85,466.92Zm-440.72-.13a2.32,2.32,0,0,1-1.35-.42c-1-.69-2-1.4-2.93-2.13l-.95-.73a2.35,2.35,0,1,1,2.87-3.72l.92.7c.92.69,1.85,1.37,2.78,2a2.35,2.35,0,0,1-1.34,4.28ZM54.76,454.67a2.35,2.35,0,0,1-1.67-.69c-1.12-1.14-2.23-2.29-3.31-3.47a2.35,2.35,0,1,1,3.46-3.18q1.57,1.69,3.19,3.33a2.35,2.35,0,0,1-1.67,4Zm463.72-4.47a2.27,2.27,0,0,1-.94-.2,2.35,2.35,0,0,1-1.21-3.1q.93-2.13,1.79-4.28a2.36,2.36,0,0,1,4.37,1.77c-.6,1.47-1.21,2.94-1.85,4.4A2.36,2.36,0,0,1,518.48,450.2ZM42.65,440.29a2.38,2.38,0,0,1-1.92-1c-.92-1.3-1.82-2.63-2.7-4A2.35,2.35,0,1,1,42,432.76q1.26,1.94,2.6,3.81a2.35,2.35,0,0,1-.55,3.28A2.42,2.42,0,0,1,42.65,440.29Zm482.45-7.72a2.29,2.29,0,0,1-.72-.11,2.35,2.35,0,0,1-1.51-3c.47-1.49.93-3,1.38-4.45a2.35,2.35,0,1,1,4.5,1.35c-.45,1.51-.92,3-1.41,4.54A2.33,2.33,0,0,1,525.1,432.57ZM33,424.15a2.36,2.36,0,0,1-2.11-1.3c-.7-1.42-1.4-2.85-2.07-4.31a2.35,2.35,0,1,1,4.28-2c.65,1.41,1.31,2.8,2,4.16a2.36,2.36,0,0,1-2.1,3.41Zm497.23-9.7a2.15,2.15,0,0,1-.56-.07,2.34,2.34,0,0,1-1.72-2.85c.38-1.52.74-3,1.09-4.54a2.36,2.36,0,1,1,4.59,1.07c-.36,1.53-.73,3.06-1.12,4.61A2.34,2.34,0,0,1,530.21,414.45ZM25.73,406.8a2.35,2.35,0,0,1-2.23-1.59c-.51-1.5-1-3-1.47-4.55a2.35,2.35,0,1,1,4.49-1.38c.46,1.48.93,3,1.43,4.41a2.34,2.34,0,0,1-1.46,3A2.25,2.25,0,0,1,25.73,406.8Zm508.62-10.71a2.81,2.81,0,0,1-.49,0,2.37,2.37,0,0,1-1.82-2.79l1-4.6a2.4,2.4,0,0,1,2.78-1.83,2.35,2.35,0,0,1,1.83,2.78l-1,4.62A2.36,2.36,0,0,1,534.35,396.09ZM20.73,388.67a2.38,2.38,0,0,1-2.3-1.87c-.32-1.55-.64-3.1-.93-4.67a2.35,2.35,0,1,1,4.63-.86c.29,1.53.59,3.05.91,4.56a2.35,2.35,0,0,1-1.82,2.78A2.05,2.05,0,0,1,20.73,388.67Zm517.35-11a2.15,2.15,0,0,1-.43,0,2.35,2.35,0,0,1-1.89-2.74l.84-4.62a2.35,2.35,0,0,1,4.63.83l-.84,4.65A2.35,2.35,0,0,1,538.08,377.63ZM17.76,370.09A2.36,2.36,0,0,1,15.42,368c-.18-1.57-.35-3.14-.51-4.7a2.37,2.37,0,0,1,2.1-2.59,2.44,2.44,0,0,1,2.58,2.1q.24,2.32.51,4.65A2.36,2.36,0,0,1,18,370.07Zm523.37-11-.34,0a2.36,2.36,0,0,1-2-2.67c.23-1.54.44-3.09.64-4.63a2.36,2.36,0,0,1,4.67.62c-.21,1.56-.43,3.13-.65,4.69A2.36,2.36,0,0,1,541.13,359.06ZM16.05,351.34a2.35,2.35,0,0,1-2.34-2.19c-.11-1.58-.2-3.15-.29-4.73a2.36,2.36,0,0,1,2.21-2.48,2.26,2.26,0,0,1,2.49,2.22c.08,1.56.18,3.11.29,4.67a2.37,2.37,0,0,1-2.2,2.51Zm527.37-11h-.24a2.36,2.36,0,0,1-2.11-2.58l.45-4.66a2.35,2.35,0,1,1,4.68.42l-.45,4.71A2.35,2.35,0,0,1,543.42,340.37ZM15.2,332.54a2.36,2.36,0,0,1-2.35-2.3l-.09-4.73a2.35,2.35,0,0,1,2.32-2.38h0a2.35,2.35,0,0,1,2.35,2.32l.09,4.68a2.35,2.35,0,0,1-2.29,2.41ZM544.89,321.6h-.13a2.35,2.35,0,0,1-2.21-2.49c.09-1.56.17-3.11.23-4.66a2.36,2.36,0,0,1,2.36-2.25h.1a2.35,2.35,0,0,1,2.25,2.45c-.07,1.58-.16,3.16-.25,4.74A2.35,2.35,0,0,1,544.89,321.6ZM15.1,313.72h0a2.36,2.36,0,0,1-2.33-2.38l.08-4.73a2.36,2.36,0,0,1,2.35-2.3h.05a2.36,2.36,0,0,1,2.31,2.4l-.08,4.68A2.36,2.36,0,0,1,15.1,313.72Zm530.45-10.93h0a2.36,2.36,0,0,1-2.33-2.38q0-2.36,0-4.68a2.36,2.36,0,0,1,4.71,0c0,1.57,0,3.15,0,4.73A2.36,2.36,0,0,1,545.55,302.79ZM15.62,294.91h-.1a2.36,2.36,0,0,1-2.25-2.46l.23-4.71A2.28,2.28,0,0,1,16,285.51,2.34,2.34,0,0,1,18.19,288L18,292.66A2.36,2.36,0,0,1,15.62,294.91ZM543,281.69l0-.41c-.05-1.53-.11-3.09-.19-4.66a2.35,2.35,0,1,1,4.69-.25c.09,1.6.15,3.19.21,4.74l-2.34.5ZM16.7,276.12h-.17a2.35,2.35,0,0,1-2.19-2.5l.35-4.72a2.42,2.42,0,0,1,2.52-2.16,2.34,2.34,0,0,1,2.16,2.52L19,273.92A2.35,2.35,0,0,1,16.7,276.12Zm527.37-11.35a2.37,2.37,0,0,1-2.34-2.11c-.16-1.54-.33-3.08-.52-4.64a2.35,2.35,0,0,1,2-2.62,2.32,2.32,0,0,1,2.63,2c.19,1.58.37,3.16.53,4.72a2.35,2.35,0,0,1-2.1,2.58ZM18.21,257.36H18a2.37,2.37,0,0,1-2.14-2.56l.44-4.7a2.36,2.36,0,0,1,4.69.44l-.44,4.69A2.35,2.35,0,0,1,18.21,257.36Zm523-11.2a2.36,2.36,0,0,1-2.3-1.88c-.31-1.51-.65-3-1-4.53a2.35,2.35,0,1,1,4.57-1.08c.37,1.55.71,3.11,1,4.66a2.36,2.36,0,0,1-1.83,2.78A2.61,2.61,0,0,1,541.25,246.16ZM20.07,238.63l-.25,0A2.34,2.34,0,0,1,17.73,236l.5-4.69a2.35,2.35,0,0,1,4.68.51l-.5,4.67A2.36,2.36,0,0,1,20.07,238.63ZM536.27,228a2.36,2.36,0,0,1-2.22-1.58c-.51-1.44-1-2.88-1.61-4.31a2.35,2.35,0,1,1,4.37-1.74q.88,2.23,1.68,4.49a2.37,2.37,0,0,1-2.22,3.14ZM22,219.91H21.8a2.34,2.34,0,0,1-2.1-2.58c.15-1.55.32-3.12.5-4.71a2.35,2.35,0,0,1,4.68.53q-.27,2.36-.51,4.65A2.35,2.35,0,0,1,22,219.91Zm506.56-9a2.37,2.37,0,0,1-2.06-1.21c-.74-1.33-1.51-2.65-2.33-4a2.35,2.35,0,1,1,4-2.48q1.27,2.06,2.45,4.16a2.34,2.34,0,0,1-.92,3.19A2.24,2.24,0,0,1,528.6,210.87ZM24.4,201.23a2.43,2.43,0,0,1-.38,0,2.35,2.35,0,0,1-1.94-2.7c.25-1.55.51-3.11.79-4.68a2.35,2.35,0,1,1,4.63.83c-.28,1.54-.53,3.08-.78,4.6A2.36,2.36,0,0,1,24.4,201.23Zm493.5-5.81a2.37,2.37,0,0,1-1.78-.82q-1.49-1.72-3.08-3.35a2.35,2.35,0,1,1,3.35-3.3c1.14,1.16,2.23,2.35,3.3,3.58a2.36,2.36,0,0,1-1.79,3.89Zm-114.85-5.84h-.17a2.35,2.35,0,0,1-2.18-2.51l.33-4.69a2.39,2.39,0,0,1,2.51-2.18,2.35,2.35,0,0,1,2.19,2.51l-.34,4.69A2.35,2.35,0,0,1,403.05,189.58Zm7.88-2.8a2.35,2.35,0,0,1-1.35-4.28c1.32-.92,2.67-1.81,4-2.67a2.35,2.35,0,0,1,2.5,4c-1.3.81-2.57,1.66-3.83,2.54A2.32,2.32,0,0,1,410.93,186.78Zm92.95-3.85a2.4,2.4,0,0,1-1.32-.4c-1.25-.85-2.54-1.66-3.85-2.42a2.35,2.35,0,0,1,2.37-4.07c1.41.82,2.77,1.68,4.12,2.59a2.35,2.35,0,0,1-1.32,4.3ZM28.24,182.8a2.25,2.25,0,0,1-.62-.08A2.35,2.35,0,0,1,26,179.83c.41-1.53.84-3.06,1.31-4.59a2.35,2.35,0,1,1,4.5,1.36c-.44,1.49-.87,3-1.27,4.47A2.36,2.36,0,0,1,28.24,182.8Zm399.11-5.15a2.35,2.35,0,0,1-.92-4.51q2.22-1,4.49-1.78a2.35,2.35,0,1,1,1.62,4.41c-1.43.53-2.85,1.09-4.26,1.7A2.56,2.56,0,0,1,427.35,177.65Zm59.74-3.09a2.35,2.35,0,0,1-.77-.13c-1.42-.49-2.87-.93-4.35-1.34a2.35,2.35,0,0,1,1.25-4.54q2.36.64,4.64,1.43a2.36,2.36,0,0,1-.77,4.58Zm-41.8-2.46a2.35,2.35,0,0,1-.45-4.66c1.58-.31,3.17-.59,4.76-.82a2.38,2.38,0,0,1,2.67,2,2.35,2.35,0,0,1-2,2.66c-1.52.22-3,.48-4.52.77A1.88,1.88,0,0,1,445.29,172.1Zm-40.9-1.3h-.17a2.36,2.36,0,0,1-2.18-2.52l.34-4.69a2.44,2.44,0,0,1,2.51-2.18,2.36,2.36,0,0,1,2.19,2.51l-.34,4.7A2.36,2.36,0,0,1,404.39,170.8Zm64.33-.07h-.2l-1.47-.11c-1-.07-2.06-.12-3.09-.14a2.37,2.37,0,0,1-2.3-2.41,2.58,2.58,0,0,1,2.42-2.3c1.09,0,2.19.08,3.29.15l1.54.12a2.35,2.35,0,0,1-.19,4.7ZM34.38,165a2.44,2.44,0,0,1-.94-.2,2.34,2.34,0,0,1-1.22-3.09c.63-1.47,1.31-2.93,2-4.37a2.35,2.35,0,1,1,4.22,2.07c-.68,1.38-1.31,2.77-1.92,4.17A2.37,2.37,0,0,1,34.38,165Zm371.4-13h-.18a2.35,2.35,0,0,1-2.18-2.51l.36-4.7a2.42,2.42,0,0,1,2.52-2.17,2.35,2.35,0,0,1,2.17,2.53l-.35,4.68A2.35,2.35,0,0,1,405.78,152ZM43.45,148.57a2.29,2.29,0,0,1-1.34-.42,2.35,2.35,0,0,1-.6-3.27c.91-1.31,1.85-2.61,2.84-3.9a2.35,2.35,0,0,1,3.73,2.87c-.94,1.22-1.83,2.46-2.7,3.71A2.33,2.33,0,0,1,43.45,148.57Zm134.1-12.5a2.34,2.34,0,0,1-1.71-.74c-.83-.88-1.68-1.75-2.55-2.59a2.35,2.35,0,1,1,3.27-3.38c.36.35.71.69,1.05,1h.27A2.36,2.36,0,0,1,180,133l-.1,1a2.36,2.36,0,0,1-1.58,2A2.51,2.51,0,0,1,177.55,136.07ZM55.67,134.32a2.36,2.36,0,0,1-1.61-4.07q1.74-1.63,3.61-3.21a2.35,2.35,0,1,1,3,3.6c-1.18,1-2.32,2-3.41,3A2.36,2.36,0,0,1,55.67,134.32Zm351.53-1.06H407a2.36,2.36,0,0,1-2.17-2.52l.35-4.68a2.41,2.41,0,0,1,2.52-2.18,2.36,2.36,0,0,1,2.18,2.51l-.35,4.71A2.36,2.36,0,0,1,407.2,133.26ZM164,124.46a2.34,2.34,0,0,1-1.33-.41q-1.89-1.29-3.84-2.48a2.35,2.35,0,1,1,2.43-4c1.39.83,2.74,1.71,4.07,2.62a2.35,2.35,0,0,1-1.33,4.29ZM70.63,123a2.35,2.35,0,0,1-1.23-4.36q2.07-1.26,4.18-2.41a2.36,2.36,0,0,1,2.25,4.14c-1.34.72-2.66,1.49-4,2.29A2.41,2.41,0,0,1,70.63,123Zm108.73-1.86-.34,0a2.35,2.35,0,0,1-2-2.67c.23-1.56.46-3.12.71-4.69a2.36,2.36,0,1,1,4.65.75c-.25,1.54-.48,3.08-.7,4.62A2.35,2.35,0,0,1,179.36,121.09Zm-31.92-5.43a2.34,2.34,0,0,1-.86-.16c-1.41-.56-2.84-1.07-4.3-1.55a2.35,2.35,0,1,1,1.47-4.47q2.31.75,4.55,1.64a2.35,2.35,0,0,1-.86,4.54Zm-59.86-.8a2.35,2.35,0,0,1-.79-4.57q2.28-.81,4.6-1.5a2.35,2.35,0,0,1,1.33,4.51c-1.46.44-2.91.91-4.35,1.42A2.44,2.44,0,0,1,87.58,114.86Zm320.71-.39h-.07a2.35,2.35,0,0,1-2.28-2.42c0-1.53.07-3.08.08-4.65a2.36,2.36,0,0,1,2.36-2.34h0a2.34,2.34,0,0,1,2.34,2.36c0,1.62,0,3.2-.09,4.77A2.35,2.35,0,0,1,408.29,114.47Zm-279-3.67a2.19,2.19,0,0,1-.36,0c-1.5-.22-3-.41-4.54-.56a2.35,2.35,0,1,1,.45-4.68c1.62.15,3.22.35,4.8.59a2.35,2.35,0,0,1-.35,4.68Zm-23.47-.29a2.35,2.35,0,0,1-.28-4.69c1.6-.2,3.2-.36,4.81-.47a2.44,2.44,0,0,1,2.52,2.18A2.36,2.36,0,0,1,110.7,110q-2.28.17-4.56.45Zm76.88-8a2.16,2.16,0,0,1-.51-.06,2.36,2.36,0,0,1-1.79-2.81c.34-1.55.71-3.1,1.1-4.64a2.31,2.31,0,0,1,2.85-1.71,2.34,2.34,0,0,1,1.71,2.85c-.37,1.51-.73,3-1.07,4.52A2.36,2.36,0,0,1,182.72,102.56ZM408,95.65a2.35,2.35,0,0,1-2.34-2.18c-.11-1.53-.24-3.07-.4-4.62a2.35,2.35,0,0,1,4.68-.48c.17,1.6.3,3.19.42,4.76a2.37,2.37,0,0,1-2.19,2.52ZM187.76,84.42a2.19,2.19,0,0,1-.75-.13,2.35,2.35,0,0,1-1.48-3q.76-2.27,1.61-4.5a2.35,2.35,0,1,1,4.4,1.65c-.54,1.45-1.06,2.9-1.55,4.36A2.35,2.35,0,0,1,187.76,84.42ZM405.39,77a2.35,2.35,0,0,1-2.29-1.86c-.33-1.49-.68-3-1.07-4.48a2.36,2.36,0,1,1,4.56-1.18c.39,1.55.77,3.11,1.1,4.67A2.34,2.34,0,0,1,405.9,77,2.22,2.22,0,0,1,405.39,77ZM195,67.05a2.35,2.35,0,0,1-2.1-3.41q1.06-2.14,2.23-4.25a2.35,2.35,0,0,1,4.12,2.27c-.74,1.35-1.46,2.72-2.15,4.09A2.36,2.36,0,0,1,195,67.05Zm204.8-8a2.36,2.36,0,0,1-2.16-1.43q-.9-2.1-1.9-4.17A2.35,2.35,0,0,1,400,51.41c.72,1.46,1.38,2.92,2,4.4a2.35,2.35,0,0,1-1.25,3.08A2.3,2.3,0,0,1,399.79,59.08Zm-195-8.1a2.32,2.32,0,0,1-1.39-.46,2.36,2.36,0,0,1-.51-3.29c.94-1.28,1.92-2.56,2.92-3.81a2.36,2.36,0,0,1,3.68,2.94q-1.45,1.8-2.8,3.66A2.38,2.38,0,0,1,204.75,51Zm185.83-8.26a2.36,2.36,0,0,1-1.9-1q-1.33-1.83-2.79-3.61a2.35,2.35,0,1,1,3.64-3c1,1.25,2,2.53,3,3.82a2.35,2.35,0,0,1-1.91,3.74ZM217.16,36.87a2.35,2.35,0,0,1-1.62-4.06q1.72-1.64,3.56-3.23a2.36,2.36,0,1,1,3.08,3.57c-1.17,1-2.3,2-3.4,3.07A2.31,2.31,0,0,1,217.16,36.87ZM377.8,29a2.35,2.35,0,0,1-1.52-.55c-1.14-1-2.33-1.92-3.57-2.85a2.36,2.36,0,1,1,2.84-3.76c1.3,1,2.56,2,3.77,3A2.35,2.35,0,0,1,377.8,29ZM231.91,25.24a2.35,2.35,0,0,1-1.29-4.32c1.32-.87,2.67-1.72,4.07-2.55a2.35,2.35,0,0,1,2.4,4.05q-2,1.18-3.89,2.43A2.29,2.29,0,0,1,231.91,25.24ZM362.22,18.5a2.31,2.31,0,0,1-1.1-.28c-1.35-.72-2.72-1.4-4.11-2.07a2.35,2.35,0,0,1,2-4.25q2.19,1,4.3,2.17a2.35,2.35,0,0,1-1.11,4.43ZM248.41,16.26a2.35,2.35,0,0,1-1-4.5q2.15-1,4.4-1.88a2.35,2.35,0,0,1,1.77,4.36c-1.45.59-2.86,1.19-4.25,1.82A2.5,2.5,0,0,1,248.41,16.26Zm96.52-5.12a2.43,2.43,0,0,1-.74-.12c-1.45-.48-2.92-.93-4.4-1.36a2.35,2.35,0,1,1,1.29-4.52q2.32.66,4.59,1.42a2.35,2.35,0,0,1-.74,4.58ZM266.07,9.82a2.35,2.35,0,0,1-.64-4.62c1.54-.43,3.08-.83,4.63-1.22a2.36,2.36,0,0,1,1.12,4.58c-1.5.36-3,.76-4.47,1.18A2.34,2.34,0,0,1,266.07,9.82Zm60.62-3.19a2.6,2.6,0,0,1-.4,0c-1.52-.26-3-.49-4.57-.7a2.35,2.35,0,1,1,.62-4.66q2.39.31,4.74.72a2.35,2.35,0,0,1-.39,4.67ZM284.48,6a2.36,2.36,0,0,1-.31-4.69c1.58-.21,3.16-.4,4.75-.57a2.43,2.43,0,0,1,2.58,2.1,2.35,2.35,0,0,1-2.1,2.59c-1.53.15-3.06.34-4.59.54ZM308,4.77h-.07c-1.45,0-2.89-.06-4.34-.06a2.49,2.49,0,0,1-2.5-2.36A2.23,2.23,0,0,1,303.26,0c1.79,0,3.28,0,4.78.07a2.35,2.35,0,0,1-.08,4.7Z"/><path class="cls-5" d="M427.74,759.86a2.12,2.12,0,0,0-.82.12c-15.22,5.53-33.72,9-56.52,10.76-47.73,3.58-87.13,4.14-124,1.75q-6-.39-12.08-.89c-40.77-3.44-88.12-8.9-130.16-23.37l-1-.37c-7.33-2.51-16.45-5.65-25.39-9.58a2.2,2.2,0,0,0-.67-.17,2,2,0,0,0-1.17.3,2,2,0,0,0-.95,1.59,320,320,0,0,0,5.88,78.75l.87,4.49C86,845.84,92,876.78,112,891.34c35.57,26,86.82,32.31,127.49,34.94l1.29.08c35.56,2.24,95.1,6,133.43-18.72,23.87-15.4,34-49.19,40.72-71.55,8.24-27.45,13.05-51.68,14.71-74.08a2,2,0,0,0-.78-1.75A2.07,2.07,0,0,0,427.74,759.86Z"/><path class="cls-5" d="M178.37,654.28l.21,0a2,2,0,0,0,1.37-.42,2,2,0,0,0,.76-1.45q1.46-23.19,2.7-46.4a2,2,0,0,0-1.87-2.11l-4.22.1c-34.5.86-70.18,1.76-102.55,13.73a2,2,0,0,0-1.3,1.68,2,2,0,0,0,.92,1.89A147,147,0,0,0,105,635.68,472.94,472.94,0,0,0,178.37,654.28Z"/><path class="cls-5" d="M441.45,642.94c-30.15-16.85-65.49-22.71-99.66-28.37,0,0-1-.17-1.07-.17a2,2,0,0,0-1.38.43,2,2,0,0,0-.74,1.44q-1.38,22.31-2.54,44.62a2,2,0,0,0,1.86,2.1h.18c29.5-.75,54-2.52,78.09-8.69,7.31-1.88,16.4-4.22,25.05-7.76a2,2,0,0,0,.21-3.6Z"/><path class="cls-6" d="M58.4,609.05c1.91,1.79,4,3.6,6.71,5.69a1.94,1.94,0,0,0,1.1.42,2.11,2.11,0,0,0,.89-.14c35-14.43,74.37-15.45,112.46-16.43l2.42-.06a2,2,0,0,0,2-1.9Q185,575.81,186.05,555a2,2,0,0,0-1.87-2.09c-.06,0-3,.06-3,.06-31,.79-63.1,1.61-93,10.46-3.42,1-33.47,10.34-37.38,26.79C49.27,596.53,51.83,602.87,58.4,609.05Z"/><path class="cls-6" d="M464.65,696.19c.07-4.25.16-8.25.44-11.73l.35-4.39c1.09-13.47,2.22-27.4,2.84-41.15a2,2,0,0,0-3.43-1.49c-7.16,7.3-18.06,13.22-33.32,18.07-36,11.48-74.36,12.85-117.11,13.38-20.91.25-41.79-.28-62.05-1.59a752,752,0,0,1-91.68-11.58l-2.45-.47c-34.33-6.52-81.36-15.45-104-42.71-1-1.14-1.79-2.24-2.6-3.34a2,2,0,0,0-1.48-.82,2.19,2.19,0,0,0-.67.07,2,2,0,0,0-1.45,1.76c-.51,5.85-1.08,11.75-1.66,17.68-2.23,22.9-4.52,46.58-3.17,69,1.89,31.27,59.3,46,78.17,50.81a649.56,649.56,0,0,0,118.94,18.91l2.29.14c47.44,2.9,88.73,2.48,126.22-1.27l4.05-.39c26.25-2.56,70.18-6.82,85.13-31.15C464.09,724.08,464.38,709.26,464.65,696.19Z"/><path class="cls-6" d="M340.93,609c37.56,6.23,76.39,12.67,108.55,32.43a2,2,0,0,0,2.08,0c6.42-3.86,11-8.17,13.84-13.17,3.7-6.4,4.12-12.7,1.25-18.72-8.91-18.76-51.24-34.73-122.4-46.19l-.18,0a2,2,0,0,0-1.38.44,2,2,0,0,0-.75,1.43q-1.43,20.84-2.74,41.69A2.06,2.06,0,0,0,340.93,609Z"/><path class="cls-7" d="M307.86,544.56c-2.25,39.53-4.48,78.23-7,117.24a2,2,0,0,1-2,1.87c-16.11.05-32-.35-47.25-1.2h0a2,2,0,0,1-1.87-2.09c7.11-164.07,15.95-315.74,27-463.65,2.25-30.14,4.37-57.32,7.4-84.66,2.67-24.06,8.43-50.87,31-67.43a2,2,0,0,1,1.31-.38h.17c1.56.24,3.1.54,4.63.85a2.2,2.2,0,0,1,1.33.8c5.57,7.65,6.29,16.85,6.59,26.38.27,9,0,18-.18,26.84-.1,4.07-.2,8.13-.26,12.19-.17,12.48-.58,25-1,37.86-1.32,38.59-3.11,76.48-5,115.14C318.81,346.79,314.07,435.83,307.86,544.56ZM276.4,192.38l.33-4.34c2-26.49,4.08-53.88,7.29-80.66,3.33-28,12.17-47.71,27-60.36a2,2,0,0,0,.61-2.13,2,2,0,0,0-1.75-1.39l-1.65-.12a97.53,97.53,0,0,0-12.56,0c-40.92,11.81-46.74,66.77-49.87,96.3-3.92,37-6.46,74.7-8.94,111.56-4.91,72.68-8.77,146.63-12.5,218.15-3.22,61.63-6.54,125.35-10.52,188a2,2,0,0,0,1.78,2.12c9.9,1.08,19.89,2,29.72,2.59l1.59.1a2,2,0,0,0,1.47-.52,2,2,0,0,0,.66-1.4c3.09-71,7.06-142.57,10.88-209.82C264.59,368.17,269.71,280.46,276.4,192.38ZM225.64,424.45l.28-4.88c4.29-76.56,8.73-155.72,15-233.43.39-4.9.73-10.27,1.09-16,2.64-41.78,6.27-99,39-120.87a2,2,0,0,0-1-3.66,2,2,0,0,0-.59.05,75.47,75.47,0,0,0-30.07,14.08c-22.39,17.82-26.68,41.38-29.67,68.09-3.06,27.39-5.22,54.89-7.08,80.53-1.43,19.67-2.66,39.69-3.85,59-1.77,28.63-3.59,58.23-6.09,87.26a2.64,2.64,0,0,1-3,2.4,2.82,2.82,0,0,1-1.95-.87,2.39,2.39,0,0,1-.49-1.79c.24-2.77.45-5.54.65-8.3l.43-5.75a2,2,0,0,0-.51-1.5,2,2,0,0,0-1.36-.65l-2.9-.05c-2.95,0-6-.08-9.08-.28-9.58-.62-19.92-2.69-23.91-13.35-5.56-14.87-4.71-31.33-3.89-47.25q.24-4.26.41-8.46c.2-5,.74-11.09,1.37-18.12,3.29-37,8.29-93-28.49-102.19a2.14,2.14,0,0,0-.35-.06,2,2,0,0,0-1.8.89,2,2,0,0,0,.06,2.31c3.9,5.2,5.65,11.86,6.47,18.86-1.44-9.33-4.65-17.66-11.25-22.76a2,2,0,0,0-1.1-.42h0a56.89,56.89,0,0,0-6.4,0,52.85,52.85,0,0,0-5.37.67,1.8,1.8,0,0,0-.63.21C99.59,153.56,95.08,166.78,92,179c-3.18,12.54-4.13,24.8-4.69,36.18L86.75,226c-1.69,33.72-3.44,68.59-2.12,102.5.94,24.28,7.18,56.85,31.56,74.11,11.66,8.26,26,12.54,46.41,13.86,7.77.5,15.57.54,23.1.57h4.24c.05.06.08.32-.37.71l-2.75,0c-7.83,0-15.92-.09-23.88-.61-15.39-1-35-3.79-50.69-16.77-23.91-19.83-28-53.8-28.32-72.28-.31-18.69.23-37.79.76-56.26.14-5.14.29-10.28.42-15.41.11-4.49.18-9,.24-13.55.24-15.19.47-30.9,2.47-45.92,2-15.18,5.23-32.11,13.68-42.63a2,2,0,0,0-1.43-3.25,2.08,2.08,0,0,0-.91.15c-26.61,11.29-33.42,44.56-36.24,68.61C59,253.5,55.1,293.41,56.19,333.7c.66,24.34,2,75,34.38,95.95,18.13,11.74,41.36,14.6,59.58,15.77,7.49.49,15,.72,22.28.95,5.8.19,11.49.36,17,.66a2,2,0,0,0,2.1-1.89l.58-11.33a2.38,2.38,0,0,1,.74-1.72,2.86,2.86,0,0,1,2.07-.63,2.6,2.6,0,0,1,2.59,2.74c-1.53,28.19-2.89,56.38-4.25,84.57-2.14,44.24-4.35,90-7.18,135a2,2,0,0,0,1.69,2.1c7.88,1.24,15.68,2.3,23.16,3.18h.1a2,2,0,0,0,2.13-1.87c2.94-46.62,5.34-94.06,7.65-139.94C222.36,486.27,223.92,455.35,225.64,424.45Zm279-142.77c-.82-14.25-1.86-32-8.36-46.77A46.38,46.38,0,0,0,474.3,212a1.88,1.88,0,0,0-.73-.19,2,2,0,0,0-1.46.49,2,2,0,0,0-.57,2.14c5.66,16.95,4.07,37.93,2.66,56.43-.31,4.12-.61,8.13-.83,12-1.57,27.92-3.44,55.66-5.24,82.49-1.86,27.55-6.23,55.5-25.49,73.41-24.81,23.05-62.83,22-96.39,21.13-3.54-.09-7-.18-10.56-.24-.05-.06-.08-.32.35-.7,3.48.06,7.11.17,10.85.28,35.84,1,80.44,2.35,102.55-29.4,15.1-21.69,16.83-47.38,18.51-72.23l.07-1.15c1.67-24.79,3.4-50.43,4.79-76.2.19-3.57.48-7.33.76-11.19,1.42-19.23,3-41-4.2-58.28a2,2,0,0,0-1.3-1.15,34.53,34.53,0,0,0-11-1.34,2,2,0,0,0-1.05.34c-15.14,10.3-15.7,32.53-16.15,50.4-.09,3.64-.18,7.12-.38,10.3-.57,8.73-1,17.5-1.36,26.26-.6,13.1-1.21,26.52-2.41,39.83.32-5.67.49-11.32.66-16.78.12-4.36.25-8.59.45-12.63.31-6.18.54-12.4.78-18.64.59-15.83,1.2-32.2,3.14-48,1.47-12.06,4.44-20.41,9.37-26.29a2,2,0,0,0-1.41-3.28,1.86,1.86,0,0,0-.74.09,36.18,36.18,0,0,0-9,4.35c-24.55,16.34-28.89,58.34-29.93,93.11-.09,3-.09,6.23-.1,9.64-.05,17.92-.11,40.22-11.93,52.18C382.32,384,361.32,384,342.79,382.78c-2.83-.18-5.65-.4-8.42-.62a2.6,2.6,0,0,1-2.4-2.94,2.46,2.46,0,0,1,2.69-2.46s2.77.21,4.18.3c2.85.18,5.74.33,8.62.41a2,2,0,0,0,2.06-1.86l3.74-54.15q5.85-84.48,11.55-169c.31-4.52.87-9.7,1.48-15.18,3.16-28.91,7.5-68.51-19.52-83.22a86.54,86.54,0,0,0-18.84-7.43,2,2,0,0,0-.4-.07,2,2,0,0,0-1.68.73,2,2,0,0,0-.24,2.16c2.63,5.28,3.93,11.61,4.2,20.52.36,11.65.07,23.54-.19,35.05l-.22,10.17c-.38,19.94-1.16,40.21-1.85,57.65-6,150.9-14.49,310.74-25.95,488.65a2,2,0,0,0,1.87,2.12h.15c3.84,0,7.66-.08,11.48-.16l13.55-.28a2,2,0,0,0,2-1.9c2.27-44,5.36-88.65,8.36-131.87l2.41-35a2,2,0,0,0-.5-1.47,2,2,0,0,0-1.36-.66l-8.22-.4a2.43,2.43,0,0,1-2.3-2.78,2.6,2.6,0,0,1,2.75-2.61c40.87,2.15,117,6.16,144.06-44.77C497.32,401.29,508.08,341.46,504.59,281.68Z"/><path class="cls-8" d="M339,529.44l2.41-35a2,2,0,0,0-.5-1.47,2,2,0,0,0-1.36-.66l-8.22-.4a2.25,2.25,0,0,1-1.52-.65c2,2.44,3.4,6.53,3.34,19.3-.23,46.84-11.86,148.66-12,152.83l7.56-.16a2,2,0,0,0,2-1.9C332.88,617.34,336,572.66,339,529.44Z"/><path class="cls-8" d="M475.81,441.73c21.51-40.44,32.27-100.27,28.78-160-.82-14.25-1.86-32-8.36-46.77A46.26,46.26,0,0,0,490,224.66c3.9,69.5,10.16,137.77-16.6,204.85-9.57,24-34.75,41.2-58.55,47.7-13.24,3.61-59.18,5.11-77.69,9.57C379,488.89,449.87,490.49,475.81,441.73Z"/><path class="cls-8" d="M194.22,656.77c.53-11.28.58-22.54,1.3-33,2-28.79.83-57.6,2.08-86.46,1.09-25.16,4.41-93.09-.28-99.89q-2.17,40.65-4.08,81.31c-2.14,44.24-4.35,90-7.18,135a2,2,0,0,0,1.69,2.1C189.92,656.16,192.07,656.46,194.22,656.77Z"/><path class="cls-8" d="M190.85,446.52a2,2,0,0,0,.66-1.38l.25-4.88c-13.31-1.4-26.44.75-38.42-1.26-8-1.35-16.41-3.88-24.52-3.85-13.47.06-23.37-5.87-34.35-12.66-17-10.49-22.74-29.62-26.88-47.87-8.8-38.83-3.73-80.6.16-119.74,2-20.26,4.71-40.46,7.3-60.66,1.18-9.12,3.18-17.77,4.22-26.58-10.64,15.09-14.43,35.75-16.35,52.14C59,253.5,55.1,293.41,56.19,333.7c.66,24.34,2,75,34.38,95.95,18.13,11.74,41.36,14.6,59.58,15.77,7.49.49,15,.72,22.28.95,5.8.19,11.49.36,17,.66A2,2,0,0,0,190.85,446.52Z"/><path class="cls-8" d="M262,619.85c-.18-26.28,1.49-52.67,3.57-78.85,4.62-58.44,3.84-117,7.45-175.5,3.7-60.13,5.08-108.08,12.84-167.78,3.48-26.82,4-67.32,8.14-94.08,2.79-18,13.74-40.25,22.92-59.32l-.24,0h-.17a2,2,0,0,0-1.31.38c-22.56,16.56-28.32,43.37-31,67.43-3,27.34-5.15,54.52-7.4,84.66-11.07,147.91-19.91,299.58-27,463.65a2,2,0,0,0,1.87,2.09h0c4.64.26,9.43.4,14.18.57C264.07,648.74,262.06,634.48,262,619.85Z"/><path class="cls-8" d="M356.19,126.31c-2.88,18.94.78,38.21-1.37,57.3-2.08,18.61-7.32,36.55-8.52,55.28-2.4,37.37.1,74.6-6.3,111.55A144.55,144.55,0,0,0,338.39,377l.45,0c2.85.18,5.74.33,8.62.41a2,2,0,0,0,2.06-1.86l3.74-54.15q5.85-84.48,11.55-169c.31-4.52.87-9.7,1.48-15.18,3.16-28.91,7.5-68.51-19.52-83.22A82.79,82.79,0,0,0,335,49a223.34,223.34,0,0,0,13.95,19.16C362.51,85.33,359.24,106.22,356.19,126.31Z"/><path class="cls-8" d="M197.87,346.14l.43-5.75a2,2,0,0,0-.51-1.5,2,2,0,0,0-1.36-.65l-2.9-.05c-2.95,0-6-.08-9.08-.28-9.58-.62-19.92-2.69-23.91-13.35-5.56-14.87-4.71-31.33-3.89-47.25q.24-4.26.41-8.46c.2-5,.74-11.09,1.37-18.12,2.93-32.95,7.18-80.87-17.83-97.51,12.55,20.8,13.47,43.65,8.05,69.66-5,24-.63,48.73-1,73-.2,14.51.81,30.38,11.55,41.18,8.91,9,24.63,10,38.54,10C197.82,346.75,197.84,346.44,197.87,346.14Z"/><path class="cls-8" d="M213.14,657.13c2.94-46.62,5.34-94.06,7.65-139.94,1.57-30.92,3.13-61.84,4.85-92.74l.28-4.88c4.29-76.56,8.73-155.72,15-233.43.39-4.9.73-10.27,1.09-16,2.64-41.78,6.27-99,39-120.87a2,2,0,0,0-1-3.66,2,2,0,0,0-.59.05,83.16,83.16,0,0,0-14.79,5c-22.34,26.86-25.31,74-29.32,105.22-5.16,40.19-11,79.11-11.95,119.78-1.12,46.15,2.37,92.54-6.28,138.06-3.67,19.29-.82,38.8-5.14,58.17-4.5,20.17-5,40.4-5.09,61-.11,18-1.21,36-1.95,54.06-.87,21.13-4.12,46.93-4.41,70.72,3.53.48,7,.93,10.45,1.33h.1a2,2,0,0,0,2.13-1.87Z"/><path class="cls-8" d="M339.74,459l7.15.19c35.84,1,80.44,2.35,102.55-29.4,15.1-21.69,16.83-47.38,18.51-72.23l.07-1.15c1.67-24.79,3.4-50.43,4.79-76.2.19-3.57.48-7.33.76-11.19,1.42-19.23,3-41-4.2-58.28a2,2,0,0,0-1.3-1.15,35.91,35.91,0,0,0-7.45-1.3c-.37,0-.73,0-1.09,0,2.06,7.24,5.37,14.42,5.84,22.89,1.17,21.06-.91,43.76-1.33,65-.55,27.88-3.76,57.27-7.76,84.85-2.23,15.41-6.34,30.82-14.06,44.42-10.4,18.35-34.67,27.22-54.4,27.62C372.89,453.36,342.5,456.08,339.74,459Z"/><path class="cls-8" d="M341.64,382.7c6.38,2.12,13.28,3.25,18.74,4.22,20.48,3.67,38.71-3.59,49.21-21.25,5.81-9.78,7.24-21.91,8.31-33,1.38-14.27,6.43-28.38,5.39-42.81-1.38-19.24-3.58-33.46,5-51.88A166.94,166.94,0,0,0,436,216.48c-21.93,17.66-26,57.55-27,90.86-.09,3-.09,6.23-.1,9.64-.05,17.92-.11,40.22-11.93,52.18C382.32,384,361.32,384,342.79,382.78Z"/><path class="cls-8" d="M109.55,148.24c-4.61,2.46-8,6.66-10.7,11.64-2.16,5.17-4.12,10.37-5.93,15.63-.32,1.17-.64,2.34-.94,3.5-3.18,12.54-4.13,24.8-4.69,36.18L86.75,226c-1.69,33.72-3.44,68.59-2.12,102.5.94,24.28,7.18,56.85,31.56,74.11,11.66,8.26,26,12.54,46.41,13.86,7.77.5,15.57.54,23.1.57H188c-10.6-8.86-28-5.79-42.12-8.76-18.55-3.9-29.31-9.29-39.28-24.54-4.89-7.47-10.73-19.06-13.38-36.23-2.8-18.15-.66-47.93-.15-58.56.86-17.72.09-38,.85-55.75.52-12.16,2.84-44.75,9.31-65.83,2.47-8,6.36-15.08,12.44-20h-.13a52.85,52.85,0,0,0-5.37.67A1.8,1.8,0,0,0,109.55,148.24Z"/><path class="cls-8" d="M101.5,154.27a2,2,0,0,0,.39-1.37c-.35.79-.73,1.58-1.08,2.36C101.05,155,101.25,154.58,101.5,154.27Z"/><path class="cls-9" d="M317.28,84.51c-1.08,32.13-4.2,64.57-6.67,96.62-3.44,44.46-6.74,88.93-9.52,133.43-4.26,68.05-5.62,136.29-8.16,204.42-.89,24.1-1.9,48.2-2.72,72.3-.64,19,.19,38.43-1,57.3a1.08,1.08,0,0,0,2.16.14c2.24-35.54,6.11-71.11,7.81-106.78q2.38-50.27,4.43-100.56c3.11-76.53,7.26-152.85,12-229.3,1.67-26.82,2.94-53.69,4.17-80.53.71-15.64,1.36-31.6-.92-47.15a.81.81,0,0,0-1.6.11Z"/><path class="cls-9" d="M262.28,176.45c-4.8,28.24-6,57.25-8.11,85.79-2,28-4,55.92-5.54,83.92-2.77,50.36-6,101.69-4.35,152.15a.72.72,0,0,0,1.43.1c6.77-48.81,6.87-98.23,9.45-147.35q2.21-42,4.88-84c1.86-30,4.91-60.41,3.75-90.5a.76.76,0,0,0-1.51-.1Z"/><path class="cls-9" d="M120.33,166.5c-2.57,39.18-9.59,78.48-10.66,117.87-.64,23.93-2.55,53,7.29,75.4,9,20.35,35.66,27.05,55.71,23.36a1.5,1.5,0,0,0,.18-2.87c-11.6-3.57-24.25-3.76-35.17-9.41-11.69-6.06-16.12-18.12-18.23-30.33-3.51-20.26-2.93-43.33-1.47-63.89,1.38-19.51,3.67-39,5.33-58.45,1.46-17.15,4.12-35,0-51.89a1.49,1.49,0,0,0-2.94.21Z"/><path class="cls-9" d="M451.1,238.42c-2.2,8-2.26,15.74-1.74,24,.68,10.82-1.05,21.76-2.23,32.48-2.57,23.33,1.5,46.6-4.8,69.58-2.53,9.23-4.59,18-9.91,26.18-5.66,8.66-17.4,18.17-26.22,23.48-17.17,10.35-39.73,4.86-58.59,7.14a.83.83,0,0,0-.11,1.59c16.65,4.23,39,6.06,55.44-.41s32.53-22.37,39.64-38.56c9.33-21.23,9.59-45.11,9.4-67.78-.1-12.5,1.24-24.78,2.16-37.22,1-13.56-2.7-26.78-2.05-40.27,0-.57-.84-.78-1-.2Z"/><path class="cls-9" d="M244.23,507.59c-4.61,22.64-6.29,44.09-4.19,67.19a.43.43,0,0,0,.82.05c2.46-10,2-20.38,1.83-30.6-.2-12.32,3.64-24.3,2.66-36.57a.58.58,0,0,0-1.12-.07Z"/><path class="cls-10" d="M217,690.42C259,700.85,297.37,707,341.06,706c31.94-.73,80.15-1.21,103.67-27,2.1-2.3.65-6.48-2.86-5.73-35.3,7.54-69.86,12.53-106.13,13.35-38.52.87-79.44,2.15-117.76-1.26-2.85-.25-3.86,4.3-1,5Z"/><path class="cls-10" d="M184,684c5.76,3.2,14.94,7.21,21.45,4.61,1.84-.74,2.12-3.34.92-4.72-4.85-5.59-15.81-5.27-22.17-2.93a1.77,1.77,0,0,0-.2,3Z"/><path class="cls-11" d="M63.52,610.77c.95.79,1.85,1.64,2.82,2.4,36.09-14.88,77-15.64,115.59-16.64q.76-14.26,1.45-28.52c-24.87,2.49-49.49,7.3-72.59,15.85A167.69,167.69,0,0,0,63.52,610.77Z"/><path class="cls-11" d="M454.48,637.1c-15.76-21.76-53.38-39.86-68-46.4a245,245,0,0,0-43.3-14.49q-1,15.4-2,30.79c37.14,6.17,76.82,12.74,109.33,32.71Q452.59,638.48,454.48,637.1Z"/><path class="cls-12" d="M424.54,798c-6.68,12.31-37.84,87-56.49,98-21.79,12.83-58.75,17.84-83.07,17.62-49.31-.43-104.58-8.93-140.79-19.7-29.33-8.72-41.41-32.25-51.74-52.79a166.33,166.33,0,0,0-10.8-18l0,.16C86,845.84,92,876.78,112,891.34c35.57,26,86.82,32.31,127.49,34.94l1.29.08c35.56,2.24,95.1,6,133.43-18.72,23.87-15.4,34-49.19,40.72-71.55C418.92,822.66,422.12,810,424.54,798Z"/><path class="cls-13" d="M101.79,784.89c49.63,36.64,117.11,47.82,176.56,29.8,3.6-1.09,5-7.14.54-8.21-57-13.43-117.3-22-175.49-26.29-2.64-.2-3.62,3.21-1.61,4.7Z"/><path class="cls-14" d="M477.56,453c15.15-21.1,20.58-49,25.78-73.89A401.27,401.27,0,0,0,512,282.41c-.82-22.65-3.78-48.12-18.36-66.39-17.61-22.06-51.05-16.74-69.31.39-18.54,17.4-19.38,56.16-22.06,79.5-1.77,15.46-.79,31.1-2.67,46.59-3.1,25.6-21.92,32.13-42.64,32.95,5.64-82.15,10.63-164.36,16.94-246.45,2.35-30.59,4-66.36-26.81-83.14-22.92-12.47-54.65-13-78.81-4.06C210.46,63.2,212.08,122.86,207.73,175c-4.33,51.89-6.79,103.92-10.71,155.84-15.07-.37-27.94.79-32.4-18.26-2.79-11.9-.79-26.28-.35-38.37,1-27.31,5-55.68,3.41-83-2.59-45.08-51.08-65.39-85.66-38-24,19-25.15,53.5-28.21,81.17-4.81,43.63-8.06,89-2.52,132.74,3.35,26.49,13.37,52.17,35.11,68.62,26.77,20.26,70.22,17,102.63,18.67q-2.34,45.53-4.5,91c-31,.95-146.83,6.32-142,48a4.44,4.44,0,0,0-.81,2.28c-1.39,22.17-2.58,44.35-3.84,66.53-.79,14.1-4.71,31.8.44,45.39,4.61,12.19,16.31,21.18,29.43,28-1.9,28.23.91,56.79,5.81,84.57,4.23,24,10.83,54.68,28.79,72.55,31.52,31.36,91,37,132.62,40.53,45.73,3.94,104.81,5.2,145-20.74,20.18-13,29.8-40,37.66-61.4,10.85-29.54,17.94-61.91,19.66-93.38a92.17,92.17,0,0,0,21.23-13.37c11.83-10.14,11-25.54,12.23-39.71,2.5-28.2,5.38-56.64,5.39-85a4.84,4.84,0,0,0-.26-1.3c0-12.77-12.13-23.27-21.94-29.84-31.19-20.91-73-26.72-109.41-32.71q2.1-30.65,4.22-61.29C394.88,496.09,449.28,492.37,477.56,453ZM251.76,660.47q10-231.9,27-463.59c2.12-28.22,4.28-56.46,7.4-84.59,2.74-24.69,8.65-50.23,30.19-66,1.56.24,3.1.54,4.63.85,5.29,7.26,5.93,16.32,6.21,25.27.39,12.95-.27,26-.44,38.93-.17,12.61-.59,25.22-1,37.82-1.32,38.38-3.12,76.75-5,115.11Q314,404.38,305.86,544.45c-2.22,39.07-4.47,78.16-7,117.22C283.29,661.72,267.54,661.35,251.76,660.47Zm58-615c-18,15.31-25,39-27.69,61.64-3.38,28.27-5.47,56.71-7.62,85.08-6.54,86-11.6,172-16.47,258.13-4,69.93-7.84,139.87-10.88,209.85q-15.63-1-31.22-2.68c8.59-135.32,13.89-270.83,23-406.13,2.51-37.18,5-74.41,8.94-111.48,3.7-34.89,10.7-83.69,48.43-94.59A99.69,99.69,0,0,1,309.72,45.5ZM91.66,428C62.18,408.87,59,365,58.19,333.64c-1-37.84,2.33-76.09,6.72-113.63,3-26,10.45-56.56,35-67-9.34,11.62-12.4,30.87-14.1,43.61-2.61,19.6-2.24,40-2.73,59.69-.6,23.87-1.58,47.88-1.18,71.76.45,26.34,7.89,56.23,29,73.78,21.86,18.13,51.55,17.68,78.58,17.86,3,0,3.34-4.67.31-4.7-24.38-.16-51.82.58-72.52-14.08-22.78-16.14-29.69-46.33-30.71-72.56-1.46-37.4.82-75.71,2.66-113.09.6-12.25,1.61-23.87,4.63-35.79,2.5-9.87,6.76-24.26,16.58-29.5a51.42,51.42,0,0,1,5.17-.64,50.78,50.78,0,0,1,6.17,0c15.34,11.86,11.12,43.82,10.52,61.32-.92,26.32-3.12,52.6-4.67,78.89-1.31,22-3.9,45.68,8.66,65.09C147,371.09,164.08,371,181.63,372.05c3,.18,3.33-4.52.3-4.69-10.49-.63-21.14.15-30.67-4.94-10.13-5.42-15.29-16.44-18-27-3.51-13.58-1.84-28.1-1.07-41.92.76-13.41,1.65-26.82,2.52-40.22,1.27-19.8,3.22-39.86,2.52-59.72-.47-13.69.91-31.48-7.75-43,41.84,10.47,26.83,86.79,25.6,118.29-.74,18.76-3.1,38.56,3.61,56.49,5.81,15.55,23.65,14.71,37.63,15-.36,4.68-.66,9.36-1.07,14-.52,6.05,8.88,6.65,9.4.61,4.18-48.7,6.39-97.58,9.94-146.33,2-26.84,4.08-53.69,7.07-80.44,2.9-26,7-49.33,28.93-66.75a74,74,0,0,1,29.28-13.7c-38.14,25.49-37.7,97.83-41,138.33-6.38,79.36-10.79,158.88-15.25,238.36C219.3,501.87,216,579.5,211.14,657q-11.58-1.35-23.08-3.17c4.61-73.13,7.47-146.36,11.42-219.53.33-6.05-9.06-6.67-9.39-.6-.2,3.77-.38,7.55-.58,11.32C157.63,443.3,118.85,445.58,91.66,428Zm87.05,224.34a468.46,468.46,0,0,1-73-18.52,146.49,146.49,0,0,1-30.23-14.16c33.34-12.33,70.83-12.81,106-13.71Q180.15,629.11,178.71,652.31Zm-90-87c30.58-9,63.6-9.63,95.32-10.45q-1,20.83-2.12,41.67c-38.57,1-79.5,1.76-115.59,16.64-2.26-1.77-4.46-3.6-6.57-5.58C37.06,586.25,72.27,570.18,88.73,565.31ZM413,835.52c-7.31,24.39-17.4,55.94-39.89,70.44-36.33,23.43-91.11,21-132.22,18.41-42.06-2.66-92.68-9.06-127.72-34.64-20.6-15-25.8-48.13-30.36-71.37a319.34,319.34,0,0,1-5.86-78.25c9.44,4.15,18.94,7.38,26.59,10,41.4,14.25,87.23,19.81,130.64,23.47,45.3,3.82,91.13,2.54,136.4-.86,18.34-1.37,38.67-4.2,57.06-10.87C425.75,786.89,420.17,811.52,413,835.52Zm43.34-102.61c-15.2,24.75-62.41,28.08-87.67,30.6-41.59,4.16-84.22,3.81-125.9,1.27a648,648,0,0,1-120.85-19c-21.72-5.56-74.92-19.9-76.67-49-1.7-28,2.34-57.86,4.82-86.42.82,1.13,1.7,2.27,2.67,3.43,23.66,28.5,73.85,37.45,107.6,43.87a770.66,770.66,0,0,0,154.14,13.21c39.23-.48,80-1.46,117.69-13.47,11.54-3.68,25.09-9.36,34.14-18.58-.69,15.18-2,30.35-3.19,45.47C462,698.34,464.05,720.33,456.31,732.91ZM340.59,616.4c33.54,5.56,69.78,11.46,99.88,28.29-8.56,3.51-17.69,5.85-24.92,7.7-25.1,6.45-51.45,7.93-77.5,8.6Q339.21,638.68,340.59,616.4Zm123.08,10.85c-2.95,5.11-7.65,9.16-13.14,12.46C418,619.74,378.34,613.17,341.2,607q1.32-20.84,2.74-41.68C368.68,569.31,486.19,588.25,463.67,627.25Zm-135.06,34-13.56.28q-5.7.12-11.45.16c10.48-162.76,19.46-325.74,25.95-488.71.77-19.22,1.48-38.45,1.85-57.69.28-15.08.87-30.22.41-45.31-.23-7.46-1.18-14.87-4.41-21.35a85,85,0,0,1,18.42,7.26c30.81,16.77,18.89,68.21,17,96.51q-7.45,111.57-15.3,223.11c-4.28-.12-8.56-.38-12.7-.7-6.06-.47-6.66,8.92-.61,9.39,22.31,1.73,47.19,3.63,64.21-13.6,14.71-14.88,12.05-44.33,12.61-63.16.86-28.53,3.71-74.65,29-91.51a34.28,34.28,0,0,1,8.48-4.11c-6.12,7.31-8.59,17.22-9.82,27.34-2.69,22-2.82,44.65-3.92,66.78-1.22,24.47.28,56.31-12.73,77.89-14.65,24.31-45.85,24.44-70.66,24.36-3,0-3.34,4.68-.3,4.69,20.16.07,41.92.65,59.38-11.18,17.94-12.17,22.62-29.38,25.39-49.9,3.67-27.25,3.79-54.9,5.56-82.32,1.21-18.57-1.6-47.42,15.67-59.16a33.09,33.09,0,0,1,10.4,1.26c8.49,20.24,4.44,47.47,3.3,68.59-1.38,25.41-3.08,50.79-4.79,76.18s-3.22,50.81-18.23,72.37C424,462.83,372.32,457.6,336.07,456.94c-3-.06-3.34,4.64-.3,4.69,35.48.65,80.13,4.7,108.23-21.42,20.46-19,24.35-48.41,26.12-74.73,1.86-27.5,3.71-55,5.25-82.51,1.19-21.16,5.13-48-1.93-69.13a44.36,44.36,0,0,1,21,21.87c6.18,14,7.32,31,8.2,46.09,3,51.05-4.29,113.37-28.56,159-25.72,48.34-95.84,46.15-142.19,43.71-6.06-.32-6.67,9.07-.6,9.39,2.66.14,5.39.28,8.14.4C335.6,549.91,331.48,605.54,328.61,661.21Z"/><path class="cls-11" d="M242.74,764.78c41.68,2.54,84.31,2.89,125.9-1.27,25.26-2.52,72.47-5.85,87.67-30.6,3.71-6,5.14-14.24,5.77-22.68-6.95,22.6-30.2,33.79-59,39.06-101.08,18.48-195.5,7.58-289.9-14.2C90.91,730,69.7,720.15,53.39,704A39.58,39.58,0,0,1,45,690.89c.07,2,.1,4,.22,5.9,1.75,29.09,55,43.43,76.67,49A648,648,0,0,0,242.74,764.78Z"/></g></g></g></svg>