<svg xmlns="http://www.w3.org/2000/svg" viewBox="0 0 270.22 478.51"><defs><style>.cls-1{isolation:isolate;}.cls-2{fill:#ffa3bc;mix-blend-mode:multiply;}.cls-3{fill:#fff;}.cls-4{fill:#636466;}.cls-5{fill:#98b718;}</style></defs><g class="cls-1"><g id="圖層_2" data-name="圖層 2"><g id="Layer_2" data-name="Layer 2"><path class="cls-2" d="M255.07,52.06c-21-32.83-65.36-34.64-89.3-34.86a52.43,52.43,0,0,0-8.77-.73c-27.61,0-49.7,20.51-51.39,47.71-2.34,37.65-5.26,76-8.09,113.14-2.89,37.9-5.86,76.85-8.26,115.69-38.72,11-64.2,37.55-71.43,75.52-6.63,34.84,10.92,67.53,47,87.91,19.66,14.45,46,22.07,76.36,22.07a193.11,193.11,0,0,0,22.11-1.3c7.63-.88,14.91-2,21.62-3.33a135.71,135.71,0,0,0,23.33-6.17c39.88-13.72,54.11-38.38,59-56.69,6.29-23.48,2.41-47-11.23-68-12.18-18.77-32.23-34.61-54.93-44.24,2.2-32.83,4.64-65.84,7-98q.57-7.51,1.12-15.05c14.46-1.3,26.89-6,37-14.17,16.48-13.2,20.31-37.64,8.76-55.67a60.67,60.67,0,0,0-7.33-9.32C263,93.12,266.29,69.58,255.07,52.06Z"/><path class="cls-3" d="M142.88,2.35c-27.61,0-49.7,20.51-51.39,47.71-2.33,37.66-5.26,76-8.09,113.14-2.89,37.9-5.86,76.85-8.25,115.7-38.73,11-64.21,37.54-71.44,75.52-6.63,34.83,10.92,67.52,47,87.91,19.66,14.44,46,22.06,76.36,22.06a190.61,190.61,0,0,0,22.11-1.3c7.63-.88,14.91-2,21.63-3.32a135.83,135.83,0,0,0,23.32-6.18c39.89-13.71,54.11-38.38,59-56.69,6.29-23.48,2.41-47-11.23-68-12.18-18.78-32.23-34.61-54.93-44.25,2.2-32.82,4.65-65.83,7-98l1.11-15c14.46-1.31,26.89-6.06,37-14.18,16.48-13.2,20.31-37.64,8.77-55.67a60.72,60.72,0,0,0-7.34-9.32C248.88,79,252.17,55.46,241,38,219.9,5.11,175.59,3.3,151.65,3.08A53.41,53.41,0,0,0,142.88,2.35Z"/><path class="cls-4" d="M127.09,466.75l-2.2,0a2.35,2.35,0,0,1,0-4.7h2.17l2.5,0h0a2.36,2.36,0,0,1,0,4.71Zm16.63-.74a2.35,2.35,0,0,1-.2-4.7c1.54-.14,3.08-.29,4.62-.46a2.35,2.35,0,1,1,.53,4.67q-2.37.27-4.74.48Zm-32.89,0h-.23c-1.59-.15-3.17-.33-4.74-.52a2.35,2.35,0,0,1,.59-4.67c1.52.18,3.06.36,4.61.51a2.35,2.35,0,0,1-.23,4.69Zm51.56-2.35A2.35,2.35,0,0,1,162,459c1.56-.26,3.09-.52,4.6-.79a2.35,2.35,0,1,1,.83,4.63c-1.54.27-3.1.55-4.68.8A2.43,2.43,0,0,1,162.39,463.63ZM92.26,463a2.31,2.31,0,0,1-.52-.06c-1.57-.35-3.13-.73-4.66-1.14a2.35,2.35,0,0,1,1.21-4.55c1.47.39,3,.76,4.48,1.1a2.35,2.35,0,0,1-.51,4.65Zm88.6-3a2.35,2.35,0,0,1-.56-4.64c1.51-.38,3-.77,4.47-1.19a2.35,2.35,0,0,1,1.28,4.53c-1.51.43-3.06.84-4.62,1.23A2.78,2.78,0,0,1,180.86,460ZM74.27,457.53a2.34,2.34,0,0,1-.86-.16q-2.25-.89-4.43-1.85a2.35,2.35,0,1,1,1.9-4.3q2.09.91,4.25,1.77a2.35,2.35,0,0,1-.86,4.54Zm124.51-3.27a2.35,2.35,0,0,1-.85-4.55c1.47-.56,2.89-1.13,4.28-1.73a2.35,2.35,0,1,1,1.84,4.33q-2.15.92-4.43,1.8A2.48,2.48,0,0,1,198.78,454.26ZM57.43,449.18a2.3,2.3,0,0,1-1.23-.35q-2.07-1.26-4-2.61a2.35,2.35,0,0,1,2.64-3.89c1.26.85,2.55,1.69,3.86,2.5a2.35,2.35,0,0,1-1.23,4.35Zm158.32-3a2.35,2.35,0,0,1-1.19-4.38q2-1.19,3.91-2.42a2.38,2.38,0,0,1,3.26.7,2.35,2.35,0,0,1-.7,3.26c-1.31.85-2.68,1.69-4.09,2.52A2.34,2.34,0,0,1,215.75,446.18ZM41.61,439a2.34,2.34,0,0,1-1.33-.41q-2-1.38-3.91-2.8A2.36,2.36,0,0,1,39.2,432c1.22.92,2.46,1.81,3.74,2.69A2.35,2.35,0,0,1,41.61,439ZM231,435.16a2.39,2.39,0,0,1-1.75-.78,2.35,2.35,0,0,1,.17-3.32c1.16-1,2.25-2.09,3.3-3.16a2.36,2.36,0,0,1,3.33,0,2.33,2.33,0,0,1,0,3.32c-1.1,1.13-2.27,2.25-3.49,3.35A2.34,2.34,0,0,1,231,435.16ZM27.07,427.09a2.34,2.34,0,0,1-1.65-.67c-1.16-1.14-2.27-2.29-3.36-3.46a2.35,2.35,0,1,1,3.46-3.19q1.55,1.67,3.2,3.29a2.36,2.36,0,0,1,0,3.33A2.34,2.34,0,0,1,27.07,427.09ZM243.28,421a2.35,2.35,0,0,1-1.95-3.67c.86-1.28,1.67-2.57,2.41-3.85a2.35,2.35,0,1,1,4.07,2.36q-1.2,2.06-2.58,4.12A2.36,2.36,0,0,1,243.28,421Zm-228.2-8.37a2.35,2.35,0,0,1-2-1.05q-1.35-2-2.56-4.11a2.35,2.35,0,0,1,4.07-2.37c.76,1.3,1.56,2.6,2.41,3.88a2.36,2.36,0,0,1-2,3.65Zm236.57-8.42a2.53,2.53,0,0,1-.76-.13,2.37,2.37,0,0,1-1.46-3q.76-2.22,1.35-4.35a2.35,2.35,0,1,1,4.53,1.25q-.62,2.26-1.43,4.64A2.37,2.37,0,0,1,251.65,404.21Zm-245-8.34a2.35,2.35,0,0,1-2.22-1.56q-.81-2.3-1.49-4.62a2.35,2.35,0,1,1,4.52-1.3c.42,1.45.89,2.9,1.4,4.34a2.35,2.35,0,0,1-1.42,3A2.44,2.44,0,0,1,6.63,395.87Zm249-10h-.24a2.35,2.35,0,0,1-2.1-2.58c.16-1.52.27-3,.34-4.56a2.27,2.27,0,0,1,2.46-2.24,2.35,2.35,0,0,1,2.24,2.46q-.11,2.4-.36,4.83A2.35,2.35,0,0,1,255.66,385.85Zm-253-8.31A2.35,2.35,0,0,1,.27,375.4c-.15-1.61-.23-3.23-.27-4.86a2.36,2.36,0,0,1,2.3-2.41,2.38,2.38,0,0,1,2.41,2.31c0,1.52.11,3,.24,4.54a2.34,2.34,0,0,1-2.13,2.55Zm252.82-10.47A2.36,2.36,0,0,1,253.1,365c-.19-1.5-.43-3-.72-4.51a2.36,2.36,0,0,1,4.63-.88c.3,1.59.55,3.19.76,4.79a2.35,2.35,0,0,1-2,2.63A1.56,1.56,0,0,1,255.43,367.07ZM3.36,358.77l-.38,0A2.35,2.35,0,0,1,1,356c.11-.68.23-1.37.36-2.06.17-.91.35-1.8.54-2.68a2.39,2.39,0,0,1,2.8-1.81,2.35,2.35,0,0,1,1.8,2.8c-.18.85-.35,1.7-.52,2.57-.12.64-.23,1.29-.34,1.94A2.35,2.35,0,0,1,3.36,358.77Zm247.52-9.91a2.37,2.37,0,0,1-2.2-1.53c-.53-1.42-1.11-2.84-1.72-4.24a2.35,2.35,0,1,1,4.31-1.89c.65,1.48,1.26,3,1.82,4.48a2.36,2.36,0,0,1-1.38,3A2.39,2.39,0,0,1,250.88,348.86ZM8.14,340.6a2.3,2.3,0,0,1-.81-.14,2.34,2.34,0,0,1-1.4-3q.83-2.28,1.75-4.49A2.35,2.35,0,1,1,12,334.78c-.59,1.41-1.15,2.83-1.67,4.27A2.35,2.35,0,0,1,8.14,340.6Zm234.34-8.54a2.35,2.35,0,0,1-2-1.1l-.52-.8c-.66-1-1.33-2-2-3a2.36,2.36,0,1,1,3.84-2.73c.74,1,1.45,2.1,2.14,3.16l.55.86a2.37,2.37,0,0,1-.73,3.25A2.41,2.41,0,0,1,242.48,332.06ZM16.27,323.67a2.35,2.35,0,0,1-2-3.58c.84-1.38,1.72-2.72,2.63-4a2.35,2.35,0,1,1,3.87,2.68q-1.29,1.88-2.49,3.83A2.37,2.37,0,0,1,16.27,323.67Zm214.67-6.44a2.33,2.33,0,0,1-1.72-.75q-1.58-1.67-3.22-3.3a2.35,2.35,0,1,1,3.31-3.35c1.14,1.13,2.26,2.27,3.35,3.44a2.36,2.36,0,0,1-1.72,4ZM27.73,308.79a2.35,2.35,0,0,1-1.71-4q1.66-1.76,3.42-3.41a2.36,2.36,0,1,1,3.24,3.42q-1.68,1.57-3.25,3.23A2.32,2.32,0,0,1,27.73,308.79ZM217,304.57a2.32,2.32,0,0,1-1.45-.5q-1.82-1.41-3.69-2.77a2.35,2.35,0,0,1,2.75-3.81q2,1.39,3.83,2.87a2.35,2.35,0,0,1-1.44,4.21Zm-175-8a2.35,2.35,0,0,1-1.34-4.28c1.31-.91,2.65-1.8,4-2.65a2.35,2.35,0,1,1,2.49,4q-1.95,1.23-3.83,2.53A2.37,2.37,0,0,1,42,296.59Zm159.38-2.48a2.36,2.36,0,0,1-1.17-.31c-1.33-.77-2.69-1.51-4-2.23a2.35,2.35,0,0,1,2.2-4.16c1.41.75,2.81,1.51,4.19,2.3a2.36,2.36,0,0,1-1.17,4.4Zm-143-6.75a2.36,2.36,0,0,1-1-4.5q2.18-1,4.42-1.89a2.36,2.36,0,0,1,1.76,4.37c-1.43.57-2.84,1.18-4.23,1.81A2.42,2.42,0,0,1,58.39,287.36Zm128.81-3.13H187a2.35,2.35,0,0,1-2.19-2.51l.32-4.69a2.35,2.35,0,1,1,4.69.32l-.32,4.7A2.35,2.35,0,0,1,187.2,284.23Zm-112-3.94h-.14a2.35,2.35,0,0,1-2.21-2.49l.3-4.7a2.35,2.35,0,1,1,4.69.29l-.29,4.7A2.35,2.35,0,0,1,75.2,280.29Zm113.29-14.84h-.17a2.35,2.35,0,0,1-2.18-2.51l.33-4.7a2.35,2.35,0,0,1,4.69.33l-.33,4.7A2.36,2.36,0,0,1,188.49,265.45ZM76.41,261.5h-.16A2.37,2.37,0,0,1,74.06,259l.31-4.69a2.36,2.36,0,0,1,4.7.31l-.31,4.7A2.36,2.36,0,0,1,76.41,261.5Zm113.4-14.83h-.17a2.34,2.34,0,0,1-2.17-2.51l.33-4.7a2.35,2.35,0,0,1,4.69.33l-.33,4.71A2.36,2.36,0,0,1,189.81,246.67ZM77.69,242.72h-.17a2.36,2.36,0,0,1-2.18-2.51l.33-4.7a2.35,2.35,0,0,1,4.69.33L80,240.53A2.36,2.36,0,0,1,77.69,242.72ZM191.17,227.9H191a2.36,2.36,0,0,1-2.18-2.52l.35-4.69a2.35,2.35,0,1,1,4.69.34l-.34,4.69A2.36,2.36,0,0,1,191.17,227.9ZM79,223.94h-.17a2.35,2.35,0,0,1-2.17-2.52l.34-4.7a2.35,2.35,0,1,1,4.69.35l-.34,4.69A2.35,2.35,0,0,1,79,223.94Zm113.53-14.82h-.17a2.35,2.35,0,0,1-2.18-2.52l.35-4.7a2.33,2.33,0,0,1,2.52-2.17,2.35,2.35,0,0,1,2.17,2.52l-.35,4.69A2.35,2.35,0,0,1,192.55,209.12Zm-112.15-4h-.17a2.37,2.37,0,0,1-2.18-2.52l.36-4.69a2.3,2.3,0,0,1,2.52-2.18,2.36,2.36,0,0,1,2.17,2.52l-.35,4.7A2.36,2.36,0,0,1,80.4,205.17Zm113.54-14.83h-.18a2.35,2.35,0,0,1-2.17-2.53l.35-4.69a2.35,2.35,0,0,1,4.69.35l-.35,4.7A2.34,2.34,0,0,1,193.94,190.34ZM81.82,186.41h-.18a2.35,2.35,0,0,1-2.17-2.52l.36-4.7A2.33,2.33,0,0,1,82.35,177a2.36,2.36,0,0,1,2.17,2.53l-.36,4.69A2.35,2.35,0,0,1,81.82,186.41Zm115.69-12.72a2.35,2.35,0,0,1-.28-4.69c1.54-.18,3-.41,4.53-.67a2.35,2.35,0,0,1,.82,4.63c-1.57.29-3.17.52-4.79.71A1.32,1.32,0,0,1,197.51,173.69Zm18.24-4.47a2.35,2.35,0,0,1-.86-4.54c1.42-.55,2.81-1.16,4.17-1.8a2.35,2.35,0,0,1,2,4.24c-1.46.7-3,1.34-4.47,1.94A2.42,2.42,0,0,1,215.75,169.22ZM83.24,167.63h-.18a2.35,2.35,0,0,1-2.16-2.53l.35-4.69a2.32,2.32,0,0,1,2.53-2.16A2.35,2.35,0,0,1,86,160.77l-.36,4.69A2.35,2.35,0,0,1,83.24,167.63Zm150.43-8.38L232,157.56l-1.37-1.92a38,38,0,0,0,3.21-2.88,2.35,2.35,0,0,1,3.34,3.32A44.51,44.51,0,0,1,233.67,159.25Zm-149-10.38h-.18a2.36,2.36,0,0,1-2.16-2.53l.35-4.7a2.33,2.33,0,0,1,2.53-2.17A2.35,2.35,0,0,1,87.37,142L87,146.69A2.36,2.36,0,0,1,84.67,148.87Zm158.9-3.61a2.37,2.37,0,0,1-2.13-3.36,39.65,39.65,0,0,0,1.66-4.11,2.35,2.35,0,1,1,4.45,1.51,46.66,46.66,0,0,1-1.85,4.61A2.36,2.36,0,0,1,243.57,145.26ZM86.09,130.09h-.17a2.37,2.37,0,0,1-2.18-2.53l.35-4.69a2.35,2.35,0,1,1,4.69.35l-.34,4.69A2.36,2.36,0,0,1,86.09,130.09ZM247.61,127a2.34,2.34,0,0,1-2.35-2.34v0a40.87,40.87,0,0,0-.24-4.41,2.35,2.35,0,0,1,4.68-.51,45,45,0,0,1,.26,4.92A2.36,2.36,0,0,1,247.61,127ZM87.48,111.32H87.3a2.34,2.34,0,0,1-2.17-2.52l.34-4.69a2.35,2.35,0,1,1,4.69.34l-.34,4.7A2.35,2.35,0,0,1,87.48,111.32Zm156.08-2.52a2.37,2.37,0,0,1-2.13-1.35,41.05,41.05,0,0,0-2.11-3.9,2.35,2.35,0,1,1,4-2.47,44,44,0,0,1,2.37,4.36,2.37,2.37,0,0,1-1.12,3.14A2.42,2.42,0,0,1,243.56,108.8Zm-8.78-15.08a2.4,2.4,0,0,1-1.71-.73,2.36,2.36,0,0,1,.08-3.33,37,37,0,0,0,3-3.24,2.36,2.36,0,0,1,3.62,3,44.68,44.68,0,0,1-3.4,3.63A2.37,2.37,0,0,1,234.78,93.72ZM88.83,92.54h-.17A2.35,2.35,0,0,1,86.48,90l.32-4.68a2.36,2.36,0,1,1,4.7.32l-.33,4.69A2.36,2.36,0,0,1,88.83,92.54ZM245,78.1a2.56,2.56,0,0,1-.81-.14,2.36,2.36,0,0,1-1.4-3,40.73,40.73,0,0,0,1.3-4.25A2.37,2.37,0,0,1,246.92,69a2.34,2.34,0,0,1,1.72,2.84,45.5,45.5,0,0,1-1.45,4.74A2.35,2.35,0,0,1,245,78.1ZM90.12,73.76H90a2.37,2.37,0,0,1-2.19-2.51l.32-4.69a2.32,2.32,0,0,1,2.5-2.19,2.35,2.35,0,0,1,2.19,2.51l-.31,4.69A2.35,2.35,0,0,1,90.12,73.76ZM247.46,59.59a2.35,2.35,0,0,1-2.34-2.15A39,39,0,0,0,244.5,53a2.36,2.36,0,0,1,1.86-2.76,2.33,2.33,0,0,1,2.76,1.86,45.65,45.65,0,0,1,.69,4.91,2.35,2.35,0,0,1-2.15,2.54ZM91.34,55h-.15A2.36,2.36,0,0,1,89,52.48l.16-2.56q.08-1.12.18-2.22a2.36,2.36,0,0,1,4.69.48c-.07.67-.13,1.35-.17,2l-.16,2.56A2.35,2.35,0,0,1,91.34,55Zm150.52-13.2a2.35,2.35,0,0,1-2-1.16c-.28-.47-.56-.94-.86-1.41-.51-.8-1-1.59-1.59-2.36a2.35,2.35,0,0,1,3.83-2.73c.59.83,1.17,1.68,1.73,2.56.33.52.64,1,.95,1.55a2.36,2.36,0,0,1-2,3.55ZM95,36.62a2.25,2.25,0,0,1-.87-.17A2.35,2.35,0,0,1,92.8,33.4c.6-1.53,1.28-3,2-4.49A2.35,2.35,0,0,1,99,31c-.68,1.33-1.29,2.69-1.85,4.09A2.35,2.35,0,0,1,95,36.62Zm134.9-9.25a2.35,2.35,0,0,1-1.56-.6c-1.14-1-2.3-2-3.5-2.88a2.35,2.35,0,1,1,2.87-3.73q1.92,1.47,3.75,3.09a2.36,2.36,0,0,1-1.56,4.12ZM105,20.81a2.32,2.32,0,0,1-1.61-.64,2.34,2.34,0,0,1-.11-3.32c1.12-1.19,2.3-2.34,3.53-3.43A2.36,2.36,0,1,1,109.93,17c-1.12,1-2.2,2-3.22,3.12A2.3,2.3,0,0,1,105,20.81ZM214.27,17a2.31,2.31,0,0,1-1-.25q-2.05-1-4.15-1.91a2.35,2.35,0,1,1,1.84-4.33c1.48.63,3,1.31,4.4,2a2.36,2.36,0,0,1-1,4.47Zm-17.62-6.53a2.15,2.15,0,0,1-.61-.09c-1.49-.4-3-.76-4.48-1.1a2.35,2.35,0,1,1,1-4.58c1.55.34,3.1.73,4.66,1.14a2.36,2.36,0,0,1-.61,4.63Zm-76.54-.66a2.36,2.36,0,0,1-1-4.49c1.47-.69,3-1.33,4.53-1.9a2.35,2.35,0,1,1,1.63,4.41c-1.42.53-2.8,1.11-4.15,1.75A2.39,2.39,0,0,1,120.11,9.78Zm58.05-2.84-.29,0c-1.55-.19-3.09-.36-4.61-.5a2.35,2.35,0,0,1-2.13-2.56,2.39,2.39,0,0,1,2.56-2.13c1.57.15,3.15.32,4.75.52a2.35,2.35,0,0,1-.28,4.69ZM159.38,5.58h-.08c-1.61,0-3.18-.08-4.67-.11a2.35,2.35,0,0,1,0-4.7h0c1.52,0,3.11,0,4.75.1a2.36,2.36,0,0,1-.07,4.71Zm-21.2-.68A2.35,2.35,0,0,1,138,.21c1.62-.14,3.25-.21,4.9-.21a2.36,2.36,0,0,1,0,4.71q-2.28,0-4.5.18Z"/><path class="cls-5" d="M212.87,119.73c2.13,3.32,1.73,9-1.5,11.63-12.43,9.94-30.28,7.58-47.08,5-4.16,57.51-8.67,115-12.27,172.55,36.22,5.77,80.06,37.85,68.94,79.36-4.79,17.85-20.49,28-38,33.91A102.57,102.57,0,0,1,164.7,427c-6.8,1.36-13.42,2.3-19.34,3-25.6,3-55.91.42-76.41-15.68-20.6-11.07-37.18-29-32.48-53.64,7.17-37.66,37.72-51,70.45-53.65,4.61-85,12.59-169.88,17.86-254.87.82-13.22,13.58-18.46,23.29-15.72,21.33.13,53,1.12,64.8,19.52,2.13,3.32,1.73,9.06-1.5,11.63-11.36,9.09-27.26,7.9-42.74,5.66q-.88,13.8-1.83,27.6C184.91,102.12,204.23,106.25,212.87,119.73ZM86.74,379.34c9.33,9.35,24.24,13,37,15.48A138.56,138.56,0,0,0,160.09,393c35.12-6.47,13-29-4.55-39C137.52,343.68,53.31,345.84,86.74,379.34Z"/></g></g></g></svg>