<svg xmlns="http://www.w3.org/2000/svg" viewBox="0 0 978.27 337.15"><defs><style>.cls-1{isolation:isolate;}.cls-2{fill:#ffa3bc;mix-blend-mode:multiply;}.cls-3{fill:#fff;}.cls-4{fill:#636466;}.cls-5{fill:#68182b;}.cls-6{fill:#ff5671;}.cls-7{fill:#b4d345;}.cls-8{fill:#91deff;}.cls-9{fill:#fdc435;}</style></defs><g class="cls-1"><g id="圖層_2" data-name="圖層 2"><g id="Layer_2" data-name="Layer 2"><path class="cls-2" d="M953,79.43a50.32,50.32,0,0,0-18.83-18.82,50.32,50.32,0,0,0-18.82-18.83A49.94,49.94,0,0,0,871.9,16.47H824.1a49.71,49.71,0,0,0-14.31,2.11,49.66,49.66,0,0,0-14.31-2.11H725.3a49.6,49.6,0,0,0-27.78,8.47,166.37,166.37,0,0,0-30.66-7.15,154.6,154.6,0,0,0-19-1.32h-76.2a49.6,49.6,0,0,0-27.78,8.47,166.55,166.55,0,0,0-30.66-7.15,154.74,154.74,0,0,0-19-1.32H418a49.59,49.59,0,0,0-23.27,5.77,49.58,49.58,0,0,0-23.26-5.77H278.91a49.57,49.57,0,0,0-25,6.75,49.61,49.61,0,0,0-25-6.75H160.36a50.26,50.26,0,0,0-12.75,1.65,50.13,50.13,0,0,0-12.74-1.65H66.37a50,50,0,0,0-49.9,49.9V91.3A49.84,49.84,0,0,0,31,126.54v43.11a49.83,49.83,0,0,0-14.57,35.23v25.9a49.94,49.94,0,0,0,25.31,43.41A50.18,50.18,0,0,0,60.61,293a50.32,50.32,0,0,0,18.82,18.83,49.94,49.94,0,0,0,43.41,25.31h68.5a50.13,50.13,0,0,0,12.74-1.65,50.26,50.26,0,0,0,12.75,1.65h68.48a50.07,50.07,0,0,0,10.12-1,49.9,49.9,0,0,0,10.11,1h51.28a49.38,49.38,0,0,0,15.88-2.63,49.28,49.28,0,0,0,15.87,2.63h65.84a49.18,49.18,0,0,0,10-1,49.25,49.25,0,0,0,10,1h71a49.9,49.9,0,0,0,41.32-21.95,49.87,49.87,0,0,0,41.31,21.95h71A50,50,0,0,0,749,289.42a49.76,49.76,0,0,0,5.45,3.59,50.32,50.32,0,0,0,18.82,18.83,49.94,49.94,0,0,0,43.41,25.31h78.6a50,50,0,0,0,49.91-49.9v-25.9a49.75,49.75,0,0,0-14.55-35.17l21-34.15a50,50,0,0,0,26.63-44.49v-24.7A49.94,49.94,0,0,0,953,79.43Z"/><path class="cls-3" d="M938.84,65.31A50.3,50.3,0,0,0,920,46.49a50.32,50.32,0,0,0-18.83-18.82A49.93,49.93,0,0,0,857.78,2.35H810a49.37,49.37,0,0,0-14.31,2.12,49.27,49.27,0,0,0-14.31-2.12H711.19a49.63,49.63,0,0,0-27.78,8.47,166.73,166.73,0,0,0-30.66-7.15,154.9,154.9,0,0,0-19-1.32h-76.2a49.68,49.68,0,0,0-27.78,8.47,167.38,167.38,0,0,0-30.66-7.15,154.74,154.74,0,0,0-19-1.32h-76.2a49.59,49.59,0,0,0-23.27,5.77,49.57,49.57,0,0,0-23.26-5.76H264.79a49.67,49.67,0,0,0-25,6.74,49.68,49.68,0,0,0-25-6.74H146.24A49.82,49.82,0,0,0,133.49,4a49.69,49.69,0,0,0-12.74-1.65H52.25a50,50,0,0,0-49.9,49.9V77.19a49.8,49.8,0,0,0,14.58,35.23v43.11A49.81,49.81,0,0,0,2.35,190.77v25.89a49.93,49.93,0,0,0,25.32,43.41A50.32,50.32,0,0,0,46.49,278.9a50.3,50.3,0,0,0,18.82,18.82A49.94,49.94,0,0,0,108.72,323h68.5A49.82,49.82,0,0,0,190,321.38,49.69,49.69,0,0,0,202.71,323h68.48a50.07,50.07,0,0,0,10.12-1,50,50,0,0,0,10.11,1H342.7a49.34,49.34,0,0,0,15.88-2.63A49.29,49.29,0,0,0,374.46,323H440.3a49.79,49.79,0,0,0,10-1,50,50,0,0,0,10,1h71a49.87,49.87,0,0,0,41.32-21.95A49.87,49.87,0,0,0,614,323h71a50,50,0,0,0,49.86-47.72,49.76,49.76,0,0,0,5.45,3.59,50.3,50.3,0,0,0,18.82,18.82A49.94,49.94,0,0,0,802.56,323h78.6a50,50,0,0,0,49.91-49.9V247.24a49.71,49.71,0,0,0-14.55-35.18l21-34.15a50,50,0,0,0,26.63-44.49V108.73A50,50,0,0,0,938.84,65.31Z"/><path class="cls-4" d="M683.41,13.17a2.53,2.53,0,0,1-.77-.12c-.73-.26-1.46-.5-2.18-.73a2.35,2.35,0,1,1,1.43-4.48c.4.12.79.25,1.19.39l1.08-.68a2.35,2.35,0,1,1,2.45,4c-.64.39-1.27.8-1.89,1.22A2.36,2.36,0,0,1,683.41,13.17Z"/><path class="cls-4" d="M668.65,9a2.46,2.46,0,0,1-.53-.06C666.7,8.57,665.3,8.27,664,8a2.35,2.35,0,0,1,.94-4.61q2.1.42,4.29.93A2.36,2.36,0,0,1,668.65,9Zm-17-3.08-.3,0c-1.32-.17-2.75-.32-4.23-.46A2.36,2.36,0,0,1,645,2.83,2.48,2.48,0,0,1,647.53.71c1.53.15,3,.31,4.38.48a2.35,2.35,0,0,1-.29,4.69Z"/><path class="cls-4" d="M543.61,6.68A2.35,2.35,0,0,1,543,2.07c1.45-.42,2.92-.78,4.41-1.07a2.32,2.32,0,0,1,2.76,1.85,2.35,2.35,0,0,1-1.85,2.76c-1.36.27-2.69.6-4,1A2.5,2.5,0,0,1,543.61,6.68Zm90.73-2H630A2.36,2.36,0,0,1,630,0h4.33a2.36,2.36,0,0,1,0,4.71ZM617,4.71h-4.33a2.36,2.36,0,0,1,0-4.71H617a2.36,2.36,0,1,1,0,4.71Zm-17.31,0h-4.34a2.36,2.36,0,0,1,0-4.71h4.34a2.36,2.36,0,0,1,0,4.71Zm-17.32,0h-4.33a2.36,2.36,0,0,1,0-4.71h4.33a2.36,2.36,0,0,1,0,4.71Zm-17.32,0h-4.33a2.36,2.36,0,0,1,0-4.71h4.33a2.36,2.36,0,0,1,0,4.71Z"/><path class="cls-4" d="M529.75,13.17a2.46,2.46,0,0,1-.76-.12c-.73-.26-1.46-.5-2.19-.73a2.35,2.35,0,0,1,1.44-4.48c.39.12.79.25,1.18.39.36-.23.72-.46,1.09-.68a2.35,2.35,0,0,1,2.45,4c-.64.39-1.27.8-1.89,1.22A2.4,2.4,0,0,1,529.75,13.17Z"/><path class="cls-4" d="M515.44,9.07A2,2,0,0,1,514.9,9c-1.37-.32-2.71-.62-4-.89a2.36,2.36,0,1,1,1-4.61c1.35.29,2.73.59,4.14.92a2.36,2.36,0,0,1-.54,4.65ZM499,6l-.33,0c-1.25-.18-2.62-.34-4.06-.49a2.35,2.35,0,1,1,.47-4.67c1.5.14,2.94.31,4.25.5A2.35,2.35,0,0,1,499,6Z"/><path class="cls-4" d="M394.62,5.56A2.35,2.35,0,0,1,394.19.9c1.42-.27,2.87-.48,4.33-.62A2.35,2.35,0,1,1,399,5c-1.33.14-2.64.33-3.94.57A2.09,2.09,0,0,1,394.62,5.56Zm87.71-.83h-.05c-.77,0-1.5,0-2.2,0h-1.93a2.36,2.36,0,0,1,0-4.71h1.93l2.31,0a2.35,2.35,0,0,1-.06,4.7Zm-16.72,0h-4.17a2.36,2.36,0,1,1,0-4.71h4.17a2.36,2.36,0,1,1,0,4.71Zm-16.71,0h-4.18a2.36,2.36,0,1,1,0-4.71h4.18a2.36,2.36,0,0,1,0,4.71Zm-16.72,0H428A2.36,2.36,0,0,1,428,0h4.18a2.36,2.36,0,0,1,0,4.71Zm-16.72,0h-4.18a2.36,2.36,0,0,1,0-4.71h4.18a2.36,2.36,0,1,1,0,4.71Z"/><path class="cls-4" d="M380.61,10.47a2.35,2.35,0,0,1-1.1-.27c-.66-.35-1.33-.68-2-1a2.35,2.35,0,0,1,2-4.26l1.1.53,1.1-.53a2.36,2.36,0,0,1,2,4.26c-.68.31-1.34.65-2,1A2.42,2.42,0,0,1,380.61,10.47Z"/><path class="cls-4" d="M367.29,5.7a2.59,2.59,0,0,1-.48,0c-1.22-.26-2.45-.45-3.7-.61a2.35,2.35,0,0,1-2.06-2.61,2.3,2.3,0,0,1,2.61-2c1.38.16,2.75.38,4.09.65a2.35,2.35,0,0,1-.46,4.66Zm-15.74-1H347.6a2.36,2.36,0,0,1,0-4.71h3.95a2.36,2.36,0,0,1,0,4.71Z"/><path class="cls-4" d="M252.9,6.14a2.35,2.35,0,0,1-.56-4.63c1.33-.33,2.69-.61,4.06-.83a2.35,2.35,0,1,1,.75,4.64c-1.24.2-2.47.45-3.67.76A2.86,2.86,0,0,1,252.9,6.14Zm82.84-1.43h-3.95a2.36,2.36,0,0,1,0-4.71h3.95a2.36,2.36,0,0,1,0,4.71Zm-15.8,0H316A2.36,2.36,0,0,1,316,0h3.95a2.36,2.36,0,0,1,0,4.71Zm-15.8,0h-3.95a2.36,2.36,0,0,1,0-4.71h3.95a2.36,2.36,0,1,1,0,4.71Zm-15.8,0h-3.95a2.36,2.36,0,0,1,0-4.71h3.95a2.36,2.36,0,1,1,0,4.71Zm-15.8,0h-4a2.36,2.36,0,0,1,0-4.71h4a2.36,2.36,0,0,1,0,4.71Z"/><path class="cls-4" d="M239.76,11.46a2.26,2.26,0,0,1-1.18-.33c-.65-.37-1.3-.73-2-1.08a2.35,2.35,0,0,1,2.17-4.17l1,.52,1-.52a2.35,2.35,0,1,1,2.18,4.17c-.66.35-1.32.71-2,1.08A2.32,2.32,0,0,1,239.76,11.46Z"/><path class="cls-4" d="M224.45,5.66a2.45,2.45,0,0,1-.46,0c-1.45-.29-2.92-.51-4.42-.67A2.35,2.35,0,1,1,220,.28a48.82,48.82,0,0,1,4.87.72,2.35,2.35,0,0,1-.46,4.66Zm-18.73-1H201A2.36,2.36,0,0,1,201,0h4.7a2.36,2.36,0,1,1,0,4.71Z"/><path class="cls-4" d="M525.71,325.39H521a2.36,2.36,0,0,1,0-4.71h4.7a2.36,2.36,0,0,1,0,4.71Zm-18.8,0h-4.69a2.36,2.36,0,1,1,0-4.71h4.69a2.36,2.36,0,1,1,0,4.71Zm-18.78,0h-4.7a2.36,2.36,0,0,1,0-4.71h4.7a2.36,2.36,0,0,1,0,4.71Zm-18.79,0h-4.7a2.36,2.36,0,0,1,0-4.71h4.7a2.36,2.36,0,0,1,0,4.71Zm-37.44,0h-4.7a2.36,2.36,0,0,1,0-4.71h4.7a2.36,2.36,0,0,1,0,4.71Zm-18.79,0h-4.69a2.36,2.36,0,1,1,0-4.71h4.69a2.36,2.36,0,1,1,0,4.71Zm-18.79,0h-4.69a2.36,2.36,0,1,1,0-4.71h4.69a2.36,2.36,0,1,1,0,4.71Zm-18.78,0h-1.08c-1.28,0-2.54-.05-3.79-.14a2.36,2.36,0,0,1,.35-4.7c1.13.08,2.28.13,3.44.13h1.08a2.36,2.36,0,0,1,0,4.71Zm-37,0h-4.7a2.36,2.36,0,0,1,0-4.71h4.7a2.36,2.36,0,0,1,0,4.71Zm-18.79,0h-4.7a2.36,2.36,0,0,1,0-4.71h4.7a2.36,2.36,0,0,1,0,4.71Zm-18.79,0h-4.69a2.36,2.36,0,1,1,0-4.71H301a2.36,2.36,0,1,1,0,4.71Zm-37.43,0h-4.7a2.36,2.36,0,0,1,0-4.71h4.7a2.36,2.36,0,0,1,0,4.71Zm-18.79,0H240a2.36,2.36,0,0,1,0-4.71h4.7a2.36,2.36,0,1,1,0,4.71Zm-18.79,0h-4.69a2.36,2.36,0,1,1,0-4.71H226a2.36,2.36,0,1,1,0,4.71Zm-18.78,0h-4.46a2.46,2.46,0,0,1-2.47-2.35,2.26,2.26,0,0,1,2.23-2.36V323l.11-2.36h4.59a2.36,2.36,0,0,1,0,4.71Zm-37.3,0h-4.69a2.36,2.36,0,1,1,0-4.71h4.69a2.36,2.36,0,1,1,0,4.71Zm-18.78,0h-4.7a2.36,2.36,0,0,1,0-4.71h4.7a2.36,2.36,0,0,1,0,4.71Zm-18.79,0h-4.7a2.36,2.36,0,0,1,0-4.71h4.7a2.36,2.36,0,0,1,0,4.71Zm-18.79,0h-4.7a2.36,2.36,0,0,1,0-4.71h4.7a2.36,2.36,0,0,1,0,4.71ZM446,325.06a2.35,2.35,0,0,1-.26-4.69,40.17,40.17,0,0,0,4.12-.66,2.37,2.37,0,0,1,.92,0l-.29,3,.34,1.62c-1.51.31-3,.56-4.56.73ZM277.6,325a2.35,2.35,0,0,1-.3-4.69c1.19-.15,2.36-.35,3.52-.59a2.27,2.27,0,0,1,1,0l.85.16a2.35,2.35,0,1,1-.83,4.63l-.49-.09c-1.13.22-2.27.41-3.41.56Zm-93.66-.05a2.35,2.35,0,0,1-.31-4.68c1.48-.2,3-.48,4.4-.82A2.36,2.36,0,0,1,189.1,324c-1.59.37-3.21.67-4.84.89A1.72,1.72,0,0,1,183.94,324.93Zm355.81-.25a2.36,2.36,0,0,1-.38-4.68c1.48-.24,2.93-.57,4.36-.95a2.38,2.38,0,0,1,2.89,1.66,2.35,2.35,0,0,1-1.66,2.88c-1.58.43-3.18.78-4.81,1.06A2.6,2.6,0,0,1,539.75,324.68Zm-187.19-.3a2.35,2.35,0,0,1-.47-4.65c1.47-.31,2.91-.67,4.34-1.11a2.35,2.35,0,0,1,1.37,4.5c-1.56.48-3.15.88-4.76,1.21A2,2,0,0,1,352.56,324.38Zm-257.65-.94a2.16,2.16,0,0,1-.66-.1q-2.37-.68-4.65-1.58a2.35,2.35,0,0,1,1.73-4.38,43.85,43.85,0,0,0,4.23,1.44,2.36,2.36,0,0,1-.65,4.62Zm462.33-5.3a2.35,2.35,0,0,1-1.22-4.36q1.9-1.17,3.71-2.51a2.35,2.35,0,1,1,2.81,3.77q-2,1.47-4.07,2.75A2.28,2.28,0,0,1,557.24,318.14ZM78.26,315a2.36,2.36,0,0,1-1.44-.49q-1.93-1.5-3.74-3.18a2.35,2.35,0,1,1,3.21-3.44c1.09,1,2.23,2,3.41,2.9A2.35,2.35,0,0,1,78.26,315ZM63.83,299.86l-.24-.42c-.9-.52-1.79-1.08-2.65-1.66a2.35,2.35,0,1,1,2.61-3.91c1,.64,1.93,1.23,2.93,1.8a2.42,2.42,0,0,1,.88.89l.5.87-3.71,2.33-.08,0Zm-12.06-11A2.36,2.36,0,0,1,50,288c-1-1.25-2-2.54-3-3.89a2.35,2.35,0,1,1,3.86-2.69c.86,1.22,1.77,2.41,2.73,3.55a2.36,2.36,0,0,1-1.8,3.87Zm-13.08-13a2.35,2.35,0,0,1-1.53-.57q-1.87-1.6-3.58-3.37A2.35,2.35,0,1,1,37,268.57q1.56,1.62,3.26,3.07a2.35,2.35,0,0,1-1.53,4.14ZM26.47,261.72a2.34,2.34,0,0,1-1.22-.34c-1.41-.85-2.77-1.77-4.08-2.74A2.36,2.36,0,1,1,24,254.86q1.79,1.33,3.71,2.5a2.35,2.35,0,0,1-1.22,4.36ZM12.58,249.24a2.33,2.33,0,0,1-1.87-.93q-1.5-2-2.8-4a2.35,2.35,0,1,1,4-2.5c.79,1.27,1.64,2.49,2.55,3.68a2.35,2.35,0,0,1-1.87,3.78ZM4.21,232.55A2.35,2.35,0,0,1,2,230.83c-.44-1.57-.81-3.16-1.11-4.79a2.35,2.35,0,0,1,4.63-.85c.27,1.49.61,2.94,1,4.37a2.36,2.36,0,0,1-2.27,3ZM2.35,213.92A2.35,2.35,0,0,1,0,211.57v-4.7a2.36,2.36,0,0,1,4.71,0v4.7A2.36,2.36,0,0,1,2.35,213.92Zm0-18.78A2.36,2.36,0,0,1,0,192.78v-2c0-.94,0-1.88.08-2.81a2.3,2.3,0,0,1,2.47-2.22,2.35,2.35,0,0,1,2.22,2.48q-.06,1.26-.06,2.55v2A2.36,2.36,0,0,1,2.35,195.14Zm2.79-18.48a2.35,2.35,0,0,1-2.23-3.13c.55-1.55,1.16-3.08,1.85-4.56a2.35,2.35,0,1,1,4.27,2c-.62,1.35-1.18,2.74-1.67,4.15A2.35,2.35,0,0,1,5.14,176.66ZM14.5,160.5a2.32,2.32,0,0,1-1.54-.57,2.36,2.36,0,0,1-.25-3.31c.61-.7,1.22-1.38,1.86-2.05v-.16a2.36,2.36,0,1,1,4.71,0v1.12a2.36,2.36,0,0,1-.69,1.66c-.8.81-1.57,1.64-2.31,2.5A2.34,2.34,0,0,1,14.5,160.5Zm2.43-17.83a2.35,2.35,0,0,1-2.36-2.35v-4.7a2.36,2.36,0,0,1,4.71,0v4.7A2.35,2.35,0,0,1,16.93,142.67Zm0-18.79a2.35,2.35,0,0,1-2.36-2.35v-4.7a2.36,2.36,0,0,1,4.71,0v4.7A2.35,2.35,0,0,1,16.93,123.88ZM10.8,107.3a2.35,2.35,0,0,1-2-1q-1.37-2-2.54-4.21a2.35,2.35,0,1,1,4.13-2.24c.72,1.31,1.49,2.59,2.32,3.82a2.35,2.35,0,0,1-1.95,3.67ZM3.48,90.11a2.35,2.35,0,0,1-2.3-1.85C.84,86.67.56,85.05.37,83.41A2.34,2.34,0,0,1,2.43,80.8,2.31,2.31,0,0,1,5,82.86c.18,1.49.42,3,.74,4.4A2.35,2.35,0,0,1,4,90.06,2.18,2.18,0,0,1,3.48,90.11ZM2.35,71.41A2.35,2.35,0,0,1,0,69.06v-4.7a2.36,2.36,0,0,1,4.71,0v4.7A2.36,2.36,0,0,1,2.35,71.41Zm0-18.79H2.3A2.36,2.36,0,0,1,0,50.17q.11-2.47.42-4.89a2.31,2.31,0,0,1,2.65-2,2.36,2.36,0,0,1,2,2.65c-.2,1.46-.33,3-.39,4.45A2.35,2.35,0,0,1,2.39,52.62ZM6.61,34.44a2.49,2.49,0,0,1-1-.2,2.37,2.37,0,0,1-1.2-3.11c.67-1.5,1.4-3,2.21-4.39a2.35,2.35,0,0,1,4.1,2.3c-.73,1.3-1.4,2.63-2,4A2.35,2.35,0,0,1,6.61,34.44ZM17.25,19.08a2.35,2.35,0,0,1-1.65-4c1.16-1.14,2.38-2.24,3.65-3.28a2.35,2.35,0,0,1,3,3.64q-1.74,1.43-3.34,3A2.32,2.32,0,0,1,17.25,19.08Zm15.5-10.4a2.36,2.36,0,0,1-.91-4.53q2.25-.95,4.6-1.7a2.35,2.35,0,1,1,1.43,4.48q-2.15.69-4.2,1.56A2.3,2.3,0,0,1,32.75,8.68Zm98-2.95a2.5,2.5,0,0,1-.47-.05c-1.46-.3-2.94-.53-4.42-.69a2.37,2.37,0,0,1-2.09-2.6A2.32,2.32,0,0,1,126.4.31c1.63.18,3.25.43,4.85.76a2.35,2.35,0,0,1-.47,4.66Zm13.87-1a2.35,2.35,0,0,1-.06-4.7l4.76,0a2.36,2.36,0,0,1,0,4.71l-4.64,0ZM51,4.72A2.35,2.35,0,0,1,51,0L55.7,0a2.36,2.36,0,0,1,0,4.71H51Zm135.93,0h-4.7a2.36,2.36,0,0,1,0-4.71h4.7a2.36,2.36,0,0,1,0,4.71Zm-18.79,0h-4.7a2.36,2.36,0,0,1,0-4.71h4.7a2.36,2.36,0,0,1,0,4.71Zm-56.08,0h-4.7a2.36,2.36,0,0,1,0-4.71h4.7a2.36,2.36,0,0,1,0,4.71Zm-18.79,0H88.58a2.36,2.36,0,1,1,0-4.71h4.69a2.36,2.36,0,0,1,0,4.71Zm-18.78,0h-4.7a2.36,2.36,0,0,1,0-4.71h4.7a2.36,2.36,0,0,1,0,4.71Z"/><path class="cls-4" d="M574.05,305.35a2.31,2.31,0,0,1-1.36-.43,2.35,2.35,0,0,1-3.25-3.33c.45-.6.88-1.21,1.31-1.83a2.43,2.43,0,0,1,3.88,0c.43.62.86,1.23,1.31,1.83a2.35,2.35,0,0,1-1.89,3.76Z"/><path class="cls-4" d="M600.38,323.49a2.35,2.35,0,0,1-.64-.09c-1.37-.39-2.73-.83-4-1.33a2.35,2.35,0,0,1,1.66-4.4c1.2.45,2.42.85,3.67,1.21a2.35,2.35,0,0,1-.64,4.61Zm-14.65-6.91a2.32,2.32,0,0,1-1.34-.41c-1.17-.81-2.3-1.66-3.4-2.56a2.36,2.36,0,1,1,3-3.64c1,.82,2,1.59,3.09,2.33a2.35,2.35,0,0,1-1.34,4.28Z"/><path class="cls-4" d="M681.56,325.39H677.5a2.36,2.36,0,1,1,0-4.71h4.06a2.36,2.36,0,1,1,0,4.71Zm-16.26,0h-4.07a2.36,2.36,0,0,1,0-4.71h4.07a2.36,2.36,0,0,1,0,4.71Zm-16.27,0H645a2.36,2.36,0,0,1,0-4.71H649a2.36,2.36,0,0,1,0,4.71Zm-16.27,0H628.7a2.36,2.36,0,1,1,0-4.71h4.06a2.36,2.36,0,1,1,0,4.71Zm-16.26,0-4.13,0a2.34,2.34,0,0,1-2.29-2.41,2.51,2.51,0,0,1,2.41-2.29l4,0a2.36,2.36,0,0,1,0,4.71Zm77.21-.76a2.35,2.35,0,0,1-.4-4.67c1.28-.23,2.54-.51,3.78-.83a2.35,2.35,0,1,1,1.19,4.55c-1.36.36-2.74.66-4.15.91A3,3,0,0,1,693.71,324.63ZM709,319.25a2.36,2.36,0,0,1-1.13-4.42c1.13-.62,2.24-1.29,3.31-2a2.35,2.35,0,0,1,2.6,3.92c-1.18.79-2.4,1.52-3.65,2.21A2.4,2.4,0,0,1,709,319.25Zm12.74-10A2.36,2.36,0,0,1,720,305.3c.87-.95,1.71-1.93,2.5-2.95a2.35,2.35,0,1,1,3.71,2.9c-.87,1.11-1.79,2.2-2.76,3.24A2.31,2.31,0,0,1,721.73,309.25Zm8.91-13.53a2.16,2.16,0,0,1-1-.21,2.34,2.34,0,0,1-1.19-3.1c.52-1.17,1-2.37,1.42-3.59a2.36,2.36,0,1,1,4.45,1.55c-.47,1.34-1,2.67-1.58,4A2.35,2.35,0,0,1,730.64,295.72Z"/><path class="cls-4" d="M734.73,280h-.22a2.35,2.35,0,0,1-2.13-2.55c.06-.74.12-1.49.14-2.24a2.36,2.36,0,0,1,1.36-2,2.33,2.33,0,0,1,2.42.25c.59.45,1.2.89,1.82,1.31a2.35,2.35,0,0,1,.6,3.27,2.29,2.29,0,0,1-2.09,1A2.34,2.34,0,0,1,734.73,280Z"/><path class="cls-4" d="M764.94,308.23a2.36,2.36,0,0,1-1.77-.81,50.21,50.21,0,0,1-3.32-4.23,2.35,2.35,0,1,1,3.84-2.71,46.59,46.59,0,0,0,3,3.85,2.36,2.36,0,0,1-1.78,3.9ZM750.6,293.94a2.35,2.35,0,0,1-1.56-.6,52.4,52.4,0,0,1-3.83-3.77,2.35,2.35,0,0,1,3.46-3.18c1.11,1.2,2.27,2.35,3.5,3.44a2.35,2.35,0,0,1-1.57,4.11Z"/><path class="cls-4" d="M881.16,325.39h-3a2.36,2.36,0,0,1,0-4.71h3c.68,0,1.35,0,2,0a2.19,2.19,0,0,1,2.46,2.24,2.34,2.34,0,0,1-2.25,2.45C882.66,325.37,881.91,325.39,881.16,325.39Zm-18.43,0h-5.14a2.36,2.36,0,0,1,0-4.71h5.14a2.36,2.36,0,0,1,0,4.71Zm-20.56,0H837a2.36,2.36,0,0,1,0-4.71h5.14a2.36,2.36,0,0,1,0,4.71Zm-20.56,0h-5.14a2.36,2.36,0,1,1,0-4.71h5.14a2.36,2.36,0,0,1,0,4.71Zm-20.56,0H801a49.85,49.85,0,0,1-5.37-.43,2.36,2.36,0,0,1-2-2.65,2.32,2.32,0,0,1,2.64-2,46.12,46.12,0,0,0,4.87.39,2.35,2.35,0,0,1-.06,4.7Zm97.29-3a2.35,2.35,0,0,1-.81-4.56,47.21,47.21,0,0,0,4.5-1.93,2.36,2.36,0,0,1,2.08,4.23c-1.61.78-3.27,1.49-5,2.12A2.67,2.67,0,0,1,898.34,322.34Zm-117.13-1.76a2.33,2.33,0,0,1-1-.23,51.07,51.07,0,0,1-4.72-2.56,2.35,2.35,0,1,1,2.44-4q2.08,1.26,4.31,2.33a2.35,2.35,0,0,1-1,4.47Zm134.44-9.06a2.36,2.36,0,0,1-1.63-4.06,47.12,47.12,0,0,0,3.36-3.56A2.36,2.36,0,0,1,921,307q-1.76,2.06-3.69,3.91A2.34,2.34,0,0,1,915.65,311.52Zm11.57-16.82a2.42,2.42,0,0,1-.91-.18,2.35,2.35,0,0,1-1.26-3.08c.62-1.5,1.17-3,1.65-4.61a2.36,2.36,0,1,1,4.51,1.37c-.53,1.72-1.13,3.41-1.82,5.06A2.35,2.35,0,0,1,927.22,294.7Zm3.85-20a2.36,2.36,0,0,1-2.36-2.35v-5.14a2.36,2.36,0,0,1,4.71,0v5.14A2.35,2.35,0,0,1,931.07,274.66Zm0-20.56a2.36,2.36,0,0,1-2.36-2.35v-5.09a2.36,2.36,0,0,1,2.3-2.41h0a2.37,2.37,0,0,1,2.36,2.31v5.19A2.35,2.35,0,0,1,931.07,254.1Zm-2.56-20.28a2.35,2.35,0,0,1-2.23-1.61q-.78-2.33-1.79-4.56a2.35,2.35,0,0,1,4.29-1.94c.73,1.63,1.39,3.3,2,5a2.33,2.33,0,0,1-1.48,3A2.19,2.19,0,0,1,928.51,233.82Z"/><path class="cls-4" d="M918.14,216.12a2.39,2.39,0,0,1-1.75-.78c-.49-.55-1-1.09-1.54-1.62a2.36,2.36,0,0,1-.33-2.89l1.23-2a2.35,2.35,0,0,1,4,2.47l-.28.45c.14.15.27.3.41.44a2.36,2.36,0,0,1-1.75,3.94Z"/><path class="cls-4" d="M925.2,200.3A2.3,2.3,0,0,1,924,200a2.34,2.34,0,0,1-.77-3.23l2.48-4a2.35,2.35,0,1,1,4,2.47l-2.48,4A2.34,2.34,0,0,1,925.2,200.3Zm9.93-16.14a2.35,2.35,0,0,1-2-3.58l2.4-3.9a2.28,2.28,0,0,1,1-.91,2.32,2.32,0,0,1,3.19.83,2.4,2.4,0,0,1-.47,3L937.13,183A2.34,2.34,0,0,1,935.13,184.16Z"/><path class="cls-4" d="M949.12,171.85a2.36,2.36,0,0,1-1.65-4c1.07-1.05,2.1-2.15,3.07-3.31a2.36,2.36,0,0,1,3.6,3c-1.07,1.26-2.19,2.48-3.38,3.64A2.36,2.36,0,0,1,949.12,171.85Zm10.72-15.49a2.34,2.34,0,0,1-2.15-3.3c.6-1.37,1.14-2.78,1.62-4.21a2.35,2.35,0,1,1,4.46,1.49c-.52,1.57-1.12,3.12-1.78,4.62A2.35,2.35,0,0,1,959.84,156.36ZM964.11,138H964a2.36,2.36,0,0,1-2.25-2.45c0-.71,0-1.42,0-2.13v-2.51a2.35,2.35,0,0,1,4.7,0v2.5c0,.77,0,1.56,0,2.34A2.36,2.36,0,0,1,964.11,138Zm0-18.95a2.35,2.35,0,0,1-2.35-2.35V112a2.35,2.35,0,0,1,4.7,0v4.74A2.35,2.35,0,0,1,964.15,119.06ZM963,100.2a2.36,2.36,0,0,1-2.3-1.85c-.33-1.48-.73-2.93-1.19-4.34a2.35,2.35,0,1,1,4.47-1.46,48.15,48.15,0,0,1,1.31,4.78,2.35,2.35,0,0,1-1.78,2.81A2.29,2.29,0,0,1,963,100.2Zm-7.53-17.27a2.36,2.36,0,0,1-1.94-1c-.85-1.25-1.77-2.45-2.72-3.6a2.35,2.35,0,0,1,3.61-3q1.59,1.9,3,3.95a2.35,2.35,0,0,1-.6,3.27A2.38,2.38,0,0,1,955.43,82.93ZM942.06,69.66a2.33,2.33,0,0,1-1.32-.41c-1-.67-2-1.3-3.06-1.89a2.38,2.38,0,0,1-.89-.89l-.44-.75a2.35,2.35,0,0,1,4-2.45l.18.31c1,.56,1.91,1.15,2.83,1.78a2.35,2.35,0,0,1-1.32,4.3ZM929.48,55.81a2.37,2.37,0,0,1-1.61-.63c-1.09-1-2.24-2-3.43-2.93a2.35,2.35,0,1,1,2.88-3.72q1.95,1.52,3.77,3.21a2.35,2.35,0,0,1-1.61,4.07ZM916,42.89a2.37,2.37,0,0,1-1.86-.91c-.92-1.19-1.9-2.34-2.93-3.43a2.35,2.35,0,1,1,3.42-3.23c1.14,1.21,2.21,2.46,3.23,3.77a2.36,2.36,0,0,1-1.86,3.8ZM901.91,30.43a2.3,2.3,0,0,1-1.18-.32l-.68-.39a2.29,2.29,0,0,1-.9-.9c-.62-1.08-1.28-2.13-2-3.16a2.35,2.35,0,0,1,3.9-2.64c.64.95,1.25,1.92,1.83,2.92l.17.1a2.35,2.35,0,0,1-1.17,4.39ZM889.61,16.2a2.36,2.36,0,0,1-1.5-.54q-1.74-1.44-3.61-2.71a2.36,2.36,0,1,1,2.66-3.89c1.36.93,2.69,1.93,4,3a2.35,2.35,0,0,1-1.5,4.16ZM873.12,7.12A2.22,2.22,0,0,1,872.4,7c-1.43-.46-2.88-.85-4.36-1.18a2.35,2.35,0,0,1,1-4.59q2.45.54,4.78,1.3a2.35,2.35,0,0,1-.72,4.59Zm-77.45-.3a2.24,2.24,0,0,1-.68-.1c-.8-.24-1.61-.46-2.42-.66a2.36,2.36,0,0,1,1.14-4.57c.65.16,1.31.33,2,.52.48-.14,1-.27,1.45-.39a2.35,2.35,0,1,1,1.17,4.56c-.65.16-1.29.34-1.92.53A2.38,2.38,0,0,1,795.67,6.82Zm-97-.52a2.35,2.35,0,0,1-.59-4.63c1.58-.41,3.2-.75,4.85-1a2.39,2.39,0,0,1,2.69,2,2.34,2.34,0,0,1-2,2.69c-1.5.24-3,.55-4.42.93A2.3,2.3,0,0,1,698.65,6.3ZM854.43,4.71h-4.74a2.36,2.36,0,0,1,0-4.71h4.74a2.36,2.36,0,0,1,0,4.71Zm-18.95,0h-4.74a2.36,2.36,0,0,1,0-4.71h4.74a2.36,2.36,0,0,1,0,4.71Zm-19,0h-4.74a2.36,2.36,0,0,1,0-4.71h4.74a2.36,2.36,0,0,1,0,4.71ZM779,4.71H774.3a2.36,2.36,0,0,1,0-4.71H779a2.36,2.36,0,0,1,0,4.71Zm-18.95,0h-4.73a2.36,2.36,0,1,1,0-4.71h4.73a2.36,2.36,0,1,1,0,4.71Zm-19,0H736.4a2.36,2.36,0,0,1,0-4.71h4.74a2.36,2.36,0,0,1,0,4.71Zm-18.95,0h-4.73a2.36,2.36,0,1,1,0-4.71h4.73a2.36,2.36,0,1,1,0,4.71Z"/><path class="cls-5" d="M914.25,92.17h-47.8a16.58,16.58,0,0,0-14.31,8.25,16.53,16.53,0,0,0-14.31-8.25H767.66a16.57,16.57,0,0,0-16.55,16.56V112c-.88-.94-1.73-1.9-2.68-2.79-12-11.16-38.61-15.33-43.82-16a124,124,0,0,0-14.41-1H614a16.58,16.58,0,0,0-16.55,16.56V112c-.88-.93-1.72-1.89-2.67-2.78-12-11.16-38.62-15.33-43.82-16a124,124,0,0,0-14.41-1h-76.2a16.57,16.57,0,0,0-16.55,16.56v24.93a16.58,16.58,0,0,0,14.56,16.43V230.8a16.42,16.42,0,0,0-8.42,3.61,16.46,16.46,0,0,0-8.5-3.08l-21.82-82.17a16.57,16.57,0,0,0,10.75-15.5V108.73a16.56,16.56,0,0,0-16.55-16.55H321.27a16.57,16.57,0,0,0-16.56,16.55v24.93a16.48,16.48,0,0,0,10.4,15.3l-24.8,82.36a16.33,16.33,0,0,0-8.65,3.13,16.51,16.51,0,0,0-8.47-3.65V150.09a16.58,16.58,0,0,0,14.57-16.43V108.73a16.57,16.57,0,0,0-16.57-16.55H202.71a16.53,16.53,0,0,0-12.74,6,16.55,16.55,0,0,0-12.75-6h-68.5a16.57,16.57,0,0,0-16.55,16.55v24.93a16.58,16.58,0,0,0,14.57,16.43V230.8a16.58,16.58,0,0,0-14.57,16.44v25.89a16.57,16.57,0,0,0,16.55,16.55h68.5a16.55,16.55,0,0,0,12.75-6,16.53,16.53,0,0,0,12.74,6h68.48a16.38,16.38,0,0,0,10.12-3.54,16.38,16.38,0,0,0,10.11,3.54H342.7a16.59,16.59,0,0,0,15.88-11.85,16.59,16.59,0,0,0,15.88,11.85H440.3a16.41,16.41,0,0,0,10-3.47,16.46,16.46,0,0,0,10,3.47h71a16.56,16.56,0,0,0,16.55-16.55V247.24a16.56,16.56,0,0,0-14.8-16.46v-4.43c3.89-.1,8.93-.45,12.35-.89,5.75-.75,35.14-5.06,47.93-16.39,9.76-8.62,16-20.14,18.61-34.31v56a16.59,16.59,0,0,0-14.56,16.44v25.89A16.57,16.57,0,0,0,614,289.68h71a16.57,16.57,0,0,0,16.56-16.55V247.24a16.57,16.57,0,0,0-14.8-16.46v-4.43c3.89-.1,8.93-.45,12.34-.89,5.76-.75,35.14-5.06,47.94-16.39,13.34-11.8,20.11-28.93,20.11-50.93,0-2.55-.1-5-.29-7.44a1.7,1.7,0,0,1,.19.19l35.76,55.55a16.79,16.79,0,0,1,1.94,6.62v17.62h-2.21A16.57,16.57,0,0,0,786,247.24v25.89a16.56,16.56,0,0,0,16.55,16.55h78.6a16.57,16.57,0,0,0,16.56-16.55V247.24a16.58,16.58,0,0,0-16.56-16.56h-2.1V213.06a18.53,18.53,0,0,1,1.93-6.89l34.06-55.37a3.6,3.6,0,0,1,1-.85c8.18-.39,14.72-7.65,14.72-16.53V108.73A16.57,16.57,0,0,0,914.25,92.17ZM200.59,230.82A16.52,16.52,0,0,0,190,236.69a16.58,16.58,0,0,0-10.76-5.89V219.16h21.38Zm0-70.77H179.21v-10A16.54,16.54,0,0,0,190,144.2a16.53,16.53,0,0,0,10.62,5.88Zm158,83.09a16.52,16.52,0,0,0-4.69-7.49h9.37A16.67,16.67,0,0,0,358.58,243.14Zm179.19-76.7a13.48,13.48,0,0,1-4.65,1.83V150.93a17.9,17.9,0,0,1,5.45,1.63c.46.35,1.85,1.44,1.85,5.82C540.42,164.15,538.43,165.88,537.77,166.44Zm153.66,0a13.65,13.65,0,0,1-4.65,1.83V150.93a17.51,17.51,0,0,1,5.45,1.63c.46.35,1.85,1.44,1.85,5.82C694.08,164.15,692.08,165.88,691.43,166.44Zm160.62-12.8-4.15-6.95a16.28,16.28,0,0,0,4.22-4.82,16.5,16.5,0,0,0,4,4.7Z"/><path class="cls-6" d="M271.19,102.18H202.71a6.56,6.56,0,0,0-6.54,6.55v24.93a6.56,6.56,0,0,0,6.54,6.55h1.34a6.56,6.56,0,0,1,6.55,6.54V163.5a6.57,6.57,0,0,1-6.55,6.55H175.76a6.57,6.57,0,0,1-6.55-6.55V146.75a6.56,6.56,0,0,1,6.55-6.54h1.46a6.57,6.57,0,0,0,6.55-6.55V108.73a6.57,6.57,0,0,0-6.55-6.55h-68.5a6.57,6.57,0,0,0-6.54,6.55v24.93a6.57,6.57,0,0,0,6.54,6.55h1.47a6.57,6.57,0,0,1,6.56,6.54v87.39a6.58,6.58,0,0,1-6.56,6.55h-1.47a6.56,6.56,0,0,0-6.54,6.55v25.89a6.57,6.57,0,0,0,6.54,6.55h68.5a6.57,6.57,0,0,0,6.55-6.55V247.24a6.56,6.56,0,0,0-6.55-6.55h-1.46a6.57,6.57,0,0,1-6.55-6.55V215.71a6.56,6.56,0,0,1,6.55-6.55h28.29a6.56,6.56,0,0,1,6.55,6.55v18.43a6.57,6.57,0,0,1-6.55,6.55h-1.34a6.56,6.56,0,0,0-6.54,6.55v25.89a6.56,6.56,0,0,0,6.54,6.55h68.48a6.58,6.58,0,0,0,6.57-6.55V247.24a6.58,6.58,0,0,0-6.57-6.55h-1.44a6.58,6.58,0,0,1-6.57-6.55V146.75a6.57,6.57,0,0,1,6.57-6.54h1.44a6.58,6.58,0,0,0,6.57-6.55V108.73A6.58,6.58,0,0,0,271.19,102.18Z"/><path class="cls-6" d="M440.3,241.29h0a9,9,0,0,1-8.23-6.33l-23.48-88.42a4.8,4.8,0,0,1,4.87-6.33h.38a6.57,6.57,0,0,0,6.55-6.55V108.73a6.57,6.57,0,0,0-6.55-6.55H321.27a6.57,6.57,0,0,0-6.56,6.55v24.93a6.57,6.57,0,0,0,6.56,6.55h.37c3.61,0,5.71,2.82,4.66,6.27L299.64,235a9.3,9.3,0,0,1-8.33,6.27,6.52,6.52,0,0,0-6.44,6.55v25.29a6.57,6.57,0,0,0,6.55,6.55H342.7a6.57,6.57,0,0,0,6.55-6.55V247.84a6.57,6.57,0,0,0-6.55-6.55H340a4.73,4.73,0,0,1-4.8-6.31l.83-3a9.13,9.13,0,0,1,8.3-6.31h29.86a8.64,8.64,0,0,1,8,6.38l.67,2.88a5,5,0,0,1-5.08,6.38h-3.38a6.57,6.57,0,0,0-6.55,6.55v25.29a6.57,6.57,0,0,0,6.55,6.55H440.3a6.57,6.57,0,0,0,6.55-6.55V247.84A6.57,6.57,0,0,0,440.3,241.29Zm-73.77-51.87H355.2a4.71,4.71,0,0,1-4.78-6.3l6.08-21.57c1-3.47,2.45-8.69,3.28-11.61l.6-2.69.61-2.69c.56-3.06,1.5-2.65,2.09.9,0,0,.13.79.61,3.47l.48,2.69c.47,2,1.52,6.5,2.35,10l5.05,21.43A5,5,0,0,1,366.53,189.42Z"/><path class="cls-6" d="M549.58,103.08a113.78,113.78,0,0,0-13-.9h-76.2a6.57,6.57,0,0,0-6.55,6.55v24.93a6.57,6.57,0,0,0,6.55,6.55h1.46a6.56,6.56,0,0,1,6.55,6.54v87.39a6.57,6.57,0,0,1-6.55,6.55h-1.46a6.57,6.57,0,0,0-6.55,6.55v25.89a6.57,6.57,0,0,0,6.55,6.55h71a6.57,6.57,0,0,0,6.55-6.55V247.24a6.56,6.56,0,0,0-6.55-6.55h-1.71a6.56,6.56,0,0,1-6.54-6.55V222.93a6.56,6.56,0,0,1,6.54-6.55h1.47a123.55,123.55,0,0,0,13-.84s31.46-4.09,42.61-14,16.72-24.35,16.72-43.44q0-27.21-15.52-41.58C577.63,107,549.58,103.08,549.58,103.08ZM544.3,174c-4.1,3.53-11.43,4.47-11.43,4.47-3.58.45-7.24.82-8.13.82s-1.62-2.94-1.62-6.54v-26c0-3.6.89-6.54,2-6.54s4.92.31,8.5.7c0,0,7.31.78,11.11,3.75s5.72,7.54,5.72,13.72Q550.43,168.73,544.3,174Z"/><path class="cls-6" d="M703.24,103.08a114.11,114.11,0,0,0-13-.9H614a6.56,6.56,0,0,0-6.54,6.55v24.93a6.56,6.56,0,0,0,6.54,6.55h1.47a6.56,6.56,0,0,1,6.54,6.54v87.39a6.56,6.56,0,0,1-6.54,6.55H614a6.56,6.56,0,0,0-6.54,6.55v25.89a6.56,6.56,0,0,0,6.54,6.55h71a6.57,6.57,0,0,0,6.55-6.55V247.24a6.56,6.56,0,0,0-6.55-6.55h-1.7a6.57,6.57,0,0,1-6.55-6.55V222.93a6.56,6.56,0,0,1,6.55-6.55h1.46a123.57,123.57,0,0,0,13.05-.84s31.45-4.09,42.6-14,16.73-24.35,16.73-43.44q0-27.21-15.53-41.58C731.28,107,703.24,103.08,703.24,103.08ZM698,174c-4.1,3.53-11.43,4.47-11.43,4.47-3.57.45-7.24.82-8.13.82s-1.62-2.94-1.62-6.54v-26c0-3.6.9-6.54,2-6.54s4.91.31,8.5.7c0,0,7.3.78,11.11,3.75s5.71,7.54,5.71,13.72C704.08,165.28,702.05,170.49,698,174Z"/><path class="cls-6" d="M914.25,102.18h-47.8a6.56,6.56,0,0,0-6.54,6.55v24.69c0,3.6,2.6,6.54,5.78,6.54s4.31,2.56,2.51,5.68l-12.73,22.1c-1.8,3.12-4.77,3.15-6.62.06l-13.26-22.21c-1.85-3.09-.62-5.63,2.72-5.63a6.33,6.33,0,0,0,6.07-6.54V108.73a6.57,6.57,0,0,0-6.55-6.55H767.66a6.57,6.57,0,0,0-6.55,6.55v24.69c0,3.6,2.43,6.54,5.42,6.54s7,2.48,9,5.51L811.23,201a26.12,26.12,0,0,1,3.55,12.05v21.08a6.57,6.57,0,0,1-6.55,6.55h-5.67a6.56,6.56,0,0,0-6.54,6.55v25.89a6.56,6.56,0,0,0,6.54,6.55h78.6a6.58,6.58,0,0,0,6.55-6.55V247.24a6.57,6.57,0,0,0-6.55-6.55H875.6a6.56,6.56,0,0,1-6.54-6.55V213.06a27.59,27.59,0,0,1,3.41-12.13l34.07-55.39c1.88-3.06,5.87-5.58,8.85-5.58s5.41-2.94,5.41-6.54V108.73A6.57,6.57,0,0,0,914.25,102.18Z"/><path class="cls-5" d="M895.43,73.35h-47.8a16.57,16.57,0,0,0-14.31,8.24A16.57,16.57,0,0,0,819,73.35H748.83A16.57,16.57,0,0,0,732.29,89.9v3.28c-.88-.93-1.73-1.9-2.68-2.78C717.56,79.24,691,75.07,685.79,74.35a124,124,0,0,0-14.41-1h-76.2A16.57,16.57,0,0,0,578.63,89.9v3.28c-.88-.94-1.73-1.9-2.68-2.78-12-11.16-38.61-15.33-43.82-16.05a123.81,123.81,0,0,0-14.4-1h-76.2A16.58,16.58,0,0,0,425,89.9v24.93a16.58,16.58,0,0,0,14.56,16.44V212a16.49,16.49,0,0,0-8.42,3.61,16.47,16.47,0,0,0-8.5-3.09L400.8,130.34a16.6,16.6,0,0,0,10.75-15.51V89.9A16.58,16.58,0,0,0,395,73.35H302.44A16.57,16.57,0,0,0,285.89,89.9v24.93a16.47,16.47,0,0,0,10.39,15.3l-24.8,82.37a16.23,16.23,0,0,0-8.65,3.12,16.5,16.5,0,0,0-8.46-3.64V131.27a16.59,16.59,0,0,0,14.57-16.44V89.9a16.58,16.58,0,0,0-16.57-16.55H183.89a16.53,16.53,0,0,0-12.75,6,16.51,16.51,0,0,0-12.74-6H89.9A16.57,16.57,0,0,0,73.35,89.9v24.93a16.57,16.57,0,0,0,14.57,16.44V212a16.57,16.57,0,0,0-14.57,16.43v25.9A16.57,16.57,0,0,0,89.9,270.86h68.5a16.51,16.51,0,0,0,12.74-6,16.53,16.53,0,0,0,12.75,6h68.48a16.45,16.45,0,0,0,10.12-3.54,16.4,16.4,0,0,0,10.11,3.54h51.28A16.57,16.57,0,0,0,339.75,259a16.61,16.61,0,0,0,15.88,11.86h65.84a16.36,16.36,0,0,0,10-3.48,16.39,16.39,0,0,0,10,3.48h71a16.58,16.58,0,0,0,16.55-16.55v-25.9A16.58,16.58,0,0,0,514.3,212v-4.42c3.89-.1,8.92-.46,12.34-.89,5.76-.75,35.15-5.06,47.94-16.39,9.76-8.63,16-20.14,18.61-34.31v56a16.58,16.58,0,0,0-14.56,16.43v25.9a16.57,16.57,0,0,0,16.55,16.55h71a16.57,16.57,0,0,0,16.55-16.55v-25.9A16.58,16.58,0,0,0,668,212v-4.42c3.9-.1,8.93-.46,12.35-.89,5.75-.75,35.14-5.06,47.94-16.39,13.34-11.8,20.1-28.94,20.1-50.94,0-2.54-.1-5-.28-7.43.05.06.15.13.19.18L784,187.61a17.06,17.06,0,0,1,1.94,6.63v17.62h-2.21a16.57,16.57,0,0,0-16.55,16.55v25.9a16.57,16.57,0,0,0,16.55,16.55h78.6a16.57,16.57,0,0,0,16.55-16.55v-25.9a16.57,16.57,0,0,0-16.55-16.55h-2.1V194.24a18.47,18.47,0,0,1,1.93-6.89L896.22,132a3.59,3.59,0,0,1,1-.86c8.18-.38,14.73-7.65,14.73-16.53V89.9A16.57,16.57,0,0,0,895.43,73.35ZM181.77,212a16.56,16.56,0,0,0-10.63,5.88A16.52,16.52,0,0,0,160.39,212V200.34h21.38Zm0-70.77H160.39v-9.95a16.52,16.52,0,0,0,10.75-5.89,16.55,16.55,0,0,0,10.63,5.87Zm158,83.1a16.53,16.53,0,0,0-4.68-7.49h9.37A16.64,16.64,0,0,0,339.75,224.32ZM519,147.61a13.35,13.35,0,0,1-4.65,1.84V132.1a17.6,17.6,0,0,1,5.45,1.64c.46.35,1.85,1.43,1.85,5.81C521.6,145.33,519.6,147.05,519,147.61Zm153.65,0a13.27,13.27,0,0,1-4.65,1.84V132.11a17.07,17.07,0,0,1,5.45,1.63c.46.35,1.85,1.43,1.85,5.81C675.25,145.33,673.26,147.05,672.6,147.61Zm160.62-12.79-4.14-6.95a16.57,16.57,0,0,0,4.22-4.82,16.46,16.46,0,0,0,4,4.7Z"/><path class="cls-7" d="M252.37,83.36H183.89a6.56,6.56,0,0,0-6.55,6.54v24.93a6.57,6.57,0,0,0,6.55,6.55h1.34a6.57,6.57,0,0,1,6.55,6.55v16.75a6.57,6.57,0,0,1-6.55,6.55h-28.3a6.56,6.56,0,0,1-6.54-6.55V127.93a6.56,6.56,0,0,1,6.54-6.55h1.47a6.56,6.56,0,0,0,6.54-6.55V89.9a6.56,6.56,0,0,0-6.54-6.54H89.9a6.57,6.57,0,0,0-6.55,6.54v24.93a6.58,6.58,0,0,0,6.55,6.55h1.46a6.57,6.57,0,0,1,6.56,6.55v87.38a6.58,6.58,0,0,1-6.56,6.56H89.9a6.57,6.57,0,0,0-6.55,6.54v25.9a6.57,6.57,0,0,0,6.55,6.54h68.5a6.56,6.56,0,0,0,6.54-6.54v-25.9a6.56,6.56,0,0,0-6.54-6.54h-1.47a6.57,6.57,0,0,1-6.54-6.56V196.89a6.57,6.57,0,0,1,6.54-6.56h28.3a6.57,6.57,0,0,1,6.55,6.56v18.42a6.57,6.57,0,0,1-6.55,6.56h-1.34a6.56,6.56,0,0,0-6.55,6.54v25.9a6.56,6.56,0,0,0,6.55,6.54h68.48a6.57,6.57,0,0,0,6.56-6.54v-25.9a6.57,6.57,0,0,0-6.56-6.54h-1.45a6.58,6.58,0,0,1-6.56-6.56V127.93a6.58,6.58,0,0,1,6.56-6.55h1.45a6.58,6.58,0,0,0,6.56-6.55V89.9A6.57,6.57,0,0,0,252.37,83.36Z"/><path class="cls-7" d="M421.47,222.47h0a9,9,0,0,1-8.23-6.34l-23.47-88.41a4.8,4.8,0,0,1,4.87-6.34H395a6.57,6.57,0,0,0,6.55-6.55V89.9A6.56,6.56,0,0,0,395,83.36H302.44a6.56,6.56,0,0,0-6.55,6.54v24.93a6.57,6.57,0,0,0,6.55,6.55h.38c3.6,0,5.7,2.82,4.66,6.28L280.82,216.2a9.32,9.32,0,0,1-8.33,6.27,6.5,6.5,0,0,0-6.44,6.55v25.29a6.56,6.56,0,0,0,6.55,6.54h51.28a6.56,6.56,0,0,0,6.55-6.54V229a6.57,6.57,0,0,0-6.55-6.55h-2.67a4.74,4.74,0,0,1-4.8-6.32l.84-3a9.13,9.13,0,0,1,8.3-6.31h29.86a8.66,8.66,0,0,1,8,6.39l.67,2.87a5,5,0,0,1-5.08,6.39h-3.39a6.57,6.57,0,0,0-6.55,6.55v25.29a6.56,6.56,0,0,0,6.55,6.54h65.84a6.57,6.57,0,0,0,6.56-6.54V229A6.57,6.57,0,0,0,421.47,222.47ZM347.7,170.6H336.38a4.7,4.7,0,0,1-4.78-6.3l6.08-21.57c1-3.47,2.45-8.7,3.28-11.62l.6-2.69.6-2.69c.56-3,1.51-2.64,2.1.91,0,0,.13.78.61,3.47l.48,2.68c.47,2,1.52,6.51,2.34,10l5.06,21.43A5,5,0,0,1,347.7,170.6Z"/><path class="cls-7" d="M530.76,84.25a116.25,116.25,0,0,0-13-.9h-76.2A6.57,6.57,0,0,0,435,89.9v24.93a6.57,6.57,0,0,0,6.55,6.55H443a6.57,6.57,0,0,1,6.55,6.55v87.38a6.57,6.57,0,0,1-6.55,6.56h-1.46a6.56,6.56,0,0,0-6.55,6.54v25.9a6.56,6.56,0,0,0,6.55,6.54h71a6.56,6.56,0,0,0,6.55-6.54v-25.9a6.56,6.56,0,0,0-6.55-6.54h-1.71a6.57,6.57,0,0,1-6.55-6.56v-11.2a6.57,6.57,0,0,1,6.55-6.56h1.46a123.57,123.57,0,0,0,13.05-.84s31.45-4.09,42.6-14,16.73-24.34,16.73-43.44q0-27.19-15.52-41.57C558.81,88.15,530.76,84.25,530.76,84.25Zm-5.29,70.95c-4.09,3.53-11.42,4.46-11.42,4.46-3.58.46-7.25.83-8.14.83s-1.62-2.94-1.62-6.55v-26c0-3.6.9-6.55,2-6.55s4.91.32,8.5.7c0,0,7.3.79,11.11,3.76s5.72,7.54,5.72,13.71Q531.61,149.92,525.47,155.2Z"/><path class="cls-7" d="M684.41,84.25a116.09,116.09,0,0,0-13-.9h-76.2a6.57,6.57,0,0,0-6.55,6.55v24.93a6.57,6.57,0,0,0,6.55,6.55h1.46a6.57,6.57,0,0,1,6.55,6.55v87.38a6.57,6.57,0,0,1-6.55,6.56h-1.46a6.56,6.56,0,0,0-6.55,6.54v25.9a6.57,6.57,0,0,0,6.55,6.54h71a6.56,6.56,0,0,0,6.55-6.54v-25.9a6.56,6.56,0,0,0-6.55-6.54h-1.7a6.57,6.57,0,0,1-6.55-6.56v-11.2a6.57,6.57,0,0,1,6.55-6.56H666a123.38,123.38,0,0,0,13-.84s31.46-4.09,42.61-14,16.73-24.34,16.73-43.44q0-27.19-15.53-41.57C712.46,88.15,684.41,84.25,684.41,84.25Zm-5.28,70.95c-4.1,3.53-11.43,4.46-11.43,4.46-3.58.46-7.24.83-8.13.83s-1.62-2.94-1.62-6.55v-26c0-3.6.89-6.55,2-6.55s4.91.32,8.5.7c0,0,7.3.79,11.1,3.76s5.72,7.54,5.72,13.71Q685.26,149.92,679.13,155.2Z"/><path class="cls-7" d="M895.43,83.35h-47.8a6.56,6.56,0,0,0-6.54,6.55v24.69c0,3.6,2.6,6.55,5.77,6.55s4.31,2.55,2.51,5.68l-12.72,22.1c-1.8,3.12-4.78,3.14-6.63.05l-13.25-22.21c-1.86-3.09-.62-5.62,2.72-5.62a6.34,6.34,0,0,0,6.07-6.55V89.9A6.57,6.57,0,0,0,819,83.35H748.83a6.56,6.56,0,0,0-6.54,6.55v24.69c0,3.6,2.43,6.55,5.42,6.55s7,2.48,8.95,5.51l35.75,55.53A26.18,26.18,0,0,1,796,194.24v21.07a6.57,6.57,0,0,1-6.54,6.56h-5.67a6.56,6.56,0,0,0-6.55,6.54v25.9a6.56,6.56,0,0,0,6.55,6.54h78.6a6.58,6.58,0,0,0,6.55-6.54v-25.9a6.57,6.57,0,0,0-6.55-6.54h-5.56a6.57,6.57,0,0,1-6.54-6.56V194.24a27.59,27.59,0,0,1,3.41-12.13l34.06-55.39c1.89-3.07,5.87-5.58,8.86-5.58s5.4-3,5.4-6.55V89.9A6.56,6.56,0,0,0,895.43,83.35Z"/><path class="cls-5" d="M876.61,54.53h-47.8a16.55,16.55,0,0,0-14.31,8.24,16.55,16.55,0,0,0-14.31-8.24H730a16.56,16.56,0,0,0-16.55,16.55v3.28c-.88-.94-1.73-1.9-2.68-2.78-12-11.16-38.61-15.33-43.82-16.06a123.8,123.8,0,0,0-14.4-1h-76.2A16.57,16.57,0,0,0,559.8,71.08v3.28c-.87-.94-1.72-1.9-2.67-2.78-12-11.16-38.62-15.33-43.82-16.06a124,124,0,0,0-14.41-1H422.7a16.57,16.57,0,0,0-16.55,16.55V96a16.57,16.57,0,0,0,14.56,16.43v80.72a16.4,16.4,0,0,0-8.42,3.6,16.55,16.55,0,0,0-8.5-3.08L382,111.52A16.59,16.59,0,0,0,392.73,96V71.08a16.57,16.57,0,0,0-16.56-16.55H283.62a16.57,16.57,0,0,0-16.56,16.55V96a16.49,16.49,0,0,0,10.4,15.3l-24.8,82.36A16.33,16.33,0,0,0,244,196.8a16.42,16.42,0,0,0-8.47-3.64V112.44A16.57,16.57,0,0,0,250.11,96V71.08a16.57,16.57,0,0,0-16.56-16.55H165.07a16.51,16.51,0,0,0-12.75,6,16.53,16.53,0,0,0-12.75-6H71.08A16.57,16.57,0,0,0,54.52,71.08V96A16.57,16.57,0,0,0,69.1,112.44v80.72a16.57,16.57,0,0,0-14.58,16.43v25.89A16.58,16.58,0,0,0,71.08,252h68.49a16.53,16.53,0,0,0,12.75-6,16.51,16.51,0,0,0,12.75,6h68.48a16.42,16.42,0,0,0,10.11-3.54A16.44,16.44,0,0,0,253.77,252h51.29a16.58,16.58,0,0,0,15.87-11.86A16.59,16.59,0,0,0,336.81,252h65.84a16.36,16.36,0,0,0,10-3.48,16.36,16.36,0,0,0,10,3.48h71a16.58,16.58,0,0,0,16.56-16.56V209.59a16.58,16.58,0,0,0-14.8-16.46v-4.42c3.89-.1,8.92-.46,12.34-.9,5.76-.75,35.14-5.06,47.94-16.39,9.76-8.62,16-20.14,18.6-34.3v56a16.57,16.57,0,0,0-14.56,16.43v25.89A16.58,16.58,0,0,0,576.36,252h71a16.58,16.58,0,0,0,16.55-16.56V209.59a16.57,16.57,0,0,0-14.8-16.46v-4.42c3.9-.1,8.93-.46,12.34-.9,5.76-.75,35.15-5.06,47.94-16.39,13.34-11.79,20.11-28.93,20.11-50.93q0-3.81-.29-7.43c.06.06.16.12.19.18l35.77,55.55a17,17,0,0,1,1.93,6.62V193h-2.21a16.56,16.56,0,0,0-16.54,16.55v25.89A16.57,16.57,0,0,0,764.91,252h78.61a16.58,16.58,0,0,0,16.55-16.56V209.59A16.57,16.57,0,0,0,843.52,193h-2.1V175.41a18.53,18.53,0,0,1,1.93-6.89l34-55.37a3.74,3.74,0,0,1,1-.85c8.18-.38,14.72-7.65,14.72-16.53V71.08A16.56,16.56,0,0,0,876.61,54.53ZM163,193.17A16.57,16.57,0,0,0,152.32,199a16.55,16.55,0,0,0-10.75-5.88V181.52H163Zm0-70.77H141.57v-10a16.55,16.55,0,0,0,10.75-5.88A16.57,16.57,0,0,0,163,112.43Zm158,83.1a16.62,16.62,0,0,0-4.68-7.5h9.37A16.55,16.55,0,0,0,320.93,205.5Zm179.2-76.71a13.45,13.45,0,0,1-4.65,1.83V113.28a18,18,0,0,1,5.45,1.63c.45.36,1.85,1.44,1.85,5.82C502.78,126.51,500.78,128.23,500.13,128.79Zm153.65,0a13.37,13.37,0,0,1-4.65,1.83V113.29a17.46,17.46,0,0,1,5.45,1.62c.46.36,1.85,1.44,1.85,5.82C656.43,126.51,654.43,128.23,653.78,128.79ZM814.4,116,810.25,109a16.42,16.42,0,0,0,4.23-4.81,16.27,16.27,0,0,0,4,4.69Z"/><path class="cls-8" d="M233.55,64.54H165.07a6.56,6.56,0,0,0-6.55,6.54V96a6.57,6.57,0,0,0,6.55,6.55h1.34a6.56,6.56,0,0,1,6.54,6.55v16.74a6.56,6.56,0,0,1-6.54,6.55h-28.3a6.57,6.57,0,0,1-6.55-6.55V109.11a6.57,6.57,0,0,1,6.55-6.55h1.46A6.57,6.57,0,0,0,146.12,96V71.08a6.56,6.56,0,0,0-6.55-6.54H71.08a6.57,6.57,0,0,0-6.55,6.54V96a6.58,6.58,0,0,0,6.55,6.55h1.46a6.57,6.57,0,0,1,6.56,6.55v87.38A6.57,6.57,0,0,1,72.54,203H71.08a6.58,6.58,0,0,0-6.55,6.55v25.89A6.58,6.58,0,0,0,71.08,242h68.49a6.57,6.57,0,0,0,6.55-6.55V209.59a6.57,6.57,0,0,0-6.55-6.55h-1.46a6.57,6.57,0,0,1-6.55-6.55V178.06a6.57,6.57,0,0,1,6.55-6.55h28.3a6.56,6.56,0,0,1,6.54,6.55v18.43a6.56,6.56,0,0,1-6.54,6.55h-1.34a6.57,6.57,0,0,0-6.55,6.55v25.89a6.57,6.57,0,0,0,6.55,6.55h68.48a6.58,6.58,0,0,0,6.56-6.55V209.59a6.58,6.58,0,0,0-6.56-6.55H232.1a6.57,6.57,0,0,1-6.56-6.55V109.11a6.57,6.57,0,0,1,6.56-6.55h1.45A6.58,6.58,0,0,0,240.11,96V71.08A6.57,6.57,0,0,0,233.55,64.54Z"/><path class="cls-8" d="M402.65,203.64h0a9,9,0,0,1-8.23-6.33l-23.47-88.42a4.79,4.79,0,0,1,4.87-6.33h.37A6.57,6.57,0,0,0,382.73,96V71.08a6.57,6.57,0,0,0-6.56-6.54H283.62a6.56,6.56,0,0,0-6.55,6.54V96a6.57,6.57,0,0,0,6.55,6.55H284c3.6,0,5.7,2.82,4.66,6.27L262,197.38a9.31,9.31,0,0,1-8.33,6.26,6.52,6.52,0,0,0-6.44,6.55v25.29a6.57,6.57,0,0,0,6.55,6.55h51.29a6.57,6.57,0,0,0,6.55-6.55V210.19a6.57,6.57,0,0,0-6.55-6.55h-2.67a4.73,4.73,0,0,1-4.8-6.31l.84-3a9.12,9.12,0,0,1,8.3-6.31h29.85a8.65,8.65,0,0,1,8,6.38l.66,2.88a5,5,0,0,1-5.08,6.38h-3.38a6.57,6.57,0,0,0-6.55,6.55v25.29a6.57,6.57,0,0,0,6.55,6.55h65.84a6.57,6.57,0,0,0,6.55-6.55V210.19A6.57,6.57,0,0,0,402.65,203.64Zm-73.76-51.86H317.55a4.71,4.71,0,0,1-4.77-6.31l6.08-21.56c1-3.47,2.45-8.7,3.27-11.62l.61-2.69.59-2.69c.57-3,1.51-2.65,2.11.91,0,0,.13.78.6,3.47l.49,2.68c.46,2,1.52,6.5,2.35,10l5.05,21.43A5,5,0,0,1,328.89,151.78Z"/><path class="cls-8" d="M511.93,65.43a116.09,116.09,0,0,0-13-.9H422.7a6.56,6.56,0,0,0-6.54,6.55V96a6.56,6.56,0,0,0,6.54,6.55h1.47a6.56,6.56,0,0,1,6.54,6.55v87.38a6.56,6.56,0,0,1-6.54,6.55H422.7a6.56,6.56,0,0,0-6.54,6.55v25.89A6.56,6.56,0,0,0,422.7,242h71a6.57,6.57,0,0,0,6.55-6.55V209.59a6.57,6.57,0,0,0-6.55-6.55H492a6.56,6.56,0,0,1-6.54-6.55V185.28a6.56,6.56,0,0,1,6.54-6.55h1.47a123.92,123.92,0,0,0,13-.84s31.45-4.09,42.6-14,16.73-24.35,16.73-43.44q0-27.19-15.53-41.57C540,69.33,511.93,65.43,511.93,65.43Zm-5.28,70.94c-4.1,3.53-11.43,4.47-11.43,4.47-3.57.46-7.24.83-8.13.83s-1.62-2.95-1.62-6.55v-26c0-3.61.89-6.55,2-6.55s4.91.32,8.5.7c0,0,7.3.78,11.11,3.75s5.71,7.54,5.71,13.72C512.78,127.63,510.75,132.84,506.65,136.37Z"/><path class="cls-8" d="M665.59,65.43a116.25,116.25,0,0,0-13-.9h-76.2a6.57,6.57,0,0,0-6.55,6.55V96a6.57,6.57,0,0,0,6.55,6.55h1.46a6.57,6.57,0,0,1,6.55,6.55v87.38a6.57,6.57,0,0,1-6.55,6.55h-1.46a6.57,6.57,0,0,0-6.55,6.55v25.89a6.57,6.57,0,0,0,6.55,6.55h71a6.57,6.57,0,0,0,6.55-6.55V209.59a6.57,6.57,0,0,0-6.55-6.55h-1.71a6.57,6.57,0,0,1-6.55-6.55V185.28a6.57,6.57,0,0,1,6.55-6.55h1.46a123.57,123.57,0,0,0,13-.84s31.45-4.09,42.61-14,16.72-24.35,16.72-43.44q0-27.19-15.52-41.57C693.64,69.33,665.59,65.43,665.59,65.43Zm-5.29,70.94c-4.09,3.53-11.42,4.47-11.42,4.47-3.58.46-7.25.83-8.14.83s-1.62-2.95-1.62-6.55v-26c0-3.61.9-6.55,2-6.55s4.92.32,8.51.7c0,0,7.29.78,11.1,3.75s5.72,7.54,5.72,13.72Q666.44,131.08,660.3,136.37Z"/><path class="cls-8" d="M876.61,64.53h-47.8a6.57,6.57,0,0,0-6.55,6.55V95.77c0,3.6,2.6,6.55,5.78,6.55s4.31,2.55,2.51,5.68l-12.73,22.1c-1.8,3.12-4.77,3.14-6.62.05l-13.26-22.21c-1.85-3.09-.62-5.62,2.72-5.62a6.34,6.34,0,0,0,6.07-6.55V71.08a6.56,6.56,0,0,0-6.54-6.55H730a6.56,6.56,0,0,0-6.54,6.55V95.77c0,3.6,2.43,6.55,5.41,6.55s7,2.48,9,5.51l35.75,55.53a26.26,26.26,0,0,1,3.54,12v21.08a6.56,6.56,0,0,1-6.55,6.55h-5.67a6.56,6.56,0,0,0-6.54,6.55v25.89a6.56,6.56,0,0,0,6.54,6.55h78.61a6.58,6.58,0,0,0,6.55-6.55V209.59a6.58,6.58,0,0,0-6.55-6.55H838a6.56,6.56,0,0,1-6.55-6.55V175.41a27.43,27.43,0,0,1,3.42-12.12l34.06-55.4c1.89-3.06,5.87-5.57,8.86-5.57s5.4-2.95,5.4-6.55V71.08A6.56,6.56,0,0,0,876.61,64.53Z"/><path class="cls-5" d="M857.78,35.7H810A16.56,16.56,0,0,0,795.67,44a16.56,16.56,0,0,0-14.31-8.25H711.19a16.57,16.57,0,0,0-16.55,16.56v3.28c-.88-.94-1.73-1.91-2.68-2.79-12.05-11.16-38.61-15.33-43.82-16a124,124,0,0,0-14.41-1h-76.2A16.58,16.58,0,0,0,541,52.26v3.27c-.88-.94-1.72-1.9-2.67-2.78-12-11.16-38.62-15.33-43.82-16a124,124,0,0,0-14.41-1h-76.2a16.57,16.57,0,0,0-16.55,16.56V77.19a16.58,16.58,0,0,0,14.56,16.43v80.71a16.42,16.42,0,0,0-8.42,3.61,16.37,16.37,0,0,0-8.5-3.08L363.15,92.69a16.59,16.59,0,0,0,10.76-15.5V52.26a16.57,16.57,0,0,0-16.56-16.55H264.79a16.57,16.57,0,0,0-16.55,16.55V77.19a16.48,16.48,0,0,0,10.4,15.3l-24.8,82.36a16.33,16.33,0,0,0-8.65,3.13,16.58,16.58,0,0,0-8.47-3.65V93.62a16.58,16.58,0,0,0,14.57-16.43V52.26a16.57,16.57,0,0,0-16.57-16.55H146.24a16.52,16.52,0,0,0-12.74,6,16.55,16.55,0,0,0-12.75-6H52.25A16.56,16.56,0,0,0,35.7,52.26V77.19A16.58,16.58,0,0,0,50.27,93.62v80.71A16.58,16.58,0,0,0,35.7,190.77v25.89a16.56,16.56,0,0,0,16.55,16.55h68.5a16.55,16.55,0,0,0,12.75-6,16.52,16.52,0,0,0,12.74,6h68.48a16.38,16.38,0,0,0,10.12-3.54A16.38,16.38,0,0,0,235,233.21h51.28a16.59,16.59,0,0,0,15.88-11.86A16.57,16.57,0,0,0,318,233.21h65.85a16.41,16.41,0,0,0,10-3.47,16.46,16.46,0,0,0,10,3.47h71a16.56,16.56,0,0,0,16.55-16.55V190.77a16.56,16.56,0,0,0-14.8-16.46v-4.43c3.89-.1,8.93-.46,12.35-.89,5.75-.75,35.14-5.06,47.93-16.39,9.76-8.63,16-20.14,18.61-34.3v56A16.59,16.59,0,0,0,541,190.77v25.89a16.57,16.57,0,0,0,16.55,16.55h71a16.57,16.57,0,0,0,16.56-16.55V190.77a16.57,16.57,0,0,0-14.81-16.46v-4.43c3.9-.1,8.93-.46,12.35-.89,5.76-.75,35.14-5.06,47.94-16.39,13.34-11.8,20.11-28.93,20.11-50.93,0-2.55-.11-5-.29-7.44a1.7,1.7,0,0,1,.19.19L746.36,150a16.79,16.79,0,0,1,1.94,6.62v17.62h-2.21a16.57,16.57,0,0,0-16.55,16.56v25.89a16.56,16.56,0,0,0,16.55,16.55h78.6a16.57,16.57,0,0,0,16.56-16.55V190.77a16.58,16.58,0,0,0-16.56-16.56h-2.1V156.59a18.53,18.53,0,0,1,1.93-6.89l34.06-55.37a3.6,3.6,0,0,1,1-.85c8.18-.39,14.72-7.65,14.72-16.53V52.26A16.57,16.57,0,0,0,857.78,35.7ZM144.12,174.35a16.52,16.52,0,0,0-10.62,5.87,16.58,16.58,0,0,0-10.76-5.89V162.69h21.38Zm0-70.77H122.74v-10a16.54,16.54,0,0,0,10.76-5.89,16.53,16.53,0,0,0,10.62,5.88Zm158,83.09a16.55,16.55,0,0,0-4.69-7.49h9.37A16.53,16.53,0,0,0,302.11,186.67ZM481.3,110a13.48,13.48,0,0,1-4.65,1.83V94.46a17.9,17.9,0,0,1,5.45,1.63c.46.35,1.85,1.44,1.85,5.82C484,107.68,482,109.41,481.3,110ZM635,110a13.63,13.63,0,0,1-4.66,1.83V94.46a17.5,17.5,0,0,1,5.46,1.63c.45.35,1.85,1.44,1.85,5.82C637.61,107.68,635.61,109.41,635,110Zm160.62-12.8-4.15-7a16.28,16.28,0,0,0,4.22-4.82,16.5,16.5,0,0,0,4,4.7Z"/><path class="cls-9" d="M214.72,45.71H146.24a6.56,6.56,0,0,0-6.54,6.55V77.19a6.56,6.56,0,0,0,6.54,6.55h1.34a6.56,6.56,0,0,1,6.55,6.54V107a6.57,6.57,0,0,1-6.55,6.55H119.29a6.57,6.57,0,0,1-6.55-6.55V90.28a6.56,6.56,0,0,1,6.55-6.54h1.46a6.57,6.57,0,0,0,6.55-6.55V52.26a6.57,6.57,0,0,0-6.55-6.55H52.25a6.57,6.57,0,0,0-6.54,6.55V77.19a6.57,6.57,0,0,0,6.54,6.55h1.47a6.57,6.57,0,0,1,6.56,6.54v87.39a6.58,6.58,0,0,1-6.56,6.55H52.25a6.56,6.56,0,0,0-6.54,6.55v25.89a6.57,6.57,0,0,0,6.54,6.55h68.5a6.57,6.57,0,0,0,6.55-6.55V190.77a6.56,6.56,0,0,0-6.55-6.55h-1.46a6.57,6.57,0,0,1-6.55-6.55V159.24a6.56,6.56,0,0,1,6.55-6.55h28.29a6.56,6.56,0,0,1,6.55,6.55v18.43a6.57,6.57,0,0,1-6.55,6.55h-1.34a6.56,6.56,0,0,0-6.54,6.55v25.89a6.56,6.56,0,0,0,6.54,6.55h68.48a6.58,6.58,0,0,0,6.57-6.55V190.77a6.58,6.58,0,0,0-6.57-6.55h-1.44a6.58,6.58,0,0,1-6.57-6.55V90.28a6.57,6.57,0,0,1,6.57-6.54h1.44a6.58,6.58,0,0,0,6.57-6.55V52.26A6.58,6.58,0,0,0,214.72,45.71Z"/><path class="cls-9" d="M383.83,184.82h0a9,9,0,0,1-8.23-6.33L352.11,90.07A4.78,4.78,0,0,1,357,83.74h.38a6.57,6.57,0,0,0,6.55-6.55V52.26a6.57,6.57,0,0,0-6.55-6.55H264.79a6.57,6.57,0,0,0-6.55,6.55V77.19a6.57,6.57,0,0,0,6.55,6.55h.38c3.6,0,5.71,2.82,4.66,6.27l-26.66,88.54a9.3,9.3,0,0,1-8.33,6.27,6.52,6.52,0,0,0-6.44,6.55v25.29a6.57,6.57,0,0,0,6.55,6.55h51.28a6.57,6.57,0,0,0,6.55-6.55V191.37a6.57,6.57,0,0,0-6.55-6.55h-2.66a4.73,4.73,0,0,1-4.8-6.31l.83-3a9.13,9.13,0,0,1,8.3-6.31h29.86a8.64,8.64,0,0,1,8,6.38l.67,2.88a5,5,0,0,1-5.08,6.38H318a6.56,6.56,0,0,0-6.54,6.55v25.29a6.56,6.56,0,0,0,6.54,6.55h65.85a6.57,6.57,0,0,0,6.55-6.55V191.37A6.57,6.57,0,0,0,383.83,184.82ZM310.06,133H298.73a4.71,4.71,0,0,1-4.78-6.3L300,105.08c1-3.47,2.45-8.69,3.28-11.62l.6-2.68.6-2.69c.57-3.06,1.51-2.65,2.11.9,0,0,.12.78.6,3.47l.49,2.69c.46,2,1.52,6.5,2.34,10l5.06,21.43A5,5,0,0,1,310.06,133Z"/><path class="cls-9" d="M493.11,46.61a113.78,113.78,0,0,0-13-.9h-76.2a6.57,6.57,0,0,0-6.55,6.55V77.19a6.57,6.57,0,0,0,6.55,6.55h1.46a6.56,6.56,0,0,1,6.55,6.54v87.39a6.57,6.57,0,0,1-6.55,6.55h-1.46a6.57,6.57,0,0,0-6.55,6.55v25.89a6.57,6.57,0,0,0,6.55,6.55h71a6.57,6.57,0,0,0,6.55-6.55V190.77a6.56,6.56,0,0,0-6.55-6.55h-1.71a6.56,6.56,0,0,1-6.54-6.55V166.46a6.56,6.56,0,0,1,6.54-6.55h1.47a123.55,123.55,0,0,0,13-.84s31.46-4.09,42.6-14S547,120.76,547,101.67q0-27.21-15.52-41.58C521.16,50.5,493.11,46.61,493.11,46.61Zm-5.28,70.94c-4.1,3.53-11.43,4.47-11.43,4.47-3.58.45-7.24.82-8.14.82s-1.61-2.94-1.61-6.54v-26c0-3.6.89-6.54,2-6.54s4.91.31,8.5.69c0,0,7.31.79,11.11,3.76S494,95.73,494,101.91Q494,112.26,487.83,117.55Z"/><path class="cls-9" d="M646.77,46.61a114.11,114.11,0,0,0-13-.9h-76.2A6.56,6.56,0,0,0,551,52.26V77.19a6.56,6.56,0,0,0,6.54,6.55H559a6.56,6.56,0,0,1,6.54,6.54v87.39a6.56,6.56,0,0,1-6.54,6.55h-1.47a6.56,6.56,0,0,0-6.54,6.55v25.89a6.56,6.56,0,0,0,6.54,6.55h71a6.57,6.57,0,0,0,6.55-6.55V190.77a6.56,6.56,0,0,0-6.55-6.55h-1.7a6.57,6.57,0,0,1-6.55-6.55V166.46a6.56,6.56,0,0,1,6.55-6.55h1.46a123.57,123.57,0,0,0,13.05-.84s31.45-4.09,42.6-14,16.73-24.35,16.73-43.44q0-27.21-15.53-41.58C674.81,50.5,646.77,46.61,646.77,46.61Zm-5.29,70.94c-4.1,3.53-11.43,4.47-11.43,4.47-3.57.45-7.24.82-8.13.82s-1.62-2.94-1.62-6.54v-26c0-3.6.9-6.54,2-6.54s4.91.31,8.5.69c0,0,7.3.79,11.11,3.76s5.71,7.54,5.71,13.72C647.61,108.81,645.58,114,641.48,117.55Z"/><path class="cls-9" d="M857.78,45.71H810a6.56,6.56,0,0,0-6.54,6.55V77c0,3.6,2.6,6.54,5.78,6.54s4.31,2.56,2.5,5.68L799,111.27c-1.8,3.12-4.78,3.15-6.62.06L779.12,89.12c-1.85-3.1-.62-5.63,2.72-5.63A6.33,6.33,0,0,0,787.91,77V52.26a6.57,6.57,0,0,0-6.55-6.55H711.19a6.57,6.57,0,0,0-6.55,6.55V77c0,3.6,2.43,6.54,5.42,6.54s7,2.48,9,5.51l35.75,55.54a26.12,26.12,0,0,1,3.55,12.05v21.08a6.57,6.57,0,0,1-6.55,6.55h-5.67a6.56,6.56,0,0,0-6.54,6.55v25.89a6.56,6.56,0,0,0,6.54,6.55h78.6a6.58,6.58,0,0,0,6.55-6.55V190.77a6.57,6.57,0,0,0-6.55-6.55h-5.56a6.56,6.56,0,0,1-6.54-6.55V156.59A27.59,27.59,0,0,1,816,144.46l34.07-55.39c1.89-3.06,5.86-5.58,8.85-5.58s5.41-2.94,5.41-6.54V52.26A6.57,6.57,0,0,0,857.78,45.71Z"/></g></g></g></svg>