<svg xmlns="http://www.w3.org/2000/svg" viewBox="0 0 584.37 493.72"><defs><style>.cls-1{isolation:isolate;}.cls-2{fill:#ffa3bc;mix-blend-mode:multiply;}.cls-3{fill:#fff;}.cls-4{fill:#636466;}.cls-5{fill:#ff0001;}.cls-6{fill:#68182b;}.cls-7{fill:#ff525b;}</style></defs><g class="cls-1"><g id="圖層_2" data-name="圖層 2"><g id="Layer_2" data-name="Layer 2"><path class="cls-2" d="M583,263.47c-4.71-54-9.58-109.84-23.23-163.25C544.62,40.81,493.37,9.94,422.71,17.63c-.23,0-.46.05-.68.09q-34.42,4.46-68.85,9L146.3,54c-30.88,4.07-65.89,8.69-95.72,34.09-26,22.15-37.25,56.23-33.49,101.31,3.73,44.7,10,88.69,18.22,141,3,19.19,6.45,40.93,20.86,63,18.15,27.76,51.69,46.06,87.52,47.77a156,156,0,0,0,28.16-1.42c7.55-1,14.81-2.32,21.82-3.61,6.5-1.2,12.64-2.33,18.55-3.11a101.9,101.9,0,0,1,14.33-1c11.62.16,31.79,18.55,43.85,29.54,2.62,2.4,5.16,4.7,7.6,6.87,13.43,11.92,31.82,28.25,57.45,24.88,13-1.72,24.63-8.27,34.56-19.48,9.31-10.5,16.56-21.51,23.58-32.15,14.54-22.05,23.55-34.68,39.7-37.8,2.93-.56,6.12-1.07,9.76-1.55,5.35-.71,10.74-1.23,16.12-1.77,6.06-.6,12.1-1.2,18.08-2h0c18.19-2.4,41.83-7.14,63.47-22.64,31.18-22.36,46.89-60,43.08-103.28Z"/><path class="cls-3" d="M545.67,86.1C530.5,26.7,479.25-4.18,408.59,3.52l-.68.08q-34.43,4.47-68.85,9L132.18,39.91C101.3,44,66.3,48.6,36.46,74,10.48,96.15-.79,130.23,3,175.31,6.7,220,13,264,21.2,316.29c3,19.18,6.45,40.92,20.85,62.94C60.2,407,93.74,425.29,129.58,427a157.73,157.73,0,0,0,28.15-1.42c7.55-1,14.81-2.33,21.83-3.62,6.5-1.2,12.64-2.33,18.54-3.11a100.35,100.35,0,0,1,14.33-1c11.62.15,31.8,18.55,43.85,29.53,2.63,2.4,5.16,4.7,7.6,6.87,13.43,11.92,31.82,28.25,57.45,24.88,13-1.71,24.64-8.27,34.56-19.48,9.31-10.5,16.56-21.5,23.58-32.14C394,405.47,403,392.84,419.18,389.72c2.92-.56,6.11-1.07,9.75-1.55,5.36-.7,10.74-1.23,16.12-1.76,6.06-.61,12.11-1.21,18.09-2h0c18.19-2.39,41.84-7.14,63.47-22.64,31.18-22.35,46.89-60,43.08-103.28l-.8-9.13C564.18,195.35,559.31,139.52,545.67,86.1Z"/><path class="cls-4" d="M314.54,482c-.58,0-1.15,0-1.72,0a2.36,2.36,0,0,1-2.28-2.43,2.53,2.53,0,0,1,2.43-2.27c1.48,0,3,0,4.49-.06a2.35,2.35,0,1,1,.27,4.7C316.66,481.92,315.6,482,314.54,482ZM299,479.53a2.43,2.43,0,0,1-.7-.11q-2.35-.75-4.61-1.67a2.35,2.35,0,1,1,1.78-4.35c1.38.56,2.79,1.08,4.24,1.53a2.35,2.35,0,0,1-.71,4.6Zm32.36-.41a2.36,2.36,0,0,1-.77-4.58c1.41-.49,2.79-1.05,4.16-1.67a2.36,2.36,0,0,1,2,4.29c-1.5.67-3,1.29-4.56,1.82A2.14,2.14,0,0,1,331.39,479.12Zm-49.21-7.84a2.31,2.31,0,0,1-1.29-.38c-1.36-.9-2.67-1.82-4-2.76a2.35,2.35,0,0,1,2.77-3.8c1.23.9,2.49,1.78,3.77,2.62a2.35,2.35,0,0,1-1.29,4.32Zm65.52-1.37a2.37,2.37,0,0,1-1.83-.87,2.35,2.35,0,0,1,.35-3.31c1.16-.94,2.3-1.93,3.42-3a2.35,2.35,0,0,1,3.21,3.44c-1.2,1.13-2.42,2.19-3.67,3.2A2.3,2.3,0,0,1,347.7,469.91Zm-80.34-10.22a2.35,2.35,0,0,1-1.55-.58l-3.26-2.87a2.54,2.54,0,0,1-.35-3.44,2.19,2.19,0,0,1,3.16-.36,1.45,1.45,0,0,1,.18.17l3.36,2.95a2.35,2.35,0,0,1,.23,3.32A2.32,2.32,0,0,1,267.36,459.69Zm93.34-3.34a2.32,2.32,0,0,1-1.48-.53,2.35,2.35,0,0,1-.35-3.31c1-1.21,1.94-2.42,2.88-3.65a2.35,2.35,0,0,1,3.73,2.87q-1.44,1.88-3,3.74A2.35,2.35,0,0,1,360.7,456.35ZM253.36,447.1a2.34,2.34,0,0,1-1.58-.61l-3.49-3.14a2.35,2.35,0,1,1,3.14-3.51l3.51,3.17a2.35,2.35,0,0,1-1.58,4.09Zm118.53-5.89a2.35,2.35,0,0,1-1.94-3.68l2.63-3.88a2.35,2.35,0,1,1,3.9,2.63l-2.65,3.91A2.35,2.35,0,0,1,371.89,441.21Zm-132.77-6.44a2.37,2.37,0,0,1-1.48-.52q-1.81-1.47-3.65-2.88a2.35,2.35,0,0,1,2.86-3.74c1.25,1,2.51,1.95,3.75,3a2.35,2.35,0,0,1-1.48,4.18ZM131,429.42h-.09l-1.43-.06q-1.68-.09-3.36-.21a2.37,2.37,0,0,1-2.17-2.53,2.34,2.34,0,0,1,2.53-2.17c1.07.09,2.15.15,3.23.21l1.38,0a2.36,2.36,0,0,1-.09,4.71Zm14.1-.22a2.36,2.36,0,0,1-.14-4.71c1.52-.09,3.05-.21,4.62-.35a2.35,2.35,0,1,1,.43,4.68c-1.61.15-3.19.27-4.76.37Zm-32.77-2a2.42,2.42,0,0,1-.47-.05c-1.57-.31-3.13-.66-4.68-1a2.36,2.36,0,1,1,1.1-4.58c1.49.36,3,.69,4.51,1a2.35,2.35,0,0,1-.46,4.66Zm51.47-.17a2.35,2.35,0,0,1-.36-4.68c1.55-.24,3.1-.49,4.62-.75a2.36,2.36,0,0,1,.78,4.65c-1.55.25-3.1.51-4.67.75Zm218.55-1.52a2.35,2.35,0,0,1-1.95-3.66c.9-1.34,1.77-2.65,2.64-3.92a2.35,2.35,0,1,1,3.89,2.65q-1.29,1.89-2.62,3.88A2.35,2.35,0,0,1,382.33,425.55ZM223.69,424a2.32,2.32,0,0,1-1.13-.29,43.07,43.07,0,0,0-4-1.95,2.35,2.35,0,0,1,1.82-4.34,47.52,47.52,0,0,1,4.45,2.17,2.35,2.35,0,0,1-1.13,4.41Zm-41.37-.18a2.35,2.35,0,0,1-.42-4.67l4.64-.83a2.35,2.35,0,1,1,.83,4.63l-4.62.84Zm-88.1-1.71a2.37,2.37,0,0,1-.82-.15q-2.25-.84-4.46-1.77a2.35,2.35,0,1,1,1.82-4.33c1.41.59,2.84,1.16,4.28,1.69a2.35,2.35,0,0,1-.82,4.56Zm106.69-1.23a2.35,2.35,0,0,1-.26-4.69c1.67-.19,3.26-.33,4.78-.44a2.33,2.33,0,0,1,2.52,2.18,2.37,2.37,0,0,1-2.18,2.52q-2.19.15-4.59.42ZM77.19,414.14a2.23,2.23,0,0,1-1.16-.32c-1.39-.79-2.77-1.62-4.12-2.47a2.35,2.35,0,1,1,2.51-4c1.29.81,2.61,1.6,3.94,2.37a2.35,2.35,0,0,1-1.17,4.4Zm316-3.92a2.36,2.36,0,0,1-1.85-3.82c1-1.3,2.06-2.54,3.08-3.71a2.35,2.35,0,1,1,3.54,3.1c-1,1.11-1.94,2.29-2.93,3.53A2.33,2.33,0,0,1,393.23,410.22Zm-331.5-6.77a2.32,2.32,0,0,1-1.5-.55q-1.86-1.53-3.64-3.14a2.36,2.36,0,0,1,3.17-3.49q1.7,1.55,3.47,3a2.36,2.36,0,0,1-1.5,4.17Zm344.93-6.29a2.34,2.34,0,0,1-2-1.06,2.36,2.36,0,0,1,.67-3.26,39.25,39.25,0,0,1,4.36-2.47,2.35,2.35,0,0,1,2,4.23,34.38,34.38,0,0,0-3.82,2.17A2.29,2.29,0,0,1,406.66,397.16Zm17.65-6a2.35,2.35,0,0,1-.36-4.68c1.48-.23,3-.45,4.67-.67h0a2.35,2.35,0,0,1,1.22,4.51,2.58,2.58,0,0,1-.91.17c-1.29.2-2.81.41-4.25.64Zm-375.89-1a2.37,2.37,0,0,1-1.82-.85c-1-1.24-2-2.5-3-3.78a2.35,2.35,0,1,1,3.76-2.83c.92,1.22,1.87,2.43,2.84,3.6a2.35,2.35,0,0,1-1.8,3.86ZM443,389a2.35,2.35,0,0,1-.24-4.69l4.69-.47a2.35,2.35,0,0,1,.47,4.68l-4.68.47Zm18.71-2a2.35,2.35,0,0,1-.29-4.69l4.62-.62a2.35,2.35,0,1,1,.67,4.66l-4.7.63Zm18.57-3.09a2.36,2.36,0,0,1-.5-4.66c1.49-.32,3-.67,4.52-1a2.35,2.35,0,1,1,1.13,4.56q-2.35.58-4.65,1.08A2.2,2.2,0,0,1,480.28,383.86Zm18.11-5.11a2.35,2.35,0,0,1-.8-4.57c1.44-.51,2.88-1.06,4.32-1.63a2.35,2.35,0,1,1,1.75,4.36c-1.49.6-3,1.17-4.48,1.7A2.44,2.44,0,0,1,498.39,378.75Zm-460.53-4.1a2.36,2.36,0,0,1-2.06-1.21c-.79-1.41-1.54-2.83-2.25-4.24a2.36,2.36,0,0,1,4.21-2.12c.68,1.36,1.4,2.71,2.15,4.07a2.36,2.36,0,0,1-2,3.5Zm477.69-3.57a2.36,2.36,0,0,1-1.13-4.42q2-1.1,4-2.29a2.35,2.35,0,1,1,2.44,4c-1.38.84-2.78,1.63-4.17,2.4A2.27,2.27,0,0,1,515.55,371.08Zm15.64-10.44a2.35,2.35,0,0,1-1.48-4.18q1.8-1.44,3.51-3a2.35,2.35,0,0,1,3.13,3.51q-1.8,1.61-3.69,3.12A2.32,2.32,0,0,1,531.19,360.64Zm-501.1-3.11A2.35,2.35,0,0,1,27.88,356c-.55-1.52-1.06-3-1.55-4.54A2.35,2.35,0,0,1,30.81,350c.47,1.46,1,2.91,1.49,4.37a2.35,2.35,0,0,1-1.41,3A2.22,2.22,0,0,1,30.09,357.53Zm514.57-10a2.35,2.35,0,0,1-1.79-3.88q1.49-1.74,2.9-3.56a2.35,2.35,0,1,1,3.72,2.87c-1,1.28-2,2.52-3,3.74A2.33,2.33,0,0,1,544.66,347.53ZM24.93,339.44a2.36,2.36,0,0,1-2.3-1.84c-.34-1.56-.66-3.11-1-4.66a2.35,2.35,0,0,1,4.62-.91c.29,1.51.61,3,.95,4.55a2.36,2.36,0,0,1-1.79,2.81A2.21,2.21,0,0,1,24.93,339.44Zm530.53-7.28a2.37,2.37,0,0,1-1.17-.32,2.34,2.34,0,0,1-.87-3.21c.76-1.32,1.49-2.67,2.19-4a2.35,2.35,0,1,1,4.18,2.15c-.73,1.43-1.5,2.84-2.29,4.22A2.36,2.36,0,0,1,555.46,332.16ZM21.55,320.93a2.37,2.37,0,0,1-2.32-2l-.73-4.65a2.35,2.35,0,1,1,4.65-.73l.73,4.65a2.36,2.36,0,0,1-2,2.69A2.22,2.22,0,0,1,21.55,320.93Zm541.76-5.85a2.25,2.25,0,0,1-.8-.14,2.34,2.34,0,0,1-1.42-3c.52-1.44,1-2.9,1.46-4.37a2.36,2.36,0,0,1,4.5,1.4q-.72,2.29-1.53,4.55A2.34,2.34,0,0,1,563.31,315.08ZM18.65,302.33a2.35,2.35,0,0,1-2.32-2l-.72-4.65a2.35,2.35,0,0,1,4.65-.71l.72,4.65a2.35,2.35,0,0,1-2,2.68Zm549.52-5.41a2.09,2.09,0,0,1-.43,0,2.36,2.36,0,0,1-1.89-2.74c.28-1.5.53-3,.75-4.55a2.4,2.4,0,0,1,2.66-2,2.34,2.34,0,0,1,2,2.66c-.22,1.59-.48,3.17-.77,4.74A2.35,2.35,0,0,1,568.17,296.92ZM15.82,283.73a2.34,2.34,0,0,1-2.32-2l-.7-4.66a2.36,2.36,0,0,1,4.66-.69l.69,4.65a2.35,2.35,0,0,1-2,2.68A2,2,0,0,1,15.82,283.73Zm554.36-5.5h-.09a2.36,2.36,0,0,1-2.27-2.44c.06-1.53.08-3.07.08-4.62a2.36,2.36,0,0,1,4.71,0c0,1.61,0,3.2-.09,4.79A2.35,2.35,0,0,1,570.18,278.23ZM13.11,265.1a2.36,2.36,0,0,1-2.33-2l-.66-4.67a2.35,2.35,0,0,1,4.66-.65l.66,4.65a2.36,2.36,0,0,1-2,2.66Zm556.46-5.68a2.35,2.35,0,0,1-2.34-2.15l-.41-4.68A2.34,2.34,0,0,1,569,250a2.37,2.37,0,0,1,2.54,2.13l.41,4.69a2.34,2.34,0,0,1-2.13,2.55Zm-559-13a2.35,2.35,0,0,1-2.33-2l-.61-4.67a2.35,2.35,0,1,1,4.66-.61l.61,4.66a2.35,2.35,0,0,1-2,2.64A1.62,1.62,0,0,1,10.54,246.45Zm557.39-5.78a2.37,2.37,0,0,1-2.35-2.15l-.41-4.68a2.35,2.35,0,0,1,4.69-.42l.41,4.69a2.35,2.35,0,0,1-2.14,2.55ZM8.16,227.79a2.36,2.36,0,0,1-2.33-2.07L5.26,221a2.35,2.35,0,0,1,2.06-2.61,2.33,2.33,0,0,1,2.62,2.06l.56,4.65a2.36,2.36,0,0,1-2.05,2.63Zm558.08-5.86a2.34,2.34,0,0,1-2.34-2.13l-.44-4.68a2.36,2.36,0,0,1,2.12-2.57,2.39,2.39,0,0,1,2.56,2.13l.44,4.69a2.35,2.35,0,0,1-2.12,2.56ZM6,209.1A2.36,2.36,0,0,1,3.66,207l-.5-4.68a2.36,2.36,0,0,1,2.1-2.59,2.31,2.31,0,0,1,2.58,2.1l.5,4.66a2.34,2.34,0,0,1-2.08,2.59Zm558.42-5.9a2.36,2.36,0,0,1-2.34-2.12l-.48-4.67a2.36,2.36,0,0,1,2.1-2.58,2.32,2.32,0,0,1,2.58,2.09l.49,4.69a2.34,2.34,0,0,1-2.1,2.57ZM4.1,190.38a2.35,2.35,0,0,1-2.34-2.13l-.43-4.69A2.35,2.35,0,1,1,6,183.13l.43,4.68a2.34,2.34,0,0,1-2.12,2.56Zm558.3-5.89a2.35,2.35,0,0,1-2.33-2.08l-.55-4.67a2.35,2.35,0,0,1,2.06-2.61,2.32,2.32,0,0,1,2.61,2.05l.55,4.69a2.36,2.36,0,0,1-2.07,2.61ZM2.55,171.63A2.36,2.36,0,0,1,.2,169.4c-.08-1.6-.15-3.18-.2-4.75a2.36,2.36,0,0,1,2.28-2.43A2.38,2.38,0,0,1,4.7,164.5c0,1.53.12,3.08.2,4.65a2.34,2.34,0,0,1-2.22,2.47Zm557.55-5.82a2.36,2.36,0,0,1-2.33-2l-.63-4.66a2.36,2.36,0,0,1,2-2.65,2.33,2.33,0,0,1,2.65,2l.63,4.67a2.35,2.35,0,0,1-2,2.65Zm-557.62-13H2.36a2.35,2.35,0,0,1-2.24-2.46c.08-1.61.18-3.2.31-4.77a2.35,2.35,0,1,1,4.69.38c-.12,1.52-.22,3.07-.3,4.62A2.35,2.35,0,0,1,2.48,152.82Zm555-5.65a2.35,2.35,0,0,1-2.33-2l-.73-4.64a2.35,2.35,0,1,1,4.65-.74l.73,4.66a2.36,2.36,0,0,1-2,2.69Zm-552.85-13a3.13,3.13,0,0,1-.43,0,2.35,2.35,0,0,1-1.89-2.74c.29-1.59.61-3.15,1-4.7A2.38,2.38,0,0,1,6,124.87a2.35,2.35,0,0,1,1.79,2.8c-.34,1.49-.64,3-.92,4.53A2.36,2.36,0,0,1,4.59,134.13Zm549.74-5.52a2.35,2.35,0,0,1-2.31-1.94l-.85-4.61a2.35,2.35,0,0,1,4.62-.87l.86,4.65a2.35,2.35,0,0,1-1.9,2.73A3,3,0,0,1,554.33,128.61ZM9.41,116a2.42,2.42,0,0,1-.79-.13,2.36,2.36,0,0,1-1.42-3q.81-2.28,1.72-4.49a2.35,2.35,0,1,1,4.35,1.78c-.58,1.41-1.13,2.84-1.64,4.29A2.35,2.35,0,0,1,9.41,116Zm541.31-5.83a2.35,2.35,0,0,1-2.3-1.87l-1-4.58a2.35,2.35,0,0,1,4.6-1l1,4.62a2.35,2.35,0,0,1-1.81,2.79A2.81,2.81,0,0,1,550.72,110.13ZM17.38,98.94a2.29,2.29,0,0,1-1.2-.33,2.35,2.35,0,0,1-.82-3.22q1.23-2.08,2.57-4.08a2.35,2.35,0,0,1,3.92,2.61c-.85,1.27-1.67,2.55-2.44,3.87A2.37,2.37,0,0,1,17.38,98.94Zm529.13-7.16A2.36,2.36,0,0,1,544.22,90l-.83-3.31c-.39-1.51-.8-3-1.22-4.47a2.35,2.35,0,1,1,4.51-1.31c.45,1.52.87,3.06,1.27,4.61l.84,3.35a2.35,2.35,0,0,1-1.72,2.84A2.2,2.2,0,0,1,546.51,91.78ZM28.62,83.9a2.36,2.36,0,0,1-1.73-4q1.63-1.77,3.36-3.46a2.35,2.35,0,1,1,3.29,3.37c-1.1,1.06-2.16,2.16-3.2,3.28A2.34,2.34,0,0,1,28.62,83.9ZM42.67,71.42a2.38,2.38,0,0,1-1.9-1,2.35,2.35,0,0,1,.5-3.29c1.29-1,2.59-1.88,3.9-2.78a2.36,2.36,0,0,1,2.66,3.89c-1.26.86-2.52,1.76-3.77,2.68A2.41,2.41,0,0,1,42.67,71.42Zm497-.79a2.34,2.34,0,0,1-2.17-1.43c-.6-1.42-1.23-2.83-1.88-4.2a2.35,2.35,0,1,1,4.25-2c.68,1.45,1.34,2.9,2,4.38a2.37,2.37,0,0,1-1.25,3.09A2.47,2.47,0,0,1,539.69,70.63ZM58.6,61.43A2.35,2.35,0,0,1,57.51,57q2.13-1.11,4.29-2.13a2.35,2.35,0,1,1,2,4.24c-1.38.67-2.76,1.35-4.13,2.07A2.36,2.36,0,0,1,58.6,61.43ZM530.93,54a2.34,2.34,0,0,1-2-1.08c-.84-1.29-1.69-2.56-2.58-3.81a2.35,2.35,0,1,1,3.84-2.72c.93,1.3,1.82,2.63,2.69,4a2.34,2.34,0,0,1-.7,3.24A2.27,2.27,0,0,1,530.93,54ZM75.84,53.93a2.35,2.35,0,0,1-.78-4.57q2.25-.8,4.52-1.52A2.35,2.35,0,1,1,81,52.32c-1.47.47-2.93,1-4.4,1.48A2.36,2.36,0,0,1,75.84,53.93ZM93.9,48.66A2.35,2.35,0,0,1,93.36,44c1.55-.36,3.1-.71,4.64-1a2.38,2.38,0,0,1,2.79,1.81A2.35,2.35,0,0,1,99,47.58c-1.51.32-3,.66-4.54,1A2.48,2.48,0,0,1,93.9,48.66Zm18.46-3.6a2.35,2.35,0,0,1-.37-4.67l4.68-.72a2.35,2.35,0,1,1,.69,4.65l-4.63.72ZM131,42.42a2.36,2.36,0,0,1-.33-4.69l4.69-.62a2.36,2.36,0,0,1,.62,4.67l-4.65.61ZM149.66,40a2.35,2.35,0,0,1-.3-4.68l4.66-.62a2.36,2.36,0,0,1,.62,4.67l-4.67.62Zm369.69-.75a2.34,2.34,0,0,1-1.71-.73q-1.57-1.68-3.23-3.27a2.35,2.35,0,1,1,3.27-3.38q1.73,1.66,3.38,3.41a2.35,2.35,0,0,1-1.71,4Zm-351-1.71a2.35,2.35,0,0,1-.3-4.69l4.66-.61a2.36,2.36,0,0,1,.62,4.67l-4.67.61A1.62,1.62,0,0,1,168.32,37.49ZM187,35a2.35,2.35,0,0,1-.3-4.69l4.66-.62a2.36,2.36,0,0,1,.62,4.67l-4.67.62Zm18.66-2.47a2.35,2.35,0,0,1-.3-4.68l4.67-.62a2.35,2.35,0,0,1,.61,4.67l-4.67.62Zm18.67-2.46a2.36,2.36,0,0,1-.31-4.69l4.67-.61a2.35,2.35,0,1,1,.61,4.67l-4.66.61A1.67,1.67,0,0,1,224.31,30.1ZM243,27.64a2.36,2.36,0,0,1-.31-4.69l4.67-.62a2.35,2.35,0,1,1,.61,4.67l-4.66.62Zm262.26-.82a2.37,2.37,0,0,1-1.38-.45Q502,25,500.08,23.77a2.35,2.35,0,1,1,2.57-3.94q2,1.32,4,2.73a2.36,2.36,0,0,1-1.39,4.26Zm-243.6-1.65a2.35,2.35,0,0,1-.31-4.68l4.67-.62a2.35,2.35,0,1,1,.61,4.67l-4.66.62Zm18.66-2.46A2.35,2.35,0,0,1,280,18l4.66-.61a2.36,2.36,0,0,1,.62,4.67l-4.67.61A1.62,1.62,0,0,1,280.29,22.71ZM299,20.25a2.35,2.35,0,0,1-.3-4.69l4.66-.61a2.35,2.35,0,0,1,.62,4.66l-4.67.62Zm18.67-2.46a2.36,2.36,0,0,1-.31-4.69l4.66-.62a2.36,2.36,0,0,1,.62,4.67l-4.66.62Zm171.46-.58a2.39,2.39,0,0,1-1-.22q-2.07-1-4.2-1.92a2.35,2.35,0,1,1,1.87-4.32c1.47.64,2.93,1.3,4.36,2a2.35,2.35,0,0,1-1,4.47Zm-152.8-1.89a2.36,2.36,0,0,1-.31-4.69l4.67-.61a2.32,2.32,0,0,1,2.64,2,2.36,2.36,0,0,1-2,2.65l-4.66.61A1.67,1.67,0,0,1,336.28,15.32Zm18.66-2.46a2.35,2.35,0,0,1-.31-4.68l4.67-.62a2.35,2.35,0,0,1,.61,4.67l-4.66.61A1.62,1.62,0,0,1,354.94,12.86Zm116.6-2.39a2.22,2.22,0,0,1-.67-.1c-1.47-.43-2.95-.84-4.45-1.23a2.35,2.35,0,0,1,1.17-4.56c1.56.41,3.1.83,4.61,1.28a2.35,2.35,0,0,1-.66,4.61Zm-97.94-.05a2.35,2.35,0,0,1-.31-4.68L378,5.12a2.35,2.35,0,0,1,.6,4.67l-4.66.61A1.62,1.62,0,0,1,373.6,10.42ZM392.27,8a2.35,2.35,0,0,1-.3-4.69l4.66-.6a2.35,2.35,0,1,1,.61,4.67l-4.67.6A1.51,1.51,0,0,1,392.27,8Zm60.91-1.56-.35,0c-1.52-.22-3.05-.43-4.59-.61a2.35,2.35,0,1,1,.56-4.67c1.59.19,3.17.4,4.73.63a2.35,2.35,0,0,1-.35,4.68Zm-42.24-.8a2.35,2.35,0,0,1-.23-4.69c1.59-.16,3.18-.29,4.75-.41A2.31,2.31,0,0,1,418,2.69a2.36,2.36,0,0,1-2.17,2.53c-1.54.11-3.08.24-4.63.39Zm23.5-.84h-.07c-1.53,0-3.08-.07-4.64-.07a2.36,2.36,0,1,1,0-4.71h0c1.6,0,3.2,0,4.77.07A2.38,2.38,0,0,1,436.8,2.5,2.36,2.36,0,0,1,434.44,4.78Z"/><path class="cls-5" d="M316.72,444.1c-9.62,1.27-19.66-7.65-29.37-16.27-2.33-2.06-4.75-4.27-7.26-6.56-18.77-17.12-42.14-38.41-67.18-38.75a134.78,134.78,0,0,0-19.43,1.3c-6.79.89-13.67,2.16-20.32,3.38s-13.39,2.46-20,3.34a121.37,121.37,0,0,1-21.85,1.16c-24.71-1.19-47.56-13.37-59.63-31.82C61.39,344.23,58.82,328,56.11,310.79,48,259.28,41.84,216,38.2,172.38c-2.8-33.56,4.13-56.93,21.19-71.47C81.27,82.28,109.5,78.56,136.8,75l206.89-27.3q34.37-4.53,68.76-9c30.73-3.34,84.49-.49,99,56.2,12.92,50.6,17.66,105,22.25,157.51l.81,9.22c2.68,30.53-7.69,56.57-28.46,71.46-15.17,10.87-32.52,14.35-47.49,16.32h0c-5.61.74-11.28,1.31-17,1.87s-11.52,1.14-17.25,1.89c-4.34.58-8.21,1.2-11.83,1.89-31.56,6.09-47.31,30-62.53,53.06-6.33,9.61-12.88,19.54-20.51,28.16C325.26,441,321.09,443.52,316.72,444.1Z"/><path class="cls-6" d="M513.35,94.36C500.9,45.56,458.7,31.61,412.2,36.67Q323,48.24,233.82,60.15L136.55,73c-27.92,3.68-56.21,7.47-78.46,26.42C36.75,117.57,34,146.46,36.21,172.54c3.86,46.35,10.69,92.63,17.93,138.55C57,329.2,59.74,345.36,70,361c13.21,20.19,37.79,31.6,61.21,32.71,27.12,1.31,54.38-9.53,81.71-9.17,27.59.37,53.72,27.57,73.14,44.81,14.81,13.15,29.25,25.91,44.91,8.22C357.1,408,369.24,365.39,412.86,357c32.19-6.21,66.59-2.44,94.33-22.32,23.82-17.07,31.71-45.57,29.28-73.25C531.63,206.29,527.08,148.1,513.35,94.36Zm11.9,149.44c3,27.93,4.27,51.23-14.72,74.81-22.3,27.68-66.9,24.28-98.9,29-21.93,3.26-36.45,15.28-50.51,31.58-8.39,9.71-15.68,20.43-22.86,31.06-8.5,12.57-17.44,33.94-35.15,21.15-20.2-14.58-37.05-32.66-58.42-45.93-21-13-42.19-10.49-65.6-7.38-36.68,4.88-68.65,12.41-97.47-17.63-17.35-18.09-18-49.08-21.52-72.62-6.32-42.4-13.79-85.66-15.28-128.57-1.64-47,33.68-69.14,76.77-74.87Q267.48,65.06,413.43,46c49-5.34,83.73,12.3,93.3,61.69C515.42,152.54,520.3,198.42,525.25,243.8Z"/><path class="cls-3" d="M302.52,129.11C272,115.05,249,123.47,228.33,142.2c-24.79-12.75-49.19-14.92-75.06,6.57-29.42,24.44-19.54,73.51-3.66,101.89,9.39,16.78,25.77,28.71,41.17,39.47,14.53,10.16,33,25.93,50.88,29.82a23.9,23.9,0,0,0,10,.14l.12,0h.12a23.92,23.92,0,0,0,9.6-2.72c16.24-8.38,30-28.4,41.42-42C315,261,327.71,245.21,332.44,226.57,340.43,195.06,337.26,145.1,302.52,129.11Z"/><path class="cls-3" d="M445.53,277.25l-55,7.25-3.85-27.68,12-1.58-11.78-89.42-11.21,1.48-2.57-19.47,20.52-24.89,19.46-2.56,5.18,39.3,5.35,40.68,6.68,50.71,11.6-1.53Z"/><path class="cls-7" d="M167.81,100c-1.81-.33-3.64-.6-5.49-.83-29.09-3.54-69.87,4.44-89.93,25.64-19.27,20.37-6,66.81,2,88.83a4.88,4.88,0,0,0,4,3.07,6.33,6.33,0,0,0,1.74,0c2.31-.26,4.43-1.78,4.5-4.45,1.28-28.33-3.77-62,21.44-81.42,7.69-5.93,16.77-9.14,26.18-11.7,11.1-2.32,22.31-4.92,32.53-9.57,1.37-.61,2.73-1.25,4.06-1.95a4.24,4.24,0,0,0,2.32-4.23A3.89,3.89,0,0,0,167.81,100Z"/><path class="cls-7" d="M501.33,237.52a3,3,0,0,0-3.13-1.14,3.08,3.08,0,0,0-2.41,1.87,34.27,34.27,0,0,0-1.3,4.19c-3.5,12.81-1.75,26.94-5.58,39.77-5.86,19.69-22.34,25.07-38.49,33.27a32.33,32.33,0,0,0-5.18,2.79c-2.06,1.37-2.14,4.7-.54,6.48h0a3.73,3.73,0,0,0,1,.74l.33.16a1.63,1.63,0,0,0,.23.11l.64.16c.16,0,.28.12.45.14l.2,0c16.7,4.31,40.36-2.37,51.63-15.13C515.33,292.62,516.21,257.15,501.33,237.52Z"/></g></g></g></svg>