<svg xmlns="http://www.w3.org/2000/svg" viewBox="0 0 252.82 221.42"><defs><style>.cls-1{isolation:isolate;}.cls-2{fill:#ffa3bc;mix-blend-mode:multiply;}.cls-3{fill:#fff;}.cls-4{fill:#636466;}.cls-5{fill:#ff5671;}.cls-6{fill:#ff9a83;}</style></defs><g class="cls-1"><g id="圖層_2" data-name="圖層 2"><g id="Layer_2" data-name="Layer 2"><path class="cls-2" d="M198,17.81a67.32,67.32,0,0,0-13.52-1.34c-16.85,0-34.23,5.67-49.86,15.85C119,22.14,101.6,16.47,84.74,16.47a67.32,67.32,0,0,0-13.52,1.34c-43.57,9-59.9,56.6-53.52,99.05C23.15,153,58.54,183,69.25,191.38c21.85,17,40.48,30,64.7,30,23.06,0,43.3-12.21,66.61-30.53,10.58-8.32,45.54-38.24,50.93-74C257.87,74.41,241.54,26.76,198,17.81Z"/><path class="cls-3" d="M119.84,207.31c-24.23,0-42.86-13-64.71-30C44.42,168.92,9,138.87,3.59,102.74c-6.39-42.45,9.94-90.1,53.52-99A67.17,67.17,0,0,1,70.63,2.35c16.85,0,34.22,5.67,49.84,15.85C136.1,8,153.48,2.35,170.33,2.35a67.32,67.32,0,0,1,13.52,1.34c43.57,9,59.91,56.6,53.52,99-5.39,35.8-40.35,65.73-50.93,74-23.3,18.33-43.55,30.54-66.6,30.54Z"/><path class="cls-4" d="M119.84,209.66c-1.65,0-3.27-.06-4.87-.17a2.35,2.35,0,0,1-2.18-2.51,2.42,2.42,0,0,1,2.51-2.19c1.49.11,3,.16,4.54.16a2.36,2.36,0,0,1,0,4.71Zm12.69-1.25a2.35,2.35,0,0,1-.45-4.66c1.48-.29,3-.64,4.43-1a2.35,2.35,0,0,1,1.21,4.55c-1.57.42-3.15.79-4.73,1.1A2.38,2.38,0,0,1,132.53,208.41ZM101.28,207a2.5,2.5,0,0,1-.66-.09c-1.55-.45-3.09-1-4.62-1.51A2.36,2.36,0,0,1,97.61,201c1.43.52,2.87,1,4.33,1.42a2.35,2.35,0,0,1-.66,4.61Zm49.09-4.45a2.35,2.35,0,0,1-1-4.49q2.07-.95,4.15-2a2.35,2.35,0,0,1,2.14,4.19q-2.16,1.1-4.32,2.09A2.29,2.29,0,0,1,150.37,202.54ZM84,199.63a2.32,2.32,0,0,1-1.13-.29c-1.39-.77-2.77-1.57-4.16-2.4a2.35,2.35,0,0,1,2.43-4c1.33.8,2.67,1.57,4,2.31A2.35,2.35,0,0,1,84,199.63Zm82.79-6.25a2.35,2.35,0,0,1-1.28-4.32q1.92-1.26,3.87-2.59a2.35,2.35,0,1,1,2.65,3.89q-2,1.37-4,2.64A2.3,2.3,0,0,1,166.79,193.38Zm-98.61-3.92a2.33,2.33,0,0,1-1.37-.44c-1.27-.91-2.54-1.85-3.83-2.8a2.36,2.36,0,0,1,2.81-3.78q1.89,1.41,3.77,2.76a2.35,2.35,0,0,1-1.38,4.26Zm114-7a2.38,2.38,0,0,1-1.87-.92,2.36,2.36,0,0,1,.44-3.3l3.7-2.87a2.35,2.35,0,0,1,2.9,3.7l-3.74,2.9A2.32,2.32,0,0,1,182.13,182.48Zm-128.94-4.4a2.3,2.3,0,0,1-1.48-.53c-1.09-.87-2.32-1.89-3.67-3a2.35,2.35,0,1,1,3-3.6c1.33,1.12,2.53,2.12,3.6,3a2.35,2.35,0,0,1-1.48,4.18Zm143.43-7.63a2.35,2.35,0,0,1-1.58-4.09c1.09-1,2.23-2.06,3.39-3.18a2.35,2.35,0,1,1,3.26,3.39q-1.8,1.73-3.48,3.26A2.31,2.31,0,0,1,196.62,170.45ZM39.13,165.52a2.36,2.36,0,0,1-1.65-.67c-1.1-1.09-2.23-2.22-3.36-3.41a2.35,2.35,0,1,1,3.4-3.25q1.65,1.73,3.26,3.3a2.35,2.35,0,0,1-1.65,4Zm170.73-8.46a2.35,2.35,0,0,1-1.76-3.92c1-1.14,2-2.31,3.05-3.51a2.35,2.35,0,1,1,3.6,3c-1,1.23-2.08,2.44-3.13,3.61A2.35,2.35,0,0,1,209.86,157.06ZM26.43,151.62a2.34,2.34,0,0,1-1.82-.86q-1.5-1.84-3-3.76a2.35,2.35,0,1,1,3.74-2.86c.95,1.25,1.91,2.45,2.88,3.64a2.36,2.36,0,0,1-.34,3.31A2.33,2.33,0,0,1,26.43,151.62Zm195.09-9.35a2.35,2.35,0,0,1-1.94-3.68c.87-1.27,1.72-2.55,2.55-3.86a2.35,2.35,0,0,1,4,2.52c-.85,1.36-1.74,2.69-2.64,4A2.32,2.32,0,0,1,221.52,142.27Zm-206-6a2.34,2.34,0,0,1-2-1.14c-.83-1.36-1.63-2.75-2.4-4.15a2.35,2.35,0,1,1,4.12-2.27c.74,1.34,1.51,2.68,2.3,4a2.35,2.35,0,0,1-2,3.57ZM230.91,126a2.48,2.48,0,0,1-1-.21,2.36,2.36,0,0,1-1.15-3.12c.64-1.4,1.25-2.8,1.82-4.22a2.35,2.35,0,0,1,4.37,1.75q-.9,2.25-1.92,4.43A2.33,2.33,0,0,1,230.91,126ZM7.3,119.38a2.36,2.36,0,0,1-2.21-1.54c-.56-1.51-1.07-3-1.54-4.6a2.36,2.36,0,0,1,4.51-1.36c.44,1.46.92,2.9,1.45,4.33a2.35,2.35,0,0,1-1.4,3A2.28,2.28,0,0,1,7.3,119.38Zm229.54-11.23a2.49,2.49,0,0,1-.47,0,2.36,2.36,0,0,1-1.85-2.77c.2-1,.37-2,.52-3l.22-1.55a2.41,2.41,0,0,1,2.66-2,2.35,2.35,0,0,1,2,2.66l-.23,1.6c-.16,1.07-.34,2.12-.55,3.18A2.35,2.35,0,0,1,236.84,108.15ZM3.05,101.1A2.35,2.35,0,0,1,.72,99C.54,97.43.38,95.84.26,94.24a2.35,2.35,0,0,1,2.17-2.53A2.43,2.43,0,0,1,5,93.88c.11,1.53.26,3.07.44,4.59a2.36,2.36,0,0,1-2.07,2.61ZM238.69,89.44h-.05a2.36,2.36,0,0,1-2.31-2.4l0-2.15,0-2.46a2.36,2.36,0,0,1,4.71-.1l0,2.55,0,2.25A2.36,2.36,0,0,1,238.69,89.44ZM2.35,82.31H2.26A2.36,2.36,0,0,1,0,79.86c.07-1.61.17-3.21.31-4.81A2.47,2.47,0,0,1,2.85,72.9,2.35,2.35,0,0,1,5,75.44c-.13,1.54-.22,3.07-.28,4.61A2.37,2.37,0,0,1,2.35,82.31ZM237.52,70.68a2.37,2.37,0,0,1-2.33-2c-.23-1.53-.47-3-.76-4.55a2.35,2.35,0,1,1,4.62-.87c.3,1.57.57,3.14.8,4.73a2.36,2.36,0,0,1-2,2.67ZM4.7,63.64a2.92,2.92,0,0,1-.5,0,2.35,2.35,0,0,1-1.8-2.8q.51-2.35,1.11-4.68A2.35,2.35,0,0,1,8.06,57.3c-.38,1.48-.74,3-1.06,4.48A2.35,2.35,0,0,1,4.7,63.64ZM233.16,52.4a2.37,2.37,0,0,1-2.23-1.59c-.5-1.45-1-2.89-1.59-4.3a2.35,2.35,0,1,1,4.37-1.75q.89,2.24,1.67,4.52a2.34,2.34,0,0,1-1.46,3A2.25,2.25,0,0,1,233.16,52.4ZM10.38,45.73a2.2,2.2,0,0,1-.93-.2,2.34,2.34,0,0,1-1.23-3.09q1-2.23,2-4.38A2.33,2.33,0,0,1,13.43,37a2.36,2.36,0,0,1,1,3.16c-.68,1.35-1.32,2.74-1.93,4.14A2.36,2.36,0,0,1,10.38,45.73ZM225.2,35.39a2.34,2.34,0,0,1-2-1.12c-.8-1.29-1.64-2.56-2.51-3.79a2.35,2.35,0,1,1,3.83-2.73c.94,1.32,1.83,2.66,2.68,4.05a2.36,2.36,0,0,1-2,3.59ZM19.82,29.5A2.39,2.39,0,0,1,18.39,29a2.35,2.35,0,0,1-.44-3.3c1-1.3,2-2.55,3.09-3.77a2.36,2.36,0,0,1,3.53,3.12q-1.5,1.7-2.88,3.5A2.35,2.35,0,0,1,19.82,29.5Zm193.47-8.6a2.33,2.33,0,0,1-1.58-.61c-1.12-1-2.27-2-3.46-2.92a2.35,2.35,0,0,1,2.9-3.71q1.92,1.52,3.72,3.15a2.35,2.35,0,0,1,.16,3.32A2.3,2.3,0,0,1,213.29,20.9Zm-91.79-1a2.35,2.35,0,0,1-1.25-4.33c1.36-.87,2.72-1.7,4.11-2.5a2.35,2.35,0,1,1,2.35,4.08c-1.33.76-2.64,1.56-3.95,2.39A2.39,2.39,0,0,1,121.5,19.89Zm-88.28-3.5a2.35,2.35,0,0,1-1.37-4.26c1.32-1,2.67-1.85,4.07-2.7a2.36,2.36,0,0,1,2.45,4c-1.3.79-2.55,1.62-3.78,2.49A2.31,2.31,0,0,1,33.22,16.39Zm76.06-2.21a2.47,2.47,0,0,1-1-.24c-1.38-.68-2.76-1.33-4.16-1.93a2.35,2.35,0,0,1,1.87-4.32c1.47.64,2.93,1.31,4.38,2a2.35,2.35,0,0,1-1,4.46Zm28.93-2.93a2.35,2.35,0,0,1-.89-4.53c1.5-.61,3-1.18,4.52-1.7a2.35,2.35,0,0,1,1.55,4.44c-1.44.5-2.87,1-4.3,1.62A2.29,2.29,0,0,1,138.21,11.25Zm59.47-.71a2.48,2.48,0,0,1-1-.21c-1.35-.62-2.74-1.2-4.17-1.73a2.35,2.35,0,1,1,1.63-4.41q2.31.85,4.51,1.86a2.35,2.35,0,0,1-1,4.49ZM50,7.94a2.35,2.35,0,0,1-.73-4.59Q51.5,2.6,53.89,2A2.36,2.36,0,0,1,55,6.57c-1.49.37-2.95.79-4.37,1.25A2.27,2.27,0,0,1,50,7.94ZM91.7,7.55a2.47,2.47,0,0,1-.6-.08c-1.49-.4-3-.75-4.47-1.06a2.36,2.36,0,0,1,1-4.61c1.56.33,3.13.7,4.69,1.12a2.36,2.36,0,0,1-.6,4.63ZM156.24,6a2.35,2.35,0,0,1-.41-4.67c1.6-.29,3.2-.53,4.79-.72a2.35,2.35,0,0,1,.57,4.67c-1.51.18-3,.41-4.52.69Zm23.44-.66-.33,0c-1.48-.21-3-.36-4.51-.46a2.36,2.36,0,0,1-2.2-2.5A2.45,2.45,0,0,1,175.15.16c1.64.11,3.25.27,4.85.49a2.35,2.35,0,0,1-.32,4.68ZM73.13,4.75h-.08c-1.53,0-3-.06-4.56,0a2.33,2.33,0,0,1-2.42-2.28A2.36,2.36,0,0,1,68.35,0c1.6,0,3.22,0,4.86,0a2.36,2.36,0,0,1-.08,4.71Z"/><path class="cls-5" d="M177.14,36.36c-15.38-3.16-39,5-56.67,26-17.7-21-41.27-29.13-56.66-26-24.19,5-31,36.24-27.25,61.41C39.05,114.3,55.93,135.61,75.63,151c36.74,28.63,48,32.78,90.2-.4,19.48-15.32,36.09-36.4,38.56-52.79C208.18,72.6,201.34,41.33,177.14,36.36Z"/><path class="cls-6" d="M180.57,52.55c-7.6-6.12-16.72-2.87-25,.35-6.4,2.48-14.57,6.49-17.46,13.19a2.68,2.68,0,0,0,1.56,3.83c5.65,2.38,12.29-.31,17.8-1.8,6.82-1.84,16.13-2.66,21.95-6.64C182.16,59.61,183.62,55,180.57,52.55Z"/><path class="cls-6" d="M56.1,63.25C46.64,78.81,50.64,107.51,67.65,117a2.08,2.08,0,0,0,3.1-1.78c0-12.67-4-25.54-1.07-38.2C72.1,66.56,86.42,66.89,94.39,63.63c2.66-1.09,3.66-4,1.65-6.27C85.59,45.45,64,50.19,56.1,63.25Z"/></g></g></g></svg>