<svg xmlns="http://www.w3.org/2000/svg" viewBox="0 0 997.23 506.15"><defs><style>.cls-1{isolation:isolate;}.cls-2{fill:#ffa3bc;mix-blend-mode:multiply;}.cls-3{fill:#fff;}.cls-4{fill:#636466;}.cls-5{fill:#e23f58;}</style></defs><g class="cls-1"><g id="圖層_2" data-name="圖層 2"><g id="Layer_2" data-name="Layer 2"><path class="cls-2" d="M847.83,16.13l-1.33.07c-.75,0-1.51.1-2.26.19L487.89,59.26a52.67,52.67,0,0,0-20-27.41c-.45-.32-.91-.62-1.37-.92a54,54,0,0,0-57.11-.84,46.28,46.28,0,0,0-16.59,15L373.65,73,63.44,110.38a52,52,0,0,0-22.13,7.7,46.3,46.3,0,0,0-24,35.62,50.15,50.15,0,0,0-.48,16.19A54.2,54.2,0,0,0,21,184.69a51,51,0,0,0,9.08,14,54,54,0,0,0,11.71,9.65,54.58,54.58,0,0,0,13.88,6.06,51.72,51.72,0,0,0,16.65,1.8l1.32-.07c.75,0,1.51-.1,2.26-.19l218-26.23L168.05,373.32c-1.11.58-2.21,1.2-3.28,1.87a46.74,46.74,0,0,0-22.88,28.48q-.18.6-.33,1.23a63.63,63.63,0,0,1-8,18.94,45.92,45.92,0,0,0-7.25,20.81,53.38,53.38,0,0,0,3.08,27.94,52.69,52.69,0,0,0,20.17,24.94l.63.41a53.31,53.31,0,0,0,31.2,8.14c17.11-.88,31.75-9,41.19-22.91l83.79-122.52a49.58,49.58,0,0,0,30.33,8.26l.79,0a49.45,49.45,0,0,0,37.63-19.75,58.43,58.43,0,0,0,9.81,7.49c.38.24.76.47,1.16.69,10.44,5.83,22.32,8.45,35.3,7.78s26.08-4.5,40.19-11.7a54,54,0,0,0,28.59,6.3c10.65-.54,21.7-4.07,32.86-10.49a57.25,57.25,0,0,0,16.81,7A64.1,64.1,0,0,0,558.85,358a86.83,86.83,0,0,0,26.48-5.83A50.69,50.69,0,0,0,642.15,336l.94-1.13a52.34,52.34,0,0,0,11.64,8.82c.42.24.85.47,1.28.69a59.17,59.17,0,0,0,30,6c9.46-.49,19.65-3,30.79-7.53a50.26,50.26,0,0,0,25,5.18,49.69,49.69,0,0,0,35.94-17.39,73.32,73.32,0,0,0,20.91,8.75A69,69,0,0,0,820,341.63a78.56,78.56,0,0,0,26.07-6.07,97.76,97.76,0,0,0,32.59,3.58c25-1.29,45.74-9.93,61.77-25.88a61.73,61.73,0,0,0,10.22-13.73c3.64-6.67,5.54-14.4,5.77-23.56a52.71,52.71,0,0,0,8.7-8.11,50.72,50.72,0,0,0,11.52-24c.58-.7,1.27-1.53,2.08-2.48,1.66-1.84,2.89-3.31,3.68-4.31s1.9-2.45,3.3-4.38a57.73,57.73,0,0,0,5.42-8.87c.83-1.73,1.74-3.84,2.64-6.26a52.24,52.24,0,0,0,2.93-11.1,51.48,51.48,0,0,0-3-25.84c-6.91-18-22-30.12-41.38-33.15l-.66-.1a103.79,103.79,0,0,0-19.14-.64,140.8,140.8,0,0,0-47.47,10.55,50.89,50.89,0,0,0-13.93-39.11,53.08,53.08,0,0,0,25.71-75A53.22,53.22,0,0,0,884.15,28a55.71,55.71,0,0,0-15.85-8.9A52.27,52.27,0,0,0,847.83,16.13ZM758.89,173.41a53.87,53.87,0,0,0-9-5.51,52.94,52.94,0,0,0-26-5.22c-1.3.07-2.61.18-3.94.34A113.69,113.69,0,0,0,694,169a49.71,49.71,0,0,0-31.46-9.09,51,51,0,0,0-24.6,7.79,45.23,45.23,0,0,0-14.18,12.11,51.07,51.07,0,0,0-40.81-7.88,55.36,55.36,0,0,0-18.65-2.73c-.31,0-4.6.22-4.6.22A132.93,132.93,0,0,0,493.91,191a54.48,54.48,0,0,0-13.86-8.6,50.74,50.74,0,0,0,0-15.12l276-33.18a51.73,51.73,0,0,0,4.84,3A53.08,53.08,0,0,0,779,143C774.53,149.86,768.11,159.54,758.89,173.41Z"/><path class="cls-3" d="M979.63,166.51c-6.91-18-22-30.12-41.38-33.15-.22,0-.44-.07-.66-.09a103.74,103.74,0,0,0-19.14-.65A140.85,140.85,0,0,0,871,143.17a50.89,50.89,0,0,0-13.93-39.11A52.85,52.85,0,0,0,889.12,48,52.21,52.21,0,0,0,882.76,29,53,53,0,0,0,870,13.92,55.5,55.5,0,0,0,854.18,5a52.24,52.24,0,0,0-20.47-3l-1.33.07c-.75,0-1.51.1-2.26.19L473.77,45.15a52.7,52.7,0,0,0-20-27.42c-.45-.31-.9-.62-1.37-.91A53.91,53.91,0,0,0,395.29,16a46.34,46.34,0,0,0-16.59,15l-19.17,28L49.33,96.27A51.89,51.89,0,0,0,27.19,104a46.29,46.29,0,0,0-24,35.62,49.87,49.87,0,0,0-.49,16.19,54.63,54.63,0,0,0,4.11,14.81,50.71,50.71,0,0,0,9.09,14,54.82,54.82,0,0,0,25.58,15.71,51.75,51.75,0,0,0,16.66,1.8L59.5,202c.76,0,1.52-.11,2.27-.2l218-26.23L153.93,359.21c-1.11.58-2.2,1.2-3.28,1.86a46.74,46.74,0,0,0-22.88,28.48q-.18.61-.33,1.23a63.25,63.25,0,0,1-8,18.94,45.84,45.84,0,0,0-7.25,20.82,53.33,53.33,0,0,0,3.07,27.93,52.69,52.69,0,0,0,20.17,24.94c.21.14.42.28.64.41A53.18,53.18,0,0,0,167.23,492c17.11-.88,31.76-9,41.19-22.91l83.79-122.51a49.58,49.58,0,0,0,30.34,8.25l.78,0A49.46,49.46,0,0,0,361,335a59.51,59.51,0,0,0,9.81,7.49l1.16.68c10.44,5.83,22.32,8.45,35.3,7.78s26.08-4.5,40.19-11.7a54.15,54.15,0,0,0,28.6,6.31c10.65-.55,21.7-4.08,32.86-10.5a57.09,57.09,0,0,0,16.8,7,64.5,64.5,0,0,0,19.06,1.79A87.16,87.16,0,0,0,571.21,338,50.69,50.69,0,0,0,628,321.89l.94-1.13a52,52,0,0,0,11.64,8.82c.43.24.85.47,1.28.69a59.22,59.22,0,0,0,30,6c9.45-.49,19.64-3,30.79-7.54a50.34,50.34,0,0,0,25,5.19,49.72,49.72,0,0,0,35.94-17.4,73,73,0,0,0,20.92,8.75,69.24,69.24,0,0,0,21.37,2.25A78.58,78.58,0,0,0,832,321.44,97.82,97.82,0,0,0,864.57,325c25-1.29,45.74-9.92,61.78-25.88a62,62,0,0,0,10.21-13.73c3.64-6.67,5.54-14.4,5.77-23.56a52.29,52.29,0,0,0,8.7-8.11,50.68,50.68,0,0,0,11.52-24c.58-.71,1.27-1.54,2.08-2.49,1.66-1.84,2.89-3.31,3.68-4.31s1.9-2.45,3.3-4.38a57.19,57.19,0,0,0,5.42-8.86c.83-1.73,1.74-3.85,2.65-6.26a52.9,52.9,0,0,0,2.92-11.11,50.62,50.62,0,0,0,.2-12.88A51.22,51.22,0,0,0,979.63,166.51ZM735.79,153.79a52.84,52.84,0,0,0-26-5.23c-1.3.07-2.61.18-3.93.34a113.69,113.69,0,0,0-26,5.94,49.64,49.64,0,0,0-31.46-9.1,51.06,51.06,0,0,0-24.6,7.79,45.36,45.36,0,0,0-14.18,12.11,49.9,49.9,0,0,0-31.83-9.14,50.73,50.73,0,0,0-9,1.26A55.42,55.42,0,0,0,550.16,155l-4.6.23a132.77,132.77,0,0,0-65.77,21.59,54.06,54.06,0,0,0-13.86-8.61,50.74,50.74,0,0,0,0-15.12l276-33.18a51,51,0,0,0,4.84,3,53.39,53.39,0,0,0,18.09,6c-4.49,6.82-10.9,16.5-20.13,30.37A53.17,53.17,0,0,0,735.79,153.79Z"/><path class="cls-4" d="M158.65,494.08l-.26,0c-1.63-.18-3.25-.43-4.85-.75a2.35,2.35,0,0,1,.92-4.61c1.47.29,3,.52,4.45.69a2.35,2.35,0,0,1-.26,4.69Zm14.07-.31a2.35,2.35,0,0,1-.34-4.68c1.5-.22,3-.5,4.42-.85a2.35,2.35,0,0,1,1.09,4.58c-1.58.38-3.19.68-4.82.93Zm-32-5a2.33,2.33,0,0,1-1.05-.24c-1.46-.73-2.89-1.53-4.3-2.38a2.36,2.36,0,0,1,2.46-4q1.94,1.19,3.94,2.19a2.35,2.35,0,0,1-1.05,4.45Zm49.8-.93a2.35,2.35,0,0,1-1.14-4.41c1.31-.73,2.59-1.5,3.83-2.35a2.35,2.35,0,0,1,2.64,3.9q-2,1.38-4.2,2.57A2.32,2.32,0,0,1,190.49,487.85Zm-64.78-10.29a2.33,2.33,0,0,1-1.72-.75c-1.12-1.19-2.18-2.45-3.19-3.75a2.35,2.35,0,1,1,3.73-2.87c.91,1.18,1.88,2.32,2.89,3.41a2.35,2.35,0,0,1-1.71,4ZM205,476a2.36,2.36,0,0,1-1.8-3.88c1-1.13,1.88-2.32,2.76-3.56a2.35,2.35,0,1,1,3.84,2.72c-.95,1.35-2,2.65-3,3.88A2.33,2.33,0,0,1,205,476Zm-89.33-14.19a2.35,2.35,0,0,1-2.17-1.45l-.41-1c-.46-1.19-.89-2.39-1.27-3.61a2.35,2.35,0,1,1,4.48-1.41c.35,1.11.75,2.21,1.17,3.3l.38.93a2.36,2.36,0,0,1-2.18,3.25Zm100.18-1.18a2.39,2.39,0,0,1-1.32-.41,2.35,2.35,0,0,1-.62-3.27l2.66-3.89a2.35,2.35,0,1,1,3.88,2.66l-2.65,3.88A2.35,2.35,0,0,1,215.8,460.61Zm10.63-15.54a2.35,2.35,0,0,1-1.94-3.68l2.66-3.88a2.35,2.35,0,1,1,3.88,2.65l-2.66,3.89A2.35,2.35,0,0,1,226.43,445.07Zm-114.88-1.56a2.36,2.36,0,0,1-2.35-2.25c0-.8-.06-1.61-.06-2.41s0-1.67.06-2.51a2.35,2.35,0,0,1,4.7.22c0,.76-.05,1.53-.05,2.29s0,1.46.05,2.2a2.36,2.36,0,0,1-2.25,2.46Zm125.51-14a2.36,2.36,0,0,1-1.94-3.69l2.65-3.88a2.35,2.35,0,0,1,3.89,2.65L239,428.51A2.33,2.33,0,0,1,237.06,429.54Zm-123.43-4.67a2.27,2.27,0,0,1-.62-.09,2.35,2.35,0,0,1-1.65-2.89,48,48,0,0,1,1.57-4.7,2.35,2.35,0,0,1,4.38,1.72,43.69,43.69,0,0,0-1.41,4.23A2.36,2.36,0,0,1,113.63,424.87ZM247.68,414a2.36,2.36,0,0,1-1.94-3.68l2.66-3.89a2.35,2.35,0,1,1,3.88,2.66L249.62,413A2.33,2.33,0,0,1,247.68,414Zm-125.89-6a2.31,2.31,0,0,1-1.1-.28,2.35,2.35,0,0,1-1-3.18c.7-1.33,1.36-2.68,2-4.07a2.35,2.35,0,1,1,4.31,1.88c-.66,1.51-1.37,3-2.13,4.4A2.36,2.36,0,0,1,121.79,408Zm136.52-9.53a2.35,2.35,0,0,1-1.94-3.68l2.66-3.89a2.35,2.35,0,1,1,3.88,2.66l-2.66,3.88A2.33,2.33,0,0,1,258.31,398.46Zm-130.06-8.1a2.33,2.33,0,0,1-.73-.12,2.35,2.35,0,0,1-1.51-3c.52-1.57,1.1-3.11,1.75-4.6a2.35,2.35,0,1,1,4.31,1.87c-.59,1.36-1.12,2.76-1.59,4.19A2.34,2.34,0,0,1,128.25,390.36Zm140.68-7.44a2.31,2.31,0,0,1-1.32-.41,2.35,2.35,0,0,1-.62-3.27l2.66-3.88a2.35,2.35,0,1,1,3.88,2.65l-2.65,3.89A2.37,2.37,0,0,1,268.93,382.92ZM137.39,374a2.32,2.32,0,0,1-1.54-.57,2.35,2.35,0,0,1-.25-3.31,48.19,48.19,0,0,1,3.42-3.58,2.35,2.35,0,1,1,3.23,3.42,42.72,42.72,0,0,0-3.08,3.23A2.33,2.33,0,0,1,137.39,374Zm142.17-6.66a2.35,2.35,0,0,1-1.94-3.68l2.66-3.88a2.35,2.35,0,0,1,3.88,2.66l-2.66,3.88A2.32,2.32,0,0,1,279.56,367.38Zm-127.42-4.84a2.36,2.36,0,0,1-1.17-4.4l1.35-.74,1.18-1.73a2.35,2.35,0,1,1,3.88,2.67l-1.51,2.2a2.39,2.39,0,0,1-.85.76q-.87.43-1.71.93A2.36,2.36,0,0,1,152.14,362.54ZM324.62,357a2.35,2.35,0,0,1-.18-4.7c1.52-.11,3-.28,4.47-.53a2.36,2.36,0,0,1,.76,4.65c-1.6.26-3.23.45-4.88.57Zm-14.06-.66a2.18,2.18,0,0,1-.44,0c-1.62-.3-3.22-.68-4.79-1.13a2.35,2.35,0,1,1,1.3-4.52c1.43.41,2.88.75,4.36,1a2.36,2.36,0,0,1-.43,4.67Zm97.8-3.11a2.35,2.35,0,0,1-.15-4.7c1.51-.1,3-.25,4.55-.44a2.35,2.35,0,1,1,.57,4.67c-1.61.2-3.21.35-4.81.46Zm-14.08-.41H394c-1.62-.22-3.22-.48-4.8-.8a2.35,2.35,0,1,1,.94-4.61c1.47.3,3,.54,4.47.74a2.35,2.35,0,0,1-.3,4.68Zm-51.55-.54a2.35,2.35,0,0,1-1-4.48q2-1,3.94-2.11a2.35,2.35,0,1,1,2.42,4,49,49,0,0,1-4.34,2.33A2.29,2.29,0,0,1,342.73,352.3Zm-52.54-.45a2.42,2.42,0,0,1-1.33-.41,2.35,2.35,0,0,1-.61-3.27l2-3a2.34,2.34,0,0,1,3.24-.64l.9.59A2.35,2.35,0,0,1,293,349.5l-.91,1.32A2.35,2.35,0,0,1,290.19,351.85Zm136.66-1.93a2.35,2.35,0,0,1-.66-4.61c1.46-.43,2.92-.89,4.38-1.39a2.35,2.35,0,1,1,1.53,4.45q-2.31.79-4.59,1.45A2.16,2.16,0,0,1,426.85,349.92Zm-50.61-2.2a2.43,2.43,0,0,1-1-.21q-2.22-1-4.36-2.21a2.35,2.35,0,1,1,2.29-4.11q2,1.1,4,2a2.35,2.35,0,0,1-1,4.49Zm-212.83,0a2.31,2.31,0,0,1-1.32-.41,2.35,2.35,0,0,1-.61-3.27l2.66-3.88a2.35,2.35,0,1,1,3.88,2.66l-2.66,3.88A2.38,2.38,0,0,1,163.41,347.71Zm303.11-.1h-.28c-1.63-.2-3.25-.46-4.85-.79a2.35,2.35,0,0,1,1-4.61c1.46.3,2.95.55,4.44.72a2.35,2.35,0,0,1-.27,4.69Zm14.07-.11a2.35,2.35,0,0,1-.3-4.68c1.49-.19,3-.44,4.47-.75a2.35,2.35,0,1,1,.95,4.6c-1.61.34-3.21.61-4.81.82Zm57.61-1.24h-.11q-2.46-.11-4.86-.39a2.35,2.35,0,0,1,.55-4.67c1.49.17,3,.29,4.52.36a2.36,2.36,0,0,1-.1,4.71Zm14.07-.8a2.35,2.35,0,0,1-.35-4.68q2.24-.33,4.5-.81a2.35,2.35,0,0,1,1,4.61c-1.6.33-3.18.62-4.76.86Zm36.59-2.08a2.36,2.36,0,0,1,0-4.71c.67,0,1.34,0,2-.06.84,0,1.66-.11,2.48-.19a2.36,2.36,0,0,1,.46,4.69c-.89.09-1.79.15-2.69.2-.74,0-1.48.06-2.22.07Zm-144.48-.26a2.35,2.35,0,0,1-1-4.47c1-.48,2-1,3-1.49a2.36,2.36,0,0,1,2.18,0l1.12.59a2.35,2.35,0,1,1-2.13,4.2l-.11-.07-2,1A2.33,2.33,0,0,1,444.38,343.12Zm75.41-.44a2.39,2.39,0,0,1-.79-.14c-1.55-.55-3.07-1.16-4.54-1.82a2.36,2.36,0,0,1,1.93-4.3c1.36.62,2.75,1.18,4.18,1.69a2.34,2.34,0,0,1,1.43,3A2.36,2.36,0,0,1,519.79,342.68Zm-21.11-.18a2.36,2.36,0,0,1-.91-4.53c1.39-.58,2.78-1.2,4.17-1.88a2.35,2.35,0,0,1,2.06,4.23c-1.48.72-2.94,1.38-4.41,2A2.46,2.46,0,0,1,498.68,342.5Zm76.23-.93a2.28,2.28,0,0,1-.63-.09c-1-.28-2-.59-3-.94a2.35,2.35,0,0,1-1.63-4.41l.78-.29a2.26,2.26,0,0,1,1.62,0c1.16.42,2.34.79,3.52,1.12a2.35,2.35,0,0,1-.62,4.62Zm-217.14-.39a2.35,2.35,0,0,1-1.73-3.95c1-1.09,2-2.24,2.89-3.44a2.35,2.35,0,0,1,3.73,2.87c-1,1.31-2.06,2.57-3.16,3.76A2.38,2.38,0,0,1,357.77,341.18Zm249.47-1.39a2.35,2.35,0,0,1-.88-4.54c1.39-.55,2.76-1.17,4.09-1.85a2.35,2.35,0,0,1,2.14,4.19c-1.46.75-3,1.43-4.48,2A2.28,2.28,0,0,1,607.24,339.79Zm65.15-1.2a2.35,2.35,0,0,1-.13-4.7c1.49-.09,3-.22,4.52-.41a2.35,2.35,0,1,1,.59,4.67c-1.63.2-3.25.35-4.84.44Zm-14.06-.67a2.43,2.43,0,0,1-.38,0c-1.62-.27-3.22-.59-4.8-1a2.35,2.35,0,0,1,1.12-4.57c1.46.36,2.93.66,4.43.9a2.36,2.36,0,0,1-.37,4.68ZM727,336.3a2.36,2.36,0,0,1-2.36-2.26,2.34,2.34,0,0,1,2.24-2.44l.68,0c1.28-.07,2.56-.18,3.82-.34a2.35,2.35,0,0,1,.58,4.67c-1.37.17-2.76.29-4.17.37l-.69,0Zm-36.13-1.05a2.35,2.35,0,0,1-.66-4.61c1.44-.42,2.91-.88,4.39-1.38a2.35,2.35,0,0,1,1.51,4.45c-1.55.53-3.07,1-4.58,1.45A2.5,2.5,0,0,1,690.88,335.25Zm22.12-.39a2.3,2.3,0,0,1-.58-.07c-1.58-.4-3.16-.87-4.71-1.41a2.35,2.35,0,0,1,1.55-4.44c1.42.49,2.85.92,4.3,1.28a2.36,2.36,0,0,1-.56,4.64Zm32.28-2.53a2.35,2.35,0,0,1-.91-4.52c1.38-.58,2.72-1.23,4-1.94a2.35,2.35,0,0,1,2.24,4.14q-2.16,1.17-4.44,2.13A2.3,2.3,0,0,1,745.28,332.33Zm-571.23-.15a2.31,2.31,0,0,1-1.32-.41,2.35,2.35,0,0,1-.62-3.27l2.66-3.88a2.36,2.36,0,0,1,3.89,2.66L176,331.16A2.38,2.38,0,0,1,174.05,332.18Zm466.52-.26a2.28,2.28,0,0,1-1.14-.31q-2.16-1.2-4.18-2.58a2.35,2.35,0,0,1,2.65-3.89q1.85,1.26,3.83,2.37a2.36,2.36,0,0,1-1.16,4.41Zm159.22-2h-.08c-1.62-.06-3.24-.18-4.86-.35a2.35,2.35,0,0,1,.5-4.68c1.5.16,3,.27,4.52.32a2.36,2.36,0,0,1-.08,4.71ZM623,329.72a2.35,2.35,0,0,1-1.62-4.06c1.08-1,2.13-2.1,3.13-3.23a2.36,2.36,0,1,1,3.52,3.13q-1.63,1.85-3.42,3.52A2.32,2.32,0,0,1,623,329.72Zm190.85-.7a2.36,2.36,0,0,1-.37-4.68q2.24-.36,4.47-.87a2.35,2.35,0,1,1,1,4.59c-1.59.36-3.18.67-4.76.93Zm41.23-1.56H855c-1.61-.05-3.21-.15-4.8-.28a2.35,2.35,0,0,1-2.15-2.54,2.32,2.32,0,0,1,2.54-2.15c1.51.12,3,.21,4.58.27a2.36,2.36,0,0,1-.08,4.71Zm14.1-.41a2.35,2.35,0,0,1-.21-4.7c1.54-.14,3.07-.31,4.58-.5a2.35,2.35,0,1,1,.62,4.66c-1.58.21-3.17.39-4.78.53Zm-87.89-.3a2.16,2.16,0,0,1-.66-.1q-2.26-.66-4.62-1.52a2.35,2.35,0,1,1,1.62-4.42c1.47.54,2.91,1,4.32,1.42a2.36,2.36,0,0,1-.66,4.62ZM836.46,325a2,2,0,0,1-.54-.07c-1.55-.36-3.09-.77-4.6-1.21l.63-2.13-.85-2.31.8,2.21-.87-2.18a2.48,2.48,0,0,1,1.61-.11c1.44.42,2.89.81,4.35,1.15a2.36,2.36,0,0,1-.53,4.65Zm51.23-1.22a2.35,2.35,0,0,1-.63-4.62c1.49-.41,3-.85,4.4-1.32a2.35,2.35,0,0,1,1.47,4.47q-2.28.75-4.62,1.39A2.25,2.25,0,0,1,887.69,323.76ZM760.81,321.9a2.36,2.36,0,0,1-1.66-4c.93-.92,1.82-1.88,2.68-2.88a2.36,2.36,0,0,1,3-.48l.48.3a2.35,2.35,0,0,1-.9,4.34c-.64.71-1.3,1.4-2,2.06A2.33,2.33,0,0,1,760.81,321.9ZM905.2,317a2.35,2.35,0,0,1-1.08-4.44c1.36-.71,2.69-1.44,4-2.22a2.35,2.35,0,0,1,2.38,4.06c-1.39.82-2.79,1.6-4.23,2.34A2.42,2.42,0,0,1,905.2,317Zm-720.51-.31a2.35,2.35,0,0,1-1.94-3.68l2.66-3.88a2.35,2.35,0,1,1,3.88,2.66l-2.65,3.88A2.35,2.35,0,0,1,184.69,316.65Zm736.14-10.11a2.36,2.36,0,0,1-1.52-4.16q1.76-1.45,3.43-3a2.36,2.36,0,0,1,3.22,3.44c-1.19,1.1-2.39,2.17-3.62,3.2A2.34,2.34,0,0,1,920.83,306.54Zm-725.5-5.41a2.36,2.36,0,0,1-1.94-3.69l2.66-3.88a2.35,2.35,0,1,1,3.88,2.66l-2.66,3.88A2.33,2.33,0,0,1,195.33,301.13Zm738.19-8.39a2.28,2.28,0,0,1-1.31-.41,2.34,2.34,0,0,1-.64-3.26c.84-1.25,1.64-2.54,2.4-3.85a2.35,2.35,0,1,1,4.08,2.34c-.81,1.41-1.67,2.8-2.58,4.14A2.35,2.35,0,0,1,933.52,292.74ZM206,285.6a2.42,2.42,0,0,1-1.33-.41,2.36,2.36,0,0,1-.61-3.28l2.66-3.88a2.35,2.35,0,1,1,3.88,2.66l-2.66,3.88A2.35,2.35,0,0,1,206,285.6Zm735.06-10a2.92,2.92,0,0,1-.5-.05,2.36,2.36,0,0,1-1.8-2.81c.31-1.43.56-2.91.76-4.43a2.35,2.35,0,1,1,4.67.6c-.22,1.66-.49,3.27-.83,4.84A2.36,2.36,0,0,1,941,275.61Zm-724.42-5.54a2.36,2.36,0,0,1-1.94-3.69l2.66-3.88a2.35,2.35,0,1,1,3.88,2.66L218.55,269A2.35,2.35,0,0,1,216.61,270.07Zm731.28-10.62a2.36,2.36,0,0,1-1.65-4q1.56-1.53,3-3.21l3.59,3c-1.07,1.25-2.17,2.42-3.3,3.53A2.34,2.34,0,0,1,947.89,259.45Zm-720.65-4.91a2.39,2.39,0,0,1-1.32-.41,2.35,2.35,0,0,1-.61-3.27L228,247a2.36,2.36,0,0,1,3.89,2.66l-2.66,3.88A2.35,2.35,0,0,1,227.24,254.54Zm731.48-10.36a2.35,2.35,0,0,1-2.13-3.34c.63-1.36,1.19-2.75,1.69-4.15a2.35,2.35,0,1,1,4.44,1.57c-.55,1.54-1.17,3.07-1.86,4.56A2.35,2.35,0,0,1,958.72,244.18ZM237.88,239a2.35,2.35,0,0,1-1.94-3.68l2.66-3.89a2.36,2.36,0,0,1,3.89,2.66L239.83,238A2.38,2.38,0,0,1,237.88,239Zm728.66-11.55a2.36,2.36,0,0,1-1.79-3.89c.71-.83,1.29-1.52,1.72-2.07l1.15-1.49a2.35,2.35,0,0,1,3.74,2.86l-1.2,1.55c-.47.59-1.08,1.33-1.84,2.22A2.34,2.34,0,0,1,966.54,227.46Zm-718-4a2.42,2.42,0,0,1-1.33-.41,2.36,2.36,0,0,1-.61-3.27l2.66-3.89a2.35,2.35,0,1,1,3.88,2.66l-2.66,3.89A2.35,2.35,0,0,1,248.52,223.48ZM977.1,211.93a2.26,2.26,0,0,1-1-.23,2.34,2.34,0,0,1-1.11-3.13c.57-1.21,1.19-2.61,1.81-4.18a2.35,2.35,0,0,1,4.37,1.75c-.66,1.67-1.32,3.16-1.94,4.45A2.33,2.33,0,0,1,977.1,211.93Zm-717.94-4a2.35,2.35,0,0,1-1.94-3.68l2.66-3.88a2.35,2.35,0,1,1,3.88,2.65l-2.66,3.88A2.33,2.33,0,0,1,259.16,208Zm-205-3.47H54.1c-1.64,0-3.28-.14-4.9-.33a2.34,2.34,0,0,1-2.07-2.6,2.32,2.32,0,0,1,2.6-2.07c1.48.16,3,.26,4.48.3a2.35,2.35,0,0,1-.05,4.7Zm14-1.09a2.35,2.35,0,0,1-.27-4.69l4.67-.56a2.35,2.35,0,1,1,.56,4.67l-4.67.56Zm18.69-2.25a2.35,2.35,0,0,1-.27-4.69l4.67-.56a2.35,2.35,0,1,1,.56,4.67l-4.67.56Zm-51.07-.45a2.46,2.46,0,0,1-.88-.17q-2.27-.92-4.47-2a2.35,2.35,0,0,1,2.13-4.2c1.34.68,2.71,1.3,4.1,1.86a2.36,2.36,0,0,1-.88,4.54Zm69.76-1.8a2.35,2.35,0,0,1-.28-4.69l4.68-.56a2.35,2.35,0,0,1,.56,4.67l-4.67.57Zm18.69-2.25A2.35,2.35,0,0,1,124,192l4.67-.56a2.35,2.35,0,1,1,.57,4.67l-4.68.57ZM143,194.39a2.35,2.35,0,0,1-.28-4.69l4.67-.56a2.35,2.35,0,1,1,.56,4.67l-4.67.57ZM982.7,194l-.31,0a2.36,2.36,0,0,1-2-2.64,43.49,43.49,0,0,0,.37-4.46,2.35,2.35,0,1,1,4.7.16c0,1.67-.19,3.31-.4,4.92A2.36,2.36,0,0,1,982.7,194Zm-712.9-1.62a2.35,2.35,0,0,1-1.94-3.68l2.66-3.88a2.35,2.35,0,1,1,3.88,2.65l-2.66,3.89A2.35,2.35,0,0,1,269.8,192.42Zm-108.14-.28a2.35,2.35,0,0,1-.28-4.69l4.67-.56a2.36,2.36,0,0,1,.56,4.68l-4.67.56ZM19.9,190.82a2.35,2.35,0,0,1-1.56-.6c-1.22-1.08-2.4-2.22-3.52-3.41a2.36,2.36,0,0,1,3.42-3.24c1,1.1,2.11,2.14,3.23,3.14a2.35,2.35,0,0,1-1.57,4.11Zm160.45-.93a2.35,2.35,0,0,1-.28-4.69l4.67-.56a2.36,2.36,0,0,1,.56,4.68l-4.67.56ZM199,187.65a2.35,2.35,0,0,1-.27-4.69l4.67-.57a2.36,2.36,0,0,1,.56,4.68l-4.67.56Zm18.7-2.25a2.35,2.35,0,0,1-.28-4.69l4.67-.57a2.36,2.36,0,0,1,.56,4.68l-4.67.56Zm18.68-2.25a2.35,2.35,0,0,1-.28-4.69l4.67-.57a2.36,2.36,0,0,1,.57,4.68l-4.67.56Zm18.69-2.25a2.35,2.35,0,0,1-.28-4.69l4.68-.56a2.35,2.35,0,0,1,.56,4.67l-4.68.56Zm18.69-2.25a2.35,2.35,0,0,1-.28-4.69l4.67-.56a2.35,2.35,0,1,1,.57,4.67l-4.67.56A1.42,1.42,0,0,1,273.79,178.65Zm209.3-1.52a2.35,2.35,0,0,1-1.22-4.36c1.36-.84,2.74-1.64,4.12-2.42a2.35,2.35,0,1,1,2.31,4.1q-2,1.13-4,2.33A2.27,2.27,0,0,1,483.09,177.13Zm-474.72-1a2.35,2.35,0,0,1-2.09-1.27c-.56-1.08-1.08-2.17-1.57-3.29l-.49-1.16a2.35,2.35,0,0,1,4.34-1.81L9,169.64q.68,1.53,1.44,3a2.37,2.37,0,0,1-1,3.18A2.48,2.48,0,0,1,8.37,176.08Zm973.29-.73a2.35,2.35,0,0,1-2.28-1.8c-.36-1.47-.77-2.91-1.26-4.3a2.43,2.43,0,0,1-.11-1,2.34,2.34,0,0,1-.58-.86c-.54-1.42-1.14-2.8-1.79-4.15a2.36,2.36,0,0,1,4.25-2q1.05,2.19,1.94,4.5a2.33,2.33,0,0,1,.14,1.1,2.3,2.3,0,0,1,.6.94q.79,2.31,1.38,4.73a2.34,2.34,0,0,1-1.73,2.84A2.15,2.15,0,0,1,981.66,175.35Zm-510.23-2a2.35,2.35,0,0,1-1.16-.31c-1.3-.74-2.63-1.42-4-2.06a2.35,2.35,0,1,1,2-4.27c1.49.69,2.95,1.44,4.36,2.24a2.35,2.35,0,0,1-1.17,4.4Zm28.34-4.89a2.35,2.35,0,0,1-.94-4.5c1.46-.65,2.93-1.26,4.41-1.85a2.37,2.37,0,0,1,3.06,1.33,2.35,2.35,0,0,1-1.32,3.05c-1.43.57-2.86,1.16-4.27,1.78A2.43,2.43,0,0,1,499.77,168.44ZM609.62,168a2.35,2.35,0,0,1-1.37-.44l-.58-.41a2.35,2.35,0,0,1,1.17-4.28c.53-.63,1.06-1.24,1.61-1.84a2.35,2.35,0,1,1,3.46,3.19c-.84.92-1.65,1.87-2.43,2.88A2.37,2.37,0,0,1,609.62,168Zm-92.14-5.84a2.35,2.35,0,0,1-.62-4.62c1.54-.43,3.08-.82,4.64-1.19a2.35,2.35,0,1,1,1.09,4.57c-1.5.36-3,.74-4.48,1.16A2.72,2.72,0,0,1,517.48,162.15Zm227.29-.5a2.41,2.41,0,0,1-1.43-.48c-.43-.33-.88-.66-1.32-1a2.35,2.35,0,0,1,2.09-4.15l.34-.52a2.35,2.35,0,1,1,3.92,2.6l-1.64,2.48a2.33,2.33,0,0,1-1.57,1A1.72,1.72,0,0,1,744.77,161.65Zm-148.36-.35a2.33,2.33,0,0,1-.73-.12q-2.13-.7-4.32-1.2a2.35,2.35,0,1,1,1-4.59q2.4.56,4.74,1.32a2.35,2.35,0,0,1-.74,4.59Zm-23.23-2a2.36,2.36,0,0,1-.33-4.69c1.59-.22,3.2-.38,4.82-.46a2.39,2.39,0,0,1,2.5,2.18,2.33,2.33,0,0,1-2.1,2.51h-.28c-1.36.07-2.83.22-4.28.42Zm-37.25-.84a2.35,2.35,0,0,1-.3-4.69q2.37-.3,4.77-.51a2.34,2.34,0,0,1,2.55,2.13,2.36,2.36,0,0,1-2.14,2.56c-1.53.14-3.06.3-4.59.49ZM466.26,158a2.36,2.36,0,0,1-2.34-2.13c-.07-.79-.17-1.59-.28-2.39a2.34,2.34,0,0,1,2.05-2.66l2.18-.26a2.35,2.35,0,0,1,.72,4.65,1.49,1.49,0,0,0,0,.21,2.35,2.35,0,0,1-2.12,2.56Zm93.14-.05-.33,0c-1.48-.21-3-.36-4.48-.45a2.35,2.35,0,1,1,.26-4.69c1.64.09,3.27.25,4.88.48a2.35,2.35,0,0,1-.33,4.68Zm120.46-.73a2.41,2.41,0,0,1-1.36-.43c-1-.68-2-1.32-3-1.93a2.35,2.35,0,0,1,2.44-4c.75.45,1.49.92,2.23,1.42a2.35,2.35,0,0,1,1.35,4.5l-.93.33A2.32,2.32,0,0,1,679.86,157.19Zm-56.67-1a2.36,2.36,0,0,1-1.16-4.41l.65-.35c1.05-.67,2.26-1.36,3.49-2a2.36,2.36,0,0,1,2.19,4.17c-1.13.59-2.23,1.22-3.31,1.9l-.71.4A2.41,2.41,0,0,1,623.19,156.22Zm112.6-.08a2.31,2.31,0,0,1-1-.24c-1.37-.65-2.74-1.25-4.14-1.78a2.35,2.35,0,1,1,1.68-4.39q2.28.86,4.5,1.94a2.35,2.35,0,0,1-1,4.47ZM.42,156.05c-.22-1.58-.35-3.19-.42-4.78a2.35,2.35,0,0,1,2.26-2.45,2.31,2.31,0,0,1,2.44,2.25c.06,1.46.19,2.92.38,4.39Zm481.75-2.52a2.35,2.35,0,0,1-.28-4.69l4.67-.56a2.35,2.35,0,1,1,.56,4.67l-4.67.56Zm212.23-.46a2.35,2.35,0,0,1-.49-4.65c1.58-.34,3.16-.65,4.72-.91a2.35,2.35,0,1,1,.79,4.64c-1.5.25-3,.54-4.52.87A2.83,2.83,0,0,1,694.4,153.07ZM970,152.8a2.34,2.34,0,0,1-1.76-.81c-1-1.13-2-2.2-3.11-3.23a2.36,2.36,0,1,1,3.24-3.42c1.18,1.13,2.32,2.32,3.4,3.55A2.36,2.36,0,0,1,970,152.8Zm-469.16-1.52a2.35,2.35,0,0,1-.28-4.69l4.67-.56a2.36,2.36,0,1,1,.56,4.68l-4.67.56Zm216.9-.2h-.22c-1.49-.14-3-.21-4.5-.23a2.35,2.35,0,0,1,0-4.7h0c1.64,0,3.27.1,4.89.25a2.35,2.35,0,0,1-.22,4.69Zm-53.94-1.41a2.06,2.06,0,0,1-.6-.08c-1.44-.38-2.91-.69-4.39-.94a2.35,2.35,0,0,1,.78-4.64c1.62.27,3.23.62,4.81,1a2.35,2.35,0,0,1-.6,4.63Zm-23.32-.55a2.35,2.35,0,0,1-.47-4.66c1.6-.33,3.22-.6,4.85-.78a2.32,2.32,0,0,1,2.61,2.06,2.36,2.36,0,0,1-2.07,2.61c-1.49.17-3,.42-4.43.72A2.81,2.81,0,0,1,640.5,149.12Zm-121-.09a2.35,2.35,0,0,1-.28-4.69l4.67-.56a2.36,2.36,0,1,1,.56,4.68l-4.67.56Zm234.67-1.62a2.3,2.3,0,0,1-1.3-.39,2.35,2.35,0,0,1-.66-3.26l2.6-3.92a2.35,2.35,0,0,1,3.92,2.6l-2.6,3.92A2.35,2.35,0,0,1,754.22,147.41Zm-216-.62a2.35,2.35,0,0,1-.27-4.69l4.67-.56a2.35,2.35,0,1,1,.56,4.67l-4.67.56Zm18.69-2.25a2.35,2.35,0,0,1-.28-4.69l4.68-.56a2.35,2.35,0,1,1,.56,4.67l-4.67.56A1.46,1.46,0,0,1,556.92,144.54Zm320.33-1.45a2.36,2.36,0,0,1-.8-4.57c1.5-.54,3-1.06,4.53-1.54a2.35,2.35,0,0,1,1.44,4.48c-1.46.47-2.92,1-4.37,1.49A2.5,2.5,0,0,1,877.25,143.09Zm-301.64-.8a2.35,2.35,0,0,1-.28-4.69L580,137a2.36,2.36,0,0,1,.56,4.68l-4.67.56Zm379.69-1a2.35,2.35,0,0,1-1.08-.26c-1.32-.69-2.68-1.32-4.08-1.9a2.34,2.34,0,0,1-1.27-3.07,2.37,2.37,0,0,1,3.07-1.28c1.52.63,3,1.32,4.45,2.07a2.35,2.35,0,0,1-1.09,4.44Zm-361-1.19a2.35,2.35,0,0,1-.28-4.69l4.68-.56a2.35,2.35,0,0,1,.56,4.67l-4.68.56ZM3.59,139.49l-.4,0a2.36,2.36,0,0,1-1.92-2.72,47.83,47.83,0,0,1,1.06-4.81,2.33,2.33,0,0,1,2.88-1.66,2.36,2.36,0,0,1,1.66,2.89c-.39,1.43-.71,2.89-1,4.37A2.36,2.36,0,0,1,3.59,139.49ZM871,138.14a2.35,2.35,0,0,1-2.34-2.19c-.1-1.49-.27-3-.51-4.46a2.35,2.35,0,1,1,4.64-.75c.26,1.63.45,3.26.56,4.89a2.35,2.35,0,0,1-2.19,2.51Zm24.31-.18a2.36,2.36,0,0,1-.49-4.66c1.56-.33,3.13-.63,4.71-.91a2.35,2.35,0,1,1,.81,4.63c-1.52.27-3,.57-4.54.89A2.81,2.81,0,0,1,895.34,138ZM613,137.8a2.35,2.35,0,0,1-.28-4.69l4.67-.56a2.35,2.35,0,1,1,.57,4.67l-4.68.56Zm324.46-2.2-.31,0c-1.48-.2-3-.36-4.56-.48a2.36,2.36,0,0,1-2.16-2.53,2.38,2.38,0,0,1,2.53-2.16c1.65.13,3.26.3,4.81.5a2.36,2.36,0,0,1-.31,4.69Zm-305.77,0a2.35,2.35,0,0,1-.28-4.69l4.67-.56a2.35,2.35,0,1,1,.56,4.67l-4.67.56A1.32,1.32,0,0,1,631.68,135.55ZM914,135.27a2.35,2.35,0,0,1-.18-4.7c1.5-.12,3-.22,4.55-.3a2.45,2.45,0,0,1,2.57,2.21,2.26,2.26,0,0,1-2.09,2.48h-.29c-1.43.08-2.91.18-4.37.29Zm-263.59-2a2.35,2.35,0,0,1-.28-4.69l4.67-.56a2.36,2.36,0,1,1,.56,4.68l-4.67.56Zm114.23-1.59a2.29,2.29,0,0,1-1.29-.39,2.25,2.25,0,0,1-.41-.34q-1.32-.22-2.61-.51a2.35,2.35,0,1,1,1-4.6c1.3.29,2.62.52,3.94.72A2.33,2.33,0,0,1,767,128a2.36,2.36,0,0,1-.17,2.26l-.3.45A2.35,2.35,0,0,1,764.6,131.71Zm-95.54-.65a2.35,2.35,0,0,1-.28-4.69l4.67-.56a2.35,2.35,0,1,1,.56,4.67l-4.67.56Zm18.69-2.25a2.35,2.35,0,0,1-.28-4.69l4.67-.56a2.35,2.35,0,1,1,.56,4.67l-4.67.56Zm18.69-2.25a2.35,2.35,0,0,1-.28-4.69l4.67-.56a2.36,2.36,0,1,1,.56,4.68l-4.67.56Zm41.12-.84a2.26,2.26,0,0,1-1.09-.27l-.8-.43q-1.77-1-3.45-2.07a2.35,2.35,0,0,1,2.57-3.94c1,.67,2.08,1.3,3.15,1.89l.71.38a2.35,2.35,0,0,1-1.09,4.44Zm-22.44-1.41a2.35,2.35,0,0,1-.27-4.68l4.67-.57a2.36,2.36,0,1,1,.56,4.68l-4.67.56ZM10.27,122A2.39,2.39,0,0,1,9,121.66a2.36,2.36,0,0,1-.71-3.25,47.41,47.41,0,0,1,2.88-4,2.35,2.35,0,1,1,3.68,2.93A43.55,43.55,0,0,0,12.26,121,2.36,2.36,0,0,1,10.27,122Zm856.09-2a2.37,2.37,0,0,1-2.13-1.36c-.64-1.36-1.34-2.69-2.09-4a2.36,2.36,0,0,1,4.07-2.38c.82,1.41,1.59,2.86,2.28,4.36a2.35,2.35,0,0,1-2.13,3.35Zm-843-11.36a2.35,2.35,0,0,1-1.32-4.3c1.29-.87,2.64-1.7,4-2.46a2.43,2.43,0,0,1,3.25.82,2.27,2.27,0,0,1-.7,3.13l-.19.12c-1.36.75-2.58,1.49-3.75,2.29A2.35,2.35,0,0,1,23.34,108.66Zm835.79-3.16a2.35,2.35,0,0,1-1-4.48q2-1,4-2.08a2.35,2.35,0,0,1,2.36,4.07q-2.13,1.23-4.37,2.27A2.29,2.29,0,0,1,859.13,105.5ZM40.19,100.44a2.35,2.35,0,0,1-.66-4.61c1.56-.46,3.16-.85,4.77-1.17a2.36,2.36,0,1,1,.92,4.62c-1.48.29-2.93.65-4.37,1.07A2.5,2.5,0,0,1,40.19,100.44Zm18.56-3a2.35,2.35,0,0,1-.28-4.69l4.68-.56a2.35,2.35,0,0,1,.56,4.67L59,97.47Zm18.69-2.25a2.35,2.35,0,0,1-.28-4.69L81.83,90a2.35,2.35,0,0,1,.57,4.67l-4.67.57Zm797-.52a2.36,2.36,0,0,1-1.68-4q1.56-1.59,3-3.35a2.36,2.36,0,0,1,3.64,3c-1,1.28-2.15,2.49-3.28,3.65A2.38,2.38,0,0,1,874.42,94.71ZM96.13,93a2.35,2.35,0,0,1-.28-4.69l4.67-.56a2.34,2.34,0,0,1,2.62,2.06,2.37,2.37,0,0,1-2.06,2.62L96.41,93Zm18.69-2.24a2.35,2.35,0,0,1-.28-4.69l4.67-.57a2.36,2.36,0,0,1,.56,4.68l-4.67.56Zm18.69-2.25a2.35,2.35,0,0,1-.28-4.69l4.67-.57a2.36,2.36,0,0,1,.56,4.68l-4.67.56Zm18.68-2.25a2.35,2.35,0,0,1-.28-4.69l4.68-.57a2.36,2.36,0,0,1,.56,4.68l-4.67.56ZM170.88,84a2.35,2.35,0,0,1-.28-4.69l4.68-.56a2.35,2.35,0,0,1,.56,4.67l-4.68.56Zm18.69-2.25a2.35,2.35,0,0,1-.28-4.69l4.68-.56a2.35,2.35,0,0,1,.56,4.67l-4.68.56Zm18.69-2.25A2.35,2.35,0,0,1,208,74.8l4.67-.56a2.35,2.35,0,1,1,.56,4.67l-4.67.56ZM885,79.28A2.35,2.35,0,0,1,882.89,76c.62-1.37,1.17-2.76,1.66-4.18A2.36,2.36,0,0,1,889,73.33q-.81,2.33-1.83,4.56A2.35,2.35,0,0,1,885,79.28ZM227,77.24a2.35,2.35,0,0,1-.28-4.69l4.67-.56a2.35,2.35,0,1,1,.56,4.67l-4.67.56ZM245.64,75a2.35,2.35,0,0,1-.28-4.69l4.67-.56a2.35,2.35,0,1,1,.56,4.67l-4.67.56Zm18.69-2.25a2.35,2.35,0,0,1-.28-4.69l4.67-.56a2.35,2.35,0,1,1,.56,4.67l-4.67.56ZM283,70.49a2.35,2.35,0,0,1-.27-4.69l4.67-.56a2.35,2.35,0,0,1,.56,4.67l-4.67.56Zm18.69-2.25a2.35,2.35,0,0,1-.28-4.69L306.1,63a2.35,2.35,0,0,1,.56,4.67l-4.68.56A1.32,1.32,0,0,1,301.7,68.24ZM320.39,66a2.35,2.35,0,0,1-.28-4.69l4.68-.56a2.35,2.35,0,0,1,.56,4.67l-4.68.56A1.32,1.32,0,0,1,320.39,66Zm18.69-2.25a2.35,2.35,0,0,1-.28-4.69l4.67-.56a2.35,2.35,0,1,1,.56,4.67l-4.67.56A1.32,1.32,0,0,1,339.08,63.74Zm18.69-2.25a2.35,2.35,0,0,1-.28-4.69l.71-.08,1.05-1.54a2.35,2.35,0,0,1,3.88,2.66l-1.66,2.42a2.32,2.32,0,0,1-1.66,1l-1.76.21A1.32,1.32,0,0,1,357.77,61.49Zm531.78-.38h-.15a2.35,2.35,0,0,1-2.2-2.5c.06-1,.1-2.1.1-3.16l0-1.34a2.36,2.36,0,0,1,2.29-2.41A2.4,2.4,0,0,1,892,54l0,1.45c0,1.16,0,2.31-.11,3.46A2.34,2.34,0,0,1,889.55,61.11ZM473.77,47.5a2.36,2.36,0,0,1-2.24-1.65c-.39-1.24-.82-2.46-1.31-3.66a2.36,2.36,0,0,1,4.38-1.75c.33.85.65,1.7.95,2.57a2.35,2.35,0,0,1-.86,4.4l-.64.07A1.27,1.27,0,0,1,473.77,47.5Zm-104.6-.29a2.32,2.32,0,0,1-1.33-.41,2.35,2.35,0,0,1-.61-3.27l2.65-3.88a2.36,2.36,0,0,1,3.89,2.66l-2.66,3.88A2.34,2.34,0,0,1,369.17,47.21Zm119.26-1.47a2.35,2.35,0,0,1-.28-4.69l4.67-.57a2.36,2.36,0,1,1,.56,4.68l-4.67.56Zm18.69-2.25a2.35,2.35,0,0,1-.28-4.69l4.67-.56a2.33,2.33,0,0,1,2.62,2,2.37,2.37,0,0,1-2.06,2.62l-4.67.56Zm380.35-1a2.35,2.35,0,0,1-2.25-1.69c-.43-1.44-.91-2.85-1.47-4.25a2.35,2.35,0,0,1,4.38-1.73q.92,2.3,1.6,4.65a2.35,2.35,0,0,1-1.59,2.92A2.27,2.27,0,0,1,887.47,42.5ZM525.8,41.24a2.35,2.35,0,0,1-.28-4.69l4.67-.56a2.35,2.35,0,0,1,.57,4.67l-4.67.56A1.42,1.42,0,0,1,525.8,41.24ZM544.49,39a2.35,2.35,0,0,1-.28-4.69l4.68-.56a2.35,2.35,0,0,1,.56,4.67l-4.68.56A1.32,1.32,0,0,1,544.49,39Zm18.69-2.25a2.35,2.35,0,0,1-.28-4.69l4.67-.56a2.36,2.36,0,0,1,2.62,2.06,2.34,2.34,0,0,1-2.05,2.61l-4.67.57Zm18.69-2.25a2.35,2.35,0,0,1-.28-4.69l4.67-.56a2.36,2.36,0,0,1,.57,4.68l-4.68.56Zm18.69-2.24a2.35,2.35,0,0,1-.28-4.69L605,27a2.36,2.36,0,1,1,.56,4.68l-4.67.56ZM379.82,31.7A2.35,2.35,0,0,1,377.93,28c1-1.33,2-2.6,3.13-3.82a2.35,2.35,0,0,1,3.49,3.16,42.79,42.79,0,0,0-2.84,3.46A2.35,2.35,0,0,1,379.82,31.7Zm85.68-.29a2.33,2.33,0,0,1-1.87-.93c-.91-1.19-1.86-2.34-2.87-3.45a2.35,2.35,0,1,1,3.47-3.17q1.66,1.82,3.15,3.78a2.35,2.35,0,0,1-.46,3.29A2.28,2.28,0,0,1,465.5,31.41ZM619.25,30a2.35,2.35,0,0,1-.28-4.69l4.67-.57a2.36,2.36,0,1,1,.56,4.68l-4.67.56Zm18.69-2.25a2.35,2.35,0,0,1-.28-4.69l4.67-.56a2.35,2.35,0,1,1,.56,4.67l-4.67.56A1.37,1.37,0,0,1,637.94,27.75Zm241.16-2a2.35,2.35,0,0,1-1.89-.95c-.89-1.2-1.84-2.37-2.84-3.49a2.36,2.36,0,0,1,3.52-3.13Q879.53,20,881,22a2.35,2.35,0,0,1-.49,3.29A2.29,2.29,0,0,1,879.1,25.75ZM656.62,25.5a2.35,2.35,0,0,1-.27-4.69l4.67-.56a2.35,2.35,0,1,1,.56,4.67l-4.67.56A1.42,1.42,0,0,1,656.62,25.5Zm18.69-2.25a2.35,2.35,0,0,1-.27-4.69l4.67-.56a2.35,2.35,0,0,1,.56,4.67l-4.67.57ZM694,21a2.35,2.35,0,0,1-.28-4.69l4.67-.56a2.35,2.35,0,0,1,.57,4.67l-4.68.57ZM393.73,19.2a2.35,2.35,0,0,1-1.19-4.38c.54-.32,1.09-.63,1.65-.92.75-.46,1.63-1,2.53-1.44a2.35,2.35,0,0,1,2.21,4.15c-.82.44-1.62.9-2.42,1.38-.61.33-1.11.61-1.59.89A2.34,2.34,0,0,1,393.73,19.2Zm319-.45a2.35,2.35,0,0,1-.28-4.69l4.68-.56a2.36,2.36,0,0,1,.56,4.68l-4.68.56Zm-261,0a2.34,2.34,0,0,1-1.24-.36q-1.94-1.18-3.93-2.21A2.35,2.35,0,0,1,448.68,12c1.46.73,2.88,1.54,4.28,2.4a2.36,2.36,0,0,1-1.24,4.36Zm279.66-2.23a2.35,2.35,0,0,1-.28-4.69l4.67-.57a2.36,2.36,0,0,1,.57,4.68l-4.67.56Zm18.69-2.25a2.35,2.35,0,0,1-.28-4.69L754.46,9a2.35,2.35,0,1,1,.56,4.67l-4.67.56ZM865.43,13a2.3,2.3,0,0,1-1.27-.38c-1.26-.81-2.55-1.57-3.89-2.28a2.35,2.35,0,1,1,2.22-4.15c1.45.77,2.86,1.59,4.22,2.48A2.35,2.35,0,0,1,865.43,13ZM768.76,12a2.35,2.35,0,0,1-.28-4.69l4.67-.56a2.35,2.35,0,1,1,.56,4.67L769,12A1.37,1.37,0,0,1,768.76,12ZM411,12a2.35,2.35,0,0,1-.52-4.65c1.59-.36,3.2-.66,4.83-.89a2.35,2.35,0,0,1,.65,4.66c-1.49.21-3,.48-4.43.82A2.33,2.33,0,0,1,411,12Zm23.35-.22a2.09,2.09,0,0,1-.49-.05c-1.47-.31-2.95-.56-4.44-.74a2.35,2.35,0,0,1-2.05-2.62A2.32,2.32,0,0,1,430,6.27c1.63.2,3.25.47,4.85.81a2.35,2.35,0,0,1-.49,4.65Zm353.1-2a2.35,2.35,0,0,1-.28-4.69l4.67-.56a2.35,2.35,0,1,1,.56,4.67l-4.67.56A1.37,1.37,0,0,1,787.45,9.76Zm18.68-2.25a2.35,2.35,0,0,1-.27-4.69l4.67-.56a2.37,2.37,0,0,1,2.61,2.06,2.34,2.34,0,0,1-2,2.61l-4.67.57Zm42.08-1.9a2.39,2.39,0,0,1-.53-.06c-1.46-.34-2.94-.61-4.42-.81a2.35,2.35,0,1,1,.63-4.66c1.63.22,3.24.51,4.84.88a2.35,2.35,0,0,1-.52,4.65Zm-23.39-.35a2.35,2.35,0,0,1-.28-4.69L829.22,0a2.36,2.36,0,0,1,.56,4.68l-4.68.56Z"/><path class="cls-3" d="M763.65,92.24a17.5,17.5,0,0,0,10,2.38,16.67,16.67,0,0,0,7.43-2.17c1.56-.78,3.56-1.87,5.69-3.11l1-.43c9.22-5.13,16.53-8.6,21.74-10.32S824.7,75,839.23,73A18.51,18.51,0,0,0,850.9,66a17.33,17.33,0,0,0,3.56-13.35,16.69,16.69,0,0,0-3-7.51,18.89,18.89,0,0,0-6-5.55,18.62,18.62,0,0,0-7.5-2.47h-.36a2.34,2.34,0,0,0-1.08,4.35A11,11,0,0,1,842,50,10.32,10.32,0,0,1,840,58.09a11,11,0,0,1-7.59,4.32c-10.25,1.58-18.4,3.07-24.2,4.44a77.57,77.57,0,0,0-13.93,4.4c-3.28,1.49-8.5,4.13-15.59,7.87-2.7,1.53-4.8,2.68-6.42,3.49a11.26,11.26,0,0,1-4.94,1.58A10.65,10.65,0,0,1,760,81.48a2.34,2.34,0,0,0-1.58-.51c-.17,0-.3.14-.47.18a2.31,2.31,0,0,0-.32-2,5.83,5.83,0,0,1-.71-1.29A11.06,11.06,0,0,1,755.65,74a2.34,2.34,0,0,0-2.43-2L392.57,115.37a2.35,2.35,0,0,0-1.66,1L168.34,441.5a10.91,10.91,0,0,1-8.73,4.84,11.36,11.36,0,0,1-6.91-1.84,2.3,2.3,0,0,0-.5-.24h0a2.33,2.33,0,0,0-1.68-.6,2.3,2.3,0,0,0-1.27.45,2.35,2.35,0,0,0-.74,2.86,15.91,15.91,0,0,0,6.14,7,17.82,17.82,0,0,0,24.9-4.89L400.79,125.61,756,82.87c.11,0,.19-.09.28-.11a2.29,2.29,0,0,0,.18,1.68l.25.43A17.36,17.36,0,0,0,763.65,92.24Z"/><path class="cls-3" d="M413.31,90.25l12-1.69a2.27,2.27,0,0,0,1.6-1l11.05-16.13a18.06,18.06,0,0,0,2.91-13.58,17.07,17.07,0,0,0-7.56-11.59,16.11,16.11,0,0,0-9.07-2.91h-.14a2.26,2.26,0,0,0-2,2.08A2.59,2.59,0,0,0,424,48.1a11,11,0,0,1,4.76,7.31A10.75,10.75,0,0,1,427,63.9l-15.7,22.69a2.33,2.33,0,0,0,2,3.66Z"/><path class="cls-3" d="M353.71,130.63l4.91-7.11a2.34,2.34,0,0,0-2-3.66L51.35,156.41l-1.05.05A10.53,10.53,0,0,1,43,154.24a2.32,2.32,0,0,0-1.54-.48,2.28,2.28,0,0,0-1.35.51,2.34,2.34,0,0,0-.65,2.82,17.22,17.22,0,0,0,7.39,7.83A16.26,16.26,0,0,0,55.78,167c.62,0,1.25-.1,1.8-.18l294.49-35.21A2.34,2.34,0,0,0,353.71,130.63Z"/><path class="cls-3" d="M424.34,254.94c-11.64,13.1-19,22.1-22.53,27.52a2.34,2.34,0,0,0,2.08,3.61,2,2,0,0,0,.58-.11A80.62,80.62,0,0,0,423,276.88a2.16,2.16,0,0,0,.53-.47c2.64-3.11,6.46-7.52,11.41-13.2,12-13.49,20.12-23.64,24.14-30.16,4.32-7,5.55-13.85,3.64-20.4-2.14-7-7-11.59-14.36-13.57a22.46,22.46,0,0,0-3.55-.69,1.63,1.63,0,0,0-.38,0,2.33,2.33,0,0,0-.85,4.45,12,12,0,0,1,6.86,7.91c1.49,4.73.48,9.8-3.07,15.5C443.6,232.34,435.85,242,424.34,254.94Z"/><path class="cls-3" d="M378.12,221.46a2.33,2.33,0,0,0,2.07,3.62,2.3,2.3,0,0,0,1.26-.45,170.87,170.87,0,0,1,18.36-11.87,2.25,2.25,0,0,0,.83-.76c18.47-28,28-42.67,29.23-45a15.77,15.77,0,0,0,.61-12.2,16.49,16.49,0,0,0-8-9.32A17.76,17.76,0,0,0,416,144a1.47,1.47,0,0,0-.21,0,2.34,2.34,0,0,0-1.14,4.3,9.38,9.38,0,0,1,4.11,5.31,8.7,8.7,0,0,1-.48,6.47C417.46,161.71,409.8,173.72,378.12,221.46Z"/><path class="cls-3" d="M409.4,243.53a2.36,2.36,0,0,0,1.05-.68c6.63-7.53,11.51-13.22,14.49-16.9a2.34,2.34,0,0,0-1.94-3.81,2.67,2.67,0,0,0-.72.16c-10.68,4.13-23.78,12.18-38.91,23.92a387.62,387.62,0,0,0-58.9,55.86c-.62,1-1.16,1.92-1.69,2.7a8.71,8.71,0,0,1-7.59,4.38,9.8,9.8,0,0,1-6.31-1.83,2.33,2.33,0,0,0-1.45-.41,2.27,2.27,0,0,0-1.4.56,2.32,2.32,0,0,0-.59,2.78,16.7,16.7,0,0,0,4.56,5.86,15,15,0,0,0,10.73,3.5l.79,0a15.36,15.36,0,0,0,12.61-7.45l1.5-2.45a387.52,387.52,0,0,1,57.74-54.33C398.74,251.18,404,247.31,409.4,243.53Z"/><path class="cls-3" d="M449.54,282a2.32,2.32,0,0,0-1.09-.22,2.39,2.39,0,0,0-1.34.51c-.59.47-1.16.95-1.74,1.43s-1.45,1.23-2.22,1.81c-16.8,12.66-31.53,19.41-43.79,20a21.93,21.93,0,0,1-12.65-2.71,6.33,6.33,0,0,1-1.81-1.46,2.37,2.37,0,0,0-1.88-.79,2.27,2.27,0,0,0-1.18.41,2.32,2.32,0,0,0-.78,3,21.39,21.39,0,0,0,7.89,8.52c4.54,2.64,10.09,3.81,16.48,3.49,8.73-.46,18.57-3.7,29.27-9.66a162,162,0,0,0,16.82-10.89,2.32,2.32,0,0,0,.84-2.59,34.06,34.06,0,0,1-1.46-8.84A2.34,2.34,0,0,0,449.54,282Z"/><path class="cls-3" d="M556,197.81a13.42,13.42,0,0,1,2.43,3.7A2.31,2.31,0,0,0,560,202.8a2,2,0,0,0,.64.06,2.31,2.31,0,0,0,1.37-.54,34.4,34.4,0,0,0,3.51-3.29,2.34,2.34,0,0,0-.12-3.26,20.48,20.48,0,0,0-12.15-5.61,2.57,2.57,0,0,0-.39,0,2.34,2.34,0,0,0-1,4.4A14,14,0,0,1,556,197.81Z"/><path class="cls-3" d="M540.65,278a2.35,2.35,0,0,0,1.78.68,2.14,2.14,0,0,0,.7-.15,74.71,74.71,0,0,0,13-6.65A2.43,2.43,0,0,0,557,271a278.15,278.15,0,0,1,35.68-53.35,15.76,15.76,0,0,0-.77-21,15.84,15.84,0,0,0-11-5h-.23a2.34,2.34,0,0,0-1,4.4,11,11,0,0,1,1.78,1.17,9.46,9.46,0,0,1,2.34,6.16,9.86,9.86,0,0,1-2.09,6.37A329.65,329.65,0,0,0,556.31,245c-7.78,12.45-13.22,22.71-16.18,30.5A2.33,2.33,0,0,0,540.65,278Z"/><path class="cls-3" d="M541.71,214.39a2.35,2.35,0,0,0-2.45-2.45h-.13a70.28,70.28,0,0,0-36.44,15,100.61,100.61,0,0,0-25.38,28.57c-4.5,7.88-7,15-7.43,21.14a2.33,2.33,0,0,0,1.11,2.15,2.29,2.29,0,0,0,1.34.35,2.38,2.38,0,0,0,1.08-.33c2.95-1.76,6.61-4.2,10.87-7.25a2.33,2.33,0,0,0,.8-1,82,82,0,0,1,3.66-7.8,95.75,95.75,0,0,1,20.87-24.35,67.93,67.93,0,0,1,29.57-14.91,2.41,2.41,0,0,0,1.24-.72l.76-.85a2.3,2.3,0,0,0,.93-.79,2.32,2.32,0,0,0,.3-2.06A12.73,12.73,0,0,1,541.71,214.39Z"/><path class="cls-3" d="M521.67,267.12a2.34,2.34,0,0,0-1.48-.42,2.25,2.25,0,0,0-1.37.54c-3.4,2.83-6.54,5.56-9.32,8.11a241.38,241.38,0,0,1-25,18.38c-6.35,3.91-11.85,6-16.35,6.23a13,13,0,0,1-8.76-2.6,6.73,6.73,0,0,0-1.12-1.21,2.31,2.31,0,0,0-1.68-.6,2.25,2.25,0,0,0-1.34.51,2.33,2.33,0,0,0-.58,3,25.23,25.23,0,0,0,5.86,7,19,19,0,0,0,13.71,4.68c5.62-.29,12-2.63,19.08-6.94,6.8-4.17,15.4-10.58,25.54-19a2.36,2.36,0,0,0,.84-1.81c0-3.56.92-7.95,2.82-13A2.35,2.35,0,0,0,521.67,267.12Z"/><path class="cls-3" d="M573.35,287.24a2.33,2.33,0,0,0-1-2.37,2.36,2.36,0,0,0-1.4-.38,2.38,2.38,0,0,0-1.19.4c-12.41,8.39-23.39,12.89-32.63,13.36a25.29,25.29,0,0,1-7.14-.59,13.61,13.61,0,0,1-5.44-2.64,2.33,2.33,0,0,0-2.95,0,2.33,2.33,0,0,0-.58,2.9A18.89,18.89,0,0,0,534.07,308a32.41,32.41,0,0,0,8.85.69c7.84-.41,16.89-3.3,26.91-8.6.69-.36,1.39-.79,2.09-1.22l1.12-.67a2.42,2.42,0,0,0,1-3A15,15,0,0,1,573.35,287.24Z"/><path class="cls-3" d="M689.57,248.57q-5.93,8.24-9.12,12.9a2.34,2.34,0,0,0,2,3.66,2.3,2.3,0,0,0,1-.28,164.54,164.54,0,0,0,19.94-12.79,2.51,2.51,0,0,0,.51-.52c12.33-17.25,20.09-29.41,23.76-37.16,3.89-8.27,4-15.66.32-22a17,17,0,0,0-14.08-8.7h-.3a2.34,2.34,0,0,0-1,4.41,9.39,9.39,0,0,1,4,3.83c2.52,4.44,2.09,9.9-1.32,16.72C711.69,216,703,229.47,689.57,248.57Z"/><path class="cls-3" d="M646.34,207.85a2.34,2.34,0,0,0,2,3.68,2.3,2.3,0,0,0,1.22-.42c5.36-3.75,10.71-7.18,15.91-10.22a2.31,2.31,0,0,0,1.12-1.62,15.76,15.76,0,0,0-15.21-18.41h-.14a2.29,2.29,0,0,0-2.1,1.81,2.38,2.38,0,0,0,.91,2.44,2.66,2.66,0,0,0,.57.54,8.26,8.26,0,0,1,3.85,5.82,8.85,8.85,0,0,1-1.57,6.85Q650.73,201.58,646.34,207.85Z"/><path class="cls-3" d="M681.35,227.67q5.91-8.25,9.85-14a2.34,2.34,0,0,0-2.06-3.65,2.23,2.23,0,0,0-.79.19c-15.1,6.45-32,17.49-50.18,32.83a367,367,0,0,0-48.32,48.82,8.41,8.41,0,0,1-6.5,3.48,8.92,8.92,0,0,1-3.88-.65,2.42,2.42,0,0,0-1-.16,2.38,2.38,0,0,0-1.17.38l-1.23.76a2.33,2.33,0,0,0-.67,3.3,16.17,16.17,0,0,0,3.73,3.93,15.56,15.56,0,0,0,10,2.89,15.92,15.92,0,0,0,11.72-5.86,344.89,344.89,0,0,1,38.88-40.63,295.17,295.17,0,0,1,40.9-31A2.55,2.55,0,0,0,681.35,227.67Z"/><path class="cls-3" d="M711.51,274.52a2.34,2.34,0,0,0-3.35-3.06q-4,2.69-8.23,5.23c-15,8.92-27,13.67-35.55,14.11a16.25,16.25,0,0,1-8.92-1.71,2.35,2.35,0,0,0-.54-.22,2,2,0,0,1-.67-.45,2.34,2.34,0,0,0-3.69,2.73,16.2,16.2,0,0,0,7.12,7.58,23.13,23.13,0,0,0,12.69,2.57c9.91-.51,22.45-5.38,38.37-14.89a2.33,2.33,0,0,0,1.13-2.19,18.57,18.57,0,0,1,.44-5.53A9.14,9.14,0,0,1,711.51,274.52Z"/><path class="cls-3" d="M758,244a2.34,2.34,0,0,0-1.92-1.55,2,2,0,0,0-.42,0,2.34,2.34,0,0,0-1.83,1.05q-19.07,28.92-26.7,40.45a8.33,8.33,0,0,1-7.06,4.36,8.81,8.81,0,0,1-5.91-1.83l-.54-.23a2.23,2.23,0,0,0-1-.19,2.31,2.31,0,0,0-1.57.71,2.35,2.35,0,0,0-.41,2.65,17.06,17.06,0,0,0,5.89,6.75,15.71,15.71,0,0,0,9.39,2.58,14.87,14.87,0,0,0,12.59-7.4q6.59-10.08,22.2-33.49l1-1.37a2.3,2.3,0,0,0,.25-2.28C760.54,251,759.23,247.61,758,244Z"/><path class="cls-3" d="M841.3,259.14a39.68,39.68,0,0,0,12.07,1.93l.52,0a2.36,2.36,0,0,0,1.62-.78l1.56-1.74a17.19,17.19,0,0,0,3.81-8.87,14.88,14.88,0,0,0-.48-6.17,17.77,17.77,0,0,0-7.29-9.45,14.79,14.79,0,0,0-7.71-2h-.12a2.34,2.34,0,0,0-1,4.38,6.76,6.76,0,0,1,2.57,2.34,8.52,8.52,0,0,1,1.59,6.81,9.16,9.16,0,0,1-3.7,6.13,44.75,44.75,0,0,0-4.25,3.55,2.34,2.34,0,0,0,.82,3.9Z"/><path class="cls-3" d="M778.82,206.35a2.33,2.33,0,0,0,2.06,3.63l.35,0a91.27,91.27,0,0,0,13.6-4,2.38,2.38,0,0,0,1.32-1.48c24.44-36.79,37-55.84,38.34-58.38a15.76,15.76,0,0,0,.6-12.2,16.13,16.13,0,0,0-8.17-9.26,15.43,15.43,0,0,0-6.28-1.55h-.21a2.33,2.33,0,0,0-1.21,4.25,9.81,9.81,0,0,1,3.92,5.36,8.87,8.87,0,0,1-.54,6.59C821.88,141,813.69,153.94,778.82,206.35Z"/><path class="cls-3" d="M850.52,202.16a15.38,15.38,0,0,0,3.25-11.76,15,15,0,0,0-6.17-10.6,14.39,14.39,0,0,0-9.26-3.3h-.14a2.34,2.34,0,0,0-.81,4.48,3.87,3.87,0,0,1,.68.49,7.91,7.91,0,0,1,3.37,5.9,9.44,9.44,0,0,1-2,7c-15.35,19.89-36.73,31.72-63.55,35.15a2.37,2.37,0,0,0-1.65,1,2.34,2.34,0,0,0-.31,1.91,89.61,89.61,0,0,0,7.79,19.63c3.41,6.22,7.37,9.89,12,10.94a16.81,16.81,0,0,0,3.38.13,2.33,2.33,0,0,0,1.28-4.19q-6.14-4.64-10.76-19.9C813.83,234.79,835,222.36,850.52,202.16Z"/><path class="cls-3" d="M888.75,226.72c-4.07-4.63-6.9-8.05-8.51-10.34,3.19-4.59,9.45-8.64,18.62-12.07a2.37,2.37,0,0,0,1.31-1.2,61.24,61.24,0,0,1,5.12-8.9,2.34,2.34,0,0,0-2-3.66,2,2,0,0,0-.35,0A75.32,75.32,0,0,0,881,198.67c-6.73,3.81-11.28,8.24-13.53,13.17a2.33,2.33,0,0,0,.06,2.06c1.27,2.42,4.69,6.8,10.47,13.38,6.43,7.29,10.81,12.73,13,16.12,5.75,9.44,5.77,16.78.06,22.46-8.22,8.24-19.78,12.8-34.36,13.55a52.84,52.84,0,0,1-19.91-2.52,26.84,26.84,0,0,1-11-5.95,2.34,2.34,0,0,0-1.74-.65,2.27,2.27,0,0,0-1.32.5,2.33,2.33,0,0,0-.63,2.86,2.19,2.19,0,0,0-.38-.17,2.28,2.28,0,0,0-.63-.06,2.4,2.4,0,0,0-1.15.37c-7.85,5-15.23,7.77-21.91,8.12a26.75,26.75,0,0,1-8.91-1,32.1,32.1,0,0,1-17-10.47,2.34,2.34,0,0,0-3.2-.28,2.35,2.35,0,0,0-.46,3.18c6.75,9.6,15,15.63,24.61,17.91a36.62,36.62,0,0,0,11,1.12c7.44-.38,15.46-3.19,23.85-8.33a2.19,2.19,0,0,0,1-2.71,37.72,37.72,0,0,0,11.51,5.85,61.2,61.2,0,0,0,22.33,2.7c16.13-.84,29.15-6.05,38.72-15.51a22.89,22.89,0,0,0,4.24-5.78c1.26-2.38,1.75-5.81,1.51-10.5a30.25,30.25,0,0,0-5-14.34C899.87,240.05,895.34,234.34,888.75,226.72Z"/><path class="cls-3" d="M946.8,179.14c-2.35-6.34-7-10.1-14.41-11.18a1.92,1.92,0,0,1-.57-.11,2.19,2.19,0,0,0-.76-.08,2.34,2.34,0,0,0-1,4.38,9.94,9.94,0,0,1,4.82,5.55,9.8,9.8,0,0,1-.19,7.84,57.76,57.76,0,0,1-7.29,10.57c-10.69,12.62-11.81,17.28-11.6,19.93a9,9,0,0,1-2.19,6.76,8.31,8.31,0,0,1-6.31,3.13l-.61.06a8.65,8.65,0,0,1-5.53-1.62,2.33,2.33,0,0,0-3.42,3,17.86,17.86,0,0,0,3.57,4.81,16.2,16.2,0,0,0,5.4,3.42,15,15,0,0,0,6.31,1.07l.52,0h.11A16,16,0,0,0,924.41,231a15,15,0,0,0,3.74-11.7c0-.51.34-3.62,10.24-15.33q1.67-2.13,2.61-3.18t2.76-3.48a18.35,18.35,0,0,0,2.49-4.41c.4-1.12.8-2.38,1.19-3.78a15,15,0,0,0,.52-4.85A16.53,16.53,0,0,0,946.8,179.14Z"/><path class="cls-5" d="M754.66,84.82c.21.35.4.69.59,1a18.49,18.49,0,0,0,7.65,7.91,19.89,19.89,0,0,0,10.81,2.47A20.83,20.83,0,0,0,782,94c1.37-.78,3.33-1.84,5.89-3.21l.52-.29q13.83-7.56,21.75-10.08t29.11-5.72a19.42,19.42,0,0,0,13-7.66,18.52,18.52,0,0,0,3.73-14.56,18.82,18.82,0,0,0-2.33-7,19.79,19.79,0,0,0-4.63-5.57,22,22,0,0,0-6.25-3.5,18.78,18.78,0,0,0-7.44-1.06l-1.32.07L431.69,83.8l7.85-11.48a18.13,18.13,0,0,0,3.06-14.65,19.83,19.83,0,0,0-8.16-12.76,20.31,20.31,0,0,0-12.3-3.32A19.7,19.7,0,0,0,411.77,45a13,13,0,0,0-5.56,4.77l-27.7,40.44L53.12,129.4a19,19,0,0,0-9,3.37q-7.45,3.54-7.82,12a16.47,16.47,0,0,0-.44,6.61,21.42,21.42,0,0,0,1.61,5.85,17.63,17.63,0,0,0,3.15,4.84,21.5,21.5,0,0,0,9.94,6.08,18.52,18.52,0,0,0,6,.62l1.31-.07,291.07-35-173.33,253a20.83,20.83,0,0,0-8.26,3.32,13.43,13.43,0,0,0-7.46,8.82A98,98,0,0,1,147.33,428a12.39,12.39,0,0,0-2,6.69,19.7,19.7,0,0,0,1,11.67,19.18,19.18,0,0,0,7.46,9.25,19.74,19.74,0,0,0,11.76,3.08q10-.53,15.38-8.44l220.88-323Zm18.71-.17q2.31-1.17,6.42-3.49,10.51-5.55,15.4-7.78a75.35,75.35,0,0,1,13.51-4.26q8.58-2,24-4.4a13.33,13.33,0,0,0,9.09-5.21,12.63,12.63,0,0,0,2.51-9.89,13.21,13.21,0,0,0-6.58-10.2,16.18,16.18,0,0,1,6.57,2.16,16.61,16.61,0,0,1,5.26,4.87,14.45,14.45,0,0,1,2.57,6.46,15,15,0,0,1-3.09,11.63,16.17,16.17,0,0,1-10.22,6.19q-22,3-30,5.64t-22.13,10.5l-.77.3q-3.58,2-5.9,3.2a14.5,14.5,0,0,1-6.49,1.91,15.38,15.38,0,0,1-14.68-8.46l-.28-.52Q765.69,89,773.37,84.65ZM428.89,65.23A13.07,13.07,0,0,0,431,55a13.33,13.33,0,0,0-5.73-8.8,2.94,2.94,0,0,0-1.07-.47A13.63,13.63,0,0,1,432,48.2a14.79,14.79,0,0,1,6.58,10.07A15.65,15.65,0,0,1,436,70.13L425,86.25l-11.78,1.67ZM57.3,164.51a14.09,14.09,0,0,1-9.3-1.63,14.82,14.82,0,0,1-6.41-6.79,12.88,12.88,0,0,0,8.83,2.71l1-.06L356.7,122.2l-4.91,7.1ZM177.61,447.76A15.51,15.51,0,0,1,156,452a13.67,13.67,0,0,1-5.32-6.05c.36.32.63.49.81.48a13.8,13.8,0,0,0,8.29,2.21,13.27,13.27,0,0,0,10.51-5.81l222.6-325.18,360.5-43.35A13.4,13.4,0,0,0,754.89,79a6.62,6.62,0,0,0,.88,1.53L399.46,123.42Z"/><path class="cls-5" d="M948.49,178.43q-4-10.34-15.39-12.12a70.13,70.13,0,0,0-12.94-.38q-27.61,1.41-49.32,14.66a58.72,58.72,0,0,0-15.25,11.87,17.11,17.11,0,0,0-.08-2.25,17.72,17.72,0,0,0-6.67-11.92,17.48,17.48,0,0,0-11.79-3.6,16.4,16.4,0,0,0-9.31,3.37,11.33,11.33,0,0,0-4.57,3.41A69,69,0,0,1,804,198.53c-1,.58-2,1.07-2.83,1.46q33-49.41,34.69-53.19a16.32,16.32,0,0,0,.89-13.48,16.85,16.85,0,0,0-9.22-10.08,16.13,16.13,0,0,0-8.53-1.93,17.22,17.22,0,0,0-9.32,3.38,12.23,12.23,0,0,0-5.79,5.31q-2.42,4.33-45,68.22l-8.59,12.91a11.19,11.19,0,0,0-5.79-.57,10.58,10.58,0,0,0-7.4,4.86,169.37,169.37,0,0,1-24,26l15.57-25.33q6.63-14.56.84-24.55a18.71,18.71,0,0,0-8.3-7.75A20.19,20.19,0,0,0,709.59,182q-18.11,1.72-40.91,14.5a16.81,16.81,0,0,0-7.57-14.11,16.39,16.39,0,0,0-11-3.38,17.52,17.52,0,0,0-9.57,3.39,11.31,11.31,0,0,0-4.82,3.94c-8.31,11.85-16,22.88-23.08,33.27a11.54,11.54,0,0,0-5.53-.43,10.54,10.54,0,0,0-7.4,4.87q-18.18,25.71-37.45,40.67a289.91,289.91,0,0,1,31.65-45.91,17.63,17.63,0,0,0,4-11.94,17.08,17.08,0,0,0-4.67-11.49,16.71,16.71,0,0,0-13.74-5.62,17.6,17.6,0,0,0-9.58,3.39,5.8,5.8,0,0,0-2,1.17,2.77,2.77,0,0,0-.76.56A21.1,21.1,0,0,0,551,188.37l-3.69.19Q521,189.91,497.52,205.1a115.6,115.6,0,0,0-19.63,15.64c-1.48,1.46-2.89,2.93-4.26,4.43a11.26,11.26,0,0,0-5.19,4.09,173.61,173.61,0,0,1-31.92,35.13q18.68-21.25,24.85-31.73t3-20.58q-3.5-11.43-15.51-14.5a37.46,37.46,0,0,0-11.4-1.25q-13.15.67-30.85,10,23.22-35.21,24.89-38.72a17.9,17.9,0,0,0-8.33-23.55,16,16,0,0,0-8.54-1.93,17.67,17.67,0,0,0-9.58,3.38,12.36,12.36,0,0,0-5.52,5.3q-2.42,4.33-45,68.22-36.22,54.32-46.73,70.42a28.63,28.63,0,0,0-2.47,3,10.94,10.94,0,0,0-2.55,7q-2.6,10.95,5.93,17.89a16.65,16.65,0,0,0,12.08,4.11l.79,0a16.57,16.57,0,0,0,13.82-8.09l1.72-2.45a368.89,368.89,0,0,1,57-54.35,17.27,17.27,0,0,0,2.79-2q-18.89,22.32-19.86,34a26.28,26.28,0,0,0-.07,9,22.54,22.54,0,0,0,11.13,16.56,31.56,31.56,0,0,0,17.32,3.6q13.94-.72,31.36-10.59a159.14,159.14,0,0,0,14.78-9.58,28.56,28.56,0,0,0,7.63,9.75,21.11,21.11,0,0,0,15,5q8.15-.42,18.14-6.2a209.27,209.27,0,0,0,24.41-17.34,29.67,29.67,0,0,0,1.14,6.8,21,21,0,0,0,15.76,14.21,30.88,30.88,0,0,0,9.27.84q12.62-.65,28.76-9.52c.66-.36,1.33-.83,2-1.22a17.58,17.58,0,0,0,15.49,7.83,16.78,16.78,0,0,0,12.84-6.73,366.84,366.84,0,0,1,34.37-36.3,317.33,317.33,0,0,1,36.84-29.58l-.24.54c-.33.37-.5.65-.49.82q-14.51,20.25-19.48,28.68t-5.48,13.73a23.09,23.09,0,0,0,.21,9.21,17.75,17.75,0,0,0,9.07,12.45A26.07,26.07,0,0,0,670.21,303c10-.51,22.76-5.32,38.22-14.32.08.24.13.49.23.74a17,17,0,0,0,6.88,8.35A17.21,17.21,0,0,0,726,300.61a16.78,16.78,0,0,0,14.08-8.1q6.09-9.81,20.05-30.56,11.61,26,32.7,31a35.74,35.74,0,0,0,11.4,1.25c8.43-.43,17.19-3.69,26.24-9.54a45.21,45.21,0,0,0,9.33,4.28,63.41,63.41,0,0,0,23.08,2.77q25-1.29,39.78-16a27.85,27.85,0,0,0,4.67-6.3q1.94-3.54,1.68-11T903.83,243q-3.72-5.87-13.55-17.5-5.6-6-7.85-9.08,4.23-5,13.77-9.14a22.35,22.35,0,0,0-1,5.58,40.2,40.2,0,0,0-.58,9.26,17.17,17.17,0,0,0,6,11.82,16.93,16.93,0,0,0,12.49,4.36l.52,0a17.28,17.28,0,0,0,12.07-6.16A17.76,17.76,0,0,0,930,219.19q-.13-2.62,9.56-13.94c1.16-1.28,2-2.3,2.6-3s1.41-1.82,2.48-3.29a24.86,24.86,0,0,0,2.31-3.68c.48-1,1-2.2,1.52-3.64a19.71,19.71,0,0,0,1.12-4.14,17.48,17.48,0,0,0,0-4.35A18.5,18.5,0,0,0,948.49,178.43Zm-499.12,49q5.85-9.39,3.32-17.43a14.24,14.24,0,0,0-8.12-9.33,20.17,20.17,0,0,1,3.19.62q9.9,2.65,12.75,12,2.57,8.83-3.4,18.49t-23.9,29.84q-7.47,8.55-11.44,13.25a78.84,78.84,0,0,1-18,8.83q5.13-7.9,22.32-27.25Q443.54,236.87,449.37,227.47Zm-29-66.38a11.09,11.09,0,0,0,.64-8.2,11.76,11.76,0,0,0-5.09-6.6,15.37,15.37,0,0,1,5.6,1.3,14,14,0,0,1,6.74,7.95,13.41,13.41,0,0,1-.52,10.45q-1.67,3.24-29.06,44.72a170.3,170.3,0,0,0-18.62,12Q418.47,164.88,420.38,161.09Zm-28.45,92.42a387.44,387.44,0,0,0-58.07,54.65l-1.71,2.73a13,13,0,0,1-10.75,6.35l-.79,0a12.64,12.64,0,0,1-9.11-3,14.14,14.14,0,0,1-3.95-5.06,12.16,12.16,0,0,0,7.76,2.23h.26a10.87,10.87,0,0,0,9.21-5.49c.49-.72,1.06-1.63,1.7-2.72a385.29,385.29,0,0,1,58.31-55.2q22.56-17.5,38.33-23.59Q418.67,230,408.7,241.3a.77.77,0,0,0-.51.29Q400.3,247,391.93,253.51Zm41.64,50.84q-15.65,8.7-28.26,9.36-8.94.46-15.18-3.17a18.92,18.92,0,0,1-7-7.55,8.7,8.7,0,0,0,2.47,2q5.72,3.4,13.86,3,19.18-1,45.08-20.52c1.39-1.05,2.65-2.19,4-3.27a35.25,35.25,0,0,0,1.57,9.45A160.45,160.45,0,0,1,433.57,304.35ZM563.81,197.46a31.72,31.72,0,0,1-3.27,3.07,17.68,17.68,0,0,0-7.53-8.05A18.16,18.16,0,0,1,563.81,197.46Zm-5.52,48.79a326.77,326.77,0,0,1,25.21-35,12.33,12.33,0,0,0,2.63-7.91,11.84,11.84,0,0,0-2.9-7.63,12.56,12.56,0,0,0-2.46-1.71,13.51,13.51,0,0,1,9.44,4.25,12.91,12.91,0,0,1,3.76,8.9,13.08,13.08,0,0,1-3.1,9,279.21,279.21,0,0,0-36,53.79,71,71,0,0,1-12.58,6.44Q546.72,264.78,558.29,246.25Zm-78.95,10.39a98,98,0,0,1,24.79-27.9,67.77,67.77,0,0,1,35.25-14.46,15,15,0,0,0,.81,5.49.72.72,0,0,0-.51.29l-.51.55-.49.56a69.93,69.93,0,0,0-30.58,15.4,97.71,97.71,0,0,0-21.38,25,84.23,84.23,0,0,0-3.81,8.1c-4.24,3-7.8,5.41-10.7,7.14Q472.83,268,479.34,256.64Zm52.53-29.32q-17.61,16.45-30.23,27.12Q495.58,259.77,490,264l.5-.55a86.48,86.48,0,0,1,17-21A71.44,71.44,0,0,1,531.87,227.32ZM517.34,282.9q-15.17,12.63-25.26,18.83t-18,6.59A16.65,16.65,0,0,1,462,304.2a22.45,22.45,0,0,1-5.33-6.32c.55.5.83.84.84,1a15.39,15.39,0,0,0,10.72,3.41q7.37-.39,17.46-6.57A244.68,244.68,0,0,0,511,277.16q4.28-3.92,9.33-8.13C518.31,274.41,517.31,279,517.34,282.9ZM568.73,298q-14.62,7.74-25.93,8.32a29.55,29.55,0,0,1-8.2-.63,16.62,16.62,0,0,1-11.54-8.89,16,16,0,0,0,6.36,3.1,27.72,27.72,0,0,0,7.81.65q14.63-.76,33.82-13.76a17.5,17.5,0,0,0,.74,9.21l.07.15C570.82,296.8,569.77,297.49,568.73,298Zm148.74-88.33q5.61-11.22,1.27-18.91a11.86,11.86,0,0,0-5-4.75A14.68,14.68,0,0,1,726,193.59q4.92,8.44-.43,19.79T702,250.18a161.29,161.29,0,0,1-19.65,12.61q3.18-4.64,9.09-12.85Q711.85,220.95,717.47,209.71Zm-62.6-10.08a11.13,11.13,0,0,0,1.93-8.54,10.57,10.57,0,0,0-4.86-7.4c0-.17-.2-.34-.56-.49a13.43,13.43,0,0,1,12.94,15.68q-7.94,4.62-16.07,10.31Q652.66,202.91,654.87,199.63Zm-16.66,57.92a348,348,0,0,0-39.14,40.91,13.54,13.54,0,0,1-10,5,13.14,13.14,0,0,1-8.55-2.46,13.56,13.56,0,0,1-3.16-3.35c.43-.27.85-.5,1.27-.78a11.31,11.31,0,0,0,4.88.82,10.71,10.71,0,0,0,8.21-4.38,363,363,0,0,1,48-48.47q27.15-22.89,49.59-32.48-3.91,5.75-9.81,14A297.22,297.22,0,0,0,638.21,257.55ZM708,278.61a18.46,18.46,0,0,0-.43,5.79q-34.14,20.43-48.72,12.29a13.81,13.81,0,0,1-6.13-6.53,4.25,4.25,0,0,0,1.62,1q13.31,7.47,46.82-12.43,4.26-2.58,8.33-5.3A11.65,11.65,0,0,0,708,278.61Zm50.79-22.13Q743.1,280,736.5,290.06a12.63,12.63,0,0,1-10.75,6.35,13.42,13.42,0,0,1-8-2.22,14.64,14.64,0,0,1-5-5.81l.54.24a10.49,10.49,0,0,0,7,2,10.62,10.62,0,0,0,8.94-5.48q7.59-11.46,26.65-40.39c1.25,3.63,2.56,7.08,4,10.34Zm99.8-7.11a14.86,14.86,0,0,1-3.29,7.68l-1.5,1.66-.52,0a37.32,37.32,0,0,1-11.17-1.8,42.59,42.59,0,0,1,4-3.37,11.55,11.55,0,0,0,4.62-7.62,10.86,10.86,0,0,0-2-8.6,9,9,0,0,0-3.32-3,12.5,12.5,0,0,1,6.52,1.69,15.41,15.41,0,0,1,6.25,8.12A12.58,12.58,0,0,1,858.56,249.37Zm-27.48-13.53A39.36,39.36,0,0,0,820.54,247,81.37,81.37,0,0,1,809.61,256c-3.07,1.74-5.58,2.66-7.5,2.76a2.16,2.16,0,0,1-1.07-.21c-1.59-.26-3.44-2-5.53-5.11a50.47,50.47,0,0,1-5.67-12.76q34.21-6.43,56.54-30.89a8.3,8.3,0,0,0-.28,2.42,21.08,21.08,0,0,0-.56,5.07Q838,227.81,831.08,235.84Zm31.64,12.39c.17,0,.45.24.83.75q3.38,4,5.32,6.05a42.07,42.07,0,0,1-8.11,1.21A17.94,17.94,0,0,0,862.72,248.23Zm-38-108a11.16,11.16,0,0,0,.63-8.21,12.11,12.11,0,0,0-4.82-6.6,13.18,13.18,0,0,1,5.34,1.31,13.8,13.8,0,0,1,7,7.94,13.48,13.48,0,0,1-.52,10.44q-1.92,3.53-38.37,58.39v.26a88.47,88.47,0,0,1-13.25,3.85Q823.08,144,824.74,140.26Zm16.57,55.56a11.75,11.75,0,0,0,2.45-8.69,10.21,10.21,0,0,0-4.34-7.56,4.28,4.28,0,0,0-1.1-.73,12,12,0,0,1,7.79,2.76,12.78,12.78,0,0,1,5.34,9.09,13.05,13.05,0,0,1-2.77,10q-23,29.92-61.94,36.14l-2.35.39.91,2.33q4.79,16.1,11.65,21.27a14.51,14.51,0,0,1-2.92-.11c-3.72-.86-7.15-4.11-10.24-9.75a86.75,86.75,0,0,1-7.58-19.12Q817.58,226.57,841.31,195.82ZM804,290A33.89,33.89,0,0,1,793.65,289q-13.62-3.25-23.29-17a34.26,34.26,0,0,0,18.24,11.18,28.3,28.3,0,0,0,9.55,1.09c7.3-.38,15-3.32,23.06-8.48a26,26,0,0,0,5.52,6.25C818.84,286.85,811.24,289.63,804,290Zm74.18-74.73-.72,1.35.84,1A130.09,130.09,0,0,0,887,228.26q9.82,11.36,13.26,16.72,4.31,6.9,4.64,13.2c.21,4.21-.2,7.31-1.25,9.29a20.36,20.36,0,0,1-3.81,5.21q-13.79,13.63-37.2,14.83a58.31,58.31,0,0,1-21.48-2.58q-12.06-3.87-17-12.31a28.92,28.92,0,0,0,11.94,6.51,55,55,0,0,0,20.7,2.62q22.86-1.19,35.9-14.24,9.78-9.74.28-25.32-3.43-5.35-13.24-16.45-8.41-9.6-10.15-12.93,3.06-6.74,12.56-12.11a72.93,72.93,0,0,1,21.2-7.81,64.51,64.51,0,0,0-5.32,9.24Q883.31,207.62,878.16,215.28Zm67-26.79c-.38,1.33-.76,2.54-1.14,3.61a15.53,15.53,0,0,1-2.18,3.81c-1.07,1.47-1.93,2.56-2.59,3.29s-1.58,1.85-2.73,3.31q-10.93,13-10.73,16.9a12.79,12.79,0,0,1-3.17,10.05,13.69,13.69,0,0,1-9.25,4.82l-.51,0a12.71,12.71,0,0,1-5.33-.91,13.8,13.8,0,0,1-4.63-2.93,15.18,15.18,0,0,1-3.11-4.19,11,11,0,0,0,7.74,2,10.58,10.58,0,0,0,7.84-4,11.34,11.34,0,0,0,2.72-8.44q-.37-4.72,11.06-18.23a58.78,58.78,0,0,0,7.6-11.07,12.07,12.07,0,0,0,.29-9.63,12.24,12.24,0,0,0-5.88-6.81,4.85,4.85,0,0,0,1.33.19q9,1.38,12.09,9.65a14.39,14.39,0,0,1,1,4.43A13.17,13.17,0,0,1,945.19,188.49Z"/></g></g></g></svg>