<svg xmlns="http://www.w3.org/2000/svg" viewBox="0 0 484.83 982.58"><defs><style>.cls-1{isolation:isolate;}.cls-2{fill:#ffa3bc;mix-blend-mode:multiply;}.cls-3{fill:#fff;}.cls-4{fill:#636466;}.cls-5{fill:#ffd642;}.cls-6{fill:#fbbb4a;}.cls-7{fill:#68182b;}.cls-8{fill:#fbeb4c;}</style></defs><g class="cls-1"><g id="圖層_2" data-name="圖層 2"><g id="Layer_2" data-name="Layer 2"><path class="cls-2" d="M416.14,627.2a38.32,38.32,0,0,0-35.74-51.26h-.76c-12.92-1.13-25.86-2.12-38.8-3.12l-2.31-.17c39.78-51,78.57-102.92,116.39-153.52l22.41-30A38,38,0,0,0,447,328.73c-.88,0-2.18,0-3.05.12l-30.42,2.39c-25.82,2-52.2,4.1-78.62,6.31,5.94-28.21,11.74-56.42,17.41-84,12.85-62.5,26.13-127.13,40.8-190.1a38,38,0,0,0-5.54-30,38.54,38.54,0,0,0-21.25-15.24,39.27,39.27,0,0,0-12.33-2A38.37,38.37,0,0,0,323.1,31.9C266,110.17,211.08,191.58,158,270.29,114.92,334.07,70.44,400,25.22,463.63a39.33,39.33,0,0,0-7.59,35.42,37.9,37.9,0,0,0,18.24,22.33A37.82,37.82,0,0,0,51,526.24l12.72,1.28c15.08,1.52,30.42,3.06,45.8,4.68C80.88,584.05,53,635.27,26.18,686.56a36.75,36.75,0,0,0-5.94,19.59,38.09,38.09,0,0,0,10,26.79,38.52,38.52,0,0,0,28.33,12.54,37,37,0,0,0,7.74-.81c11.41-1.8,23.11-3.77,35.38-6-8.79,24.81-17.46,49.56-26,73.84C62,851.71,47.78,892.23,33.47,931.83a37.12,37.12,0,0,0,17.24,45.61,37.32,37.32,0,0,0,46.77-7.36c44.44-49.36,91.85-97.93,137.7-144.9,57.72-59.12,117.4-120.26,172.6-184.37A37.19,37.19,0,0,0,416.14,627.2Z"/><path class="cls-3" d="M463.31,330.33a37.32,37.32,0,0,0-30.44-15.72c-.88,0-2.18.05-3.05.12l-30.42,2.4c-25.82,2-52.2,4.1-78.61,6.3,5.93-28.21,11.73-56.41,17.4-84C351,176.93,364.33,112.3,379,49.33a38,38,0,0,0-5.54-30A38.49,38.49,0,0,0,352.2,4.07a39,39,0,0,0-12.33-2A38.35,38.35,0,0,0,309,17.78C251.9,96.05,197,177.46,143.85,256.18,100.81,320,56.32,385.89,11.1,449.51a39.33,39.33,0,0,0-7.59,35.42,37.9,37.9,0,0,0,18.24,22.33,37.82,37.82,0,0,0,15.1,4.86l12.72,1.28c15.09,1.52,30.43,3.06,45.8,4.68C66.76,569.93,38.85,621.15,12.06,672.44A36.86,36.86,0,0,0,6.12,692a38.09,38.09,0,0,0,10,26.79,38.49,38.49,0,0,0,28.34,12.54,36.52,36.52,0,0,0,7.74-.81c11.4-1.8,23.1-3.77,35.37-6-8.78,24.81-17.46,49.56-26,73.84C47.86,837.6,33.66,878.11,19.35,917.71A37.14,37.14,0,0,0,36.6,963.32,37.3,37.3,0,0,0,83.36,956c44.44-49.36,91.85-97.92,137.7-144.9,57.72-59.12,117.4-120.26,172.6-184.37a37.23,37.23,0,0,0,8.36-13.6,38.32,38.32,0,0,0-35.74-51.27h-.76c-12.91-1.13-25.85-2.12-38.8-3.11l-2.3-.18C364.19,507.51,403,455.61,440.81,405l22.4-30A37.26,37.26,0,0,0,463.31,330.33Z"/><path class="cls-4" d="M49.35,970.3a2.69,2.69,0,0,1-.4,0,40.79,40.79,0,0,1-4.86-1.14,2.35,2.35,0,0,1,1.35-4.5,37.23,37.23,0,0,0,4.3,1,2.35,2.35,0,0,1-.39,4.67Zm14-.34a2.35,2.35,0,0,1-.49-4.65,36.61,36.61,0,0,0,4.24-1.21,2.33,2.33,0,0,1,3,1.43,2.36,2.36,0,0,1-1.43,3,40,40,0,0,1-4.81,1.38A2.84,2.84,0,0,1,63.36,970ZM32.22,962.9a2.37,2.37,0,0,1-1.4-.46,39.34,39.34,0,0,1-3.83-3.2,2.35,2.35,0,1,1,3.24-3.41,35.55,35.55,0,0,0,3.38,2.82,2.35,2.35,0,0,1-1.39,4.25ZM80,961.6a2.35,2.35,0,0,1-1.54-4.13,35.09,35.09,0,0,0,3.13-3.09L85,957.61A38.8,38.8,0,0,1,81.55,961,2.3,2.3,0,0,1,80,961.6ZM20.43,948.48a2.36,2.36,0,0,1-2.14-1.37,40.14,40.14,0,0,1-1.8-4.67A2.36,2.36,0,1,1,21,941a34.13,34.13,0,0,0,1.58,4.11,2.36,2.36,0,0,1-1.16,3.12A2.43,2.43,0,0,1,20.43,948.48Zm72.42-.64a2.29,2.29,0,0,1-1.58-.62,2.34,2.34,0,0,1-.16-3.32l3.17-3.47a2.35,2.35,0,1,1,3.48,3.17l-3.17,3.47A2.35,2.35,0,0,1,92.85,947.84ZM105.57,934a2.35,2.35,0,0,1-1.74-3.94l3.21-3.46a2.35,2.35,0,1,1,3.44,3.19l-3.18,3.46A2.37,2.37,0,0,1,105.57,934Zm-88.4-3.81H17a2.35,2.35,0,0,1-2.16-2.53,40.22,40.22,0,0,1,.7-4.94,2.35,2.35,0,1,1,4.61.94,36.63,36.63,0,0,0-.62,4.38A2.35,2.35,0,0,1,17.17,930.15Zm101.2-10a2.31,2.31,0,0,1-1.6-.64,2.34,2.34,0,0,1-.11-3.32l3.21-3.44a2.36,2.36,0,0,1,3.44,3.22l-3.22,3.43A2.33,2.33,0,0,1,118.37,920.18ZM22.23,912.1a2.44,2.44,0,0,1-.79-.14A2.34,2.34,0,0,1,20,909l1.59-4.42A2.35,2.35,0,1,1,26,906.11l-1.59,4.43A2.35,2.35,0,0,1,22.23,912.1Zm109-5.65a2.32,2.32,0,0,1-1.61-.64,2.34,2.34,0,0,1-.1-3.32l3.23-3.42a2.35,2.35,0,1,1,3.42,3.22L133,905.72A2.32,2.32,0,0,1,131.26,906.45ZM28.58,894.38a2.11,2.11,0,0,1-.78-.14,2.34,2.34,0,0,1-1.43-3L28,886.8a2.35,2.35,0,0,1,4.43,1.58l-1.58,4.43A2.35,2.35,0,0,1,28.58,894.38Zm115.64-1.59a2.35,2.35,0,0,1-1.71-4l3.24-3.41a2.36,2.36,0,0,1,3.42,3.24l-3.25,3.41A2.32,2.32,0,0,1,144.22,892.79Zm13-13.6a2.36,2.36,0,0,1-1.7-4l3.26-3.4a2.35,2.35,0,0,1,3.4,3.25l-3.26,3.4A2.36,2.36,0,0,1,157.22,879.19ZM34.89,876.63a2.34,2.34,0,0,1-2.21-3.13l1.56-4.44a2.35,2.35,0,0,1,4.44,1.57l-1.57,4.44A2.35,2.35,0,0,1,34.89,876.63Zm135.39-11a2.34,2.34,0,0,1-1.69-4l3.28-3.4a2.35,2.35,0,0,1,3.37,3.28L172,864.9A2.36,2.36,0,0,1,170.28,865.62ZM41.17,858.89a2.2,2.2,0,0,1-.79-.14,2.36,2.36,0,0,1-1.43-3l1.56-4.43A2.35,2.35,0,1,1,45,852.88l-1.57,4.44A2.34,2.34,0,0,1,41.17,858.89Zm142.21-6.8a2.35,2.35,0,0,1-1.69-4l3.28-3.38a2.35,2.35,0,0,1,3.38,3.27l-3.28,3.39A2.33,2.33,0,0,1,183.38,852.09Zm-136-11a2.14,2.14,0,0,1-.78-.14,2.35,2.35,0,0,1-1.44-3l1.56-4.43a2.33,2.33,0,0,1,3-1.44,2.36,2.36,0,0,1,1.44,3l-1.56,4.44A2.36,2.36,0,0,1,47.42,841.14ZM196.5,838.6a2.36,2.36,0,0,1-1.68-4l3.29-3.37a2.35,2.35,0,1,1,3.36,3.29l-3.28,3.36A2.34,2.34,0,0,1,196.5,838.6Zm13.15-13.49a2.35,2.35,0,0,1-1.68-4l3.29-3.37a2.35,2.35,0,0,1,3.36,3.29l-3.29,3.37A2.35,2.35,0,0,1,209.65,825.11Zm-156-1.73a2.35,2.35,0,0,1-2.22-3.12L53,815.81a2.33,2.33,0,0,1,3-1.44,2.36,2.36,0,0,1,1.44,3l-1.55,4.43A2.36,2.36,0,0,1,53.65,823.38ZM222.8,811.64a2.35,2.35,0,0,1-1.69-4l3.28-3.37a2.35,2.35,0,1,1,3.37,3.29l-3.28,3.36A2.35,2.35,0,0,1,222.8,811.64Zm-162.93-6a2.27,2.27,0,0,1-.77-.13,2.36,2.36,0,0,1-1.45-3l1.56-4.44a2.33,2.33,0,0,1,3-1.44,2.36,2.36,0,0,1,1.44,3L62.1,804A2.36,2.36,0,0,1,59.87,805.62Zm176.06-7.45a2.34,2.34,0,0,1-1.68-4l3.28-3.37a2.35,2.35,0,1,1,3.37,3.29l-3.28,3.37A2.34,2.34,0,0,1,235.93,798.17ZM66.09,787.85a2.35,2.35,0,0,1-2.22-3.13l1.56-4.44a2.33,2.33,0,0,1,3-1.44,2.36,2.36,0,0,1,1.44,3l-1.56,4.44A2.35,2.35,0,0,1,66.09,787.85Zm183-3.15a2.35,2.35,0,0,1-1.69-4l3.27-3.37a2.36,2.36,0,0,1,3.39,3.27L250.75,784A2.35,2.35,0,0,1,249.07,784.7Zm13.11-13.5a2.35,2.35,0,0,1-1.69-4l3.28-3.38a2.35,2.35,0,1,1,3.37,3.28l-3.27,3.37A2.32,2.32,0,0,1,262.18,771.2ZM72.32,770.09A2.35,2.35,0,0,1,70.1,767l1.56-4.43a2.35,2.35,0,1,1,4.44,1.56l-1.56,4.44A2.35,2.35,0,0,1,72.32,770.09Zm202.94-12.42a2.35,2.35,0,0,1-1.69-4l3.26-3.37a2.35,2.35,0,0,1,3.39,3.25L277,757A2.37,2.37,0,0,1,275.26,757.67Zm-196.7-5.34a2.35,2.35,0,0,1-2.22-3.14l1.57-4.43a2.35,2.35,0,1,1,4.44,1.57l-1.57,4.44A2.35,2.35,0,0,1,78.56,752.33Zm209.75-8.22a2.36,2.36,0,0,1-1.7-4l3.24-3.4a2.36,2.36,0,1,1,3.41,3.25l-3.26,3.4A2.33,2.33,0,0,1,288.31,744.11ZM84.82,734.58a2.35,2.35,0,0,1-2.22-3.13L84.17,727a2.35,2.35,0,1,1,4.44,1.57L87,733A2.35,2.35,0,0,1,84.82,734.58Zm-45.06-1.15-.3,0a42.32,42.32,0,0,1-4.9-.92,2.36,2.36,0,0,1,1.15-4.57,35.32,35.32,0,0,0,4.34.82,2.35,2.35,0,0,1-.29,4.69Zm14-.78a2.35,2.35,0,0,1-.36-4.68l4.63-.74a2.35,2.35,0,0,1,.76,4.64l-4.66.75A2.31,2.31,0,0,1,53.77,732.65Zm247.53-2.16a2.34,2.34,0,0,1-1.71-4l3.24-3.41a2.35,2.35,0,0,1,3.42,3.23L303,729.76A2.32,2.32,0,0,1,301.3,730.49Zm-228.95-.9a2.35,2.35,0,0,1-.39-4.67l4.63-.8a2.35,2.35,0,0,1,.8,4.64l-4.64.8A2.69,2.69,0,0,1,72.35,729.59Zm-50-2.89a2.29,2.29,0,0,1-1.34-.42,40.31,40.31,0,0,1-3.92-3.12,2.36,2.36,0,0,1,3.17-3.49,34.82,34.82,0,0,0,3.44,2.75,2.35,2.35,0,0,1-1.35,4.28Zm291.86-9.88a2.35,2.35,0,0,1-1.71-4l3.23-3.43a2.35,2.35,0,1,1,3.42,3.22l-3.23,3.43A2.33,2.33,0,0,1,314.23,716.82Zm-304-4.22a2.34,2.34,0,0,1-2.11-1.3,41.88,41.88,0,0,1-2-4.57,2.35,2.35,0,0,1,4.43-1.59,38.13,38.13,0,0,0,1.74,4.06,2.35,2.35,0,0,1-1.06,3.16A2.26,2.26,0,0,1,10.18,712.6Zm316.93-9.51a2.35,2.35,0,0,1-1.73-4l3.21-3.44a2.35,2.35,0,0,1,3.45,3.2l-3.21,3.45A2.34,2.34,0,0,1,327.11,703.09Zm-321-8.68h0a2.33,2.33,0,0,1-2.33-2.33,38.86,38.86,0,0,1,.38-5,2.39,2.39,0,0,1,2.66-2,2.36,2.36,0,0,1,2,2.66,37.31,37.31,0,0,0-.34,4.37A2.37,2.37,0,0,1,6.12,694.41Zm333.78-5.12a2.4,2.4,0,0,1-1.6-.62,2.37,2.37,0,0,1-.14-3.33l3.19-3.46a2.35,2.35,0,1,1,3.46,3.18l-3.18,3.47A2.38,2.38,0,0,1,339.9,689.29ZM11,676.47a2.29,2.29,0,0,1-1.17-.32A2.34,2.34,0,0,1,9,672.94c.34-.6.71-1.2,1.09-1.78l1.16-2.24a2.37,2.37,0,0,1,3.18-1,2.34,2.34,0,0,1,1,3.17l-1.27,2.44c-.45.7-.77,1.22-1.08,1.75A2.34,2.34,0,0,1,11,676.47Zm341.57-1.08a2.35,2.35,0,0,1-1.74-3.93L354,668a2.35,2.35,0,0,1,3.49,3.16l-3.17,3.49A2.3,2.3,0,0,1,352.6,675.39Zm12.61-14a2.35,2.35,0,0,1-1.75-3.93l3.13-3.5a2.36,2.36,0,1,1,3.52,3.13L367,660.64A2.32,2.32,0,0,1,365.21,661.42ZM19.9,659.86a2.27,2.27,0,0,1-1.1-.27,2.36,2.36,0,0,1-1-3.18l2.2-4.16a2.35,2.35,0,0,1,4.16,2.2L22,658.61A2.36,2.36,0,0,1,19.9,659.86Zm357.81-12.51a2.41,2.41,0,0,1-1.56-.59,2.36,2.36,0,0,1-.2-3.32l3.09-3.53a2.35,2.35,0,1,1,3.55,3.09l-3.11,3.55A2.36,2.36,0,0,1,377.71,647.35Zm-349-4.13a2.32,2.32,0,0,1-1.11-.28,2.35,2.35,0,0,1-1-3.18l2.2-4.15a2.35,2.35,0,1,1,4.16,2.2L30.76,642A2.33,2.33,0,0,1,28.69,643.22ZM390.1,633.17a2.39,2.39,0,0,1-1.54-.57,2.36,2.36,0,0,1-.24-3.32l3.07-3.56a2.35,2.35,0,1,1,3.57,3.07l-3.08,3.57A2.36,2.36,0,0,1,390.1,633.17ZM37.55,626.6a2.35,2.35,0,0,1-2.08-3.47L37.7,619a2.35,2.35,0,0,1,4.14,2.22l-2.22,4.16A2.37,2.37,0,0,1,37.55,626.6ZM401,618a2.35,2.35,0,0,1-2.16-3.28c.34-.79.64-1.58.93-2.39.22-.6.42-1.19.6-1.79a2.35,2.35,0,0,1,4.5,1.37c-.21.67-.43,1.34-.67,2-.31.89-.66,1.78-1,2.66A2.35,2.35,0,0,1,401,618ZM46.45,610a2.38,2.38,0,0,1-1.12-.28,2.36,2.36,0,0,1-.95-3.19l2.23-4.15a2.35,2.35,0,0,1,4.14,2.24l-2.23,4.14A2.36,2.36,0,0,1,46.45,610ZM404.19,599.6a2.36,2.36,0,0,1-2.35-2.17,35.59,35.59,0,0,0-.6-4.37,2.35,2.35,0,1,1,4.61-.94,41.49,41.49,0,0,1,.69,5,2.35,2.35,0,0,1-2.17,2.52Zm-348.8-6.14a2.28,2.28,0,0,1-1.12-.29,2.34,2.34,0,0,1-1-3.18l2.25-4.15a2.36,2.36,0,0,1,4.14,2.25l-2.25,4.14A2.36,2.36,0,0,1,55.39,593.46Zm342.9-11.53a2.36,2.36,0,0,1-2-1.09l-.39-.59a35.15,35.15,0,0,0-2.21-3,2.35,2.35,0,0,1,3.64-3,41.7,41.7,0,0,1,2.49,3.36l.44.68a2.36,2.36,0,0,1-2,3.62Zm-333.9-5a2.43,2.43,0,0,1-1.14-.28,2.36,2.36,0,0,1-.93-3.2l2.26-4.13a2.35,2.35,0,1,1,4.13,2.26l-2.26,4.13A2.35,2.35,0,0,1,64.39,576.91Zm320.41-7.84a2.46,2.46,0,0,1-1.16-.31,34.54,34.54,0,0,0-4-1.94,2.35,2.35,0,0,1,1.8-4.34,40.45,40.45,0,0,1,4.49,2.19,2.35,2.35,0,0,1-1.17,4.4Zm-18-4.89h-1.27l-3.62-.3a2.36,2.36,0,0,1-2.15-2.55,2.4,2.4,0,0,1,2.55-2.14l3.38.29h1.17a2.36,2.36,0,0,1-.06,4.71Zm-18.75-1.46h-.2l-4.69-.37a2.36,2.36,0,0,1-2.16-2.53,2.43,2.43,0,0,1,2.53-2.16l4.7.37a2.35,2.35,0,0,1-.18,4.7Zm-18.77-1.46h-.18l-4.7-.36a2.35,2.35,0,1,1,.37-4.69l4.68.36a2.35,2.35,0,0,1-.17,4.7Zm-255.9-.87a2.27,2.27,0,0,1-1.13-.29,2.35,2.35,0,0,1-.94-3.19l2.26-4.14A2.36,2.36,0,0,1,77.73,555l-2.26,4.13A2.36,2.36,0,0,1,73.41,560.39ZM333,549.89a2.32,2.32,0,0,1-1.44-.49,2.36,2.36,0,0,1-.43-3.3l2.89-3.73a2.35,2.35,0,0,1,3.71,2.89L334.83,549A2.33,2.33,0,0,1,333,549.89Zm-250.51-6a2.35,2.35,0,0,1-2.06-3.49l2.27-4.12a2.35,2.35,0,1,1,4.12,2.27l-2.27,4.12A2.35,2.35,0,0,1,82.46,543.88Zm262-8.89a2.36,2.36,0,0,1-1.87-3.79l2.88-3.73a2.35,2.35,0,1,1,3.72,2.87l-2.87,3.73A2.35,2.35,0,0,1,344.47,535Zm-252.93-7.6a2.33,2.33,0,0,1-1.14-.29,2.36,2.36,0,0,1-.93-3.2l2.28-4.13A2.35,2.35,0,0,1,95.87,522l-2.27,4.13A2.36,2.36,0,0,1,91.54,527.39Zm264.38-7.34a2.28,2.28,0,0,1-1.42-.48,2.36,2.36,0,0,1-.45-3.3l2.86-3.74a2.35,2.35,0,0,1,3.74,2.86l-2.86,3.74A2.32,2.32,0,0,1,355.92,520.05ZM84.55,519.3h-.24l-4.69-.48a2.35,2.35,0,0,1-2.1-2.58,2.38,2.38,0,0,1,2.59-2.1l4.67.48a2.35,2.35,0,0,1-.23,4.69Zm-18.73-1.91h-.25L61.29,517l-.15-2.38.62-2.31,4.3.44a2.35,2.35,0,0,1-.24,4.69ZM47.09,515.5h-.24L42.17,515a2.34,2.34,0,0,1-2.1-2.58,2.37,2.37,0,0,1,2.57-2.1l4.68.47a2.35,2.35,0,0,1-.23,4.69Zm-18.56-2.82a2.31,2.31,0,0,1-.77-.13,40.6,40.6,0,0,1-4.61-1.89,2.35,2.35,0,0,1,2-4.24,37.16,37.16,0,0,0,4.1,1.68,2.35,2.35,0,0,1-.76,4.58Zm338.81-7.59a2.29,2.29,0,0,1-1.42-.49,2.34,2.34,0,0,1-.45-3.29l2.84-3.75a2.37,2.37,0,0,1,3.3-.45,2.34,2.34,0,0,1,.45,3.29l-2.85,3.76A2.36,2.36,0,0,1,367.34,505.09ZM12.7,502.78a2.36,2.36,0,0,1-1.67-.69,39.31,39.31,0,0,1-3.28-3.78,2.35,2.35,0,1,1,3.74-2.86,35.18,35.18,0,0,0,2.89,3.33,2.35,2.35,0,0,1-1.68,4Zm366-12.7a2.36,2.36,0,0,1-1.88-3.78l2.84-3.75a2.35,2.35,0,0,1,3.76,2.83l-2.85,3.76A2.32,2.32,0,0,1,378.72,490.08ZM3.33,486.7A2.35,2.35,0,0,1,1.07,485a39.21,39.21,0,0,1-1-4.9,2.36,2.36,0,0,1,2-2.67,2.39,2.39,0,0,1,2.67,2,33.23,33.23,0,0,0,.92,4.3,2.36,2.36,0,0,1-2.27,3Zm386.73-11.64a2.39,2.39,0,0,1-1.41-.47,2.35,2.35,0,0,1-.46-3.3l2.84-3.76a2.35,2.35,0,1,1,3.75,2.84l-2.84,3.75A2.32,2.32,0,0,1,390.06,475.06ZM3,468.07a2.48,2.48,0,0,1-.54-.06A2.36,2.36,0,0,1,.7,465.17a42.93,42.93,0,0,1,1.46-4.77A2.35,2.35,0,0,1,6.57,462a35.49,35.49,0,0,0-1.29,4.23A2.35,2.35,0,0,1,3,468.07ZM401.38,460a2.35,2.35,0,0,1-1.88-3.76l2.84-3.77a2.35,2.35,0,1,1,3.76,2.83l-2.84,3.76A2.32,2.32,0,0,1,401.38,460Zm-390-8.59a2.35,2.35,0,0,1-1.92-3.71l2.72-3.84a2.35,2.35,0,1,1,3.84,2.72l-2.72,3.84A2.35,2.35,0,0,1,11.42,451.42ZM412.69,445a2.34,2.34,0,0,1-1.88-3.76l2.82-3.77a2.35,2.35,0,0,1,3.77,2.82L414.56,444A2.3,2.3,0,0,1,412.69,445ZM22.28,436.06a2.36,2.36,0,0,1-1.92-3.71l2.72-3.85a2.35,2.35,0,1,1,3.84,2.71l-2.71,3.84A2.33,2.33,0,0,1,22.28,436.06ZM424,429.88a2.35,2.35,0,0,1-1.89-3.76l2.82-3.77a2.35,2.35,0,0,1,3.77,2.81l-2.82,3.78A2.33,2.33,0,0,1,424,429.88ZM33.11,420.65a2.38,2.38,0,0,1-1.34-.42,2.36,2.36,0,0,1-.59-3.28l2.7-3.86a2.36,2.36,0,1,1,3.86,2.7L35,419.65A2.35,2.35,0,0,1,33.11,420.65Zm402.14-5.85a2.32,2.32,0,0,1-1.41-.47,2.37,2.37,0,0,1-.48-3.3l2.83-3.77a2.35,2.35,0,0,1,3.76,2.82l-2.82,3.77A2.34,2.34,0,0,1,435.25,414.8ZM43.88,405.21a2.31,2.31,0,0,1-1.34-.42,2.35,2.35,0,0,1-.6-3.27l2.69-3.87a2.35,2.35,0,1,1,3.87,2.68l-2.69,3.87A2.33,2.33,0,0,1,43.88,405.21Zm402.64-5.49a2.32,2.32,0,0,1-1.41-.47,2.37,2.37,0,0,1-.48-3.3l2.82-3.76a2.35,2.35,0,1,1,3.77,2.82l-2.82,3.77A2.36,2.36,0,0,1,446.52,399.72Zm-391.92-10a2.31,2.31,0,0,1-1.34-.42,2.34,2.34,0,0,1-.59-3.27l2.67-3.87a2.35,2.35,0,0,1,3.87,2.67l-2.67,3.88A2.35,2.35,0,0,1,54.6,389.73Zm403.19-5.08a2.41,2.41,0,0,1-1.41-.47,2.35,2.35,0,0,1-.47-3.29l2.81-3.78a2.35,2.35,0,1,1,3.77,2.82l-2.82,3.77A2.32,2.32,0,0,1,457.79,384.65ZM65.29,374.23a2.38,2.38,0,0,1-1.34-.42,2.35,2.35,0,0,1-.6-3.27L66,366.66a2.35,2.35,0,0,1,3.88,2.67l-2.66,3.88A2.37,2.37,0,0,1,65.29,374.23ZM468,368.91a2.31,2.31,0,0,1-.89-.17,2.37,2.37,0,0,1-1.3-3.07,35.36,35.36,0,0,0,1.4-4.18,2.35,2.35,0,0,1,4.55,1.2,40.06,40.06,0,0,1-1.58,4.75A2.36,2.36,0,0,1,468,368.91ZM75.93,358.71a2.42,2.42,0,0,1-1.33-.41A2.35,2.35,0,0,1,74,355l2.65-3.89a2.36,2.36,0,0,1,3.89,2.66l-2.66,3.88A2.33,2.33,0,0,1,75.93,358.71Zm394.5-8.26a2.36,2.36,0,0,1-2.33-2.07,35.65,35.65,0,0,0-.81-4.34,2.36,2.36,0,1,1,4.57-1.14,39.26,39.26,0,0,1,.91,4.91,2.35,2.35,0,0,1-2,2.62ZM86.55,343.16a2.36,2.36,0,0,1-2-3.68l2.65-3.88a2.35,2.35,0,0,1,3.89,2.64l-2.65,3.89A2.36,2.36,0,0,1,86.55,343.16Zm377.07-10.05a2.36,2.36,0,0,1-1.89-.95l-.31-.42a34.83,34.83,0,0,0-2.81-3.47,2.36,2.36,0,0,1,3.48-3.18,42.11,42.11,0,0,1,3.13,3.88l.29.39a2.35,2.35,0,0,1-1.89,3.75Zm-366.49-5.5a2.28,2.28,0,0,1-1.31-.41,2.33,2.33,0,0,1-.63-3.26l2.64-3.9a2.35,2.35,0,0,1,3.89,2.64l-2.64,3.89A2.35,2.35,0,0,1,97.13,327.61Zm235.17-2.78a2.35,2.35,0,0,1-.19-4.7l4.69-.38a2.4,2.4,0,0,1,2.53,2.15,2.35,2.35,0,0,1-2.15,2.54l-4.69.38Zm18.76-1.53a2.35,2.35,0,0,1-.19-4.69l4.7-.38a2.35,2.35,0,0,1,.38,4.69l-4.69.37Zm-29.74,0a2,2,0,0,1-.49,0,2.36,2.36,0,0,1-1.82-2.78l1-4.61a2.41,2.41,0,0,1,2.79-1.82,2.35,2.35,0,0,1,1.82,2.79l-1,4.6A2.35,2.35,0,0,1,321.32,323.28Zm48.51-1.47a2.35,2.35,0,0,1-.18-4.7l4.68-.37a2.38,2.38,0,0,1,2.54,2.16,2.36,2.36,0,0,1-2.16,2.53l-4.69.37Zm79.25-1.14a2.28,2.28,0,0,1-1-.24,35.36,35.36,0,0,0-4.09-1.66,2.35,2.35,0,1,1,1.5-4.46,40.42,40.42,0,0,1,4.63,1.88,2.36,2.36,0,0,1-1,4.48Zm-60.49-.35a2.34,2.34,0,0,1-2.34-2.17,2.37,2.37,0,0,1,2.17-2.53l4.68-.36a2.37,2.37,0,0,1,2.53,2.16,2.34,2.34,0,0,1-2.15,2.53l-4.71.37Zm18.76-1.46a2.35,2.35,0,0,1-.18-4.7l4.7-.37a2.41,2.41,0,0,1,2.52,2.16,2.34,2.34,0,0,1-2.16,2.52l-4.68.38Zm18.77-1.49a2.35,2.35,0,0,1-.18-4.69l4.75-.36a2.24,2.24,0,0,1,2.47,2.23,2.36,2.36,0,0,1-2.23,2.47l-4.62.35ZM107.7,312a2.36,2.36,0,0,1-2-3.68l2.64-3.89a2.35,2.35,0,1,1,3.89,2.64L109.65,311A2.37,2.37,0,0,1,107.7,312Zm217.47-7.18a2.09,2.09,0,0,1-.49-.05,2.36,2.36,0,0,1-1.82-2.78l1-4.6a2.35,2.35,0,0,1,4.61.94l-1,4.62A2.35,2.35,0,0,1,325.17,304.85Zm-206.92-8.41a2.4,2.4,0,0,1-1.32-.4,2.37,2.37,0,0,1-.63-3.27l2.64-3.89a2.35,2.35,0,1,1,3.89,2.64l-2.63,3.89A2.36,2.36,0,0,1,118.25,296.44Zm210.75-10a2,2,0,0,1-.48-.05,2.35,2.35,0,0,1-1.83-2.78l1-4.61a2.35,2.35,0,1,1,4.6,1l-.95,4.6A2.35,2.35,0,0,1,329,286.42Zm-200.22-5.58a2.33,2.33,0,0,1-1.31-.39,2.35,2.35,0,0,1-.64-3.27l2.63-3.9a2.35,2.35,0,0,1,3.9,2.64l-2.62,3.89A2.37,2.37,0,0,1,128.78,280.84Zm204-12.86a1.88,1.88,0,0,1-.47-.05,2.34,2.34,0,0,1-1.83-2.78l.95-4.61a2.35,2.35,0,1,1,4.6,1l-.95,4.6A2.35,2.35,0,0,1,332.81,268Zm-193.5-2.73a2.35,2.35,0,0,1-1.95-3.66l2.63-3.91a2.35,2.35,0,0,1,3.9,2.64l-2.62,3.89A2.35,2.35,0,0,1,139.31,265.25Zm10.52-15.6a2.32,2.32,0,0,1-1.32-.4,2.36,2.36,0,0,1-.63-3.27l2.64-3.9a2.35,2.35,0,0,1,3.9,2.63l-2.64,3.91A2.36,2.36,0,0,1,149.83,249.65Zm186.77-.1a2.61,2.61,0,0,1-.48-.05,2.35,2.35,0,0,1-1.83-2.78l.95-4.61a2.35,2.35,0,0,1,4.61.95l-1,4.61A2.36,2.36,0,0,1,336.6,249.55ZM160.37,234a2.4,2.4,0,0,1-1.32-.4,2.35,2.35,0,0,1-.62-3.27l2.63-3.9a2.35,2.35,0,0,1,3.9,2.63L162.32,233A2.34,2.34,0,0,1,160.37,234Zm180-2.93a2.72,2.72,0,0,1-.49-.05,2.35,2.35,0,0,1-1.82-2.78l.94-4.6a2.36,2.36,0,1,1,4.62.94l-1,4.61A2.35,2.35,0,0,1,340.4,231.11ZM170.92,218.44a2.35,2.35,0,0,1-1.95-3.67l2.64-3.91a2.35,2.35,0,1,1,3.9,2.64l-2.65,3.91A2.33,2.33,0,0,1,170.92,218.44Zm173.27-5.76a2.61,2.61,0,0,1-.48-.05,2.34,2.34,0,0,1-1.82-2.78l.95-4.61a2.31,2.31,0,0,1,2.78-1.82,2.34,2.34,0,0,1,1.82,2.78l-.95,4.6A2.35,2.35,0,0,1,344.19,212.68Zm-162.71-9.84a2.35,2.35,0,0,1-1.95-3.67l2.65-3.9a2.35,2.35,0,1,1,3.89,2.64l-2.64,3.9A2.36,2.36,0,0,1,181.48,202.84ZM348,194.25a2,2,0,0,1-.48-.05,2.35,2.35,0,0,1-1.83-2.78l1-4.61a2.35,2.35,0,1,1,4.6,1l-1,4.59A2.34,2.34,0,0,1,348,194.25Zm-155.94-7a2.32,2.32,0,0,1-1.33-.41,2.35,2.35,0,0,1-.62-3.27l2.65-3.89a2.35,2.35,0,1,1,3.9,2.64L194,186.24A2.37,2.37,0,0,1,192.06,187.26Zm159.77-11.43a2.72,2.72,0,0,1-.49-.05,2.37,2.37,0,0,1-1.82-2.79l1-4.6a2.35,2.35,0,0,1,4.61,1l-1,4.61A2.36,2.36,0,0,1,351.83,175.83ZM202.65,171.7a2.41,2.41,0,0,1-1.32-.41,2.37,2.37,0,0,1-.63-3.27l2.66-3.9a2.36,2.36,0,0,1,3.89,2.66l-2.65,3.88A2.35,2.35,0,0,1,202.65,171.7Zm153-14.29a2.61,2.61,0,0,1-.48,0,2.36,2.36,0,0,1-1.82-2.79l1-4.6a2.35,2.35,0,1,1,4.6,1l-1,4.6A2.36,2.36,0,0,1,355.69,157.41Zm-142.41-1.27a2.35,2.35,0,0,1-1.94-3.69l2.65-3.88a2.38,2.38,0,0,1,3.28-.61,2.36,2.36,0,0,1,.61,3.27l-2.66,3.89A2.36,2.36,0,0,1,213.28,156.14Zm10.65-15.53a2.41,2.41,0,0,1-1.33-.4,2.37,2.37,0,0,1-.61-3.28l2.68-3.88a2.35,2.35,0,1,1,3.86,2.67l-2.66,3.87A2.34,2.34,0,0,1,223.93,140.61ZM359.61,139a2.73,2.73,0,0,1-.5-.05,2.35,2.35,0,0,1-1.81-2.79l1-4.61a2.35,2.35,0,1,1,4.59,1l-1,4.59A2.35,2.35,0,0,1,359.61,139Zm-125-13.87a2.38,2.38,0,0,1-1.34-.42,2.35,2.35,0,0,1-.58-3.28l2.67-3.86a2.35,2.35,0,1,1,3.87,2.67l-2.68,3.88A2.38,2.38,0,0,1,234.61,125.12Zm128.94-4.53a2.72,2.72,0,0,1-.49,0,2.36,2.36,0,0,1-1.81-2.8l1-4.61a2.35,2.35,0,0,1,4.6,1l-1,4.6A2.36,2.36,0,0,1,363.55,120.59Zm-118.2-10.94a2.38,2.38,0,0,1-1.36-.43,2.35,2.35,0,0,1-.57-3.28l2.69-3.85a2.35,2.35,0,1,1,3.86,2.69l-2.7,3.86A2.32,2.32,0,0,1,245.35,109.65Zm122.22-7.45a2.14,2.14,0,0,1-.5-.06,2.35,2.35,0,0,1-1.8-2.8l1-4.6a2.37,2.37,0,0,1,2.8-1.79,2.34,2.34,0,0,1,1.8,2.79l-1,4.6A2.36,2.36,0,0,1,367.57,102.2Zm-111.45-8a2.32,2.32,0,0,1-1.35-.42,2.35,2.35,0,0,1-.58-3.28l2.7-3.85a2.36,2.36,0,0,1,3.86,2.7L258,93.2A2.32,2.32,0,0,1,256.12,94.2ZM371.66,83.82a2.31,2.31,0,0,1-.52-.06A2.34,2.34,0,0,1,369.36,81l1-4.59a2.35,2.35,0,0,1,4.59,1L374,82A2.35,2.35,0,0,1,371.66,83.82Zm-104.72-5A2.35,2.35,0,0,1,265,75.09l2.71-3.84A2.35,2.35,0,0,1,271.57,74l-2.71,3.84A2.35,2.35,0,0,1,266.94,78.8ZM375.81,65.46a2.36,2.36,0,0,1-2.29-2.88l1.06-4.6a2.35,2.35,0,1,1,4.58,1.08l-1.05,4.57A2.36,2.36,0,0,1,375.81,65.46Zm-98-2a2.3,2.3,0,0,1-1.36-.44,2.34,2.34,0,0,1-.55-3.28l2.73-3.83a2.35,2.35,0,1,1,3.83,2.73l-2.73,3.83A2.33,2.33,0,0,1,277.81,63.44Zm10.94-15.32a2.35,2.35,0,0,1-1.91-3.72l2.74-3.82a2.36,2.36,0,1,1,3.83,2.75l-2.75,3.82A2.36,2.36,0,0,1,288.75,48.12Zm91-1.06-.26,0a2.34,2.34,0,0,1-2.08-2.59,37.75,37.75,0,0,0,.2-3.82v-.57a2.36,2.36,0,0,1,4.71-.1v.67a39.27,39.27,0,0,1-.24,4.33A2.34,2.34,0,0,1,379.78,47.06Zm-80-14.22a2.3,2.3,0,0,1-1.38-.45,2.35,2.35,0,0,1-.52-3.28l2.76-3.8a2.35,2.35,0,0,1,3.81,2.75l-2.76,3.81A2.34,2.34,0,0,1,299.74,32.84Zm77.45-4.23A2.36,2.36,0,0,1,375,27.15a37.18,37.18,0,0,0-1.92-4,2.35,2.35,0,1,1,4.1-2.31,40.52,40.52,0,0,1,2.18,4.5,2.36,2.36,0,0,1-1.29,3.07A2.31,2.31,0,0,1,377.19,28.61ZM310.91,17.7a2.32,2.32,0,0,1-1.54-.57,2.36,2.36,0,0,1-.24-3.32,42,42,0,0,1,3.49-3.57,2.35,2.35,0,0,1,3.16,3.49,35.48,35.48,0,0,0-3.09,3.16A2.33,2.33,0,0,1,310.91,17.7Zm55.18-4a2.37,2.37,0,0,1-1.49-.52A36.19,36.19,0,0,0,361,10.55a2.36,2.36,0,1,1,2.52-4,42.6,42.6,0,0,1,4,2.91,2.35,2.35,0,0,1-1.48,4.17ZM326.15,7a2.35,2.35,0,0,1-.85-4.55A38.58,38.58,0,0,1,330.05.92a2.35,2.35,0,1,1,1.15,4.56A35.39,35.39,0,0,0,327,6.82,2.33,2.33,0,0,1,326.15,7Zm23.12-1.42a2.76,2.76,0,0,1-.57-.06,38,38,0,0,0-4.36-.82A2.35,2.35,0,1,1,344.93,0a40.64,40.64,0,0,1,4.9.91,2.35,2.35,0,0,1-.56,4.63Z"/><path class="cls-5" d="M434.88,351.36a1.68,1.68,0,0,1-.3-.4,1.87,1.87,0,0,0-1.92-1l-30.5,2.4c-40.42,3.17-82.2,6.45-123.25,10.18h-.17a2,2,0,0,1-2-2.43C286,317.6,295,274.24,303.57,232.31c12.9-62.72,26.22-127.58,41-191a2.45,2.45,0,0,0-.3-2A3.28,3.28,0,0,0,342.06,38a2.07,2.07,0,0,1-.61-.19,3.6,3.6,0,0,0-1.58-.38,2.74,2.74,0,0,0-2.32,1.21C280.83,116.36,226.09,197.49,173.15,276c-43.52,64.49-88.52,131.18-134.7,196a3,3,0,0,0-.78,1.27,1.87,1.87,0,0,0-.3,1.57,3,3,0,0,0,1.73,1.67,2.89,2.89,0,0,0,1.31.49l12.72,1.28c31.43,3.17,63.94,6.44,95.86,10.25a2,2,0,0,1,1.55,1.08,2,2,0,0,1,0,1.88C113.12,558.9,76.72,624.92,42.28,690.93a1.77,1.77,0,0,1-.34.47,2.1,2.1,0,0,0-.48,1.6,2.58,2.58,0,0,0,.71,2,3.2,3.2,0,0,0,2.25,1,3.28,3.28,0,0,0,.95-.17c27.76-4.37,57.27-9.77,92.88-17a1.87,1.87,0,0,1,.4,0,2,2,0,0,1,1.51.69,2,2,0,0,1,.37,2C125,724.23,109.72,767.89,94.93,810.1,81.18,849.36,67,890,52.6,929.75c-.45,1.22-.05,2.12,1.51,2.85a2.5,2.5,0,0,0,1.43.51,2.1,2.1,0,0,0,1.55-.81c44.91-49.88,92.58-98.71,138.68-145.93,57.65-59.06,117.28-120.13,172.25-184a2.3,2.3,0,0,0,.72-1.2,2.8,2.8,0,0,0-.32-2.65,2.7,2.7,0,0,0-2.39-1.27h-.18a1.75,1.75,0,0,1-.51.07h-.18C351.47,596.06,337.74,595,324,594c-21.11-1.62-42.95-3.29-64.35-5.6a2,2,0,0,1-1.64-1.22,2,2,0,0,1,.28-2c53-65.85,104.43-134.69,154.19-201.27l22.41-30A1.73,1.73,0,0,0,434.88,351.36Z"/><path class="cls-6" d="M434.58,351a1.87,1.87,0,0,0-1.92-1l-30.5,2.4c-40.42,3.17-82.2,6.45-123.25,10.18h-.17a2,2,0,0,1-2-2.43C286,317.6,295,274.24,303.57,232.31c12.9-62.72,26.22-127.58,41-191a2.45,2.45,0,0,0-.3-2A3.28,3.28,0,0,0,342.06,38a2.07,2.07,0,0,1-.61-.19,3.6,3.6,0,0,0-1.58-.38,2.74,2.74,0,0,0-2.32,1.21c-6.72,9.22-86.28,257.6-112.88,343-9.73,31.27-8,36.82,21.38,34.77,4.66-.33,41.95-4.28,54.05-4.75,29.34-1.13,23.85,7.23,5.68,29.73-27.12,33.58-73.12,89.73-103.52,129-40.31,52.06-38.12,54-1.57,57.65,13.69,1.35,45.6,3.63,58.42,4.25,32.55,1.58,22.86,9.07,6.28,30.26-60,76.6-211.31,263.15-212.79,267.26-.45,1.22-.05,2.12,1.51,2.85a2.5,2.5,0,0,0,1.43.51,2.1,2.1,0,0,0,1.55-.81c44.91-49.88,92.58-98.71,138.68-145.93,57.65-59.06,117.28-120.13,172.25-184a2.3,2.3,0,0,0,.72-1.2,2.8,2.8,0,0,0-.32-2.65,2.7,2.7,0,0,0-2.39-1.27h-.18a1.75,1.75,0,0,1-.51.07h-.18C351.47,596.06,337.74,595,324,594c-21.11-1.62-42.95-3.29-64.35-5.6a2,2,0,0,1-1.64-1.22,2,2,0,0,1,.28-2c53-65.85,104.43-134.69,154.19-201.27l22.41-30a1.73,1.73,0,0,0,0-2.5A1.68,1.68,0,0,1,434.58,351Z"/><path class="cls-7" d="M436.51,355.06a3.7,3.7,0,0,0-.18-5.07,3.8,3.8,0,0,0-3.88-2c-51.25,4.06-102.52,7.93-153.71,12.58,23.11-106.16,43.13-213,67.78-318.82.76-3.24-1.64-5.39-4.18-5.75a5,5,0,0,0-6.41,1.44c-103.35,141.7-197.15,290.12-298.79,433A3.78,3.78,0,0,0,36,472.18c-1.55,2.53-.15,4.92,2,6a4.87,4.87,0,0,0,2.2.8c36.2,3.66,72.42,7.21,108.55,11.53C112.07,556.66,75.5,622.92,40.51,690a3.82,3.82,0,0,0-1,2.81,5,5,0,0,0,6.23,5c31.13-4.89,62.08-10.75,93-17-30,82.52-58.1,165.7-87.94,248.28A3.9,3.9,0,0,0,53,934.25a4,4,0,0,0,5.6-.61C159.65,821.38,270.76,718.49,369.3,603.88a3.94,3.94,0,0,0,1.28-2c1.51-3.58-1.93-7.5-5.24-6.63-35.12-3.14-70.4-5.15-105.46-8.93C320.68,510.77,378.39,432.71,436.51,355.06ZM149.92,677.15a3.68,3.68,0,0,0,.41-1.12c0-.08,0-.16.08-.24s0-.12,0-.18a2.47,2.47,0,0,0,.05-.38,4,4,0,0,0-3.21-5,4.56,4.56,0,0,0-2.65-.26c-30.56,6.28-61.2,12.14-92,17.18,34.86-66.53,71.16-132.29,107.57-198,1.89-3.41-.79-6.56-3.73-7a5.06,5.06,0,0,0-1.28-.42c-35.46-4.33-71-7.86-106.55-11.43C145.47,333.93,235.41,192.65,333.41,57c-23.3,102.16-42.73,205.15-65.14,307.51a4.77,4.77,0,0,0,.15,2.49,3.84,3.84,0,0,0,4.38,3.47c49.86-4.6,99.79-8.4,149.72-12.33C365.25,434.71,308.31,511.6,248.22,586a4.24,4.24,0,0,0-1.84,4.35,6.21,6.21,0,0,0,.15.88,1.6,1.6,0,0,0,.05.21c.72,2.44,3.2,4.27,5.5,3.58,34.77,4,69.78,6.08,104.67,9-92,106.06-194.43,202.39-289.23,305.86C95.24,832.36,121.75,754.47,149.92,677.15Z"/><path class="cls-8" d="M92.19,454.78c9.83-9,17.77-20.1,25.35-31,8-11.47,16.16-22.54,18.39-36.63.44-2.77-2.4-6.09-5.29-4.07-10.73,7.5-16.94,17.86-23.14,29.19-7.11,13-14.57,26.2-18.86,40.42-.65,2.13,2,3.45,3.55,2.07Z"/><path class="cls-8" d="M113.21,612.26A128.54,128.54,0,0,0,97.52,635.9c-3.78,7.35-9.35,15.86-8.45,24.43a2.85,2.85,0,0,0,4.21,2.41c8.11-3.48,11.89-12.75,15.39-20.33a186.54,186.54,0,0,0,9.7-27.14c.82-2.83-3.13-5.45-5.16-3Z"/></g></g></g></svg>