<svg xmlns="http://www.w3.org/2000/svg" viewBox="0 0 664.04 636.05"><defs><style>.cls-1{isolation:isolate;}.cls-2{fill:#ffa3bc;mix-blend-mode:multiply;}.cls-3{fill:#67d8eb;}.cls-4{fill:#636466;}.cls-5{fill:#fff;}.cls-6{fill:#68182b;}</style></defs><g class="cls-1"><g id="圖層_2" data-name="圖層 2"><g id="Layer_2" data-name="Layer 2"><path class="cls-2" d="M648.19,396.73q-10.32-43-20.53-86.13c-13.9-58.53-28.28-119-42.83-178.56-5.3-38.17-50.05-59.1-82.83-67.58-.35-1-.76-2.07-1.21-3.08-15.29-38.64-72.3-44-83.79-44.66-.35,0-.7,0-1.06,0-54.65-1.52-113.55,5.35-175,20.42a877,877,0,0,0-116.3,37.46l-5.17,2C83.66,90.72,23.8,114.34,16.69,165.53a50.41,50.41,0,0,0,4.14,28.57c15.8,64.79,31.47,130.72,46.64,194.53q14,59.06,28.18,118.1c19.86,82.74,107,86.87,135.6,88.23,41.05,1.95,85.07-2.76,130.85-14,17.23-4.23,34.7-9.38,52.25-15.4q4.84,20.31,9.72,40.63a38.08,38.08,0,0,0,4,10,37.42,37.42,0,0,0,42,18.78c.51-.13,1.26-.33,1.77-.48,67.07-19.8,134.38-45.32,172.45-97.36,31-42.33,18.69-86.41,8.82-121.83C651.31,408.82,649.61,402.71,648.19,396.73Z"/><path class="cls-3" d="M570.71,117.92c-5.3-38.17-50.05-59.09-82.83-67.58a32.22,32.22,0,0,0-1.21-3.08c-15.29-38.64-72.3-44-83.79-44.66l-1.05,0C347.17,1,288.27,7.9,226.78,23a878,878,0,0,0-116.3,37.46l-5.17,2C69.54,76.6,9.69,100.22,2.58,151.41A50.32,50.32,0,0,0,6.71,180c15.8,64.79,31.48,130.72,46.64,194.53q14,59.06,28.18,118.11c19.86,82.74,107,86.86,135.6,88.22,41.05,1.95,85.07-2.76,130.85-14,17.23-4.23,34.71-9.37,52.25-15.39q4.84,20.31,9.73,40.62a37.91,37.91,0,0,0,4,10,37.44,37.44,0,0,0,42,18.77c.51-.13,1.27-.33,1.77-.48C524.8,600.56,592.1,575,630.17,523c31-42.33,18.69-86.4,8.83-121.83-1.81-6.47-3.51-12.58-4.93-18.55q-10.32-43-20.52-86.13C599.64,238,585.26,177.44,570.71,117.92Z"/><path class="cls-4" d="M447,624.29c-.78,0-1.56,0-2.33-.07a2.37,2.37,0,0,1-2.22-2.49,2.33,2.33,0,0,1,2.48-2.21,36.24,36.24,0,0,0,4.42,0,2.36,2.36,0,0,1,.31,4.7C448.73,624.26,447.84,624.29,447,624.29Zm16.23-3.2a2.35,2.35,0,0,1-.67-4.61l4.49-1.36a2.35,2.35,0,1,1,1.37,4.5L463.87,621A2.66,2.66,0,0,1,463.19,621.09Zm-32-.32a2.38,2.38,0,0,1-1-.22,38.77,38.77,0,0,1-4.38-2.4,2.35,2.35,0,1,1,2.51-4,35.39,35.39,0,0,0,3.87,2.12,2.35,2.35,0,0,1-1,4.48Zm50-5.26a2.35,2.35,0,0,1-.72-4.59l4.46-1.45a2.35,2.35,0,0,1,1.47,4.47l-4.5,1.46A2.56,2.56,0,0,1,481.18,615.51Zm17.85-6a2.36,2.36,0,0,1-.77-4.58l4.42-1.56a2.35,2.35,0,0,1,1.59,4.43l-4.46,1.57A2.14,2.14,0,0,1,499,609.54Zm-82.25-.6a2.38,2.38,0,0,1-1.9-1,39.62,39.62,0,0,1-2.69-4.21,2.35,2.35,0,1,1,4.1-2.29,34.55,34.55,0,0,0,2.39,3.71,2.37,2.37,0,0,1-.51,3.3A2.4,2.4,0,0,1,416.78,608.94Zm99.93-5.9a2.35,2.35,0,0,1-.85-4.55l4.37-1.71a2.35,2.35,0,1,1,1.74,4.37l-4.41,1.73A2.33,2.33,0,0,1,516.71,603Zm17.43-7.15a2.35,2.35,0,0,1-.94-4.51q2.16-.95,4.29-1.9a2.35,2.35,0,0,1,1.93,4.29q-2.16,1-4.34,1.92A2.41,2.41,0,0,1,534.14,595.89Zm-124.82-4.07A2.37,2.37,0,0,1,407,590l-1.09-4.59a2.35,2.35,0,0,1,4.57-1.09l1.1,4.57a2.35,2.35,0,0,1-1.74,2.84A2.59,2.59,0,0,1,409.32,591.82Zm141.9-3.88a2.35,2.35,0,0,1-1.05-4.46c1.4-.69,2.78-1.39,4.17-2.11a2.35,2.35,0,0,1,2.16,4.18c-1.4.73-2.81,1.44-4.23,2.15A2.47,2.47,0,0,1,551.22,587.94ZM234.8,583.63c-1.4,0-2.61,0-3.83,0a2.36,2.36,0,0,1-2.33-2.38A2.22,2.22,0,0,1,231,578.9c1.44,0,2.88,0,4.34,0l.33,2.35v2.36Zm15-.26a2.36,2.36,0,0,1-.08-4.71l4.67-.18a2.27,2.27,0,0,1,2.46,2.23,2.35,2.35,0,0,1-2.24,2.46c-1.58.08-3.15.15-4.73.2Zm-32.92-.19h-.12l-4.72-.24a2.34,2.34,0,0,1-2.22-2.47,2.3,2.3,0,0,1,2.47-2.22l4.7.23a2.35,2.35,0,0,1-.11,4.7Zm51.71-.89a2.35,2.35,0,0,1-.19-4.7l4.66-.4a2.35,2.35,0,1,1,.42,4.69l-4.71.4Zm-70.53-.4h-.23c-1.54-.16-3.12-.33-4.74-.52a2.37,2.37,0,0,1-2-2.62,2.31,2.31,0,0,1,2.62-2c1.58.19,3.13.36,4.64.51a2.35,2.35,0,0,1-.24,4.69Zm89.25-1.48a2.35,2.35,0,0,1-.28-4.69l4.64-.59a2.35,2.35,0,1,1,.61,4.67l-4.69.59Zm-107.9-1.15a3.42,3.42,0,0,1-.44,0c-1.54-.29-3.1-.6-4.67-.93a2.35,2.35,0,1,1,1-4.6c1.54.32,3.06.62,4.57.9a2.36,2.36,0,0,1-.43,4.67Zm388.4-.19a2.35,2.35,0,0,1-1.18-4.39c1.35-.78,2.7-1.57,4-2.37a2.36,2.36,0,1,1,2.41,4.05l-4.09,2.4A2.36,2.36,0,0,1,567.82,579.07ZM306,577.78a2.36,2.36,0,0,1-.37-4.68l4.62-.76a2.35,2.35,0,0,1,2.71,1.92A2.37,2.37,0,0,1,311,577l-4.65.77ZM161.09,574.9a2.16,2.16,0,0,1-.66-.1c-1.52-.44-3-.92-4.56-1.41a2.36,2.36,0,1,1,1.46-4.48c1.48.49,3,.94,4.43,1.38a2.35,2.35,0,0,1-.67,4.61Zm163.37-.45a2.35,2.35,0,0,1-.45-4.66l4.58-.94a2.35,2.35,0,0,1,1,4.61c-1.54.32-3.09.64-4.63.94A2.31,2.31,0,0,1,324.46,574.45Zm80.47-.94a2.35,2.35,0,0,1-2.28-1.8l-1.1-4.58a2.35,2.35,0,1,1,4.58-1.09l1.09,4.57a2.34,2.34,0,0,1-1.74,2.84A2.51,2.51,0,0,1,404.93,573.51Zm-62.08-3a2.35,2.35,0,0,1-.54-4.64l4.56-1.1a2.35,2.35,0,1,1,1.12,4.57c-1.53.38-3.07.74-4.6,1.1A2,2,0,0,1,342.85,570.46Zm240.94-1.36a2.36,2.36,0,0,1-1.32-4.31q1.93-1.31,3.84-2.65A2.35,2.35,0,1,1,589,566c-1.29.92-2.6,1.82-3.91,2.71A2.33,2.33,0,0,1,583.79,569.1Zm-440.39-.63a2.27,2.27,0,0,1-.94-.2q-2.19-.94-4.35-2a2.35,2.35,0,0,1,2-4.24c1.39.67,2.79,1.32,4.2,1.93a2.35,2.35,0,0,1-.95,4.51Zm217.7-2.63a2.35,2.35,0,0,1-.62-4.62L365,560a2.35,2.35,0,0,1,1.27,4.53l-4.55,1.25A2.25,2.25,0,0,1,361.1,565.84Zm18.09-5.2a2.35,2.35,0,0,1-.69-4.6l4.48-1.39a2.36,2.36,0,0,1,1.41,4.5l-4.52,1.39A2.33,2.33,0,0,1,379.19,560.64Zm-252.4-1a2.34,2.34,0,0,1-1.26-.37q-2-1.28-4-2.66a2.36,2.36,0,0,1,2.7-3.86q1.89,1.32,3.83,2.56a2.35,2.35,0,0,1-1.27,4.33Zm472.13-1.76a2.35,2.35,0,0,1-1.49-4.18c1.21-1,2.41-2,3.59-3a2.35,2.35,0,1,1,3,3.59c-1.2,1-2.42,2-3.66,3A2.3,2.3,0,0,1,598.92,557.89ZM400.55,555.2a2.35,2.35,0,0,1-1.73-.76l-1,.33a2.35,2.35,0,1,1-1.5-4.46l3.1-1.06a2.35,2.35,0,0,1,3.06,1.68l.32,1.38a2.34,2.34,0,0,1-1.74,2.83A2.06,2.06,0,0,1,400.55,555.2Zm-288.67-7a2.31,2.31,0,0,1-1.59-.62c-1.17-1.08-2.33-2.19-3.46-3.34a2.35,2.35,0,0,1,3.35-3.31c1.08,1.09,2.18,2.16,3.3,3.19a2.36,2.36,0,0,1,.13,3.33A2.33,2.33,0,0,1,111.88,548.21Zm501.05-2.89a2.35,2.35,0,0,1-1.65-4q1.65-1.63,3.25-3.31a2.35,2.35,0,1,1,3.4,3.25q-1.65,1.72-3.34,3.4A2.33,2.33,0,0,1,612.93,545.32ZM99.35,534.23a2.37,2.37,0,0,1-1.9-1q-1.41-1.92-2.76-3.94a2.35,2.35,0,0,1,3.92-2.61c.85,1.28,1.73,2.54,2.63,3.75a2.35,2.35,0,0,1-.5,3.29A2.27,2.27,0,0,1,99.35,534.23Zm526.19-2.85a2.29,2.29,0,0,1-1.47-.53,2.35,2.35,0,0,1-.35-3.31c1-1.2,1.92-2.41,2.85-3.64a2.35,2.35,0,0,1,3.75,2.84c-1,1.27-1.94,2.53-2.94,3.76A2.36,2.36,0,0,1,625.54,531.38ZM89.68,518.15a2.37,2.37,0,0,1-2.12-1.34c-.69-1.43-1.35-2.88-2-4.37a2.35,2.35,0,0,1,4.33-1.85c.61,1.42,1.24,2.82,1.9,4.18a2.36,2.36,0,0,1-1.1,3.14A2.31,2.31,0,0,1,89.68,518.15ZM636.33,516a2.38,2.38,0,0,1-1.19-.33,2.34,2.34,0,0,1-.84-3.21c.78-1.34,1.52-2.69,2.23-4a2.35,2.35,0,1,1,4.16,2.19c-.73,1.4-1.51,2.81-2.33,4.21A2.35,2.35,0,0,1,636.33,516ZM83,500.6a2.34,2.34,0,0,1-2.26-1.7c-.44-1.52-.86-3.06-1.25-4.62a2.36,2.36,0,1,1,4.57-1.14c.37,1.51.77,3,1.2,4.45a2.36,2.36,0,0,1-1.61,2.92A2.48,2.48,0,0,1,83,500.6Zm561.23-1.66A2.37,2.37,0,0,1,642,495.8c.51-1.46,1-2.92,1.42-4.37a2.35,2.35,0,0,1,4.51,1.35c-.46,1.53-1,3.05-1.49,4.58A2.36,2.36,0,0,1,644.25,498.94ZM78.49,482.34a2.35,2.35,0,0,1-2.28-1.81L75.11,476a2.35,2.35,0,0,1,4.58-1.09l1.09,4.58A2.34,2.34,0,0,1,79,482.27,2.08,2.08,0,0,1,78.49,482.34Zm570.27-1.65a2,2,0,0,1-.35,0,2.34,2.34,0,0,1-2-2.67c.22-1.52.42-3,.57-4.56a2.35,2.35,0,0,1,4.68.48q-.24,2.38-.6,4.77A2.35,2.35,0,0,1,648.76,480.69ZM74.12,464a2.36,2.36,0,0,1-2.29-1.81l-1.09-4.58a2.35,2.35,0,1,1,4.57-1.09l1.1,4.58A2.35,2.35,0,0,1,74.66,464,2,2,0,0,1,74.12,464Zm575.78-2.11a2.36,2.36,0,0,1-2.36-2.31c0-1.54-.09-3.08-.17-4.62a2.34,2.34,0,0,1,2.21-2.48,2.32,2.32,0,0,1,2.48,2.22c.09,1.6.16,3.19.19,4.79a2.36,2.36,0,0,1-2.31,2.4ZM69.74,445.72a2.37,2.37,0,0,1-2.29-1.81l-1.09-4.58a2.35,2.35,0,0,1,4.58-1.09L72,442.82a2.35,2.35,0,0,1-1.74,2.83A2.08,2.08,0,0,1,69.74,445.72Zm578.5-2.54a2.37,2.37,0,0,1-2.33-2c-.23-1.54-.48-3.06-.74-4.58a2.35,2.35,0,1,1,4.63-.82c.28,1.56.53,3.13.77,4.71a2.35,2.35,0,0,1-2,2.67ZM65.37,427.41a2.35,2.35,0,0,1-2.28-1.81L62,421a2.36,2.36,0,0,1,4.58-1.1l1.09,4.58a2.36,2.36,0,0,1-1.75,2.84A2.51,2.51,0,0,1,65.37,427.41Zm579.22-2.7a2.35,2.35,0,0,1-2.28-1.81c-.37-1.52-.74-3-1.12-4.54a2.35,2.35,0,1,1,4.56-1.16c.39,1.53.77,3.06,1.13,4.61a2.35,2.35,0,0,1-1.74,2.83A2.08,2.08,0,0,1,644.59,424.71ZM61,409.1a2.35,2.35,0,0,1-2.28-1.81l-1.09-4.58a2.35,2.35,0,0,1,4.58-1.09l1.08,4.58A2.34,2.34,0,0,1,61.56,409,2,2,0,0,1,61,409.1Zm578.81-2.6a2.37,2.37,0,0,1-2.27-1.73l-1.25-4.52a2.34,2.34,0,0,1,1.62-2.9,2.37,2.37,0,0,1,2.91,1.62l1.26,4.55a2.35,2.35,0,0,1-1.64,2.89A2.28,2.28,0,0,1,639.82,406.5ZM56.66,390.78a2.34,2.34,0,0,1-2.28-1.8l-1.09-4.58a2.35,2.35,0,1,1,4.57-1.09L59,387.88a2.36,2.36,0,0,1-1.74,2.84A2.64,2.64,0,0,1,56.66,390.78Zm578.23-2.45a2.36,2.36,0,0,1-2.28-1.78l-1.12-4.6a2.35,2.35,0,0,1,4.58-1.09l1.11,4.54a2.37,2.37,0,0,1-1.71,2.86A2.3,2.3,0,0,1,634.89,388.33ZM52.3,372.47A2.35,2.35,0,0,1,50,370.66l-1.09-4.58A2.35,2.35,0,0,1,53.51,365l1.09,4.58a2.36,2.36,0,0,1-1.75,2.84A2.51,2.51,0,0,1,52.3,372.47ZM630.49,370a2.34,2.34,0,0,1-2.28-1.8l-1.1-4.58a2.35,2.35,0,0,1,4.58-1.09l1.09,4.57A2.35,2.35,0,0,1,631,370,2.06,2.06,0,0,1,630.49,370ZM48,354.15a2.35,2.35,0,0,1-2.28-1.81l-1.09-4.59a2.35,2.35,0,1,1,4.57-1.08l1.09,4.58a2.34,2.34,0,0,1-1.74,2.83A2.08,2.08,0,0,1,48,354.15Zm578.17-2.44a2.34,2.34,0,0,1-2.28-1.8l-1.09-4.58a2.35,2.35,0,1,1,4.57-1.1l1.09,4.58a2.35,2.35,0,0,1-1.74,2.84A2.57,2.57,0,0,1,626.12,351.71ZM43.59,335.84A2.35,2.35,0,0,1,41.31,334l-1.09-4.59a2.35,2.35,0,1,1,4.57-1.08l1.1,4.58a2.35,2.35,0,0,1-1.75,2.83A2,2,0,0,1,43.59,335.84Zm578.17-2.43a2.35,2.35,0,0,1-2.28-1.81L618.39,327a2.35,2.35,0,0,1,4.58-1.09l1.09,4.58a2.35,2.35,0,0,1-1.75,2.83A2,2,0,0,1,621.76,333.41ZM39.23,317.52a2.37,2.37,0,0,1-2.29-1.81l-1.09-4.58a2.36,2.36,0,0,1,4.58-1.1l1.09,4.59a2.35,2.35,0,0,1-1.74,2.83A2.08,2.08,0,0,1,39.23,317.52Zm578.18-2.43a2.36,2.36,0,0,1-2.29-1.81L614,308.71a2.36,2.36,0,0,1,4.58-1.1l1.09,4.58A2.34,2.34,0,0,1,618,315,2,2,0,0,1,617.41,315.09ZM34.86,299.2a2.35,2.35,0,0,1-2.28-1.81l-1.1-4.58a2.35,2.35,0,1,1,4.58-1.09l1.09,4.58a2.35,2.35,0,0,1-1.74,2.83A2.08,2.08,0,0,1,34.86,299.2Zm578.19-2.41a2.34,2.34,0,0,1-2.28-1.82l-1.09-4.57a2.36,2.36,0,0,1,1.75-2.83,2.32,2.32,0,0,1,2.83,1.75l1.08,4.57a2.34,2.34,0,0,1-1.74,2.83A2.08,2.08,0,0,1,613.05,296.79ZM30.49,280.88a2.36,2.36,0,0,1-2.29-1.81l-1.1-4.57a2.36,2.36,0,0,1,4.58-1.1l1.1,4.58A2.37,2.37,0,0,1,31,280.82,2.48,2.48,0,0,1,30.49,280.88Zm578.21-2.4a2.35,2.35,0,0,1-2.28-1.81l-1.09-4.58a2.35,2.35,0,1,1,4.58-1.08l1.08,4.57a2.35,2.35,0,0,1-1.74,2.84A2.51,2.51,0,0,1,608.7,278.48ZM26.1,262.58a2.35,2.35,0,0,1-2.28-1.81l-1.1-4.58a2.35,2.35,0,0,1,4.57-1.09l1.1,4.57a2.35,2.35,0,0,1-1.74,2.84A2.59,2.59,0,0,1,26.1,262.58Zm578.25-2.41a2.34,2.34,0,0,1-2.28-1.8L601,253.78a2.35,2.35,0,1,1,4.58-1.08l1.08,4.57a2.36,2.36,0,0,1-1.74,2.84A2.64,2.64,0,0,1,604.35,260.17ZM21.7,244.28a2.35,2.35,0,0,1-2.28-1.81l-1.1-4.57a2.35,2.35,0,0,1,4.57-1.11l1.1,4.59a2.34,2.34,0,0,1-1.74,2.83A2.08,2.08,0,0,1,21.7,244.28ZM600,241.86a2.34,2.34,0,0,1-2.28-1.8l-1.09-4.58a2.35,2.35,0,1,1,4.57-1.09l1.09,4.57a2.36,2.36,0,0,1-1.74,2.84A2.57,2.57,0,0,1,600,241.86ZM17.29,226a2.35,2.35,0,0,1-2.28-1.8L13.9,219.6a2.36,2.36,0,0,1,1.74-2.84,2.38,2.38,0,0,1,2.84,1.74l1.1,4.56a2.34,2.34,0,0,1-1.73,2.84A2.1,2.1,0,0,1,17.29,226Zm578.34-2.41a2.36,2.36,0,0,1-2.29-1.81l-1.09-4.57a2.35,2.35,0,1,1,4.58-1.09l1.09,4.57a2.36,2.36,0,0,1-1.75,2.84A2.48,2.48,0,0,1,595.63,223.56ZM12.87,207.68a2.37,2.37,0,0,1-2.29-1.8l-1.11-4.57a2.35,2.35,0,0,1,1.74-2.84,2.38,2.38,0,0,1,2.84,1.73l1.11,4.57a2.37,2.37,0,0,1-1.73,2.85A2.74,2.74,0,0,1,12.87,207.68Zm578.38-2.43a2.35,2.35,0,0,1-2.28-1.81l-1.1-4.56a2.36,2.36,0,0,1,4.58-1.11l1.09,4.58a2.35,2.35,0,0,1-1.74,2.84A2.57,2.57,0,0,1,591.25,205.25ZM8.42,189.39a2.36,2.36,0,0,1-2.28-1.8L5,183A2.35,2.35,0,0,1,9.6,181.9l1.11,4.58A2.35,2.35,0,0,1,9,189.32,2.68,2.68,0,0,1,8.42,189.39ZM586.86,187a2.35,2.35,0,0,1-2.28-1.81l-1.1-4.57a2.35,2.35,0,1,1,4.57-1.1l1.1,4.58a2.36,2.36,0,0,1-1.74,2.84A2.57,2.57,0,0,1,586.86,187ZM3.08,171.39a2.36,2.36,0,0,1-2.31-1.88c-.32-1.6-.58-3.22-.76-4.87a2.35,2.35,0,0,1,4.68-.5c.16,1.49.39,3,.69,4.42a2.33,2.33,0,0,1-1.83,2.77A1.89,1.89,0,0,1,3.08,171.39Zm579.38-2.74a2.36,2.36,0,0,1-2.29-1.81l-1.1-4.57a2.35,2.35,0,1,1,4.57-1.1l1.1,4.57a2.34,2.34,0,0,1-1.73,2.84A2.67,2.67,0,0,1,582.46,168.65Zm-579.72-16a2.19,2.19,0,0,1-.36,0,2.34,2.34,0,0,1-2-2.68c.25-1.62.55-3.21.9-4.78a2.38,2.38,0,0,1,2.81-1.78,2.36,2.36,0,0,1,1.79,2.81c-.33,1.47-.61,2.95-.85,4.47A2.35,2.35,0,0,1,2.74,152.67ZM578,150.35a2.35,2.35,0,0,1-2.28-1.8L574.64,144a2.35,2.35,0,1,1,4.57-1.11l1.11,4.57a2.37,2.37,0,0,1-1.73,2.85A2.74,2.74,0,0,1,578,150.35ZM8.06,134.7a2.31,2.31,0,0,1-1-.21,2.35,2.35,0,0,1-1.19-3.11q1-2.22,2.13-4.36a2.35,2.35,0,1,1,4.16,2.2q-1,2-2,4.09A2.35,2.35,0,0,1,8.06,134.7Zm565.52-2.64a2.36,2.36,0,0,1-2.28-1.8l-1.11-4.58a2.35,2.35,0,0,1,1.73-2.84,2.37,2.37,0,0,1,2.84,1.73l1.11,4.58a2.35,2.35,0,0,1-1.72,2.84A2.78,2.78,0,0,1,573.58,132.06Zm-2.87-11.78a2.36,2.36,0,0,1-2.33-2c-.2-1.5-.48-3-.81-4.42a2.35,2.35,0,0,1,4.59-1c.36,1.58.66,3.18.88,4.82a2.33,2.33,0,0,1-2,2.65A1.84,1.84,0,0,1,570.71,120.28ZM17.8,118.67a2.31,2.31,0,0,1-1.44-.5,2.35,2.35,0,0,1-.41-3.3c1-1.26,2-2.51,3.07-3.72a2.35,2.35,0,0,1,3.56,3.08q-1.51,1.74-2.92,3.54A2.36,2.36,0,0,1,17.8,118.67Zm13-13.62a2.35,2.35,0,0,1-1.55-4.12c1.2-1.05,2.43-2.09,3.67-3.1a2.35,2.35,0,0,1,3,3.65c-1.2,1-2.38,2-3.53,3A2.36,2.36,0,0,1,30.77,105.05ZM565,102.48a2.36,2.36,0,0,1-2.09-1.26c-.7-1.33-1.45-2.64-2.25-3.91a2.35,2.35,0,1,1,4-2.51Q565.9,96.87,567,99a2.35,2.35,0,0,1-2.08,3.45ZM45.77,93.65a2.35,2.35,0,0,1-1.31-4.31c1.33-.88,2.67-1.75,4-2.59a2.35,2.35,0,1,1,2.49,4q-2,1.23-3.9,2.52A2.38,2.38,0,0,1,45.77,93.65Zm508.09-6.29a2.32,2.32,0,0,1-1.69-.72c-1.06-1.1-2.14-2.16-3.27-3.21A2.35,2.35,0,1,1,552.11,80c1.18,1.1,2.34,2.23,3.45,3.38a2.35,2.35,0,0,1-.07,3.33A2.32,2.32,0,0,1,553.86,87.36ZM62,84.05a2.35,2.35,0,0,1-1.11-4.43c1.41-.75,2.81-1.48,4.22-2.2a2.35,2.35,0,0,1,2.13,4.2q-2.07,1-4.14,2.15A2.31,2.31,0,0,1,62,84.05Zm16.92-8.26a2.36,2.36,0,0,1-1-4.5q2.19-1,4.34-1.92a2.35,2.35,0,1,1,1.88,4.31c-1.42.62-2.84,1.25-4.28,1.9A2.39,2.39,0,0,1,78.88,75.79Zm460.59-.52a2.35,2.35,0,0,1-1.33-.42c-1.27-.87-2.54-1.72-3.85-2.54a2.36,2.36,0,0,1,2.52-4c1.36.86,2.69,1.74,4,2.65a2.36,2.36,0,0,1-1.35,4.29ZM96.23,68.43a2.35,2.35,0,0,1-.88-4.53l4.38-1.76a2.36,2.36,0,0,1,1.75,4.38l-4.37,1.74A2.26,2.26,0,0,1,96.23,68.43Zm427-2.68a2.35,2.35,0,0,1-1-.25c-1.39-.69-2.78-1.36-4.19-2a2.36,2.36,0,0,1,2-4.28q2.17,1,4.32,2.07a2.35,2.35,0,0,1-1,4.46ZM113.74,61.49a2.35,2.35,0,0,1-.87-4.54l4.39-1.72A2.35,2.35,0,1,1,119,59.61l-4.37,1.72A2.38,2.38,0,0,1,113.74,61.49Zm392.2-3.16a2.32,2.32,0,0,1-.81-.15c-1.47-.54-2.93-1.06-4.38-1.55a2.35,2.35,0,1,1,1.51-4.45q2.24.75,4.5,1.58a2.36,2.36,0,0,1-.82,4.57ZM131.31,54.75a2.35,2.35,0,0,1-.82-4.56l4.43-1.63A2.35,2.35,0,0,1,136.53,53l-4.4,1.62A2.16,2.16,0,0,1,131.31,54.75Zm356.65-2a2.31,2.31,0,0,1-.52-.06l-.31-.09a2.32,2.32,0,0,1-1.48-1.48c-.33-1-.7-1.92-1.13-2.86L484,47a2.35,2.35,0,1,1,4.33-1.85l.52,1.27c.4.9.8,1.89,1.15,2.91A2.34,2.34,0,0,1,488,52.72ZM149,48.38a2.35,2.35,0,0,1-.77-4.57l4.45-1.54a2.35,2.35,0,0,1,1.53,4.45l-4.44,1.53A2.35,2.35,0,0,1,149,48.38Zm17.84-6a2.35,2.35,0,0,1-.73-4.59l4.49-1.45a2.36,2.36,0,0,1,1.43,4.49l-4.46,1.43A2.37,2.37,0,0,1,166.86,42.39Zm18-5.62a2.35,2.35,0,0,1-.67-4.6l4.52-1.35A2.36,2.36,0,0,1,190,35.34l-4.5,1.33A2.29,2.29,0,0,1,184.82,36.77Zm294.12-.41a2.34,2.34,0,0,1-1.84-.88q-1.41-1.77-3-3.39a2.36,2.36,0,0,1,3.41-3.25c1.13,1.18,2.2,2.42,3.23,3.7a2.35,2.35,0,0,1-.36,3.31A2.41,2.41,0,0,1,478.94,36.36Zm-276-4.81a2.35,2.35,0,0,1-.62-4.62l4.55-1.24a2.35,2.35,0,1,1,1.22,4.54l-4.52,1.24A2.72,2.72,0,0,1,202.9,31.55Zm18.19-4.82a2.35,2.35,0,0,1-.57-4.63L225.1,21a2.35,2.35,0,0,1,1.12,4.57l-4.55,1.13A2.3,2.3,0,0,1,221.09,26.73Zm244-3a2.33,2.33,0,0,1-1.32-.41c-1.26-.85-2.55-1.67-3.85-2.44a2.35,2.35,0,0,1,2.4-4.05c1.38.82,2.75,1.69,4.09,2.6a2.35,2.35,0,0,1-1.32,4.3ZM239.39,22.34a2.35,2.35,0,0,1-.52-4.65l4.6-1a2.35,2.35,0,0,1,1,4.59l-4.56,1A2.39,2.39,0,0,1,239.39,22.34Zm18.38-4a2.35,2.35,0,0,1-.46-4.66l4.62-.92a2.35,2.35,0,1,1,.9,4.61l-4.59.92A2.42,2.42,0,0,1,257.77,18.38ZM448.42,15a2.32,2.32,0,0,1-.89-.18c-1.43-.58-2.87-1.14-4.31-1.66a2.35,2.35,0,1,1,1.61-4.42c1.49.54,3,1.12,4.48,1.72a2.36,2.36,0,0,1-.89,4.54Zm-172.18-.12a2.35,2.35,0,0,1-.41-4.67l4.65-.81a2.35,2.35,0,0,1,.79,4.64l-4.62.8A2.85,2.85,0,0,1,276.24,14.87Zm18.56-3a2.35,2.35,0,0,1-.35-4.68l4.66-.69a2.35,2.35,0,1,1,.67,4.66l-4.63.68ZM313.43,9.3a2.35,2.35,0,0,1-.28-4.68l4.68-.56a2.33,2.33,0,0,1,2.6,2.07,2.36,2.36,0,0,1-2.07,2.61l-4.64.55ZM430.5,9.22a2.22,2.22,0,0,1-.57-.07c-1.53-.38-3-.73-4.52-1a2.35,2.35,0,0,1,1-4.6c1.52.32,3.08.68,4.66,1.07a2.35,2.35,0,0,1-.56,4.64ZM332.13,7.3a2.35,2.35,0,0,1-.22-4.7l4.69-.42a2.35,2.35,0,1,1,.4,4.69l-4.66.42Zm18.74-1.46a2.35,2.35,0,0,1-.14-4.7l4.7-.28a2.35,2.35,0,0,1,.26,4.7L351,5.83Zm61.09,0-.29,0c-1.71-.21-3.26-.37-4.62-.51a2.35,2.35,0,0,1-2.12-2.56A2.32,2.32,0,0,1,407.5.6c1.4.13,3,.3,4.75.52A2.35,2.35,0,0,1,412,5.81ZM369.65,5a2.36,2.36,0,0,1-.07-4.71l4.71-.12a2.27,2.27,0,0,1,2.41,2.3,2.35,2.35,0,0,1-2.3,2.4L369.72,5Zm23.51-.23h0l-4.68,0a2.36,2.36,0,1,1,0-4.71h0l4.73,0a2.36,2.36,0,0,1,0,4.71Z"/><path class="cls-5" d="M447.54,586.5a2.07,2.07,0,0,1-2.57-1.4,4.46,4.46,0,0,1-.65-1.29q-9.26-38.59-18.47-77.19a2.12,2.12,0,0,0-2.5-1.58,2.18,2.18,0,0,0-.23.09,596.69,596.69,0,0,1-83.55,27.4c-42.48,10.42-83.11,14.78-120.77,13-41.54-2-90.79-10.7-102.9-61.17q-14.16-59-28.15-118C72.25,301.13,56.22,233.71,40,167.49a1.8,1.8,0,0,0-.27-.62,14.86,14.86,0,0,1-2.18-10.6c4.27-30.74,52.11-49.62,80.7-60.91l5.31-2.1a842.23,842.23,0,0,1,111.59-36C293.61,43,349.35,36.45,400.84,37.9,420.08,39,449.37,47,454.09,61.06a4.92,4.92,0,0,0,.3.61l4.35,18a2,2,0,0,0,1.81,1.53c21.4,1.45,74.28,18.46,75.31,43.43a2.42,2.42,0,0,0,.13.65c0,.09.21.44.27.52C550.79,185.26,565.2,246,579.15,304.65q10.25,43.1,20.53,86.19c1.58,6.61,3.45,13.32,5.26,19.82,9,32.39,17.55,63-3.3,91.47-31.87,43.57-92.82,66.28-153.94,84.33Z"/><path class="cls-6" d="M284.33,113.66c17.5-7.88,20-23.27-1.56-25.54a173.75,173.75,0,0,0-76.66,17.6c-19.25,9.48-16.25,24.91,5.56,24.95C235.86,130.7,262.43,123.53,284.33,113.66Zm-73.62.29c7.66-4.3,16.26-6.83,24.64-9.29,15.17-4.46,31.34-7.31,47.16-7.13,13.15,1.39,1,6-2.77,7.91-6.81,3.45-14.33,5.56-21.63,7.7a211,211,0,0,1-43.2,8C205.82,121.8,199.24,120.36,210.71,114Z"/><path class="cls-6" d="M537.86,124.57C536.78,98.15,483,80.73,460.69,79.22c-1.46-6-2.9-12.06-4.36-18.08a5.3,5.3,0,0,0-.34-.72c-5.42-16.14-38-23.51-55.09-24.53-93.16-2.6-192.06,21.14-278,55.51C95.76,102.23,40.33,122,35.61,156a16.82,16.82,0,0,0,2.49,12C63.87,273.47,88.6,379.23,114,484.83c12,49.81,58.47,60.51,104.76,62.7C288,550.82,360,533.1,423.87,507q9.24,38.67,18.51,77.31a4.61,4.61,0,0,0,.75,1.61,4.06,4.06,0,0,0,5.14,2.49c53.05-15.67,120.74-38.25,155-85.07,25.82-35.31,7.57-74.48-1.64-112.93C580.48,302,559.74,213.49,538.16,125.2A4.07,4.07,0,0,0,537.86,124.57Zm-14.71-11.14c22.19,20.62-30.22,46.32-41.75,52.19Q472.24,127.25,463,88.9C484.2,90.78,507.62,99,523.15,113.43ZM72.47,127c31-20.11,66.84-32.92,101.82-44.12C246,60,325,43.19,400.63,45.31,424,46.69,465,55.55,433.94,83.5c-9.14,8.24-20.4,14.23-31.25,19.85-29,15-60.66,25.17-91.92,34.4-63.55,18.76-130.41,32.94-196.66,36.78A221.8,221.8,0,0,1,83,174.34c-11-.92-32.78-3.24-37.7-15.94C40.55,146.26,65.26,131.72,72.47,127ZM219,538.12c-15.66-.44-32.67-2.08-48.38-6.85a2.16,2.16,0,0,0,1.23-2.56l-1.62-6.61c-.72-2.94-5.29-1.83-4.57,1.12l1.62,6.61a1.72,1.72,0,0,0,.21.43c-10.44-3.5-20.22-8.47-28.51-15.55-16.22-13.83-18-40.8-22.63-60.35C94.2,362,72.47,269.44,50,177.1c9.39,4.16,22,6,33.5,6.76a2.07,2.07,0,0,0-.52,2c.53,2.21,1.08,4.41,1.61,6.61.73,2.95,5.3,1.83,4.58-1.12-.55-2.21-1.08-4.4-1.63-6.61a2.63,2.63,0,0,0-.32-.7c9.35.44,17.68.23,22.59.06,84.4-3,172-24.29,251.15-52.87,30.18-10.9,63-23.79,85.82-47.14A49.25,49.25,0,0,0,451,79.24q11,45.24,21.72,90.55c-36.67,17.46-76.51,28.89-115.65,39a4.34,4.34,0,0,0-3.39,4.35,4.64,4.64,0,0,0,.07,2.05c23,94.11,45.43,188.36,67.93,282.59C358.13,524.06,287.93,540.06,219,538.12Zm387.3-59.43C598.42,506,567.7,525.29,545,538.75c-29.37,17.37-61.86,29.31-94.45,39.12C421.62,457.51,393.2,337,363.82,216.78c54.24-13.95,122.43-30.46,163.29-70.42a47.51,47.51,0,0,0,5.08-5.83c17.87,73.42,35.18,147,52.74,220.51q7.17,30,14.37,60C603.76,439.68,611.74,459.69,606.28,478.69Z"/><path class="cls-6" d="M409.06,125.11c-.55-2.2-1.08-4.41-1.63-6.61-.72-3-5.29-1.83-4.56,1.12.53,2.2,1.08,4.41,1.61,6.6C405.2,129.17,409.78,128.05,409.06,125.11Z"/><path class="cls-6" d="M413.65,143.85c-.54-2.2-1.08-4.41-1.63-6.61-.72-3-5.29-1.83-4.56,1.12.53,2.2,1.08,4.41,1.62,6.61C409.8,147.92,414.37,146.8,413.65,143.85Z"/><path class="cls-6" d="M418.24,162.59l-1.62-6.6c-.72-3-5.29-1.83-4.57,1.12l1.62,6.6C414.39,166.66,419,165.54,418.24,162.59Z"/><path class="cls-6" d="M422.83,181.33l-1.62-6.61c-.72-2.94-5.29-1.82-4.57,1.12l1.62,6.61C419,185.4,423.55,184.28,422.83,181.33Z"/><path class="cls-6" d="M87.57,204.63l1.62,6.62c.72,2.94,5.29,1.83,4.57-1.12l-1.62-6.62C91.41,200.56,86.85,201.68,87.57,204.63Z"/><path class="cls-6" d="M92.16,223.37,93.78,230c.72,2.94,5.29,1.82,4.57-1.12l-1.62-6.62C96,219.31,91.44,220.43,92.16,223.37Z"/><path class="cls-6" d="M96.75,242.12l1.62,6.61c.72,2.94,5.3,1.82,4.57-1.12L101.32,241C100.6,238.05,96,239.16,96.75,242.12Z"/><path class="cls-6" d="M101.34,260.85c.55,2.21,1.08,4.41,1.63,6.62.72,2.94,5.29,1.83,4.56-1.12-.53-2.21-1.08-4.41-1.61-6.62C105.2,256.79,100.62,257.91,101.34,260.85Z"/><path class="cls-6" d="M105.94,279.59l1.62,6.62c.72,3,5.29,1.83,4.57-1.12l-1.62-6.62C109.79,275.53,105.21,276.65,105.94,279.59Z"/><path class="cls-6" d="M110.53,298.34l1.62,6.61c.72,2.94,5.29,1.82,4.57-1.12l-1.62-6.61C114.38,294.27,109.81,295.39,110.53,298.34Z"/><path class="cls-6" d="M115.12,317.07l1.62,6.62c.73,2.94,5.3,1.83,4.57-1.12L119.69,316C119,313,114.4,314.13,115.12,317.07Z"/><path class="cls-6" d="M119.71,335.82c.55,2.2,1.08,4.41,1.63,6.61.72,2.94,5.29,1.82,4.57-1.12-.54-2.2-1.09-4.41-1.62-6.62C123.56,331.74,119,332.87,119.71,335.82Z"/><path class="cls-6" d="M124.31,354.56l1.62,6.61c.72,2.95,5.29,1.82,4.57-1.12l-1.62-6.62C128.16,350.49,123.59,351.62,124.31,354.56Z"/><path class="cls-6" d="M128.9,373.3l1.62,6.61c.72,2.95,5.3,1.83,4.57-1.12l-1.62-6.61C132.75,369.23,128.18,370.36,128.9,373.3Z"/><path class="cls-6" d="M133.49,392c.54,2.2,1.09,4.41,1.62,6.62.72,2.94,5.3,1.82,4.58-1.13-.55-2.2-1.08-4.41-1.63-6.61C137.34,388,132.77,389.09,133.49,392Z"/><path class="cls-6" d="M138.09,410.78c.53,2.2,1.08,4.4,1.61,6.61.73,2.95,5.3,1.83,4.58-1.12-.55-2.21-1.08-4.41-1.63-6.61C141.93,406.72,137.36,407.83,138.09,410.78Z"/><path class="cls-6" d="M142.68,429.52l1.62,6.61c.72,2.95,5.29,1.83,4.57-1.11l-1.62-6.62C146.53,425.45,142,426.57,142.68,429.52Z"/><path class="cls-6" d="M147.27,448.26l1.62,6.62c.72,2.94,5.29,1.82,4.57-1.12l-1.62-6.62C151.12,444.19,146.55,445.31,147.27,448.26Z"/><path class="cls-6" d="M151.86,467c.55,2.21,1.08,4.4,1.62,6.61.73,2.95,5.3,1.83,4.57-1.12q-.81-3.32-1.61-6.61C155.71,462.94,151.14,464.05,151.86,467Z"/><path class="cls-6" d="M156.45,485.74c.55,2.21,1.08,4.4,1.63,6.61.72,2.94,5.29,1.83,4.56-1.12-.53-2.21-1.07-4.4-1.61-6.61C160.31,481.67,155.73,482.79,156.45,485.74Z"/><path class="cls-6" d="M161.05,504.47l1.62,6.63c.72,2.94,5.29,1.82,4.57-1.12l-1.62-6.63C164.9,500.41,160.32,501.53,161.05,504.47Z"/><path class="cls-6" d="M81.93,129.86c44.31-23.64,93.41-38.5,141.9-50.85C273.69,66.3,325,57.18,376.42,54.59a.78.78,0,0,0,0-1.55c-50.32-2.29-101.6,9-150.07,21.48-49.71,12.81-100.08,29.14-145.08,54.21A.64.64,0,0,0,81.93,129.86Z"/><path class="cls-6" d="M383.79,102.76c-34.54,13-70.2,23-105.79,32.68-31.77,8.65-64,17.64-96.47,23.41-.51.1-.42,1,.09.9,31.85-3.39,63.32-11.73,94.24-19.79,36.44-9.51,74.46-19.32,108.31-36.25C384.68,103.45,384.35,102.55,383.79,102.76Z"/><path class="cls-6" d="M169.41,160.91a.37.37,0,0,0,.17.69c2.35-.11,6,.26,7.91-1.27a.48.48,0,0,0-.08-.75C175.11,158.3,171.62,160,169.41,160.91Z"/><path class="cls-6" d="M404.18,491.53c-54.48,15-110.08,31.34-166.61,36.4-.53.05-.58.86,0,.84,27.54-.69,54.83-4.86,81.75-10.48,28.57-6,59.15-12.14,85.47-25.26A.82.82,0,0,0,404.18,491.53Z"/></g></g></g></svg>